<svg fill="none" height="40" viewBox="0 0 40 40" width="40" xmlns="http://www.w3.org/2000/svg"><g stroke="#fff" stroke-linecap="round" stroke-linejoin="round" stroke-width="2.3285"><path d="m33.125 20c1.7259 0 3.125-1.3991 3.125-3.125s-1.3991-3.125-3.125-3.125-3.125 1.3991-3.125 3.125 1.3991 3.125 3.125 3.125z"/><path d="m6.875 20c1.72589 0 3.125-1.3991 3.125-3.125s-1.39911-3.125-3.125-3.125-3.125 1.3991-3.125 3.125 1.39911 3.125 3.125 3.125z"/><path d="m14.375 12.5c1.7259 0 3.125-1.3991 3.125-3.125 0-1.72589-1.3991-3.125-3.125-3.125s-3.125 1.39911-3.125 3.125c0 1.7259 1.3991 3.125 3.125 3.125z"/><path d="m25.625 12.5c1.7259 0 3.125-1.3991 3.125-3.125 0-1.72589-1.3991-3.125-3.125-3.125s-3.125 1.39911-3.125 3.125c0 1.7259 1.3991 3.125 3.125 3.125z"/><path d="m28.625 24.3597c-1.5663-.8772-2.723-2.3372-3.2188-4.0625-.3371-1.1735-1.0469-2.2054-2.0222-2.9399s-2.1631-1.1317-3.384-1.1317-2.4087.3972-3.384 1.1317-1.6851 1.7664-2.0223 2.9399c-.4957 1.7253-1.6524 3.1853-3.2187 4.0625-.9746.5309-1.74477 1.371-2.18929 2.3879-.44453 1.0169-.5381 2.1528-.26599 3.2287s.89445 2.0307 1.76898 2.714c.8745.6833 1.9515 1.0562 3.0613 1.06.6705.0004 1.3344-.1324 1.9531-.3906 1.3622-.5648 2.8223-.8555 4.2969-.8555s2.9347.2907 4.2969.8555c.6187.2582 1.2826.391 1.9531.3906 1.1098-.0038 2.1868-.3767 3.0613-1.06s1.4968-1.6381 1.769-2.714c.2721-1.0759.1785-2.2118-.266-3.2287-.4446-1.0169-1.2148-1.857-2.1893-2.3879z"/></g></svg>