<svg width="64" height="64" viewBox="0 0 64 64" fill="none" xmlns="http://www.w3.org/2000/svg">
<rect width="64" height="64" rx="19.7923" fill="#275FC4"/>
<path d="M45.125 32C46.8509 32 48.25 30.6009 48.25 28.875C48.25 27.1491 46.8509 25.75 45.125 25.75C43.3991 25.75 42 27.1491 42 28.875C42 30.6009 43.3991 32 45.125 32Z" stroke="white" stroke-width="2.3285" stroke-linecap="round" stroke-linejoin="round"/>
<path d="M18.875 32C20.6009 32 22 30.6009 22 28.875C22 27.1491 20.6009 25.75 18.875 25.75C17.1491 25.75 15.75 27.1491 15.75 28.875C15.75 30.6009 17.1491 32 18.875 32Z" stroke="white" stroke-width="2.3285" stroke-linecap="round" stroke-linejoin="round"/>
<path d="M26.375 24.5C28.1009 24.5 29.5 23.1009 29.5 21.375C29.5 19.6491 28.1009 18.25 26.375 18.25C24.6491 18.25 23.25 19.6491 23.25 21.375C23.25 23.1009 24.6491 24.5 26.375 24.5Z" stroke="white" stroke-width="2.3285" stroke-linecap="round" stroke-linejoin="round"/>
<path d="M37.625 24.5C39.3509 24.5 40.75 23.1009 40.75 21.375C40.75 19.6491 39.3509 18.25 37.625 18.25C35.8991 18.25 34.5 19.6491 34.5 21.375C34.5 23.1009 35.8991 24.5 37.625 24.5Z" stroke="white" stroke-width="2.3285" stroke-linecap="round" stroke-linejoin="round"/>
<path d="M40.625 36.3597C39.0587 35.4825 37.902 34.0225 37.4062 32.2972C37.0691 31.1237 36.3593 30.0918 35.384 29.3573C34.4087 28.6228 33.2209 28.2256 32 28.2256C30.7791 28.2256 29.5913 28.6228 28.616 29.3573C27.6407 30.0918 26.9309 31.1237 26.5937 32.2972C26.098 34.0225 24.9413 35.4825 23.375 36.3597C22.4004 36.8906 21.6302 37.7307 21.1857 38.7476C20.7412 39.7645 20.6476 40.9004 20.9197 41.9763C21.1918 43.0522 21.8142 44.007 22.6887 44.6903C23.5632 45.3736 24.6402 45.7465 25.75 45.7503C26.4205 45.7507 27.0844 45.6179 27.7031 45.3597C29.0653 44.7949 30.5254 44.5042 32 44.5042C33.4746 44.5042 34.9347 44.7949 36.2969 45.3597C36.9156 45.6179 37.5795 45.7507 38.25 45.7503C39.3598 45.7465 40.4368 45.3736 41.3113 44.6903C42.1858 44.007 42.8081 43.0522 43.0803 41.9763C43.3524 40.9004 43.2588 39.7645 42.8143 38.7476C42.3697 37.7307 41.5995 36.8906 40.625 36.3597Z" stroke="white" stroke-width="2.3285" stroke-linecap="round" stroke-linejoin="round"/>
</svg>
