<svg width="257" height="107" viewBox="0 0 257 107" fill="none" xmlns="http://www.w3.org/2000/svg">
<rect x="23" y="36.0273" width="15" height="3" rx="1.5" transform="rotate(-37 23 36.0273)" fill="#FF9255"/>
<rect x="244" y="63.6064" width="15" height="3" rx="1.5" transform="rotate(-45 244 63.6064)" fill="#FF9255"/>
<rect x="89.623" width="6" height="6" transform="rotate(42 89.623 0)" fill="#275FC4"/>
<rect x="5.63818" y="98.3916" width="6" height="6" transform="rotate(70 5.63818 98.3916)" fill="#275FC4"/>
<rect x="130.638" y="46.3916" width="6" height="6" transform="rotate(70 130.638 46.3916)" fill="#FF9255"/>
<rect x="205.77" y="42.4863" width="10" height="2" rx="1" transform="rotate(138 205.77 42.4863)" fill="#275FC4"/>
<rect x="71.6157" y="69.6689" width="10" height="2" rx="1" transform="rotate(-149 71.6157 69.6689)" fill="#275FC4"/>
<circle cx="160" cy="17" r="3" fill="#FF9255"/>
<circle cx="201" cy="96" r="2" fill="#FF9255"/>
</svg>
