<svg fill="none" height="32" viewBox="0 0 32 32" width="32" xmlns="http://www.w3.org/2000/svg" xmlns:xlink="http://www.w3.org/1999/xlink"><clipPath id="a"><path d="m0 0h32v32h-32z"/></clipPath><g clip-path="url(#a)"><path d="m20 24s-1.7909 4-4 4-4-4-4-4 1.7909.0001 4 .0001 4-.0001 4-.0001z" fill="#e8e9f1"/><g stroke="#8f9098" stroke-linecap="round" stroke-linejoin="round" stroke-width="1.5"><path d="m12 24c0 1.0609.4214 2.0783 1.1716 2.8284.7501.7502 1.7675 1.1716 2.8284 1.1716s2.0783-.4214 2.8284-1.1716c.7502-.7501 1.1716-1.7675 1.1716-2.8284"/><path d="m23 3c1.9311 1.23215 3.4973 2.9585 4.5362 5"/><path d="m4.46387 8c1.03896-2.0415 2.60519-3.76785 4.53625-5"/><path d="m6.99984 14c0-2.3869.94822-4.67613 2.63604-6.36396s3.97702-2.63604 6.36392-2.63604c2.387 0 4.6762.94821 6.364 2.63604s2.636 3.97706 2.636 6.36396c0 4.4775 1.0375 7.075 1.8625 8.5.0877.1518.1339.3239.134.4991.0002.1753-.0457.3475-.1331.4994-.0873.1519-.2131.2782-.3646.3662s-.3235.1347-.4988.1353h-19.99996c-.17502-.0011-.3467-.048-.49789-.1362-.15118-.0882-.27656-.2146-.36362-.3664s-.13274-.3239-.13247-.4989.04647-.3469.13398-.4985c.82375-1.425 1.86-4.0237 1.86-8.5z"/></g></g></svg>