<svg fill="none" height="10" viewBox="0 0 10 10" width="10" xmlns="http://www.w3.org/2000/svg"><path clip-rule="evenodd" d="m6.65885.464844c.16985 0 .30769.137845.30769.307691l.00019.347815c.59901.04107 1.09652.24625 1.44863.59909.38441.38605.58666.94113.58462 1.60697v3.74276c0 1.36697-.86811 2.21619-2.26503 2.21619h-3.46993c-1.39692 0-2.26502-.86112-2.26502-2.24737v-3.7124c0-1.28935.77417-2.11698 2.03679-2.2051l.00025-.347955c0-.169846.13784-.307691.30769-.307691s.30769.137845.30769.307691l-.00012.340105h2.69865l.00021-.340105c0-.169846.13784-.307691.30769-.307691zm1.72574 3.652906h-6.76921v2.92024c0 1.05271.58585 1.63199 1.64964 1.63199h3.46993c1.06379 0 1.64965-.56861 1.64965-1.60081zm-1.55848 2.58145c.16985 0 .30769.13785.30769.30769 0 .16985-.13784.30769-.30769.30769-.16984 0-.30933-.13784-.30933-.30769 0-.16984.13579-.30769.30564-.30769zm-1.82051 0c.16985 0 .3077.13785.3077.30769 0 .16985-.13785.30769-.3077.30769-.16984 0-.30933-.13784-.30933-.30769 0-.16984.1358-.30769.30564-.30769zm-1.82432 0c.16985 0 .3077.13785.3077.30769 0 .16985-.13785.30769-.3077.30769-.16984 0-.30974-.13784-.30974-.30769 0-.16984.13621-.30769.30605-.30769zm3.64483-1.59454c.16985 0 .30769.13785.30769.30769 0 .16985-.13784.30769-.30769.30769-.16984 0-.30933-.13784-.30933-.30769 0-.16984.13579-.30769.30564-.30769zm-1.82051 0c.16985 0 .3077.13785.3077.30769 0 .16985-.13785.30769-.3077.30769-.16984 0-.30933-.13784-.30933-.30769 0-.16984.1358-.30769.30564-.30769zm-1.82432 0c.16985 0 .3077.13785.3077.30769 0 .16985-.13785.30769-.3077.30769-.16984 0-.30974-.13784-.30974-.30769 0-.16984.13621-.30769.30605-.30769zm3.16967-3.37664h-2.69865l.00012.39466c0 .16985-.13784.30769-.30769.30769s-.30769-.13784-.30769-.30769l-.00022-.38535c-.91907.07721-1.42144.63432-1.42144 1.58826v.17678h6.76921l.00001-.17678c.00163-.50666-.13458-.90051-.40493-1.17128-.23733-.23802-.58427-.38018-1.01278-.41678l-.00035.38515c0 .16985-.13784.30769-.30769.30769s-.30769-.13784-.30769-.30769z" fill="#464d61" fill-opacity=".8" fill-rule="evenodd"/></svg>