<svg fill="none" height="32" viewBox="0 0 32 32" width="32" xmlns="http://www.w3.org/2000/svg" xmlns:xlink="http://www.w3.org/1999/xlink"><clipPath id="a"><path d="m0 0h32v32h-32z"/></clipPath><g clip-path="url(#a)"><path d="m16 24v4" stroke="#8f9098" stroke-linecap="round" stroke-linejoin="round" stroke-width="1.5"/><path d="m10.5 19c.8284 0 1.5-.6716 1.5-1.5s-.6716-1.5-1.5-1.5c-.82843 0-1.5.6716-1.5 1.5s.67157 1.5 1.5 1.5z" fill="#8f9098"/><path d="m21.5 19c.8284 0 1.5-.6716 1.5-1.5s-.6716-1.5-1.5-1.5-1.5.6716-1.5 1.5.6716 1.5 1.5 1.5z" fill="#8f9098"/><g stroke="#8f9098" stroke-linecap="round" stroke-linejoin="round" stroke-width="1.5"><path d="m16 6v5"/><path d="m18 22-2 2-2-2"/><path d="m12 6.62646v4.37374"/><path d="m20 6.62646v4.37374"/><path d="m8.45 8.44981c2.1953-1.59237 4.838-2.44986 7.55-2.44986s5.3547.85749 7.55 2.44986l2.7425-3.155c.1397-.13986.3177-.23518.5116-.27391.1938-.03873.3948-.01913.5775.05631.1828.07544.339.20335.4491.36756.11.16421.169.35736.1693.55504v10.99999c0 6.075-5.375 11-12 11s-12-4.925-12-11v-10.99999c-.00016-.19789.05841-.39139.16828-.55598.10987-.1646.26611-.29289.44893-.36864s.38401-.09556.5781-.05691c.19408.03865.37233.13402.51219.27403z"/></g></g></svg>