<svg fill="none" height="24" viewBox="0 0 24 24" width="24" xmlns="http://www.w3.org/2000/svg"><g stroke="#464d61" stroke-opacity=".7" stroke-width="1.5"><path d="m3 1.75h6c.69036 0 1.25.55964 1.25 1.25v8c0 .6904-.55964 1.25-1.25 1.25h-6c-.69036 0-1.25-.5596-1.25-1.25v-8c0-.69036.55964-1.25 1.25-1.25z"/><path d="m15 1.75h6c.6904 0 1.25.55964 1.25 1.25v4c0 .69036-.5596 1.25-1.25 1.25h-6c-.6904 0-1.25-.55964-1.25-1.25v-4c0-.69036.5596-1.25 1.25-1.25z"/><path d="m3 15.75h6c.69036 0 1.25.5596 1.25 1.25v4c0 .6904-.55964 1.25-1.25 1.25h-6c-.69036 0-1.25-.5596-1.25-1.25v-4c0-.6904.55964-1.25 1.25-1.25z"/><path d="m15 11.75h6c.6904 0 1.25.5596 1.25 1.25v8c0 .6904-.5596 1.25-1.25 1.25h-6c-.6904 0-1.25-.5596-1.25-1.25v-8c0-.6904.5596-1.25 1.25-1.25z"/></g></svg>