<svg fill="none" height="24" viewBox="0 0 24 24" width="24" xmlns="http://www.w3.org/2000/svg"><path clip-rule="evenodd" d="m12.2882 4.00482-.2862-.00482c-4.14092 0-7.87274 2.92308-9.94109 7.7058-.08121.1878-.08121.4006 0 .5884l.14333.3226c2.04214 4.4763 5.5712 7.2476 9.50756 7.3784l.2862.0048c4.1409 0 7.8727-2.9231 9.9411-7.7058.0822-.1902.0811-.4058-.003-.5952l-.1393-.3134c-2.0471-4.48469-5.5776-7.25013-9.5086-7.38078zm-.2792 1.4846.2389.00514.267.01389c3.1973.22639 6.1376 2.59708 7.9141 6.49065l-.0093.024c-1.821 3.9774-4.8628 6.3622-8.1608 6.4819l-.2549.0038-.2571-.0034-.2663-.0139c-3.09789-.2194-5.95423-2.4571-7.74146-6.1318l-.16914-.3606.15658-.3329c1.88459-3.89305 4.9649-6.17593 8.28242-6.17678zm-.0095 2.62404c-2.1604 0-3.911 1.73967-3.911 3.88674 0 2.1463 1.75079 3.8857 3.911 3.8857 2.1603 0 3.912-1.7396 3.912-3.8857 0-2.14695-1.7515-3.88674-3.912-3.88674zm0 1.49032c1.3322 0 2.412 1.07262 2.412 2.39642 0 1.3229-1.0799 2.3954-2.412 2.3954-1.3318 0-2.411-1.0722-2.411-2.3954 0-1.3241 1.0791-2.39642 2.411-2.39642z" fill="#200e32" fill-rule="evenodd"/></svg>