<svg fill="none" height="32" viewBox="0 0 32 32" width="32" xmlns="http://www.w3.org/2000/svg"><g stroke="#8f9098" stroke-linecap="round" stroke-linejoin="round" stroke-width="1.5"><path d="m26 5-20 22"/><path d="m12.6375 19.6998c.9176.8406 2.1181 1.3047 3.3625 1.3 1.0092-.0001 1.9947-.3056 2.827-.8763s1.4725-1.3799 1.8363-2.3212.4343-1.9706.2021-2.9528c-.2322-.9821-.7561-1.8709-1.5029-2.5497"/><path d="m22.75 8.5752c5.1 2.575 7.25 7.425 7.25 7.425s-4 9-14 9c-2.3432.0191-4.6572-.5208-6.75-1.575"/><path d="m5.9249 21.1375c-2.725-2.4375-3.925-5.1375-3.925-5.1375s4-8.99997 14-8.99997c.8669-.00171 1.7325.06937 2.5875.2125"/><path d="m15.0625 11.0874c-1.0633.2015-2.0322.7433-2.7606 1.5438-.7283.8005-1.1765 1.8161-1.2769 2.8937"/></g></svg>