<svg fill="none" height="24" viewBox="0 0 24 24" width="24" xmlns="http://www.w3.org/2000/svg"><path clip-rule="evenodd" d="m20.4177 3.71619c-.2929-.28825-.7677-.28825-1.0606 0l-2.0878 2.05467c-1.6128-1.10796-3.4138-1.69543-5.2693-1.69543-2.05685 0-4.05255.71999-5.78144 2.06658-1.70802 1.32201-3.13159 3.2286-4.15712 5.56609-.0817.1862-.08193.3973-.00063.5837.88562 2.0304 2.07517 3.7337 3.49363 5.0081l-1.97137 1.9401-.07262.0828c-.21785.2889-.19365.699.07262.961.29289.2883.76777.2883 1.06066 0l15.77397-15.52378.0726-.08278c.2179-.28896.1937-.69901-.0726-.96105zm-13.80134 12.53861 2.13786-2.104c-.43163-.6252-.66822-1.3658-.66822-2.1496 0-2.13278 1.74771-3.8539 3.914-3.8539.7921 0 1.5527.23448 2.1867.65727l2.0025-1.97075c-1.3077-.84327-2.7327-1.28219-4.1892-1.28219-1.7097 0-3.38008.60261-4.85236 1.74933-1.40983 1.09121-2.61819 2.65976-3.53058 4.59944l-.04666.101.04535.0989c.79297 1.6945 1.81474 3.1035 3.00061 4.1545zm6.47714-6.3744c-.3317-.16628-.7059-.2569-1.0935-.2569-1.3376 0-2.414 1.06-2.414 2.3777 0 .3838.09071.7483.2608 1.0744zm2.0431 1.9354.1014.0111c.4076.0722.6787.4559.6054.8571-.2874 1.5727-1.5442 2.812-3.1412 3.0973-.4076.0728-.798-.1933-.8719-.5944-.074-.4011.1964-.7853.6039-.8581.981-.1752 1.7562-.9396 1.9328-1.9061.0673-.3677.4005-.6225.7696-.6069zm3.8604-3.50141c.3309-.24515.8011-.17987 1.0502.14582.7258.94893 1.3601 2.03829 1.8912 3.24699.0821.1868.0821.3987.0002.5855-2.0773 4.7362-5.8041 7.6318-9.9386 7.6318-.9412 0-1.8725-.1498-2.76943-.4444-.39291-.1291-.60513-.5472-.474-.9338.13113-.3867.55595-.5956.94886-.4665.74427.2444 1.51527.3685 2.29457.3685 3.3046 0 6.381-2.2619 8.2727-6.1185l.1557-.3284-.0529-.1168c-.3807-.8062-.811-1.5456-1.2857-2.21046l-.241-.32615c-.2491-.32568-.1828-.78844.1482-1.0336z" fill="#200e32" fill-rule="evenodd"/></svg>