<svg fill="none" height="26" viewBox="0 0 26 26" width="26" xmlns="http://www.w3.org/2000/svg"><path d="m1.80001 9h22.39999m-22.39999 8h22.39999m-11.8667-16c-2.2462 3.59948-3.43706 7.75715-3.43706 12 0 4.2428 1.19086 8.4005 3.43706 12m1.3334-24c2.2462 3.59948 3.437 7.75715 3.437 12 0 4.2428-1.1908 8.4005-3.437 12m11.3333-12c0 6.6274-5.3726 12-12 12-6.62742 0-12-5.3726-12-12 0-6.62742 5.37258-12 12-12 6.6274 0 12 5.37258 12 12z" stroke="#f9771d" stroke-linecap="round" stroke-linejoin="round" stroke-width="2"/></svg>