<svg fill="none" height="32" viewBox="0 0 32 32" width="32" xmlns="http://www.w3.org/2000/svg" xmlns:xlink="http://www.w3.org/1999/xlink"><clipPath id="a"><path d="m0 0h32v32h-32z"/></clipPath><g clip-path="url(#a)"><path d="m11 16h-7c0 8.8 7.8333 11.6667 11.5 12-3.6-4-4.5-9.6667-4.5-12z" fill="#e8e9f1"/><path d="m21.5 16h7c0-8.8-7.8333-11.66667-11.5-12 3.6 4 4.5 9.6667 4.5 12z" fill="#e8e9f1"/><g stroke="#8f9098" stroke-linecap="round" stroke-linejoin="round" stroke-width="1.5"><path d="m16 28c6.6274 0 12-5.3726 12-12 0-6.62742-5.3726-12-12-12-6.62742 0-12 5.37258-12 12 0 6.6274 5.37258 12 12 12z"/><path d="m11 16.0002c0 4.6825 1.6662 8.865 4.285 11.6862.091.099.2015.1779.3246.232.123.054.256.0819.3904.0819s.2674-.0279.3904-.0819c.1231-.0541.2336-.133.3246-.232 2.6188-2.8212 4.285-7.0037 4.285-11.6862s-1.6662-8.86504-4.285-11.68629c-.091-.09895-.2015-.17794-.3246-.23198-.123-.05403-.256-.08193-.3904-.08193s-.2674.0279-.3904.08193c-.1231.05404-.2336.13303-.3246.23198-2.6188 2.82125-4.285 7.00379-4.285 11.68629z"/><path d="m4 16h24"/></g></g></svg>