<svg fill="none" height="32" viewBox="0 0 32 32" width="32" xmlns="http://www.w3.org/2000/svg"><path d="m19 26.0003v-6c0-.2652-.1054-.5196-.2929-.7071-.1875-.1876-.4419-.2929-.7071-.2929h-4c-.2652 0-.5196.1053-.7071.2929-.1875.1875-.2929.4419-.2929.7071v6c0 .2652-.1054.5195-.2929.7071-.1875.1875-.4419.2929-.7071.2929h-6c-.26522 0-.51957-.1054-.70711-.2929-.18753-.1876-.29289-.4419-.29289-.7071v-11.5625c.00224-.1384.03215-.275.08796-.4016.05582-.1267.13641-.2409.23704-.3359l10-9.08753c.1843-.16865.4251-.26218.675-.26218s.4907.09353.675.26218l10 9.08753c.1006.095.1812.2092.237.3359.0559.1266.0858.2632.088.4016v11.5625c0 .2652-.1054.5195-.2929.7071-.1875.1875-.4419.2929-.7071.2929h-6c-.2652 0-.5196-.1054-.7071-.2929-.1875-.1876-.2929-.4419-.2929-.7071z" fill="#e8e9f1" stroke="#8f9098" stroke-linecap="round" stroke-linejoin="round" stroke-width="1.5"/></svg>