<svg fill="none" height="164" viewBox="0 0 327 164" width="327" xmlns="http://www.w3.org/2000/svg" xmlns:xlink="http://www.w3.org/1999/xlink"><clipPath id="a"><path d="m0 0h327v164h-327z"/></clipPath><g clip-path="url(#a)"><path d="m198.527.841811c5.365-1.483289 11.102-.411822 16.122 1.752979 4.125 1.84409 8.133 4.13644 11.414 7.26702 5.215 5.02569 8.316 11.89549 9.605 18.93289 1.743 9.5156.513 19.4431-2.856 28.4777-.983 2.6422-1.776 5.3464-2.481 8.0761-3.365-5.0403-7.703-9.5084-12.922-12.6645 1.975-5.7473 4.037-11.5857 4.353-17.701.165-3.5643-.554-7.4383-3.12-10.0988-2.65-2.7187-5.483-5.3573-8.881-7.1212-2.544-1.323-5.579-1.8988-8.372-1.0606-3.615 1.0423-6.51 3.6445-8.965 6.3742-2.004 2.2595-3.726 4.8762-6.361 6.4798-1.075.6523-2.536 1.1371-3.684.3899-1.435-.9694-1.795-2.8317-1.931-4.4352-.279-5.1752 1.663-10.2592 4.635-14.4466 3.226-4.69407 7.81-8.74669 13.444-10.222689z" fill="#fbae16"/><path d="m116.718 55.0967c4.922-2.4564 10.856-3.4331 16.13-1.5125 4.474 1.5744 7.982 5.0257 10.61 8.856 1.736-.266 3.483-.4592 5.222-.7143 4.467 5.4266 7.564 11.8445 9.623 18.5247-1.233.9804-2.642 1.7603-3.736 2.9047-.539.4519.11 1.3229.712 1.2318 1.193-.7544 2.169-1.8186 3.454-2.4454.135.5393.275 1.0787.414 1.6181-1.625.769-3.409 1.3083-4.811 2.46-.209.5831.235 1.1808.87 1.0824 1.387-.6888 2.756-1.4068 4.187-2.0081 1.887 8.0469 1.101 16.3669 1.281 24.5489-13.994.011-27.988-.004-41.981.007 2.169-3.327 5.178-6.855 9.424-7.259.529.065 1.156-.576.742-1.061-.525-.853-1.685-.273-2.463-.189-4.265 1.184-7.314 4.818-9.443 8.495-1.864.025-3.725.003-5.589.014 2.168-3.331 5.174-6.851 9.42-7.259.878.12 1.179-1.174.331-1.444-1.531-.153-3.068.423-4.408 1.127-3.057 1.745-5.369 4.548-7.09 7.562-2.015.022-4.03.022-6.041-.004 3.277-5.303 8.826-9.217 15.032-10.2772-3.512-4.2348-6.059-9.7088-5.299-15.2994 2.583.8091 5.141 1.7749 7.472 3.1671.543-.226 1.174-.9039.514-1.4032-2.401-1.5306-5.131-2.4818-7.862-3.2654.162-.8018.334-1.5999.522-2.3944 2.396.9257 4.411 2.5949 6.433 4.1292.708.441 1.494-.7727.793-1.2319-1.964-1.8185-4.294-3.1925-6.654-4.4389 1.233-3.2253 3.222-6.1081 5.534-8.6628-1.273-3.1197-3.809-5.4958-6.543-7.3764-1.131-.8418-2.466-1.5088-3.211-2.7552 1.702-2.0737 4.048-3.5059 6.411-4.7268zm5.167 2.1903c-2.899.4264-5.736 1.5452-8.063 3.3237-.741.5066.221 1.6728.878 1.1662 2.451-1.6363 5.255-2.8645 8.228-3.0832 2.921-.2696 5.842.7216 8.166 2.4564.668.7981 1.838-.4519 1.053-1.0569-2.804-2.3324-6.65-3.3638-10.262-2.8062zm27.907 15.6966c-1.798.9075-2.08 3.3201-1.6 5.0731.268 1.1006 1.435 2.3616 2.654 1.7092 1.552-.9439 1.857-3.0394 1.519-4.6831-.213-1.1589-1.215-2.5511-2.573-2.0992zm-17.194 1.1517c-1.662.9366-1.978 3.2107-1.541 4.909.257 1.0751 1.248 2.3689 2.507 1.9134 1.743-.8273 2.025-3.1088 1.691-4.7961-.209-1.1881-1.295-2.5985-2.657-2.0263zm4.445 9.5411c.844.8965 1.835 1.6546 2.782 2.4418-.235 1.2537-.742 2.4782-1.597 3.4403-.642.0547-.712-.8054-1.108-1.1552-.51-.339-.91.1603-1.288.43.326 1.0387.939 2.2413 2.172 2.358 1.112-.1057 1.769-1.0788 2.327-1.9207.47 1.0241 1.035 2.5183 2.441 2.3471 1.31-.3244 1.864-1.6801 2.455-2.7407-.283-.3681-.774-.9985-1.296-.594-.513.6159-.829 1.3958-1.497 1.8769-.562-1.0642-.84-2.2377-1.02-3.4149 1.145-.9913 2.334-1.9425 3.38-3.0394.521-.6014-.209-1.4797-.91-1.3849-1.971-.0292-3.942-.0802-5.913-.0438-.668-.0619-1.376.7982-.928 1.3995z" fill="#fbae16"/><path d="m263.226 80.9685c6.521.0109 13.039.0146 19.561 0-.073 11.8991-.154 23.7945-.238 35.6935-3.439-4.275-6.838-8.582-10.24-12.887-3.053 3.783-6.03 7.628-9.091 11.408.019-11.404 0-22.8074.008-34.2145zm8.518 7.0666c-1.681.4847-2.998 2.0518-3.105 3.7975-.077 1.3339-.077 2.675-.004 4.0089.118 2.1976 2.173 4.0854 4.401 3.9797 2.316.0765 4.411-2.0117 4.33-4.3114-.113-1.9133.441-4.0708-.741-5.7509-1.024-1.5562-3.101-2.2413-4.881-1.7238z" fill="#e2e8f0"/><path d="m272.093 90.2255c1.229-.5977 2.873.2515 3.053 1.5999.077 1.3303.074 2.6714.007 4.0016-.146 1.5598-2.227 2.3908-3.446 1.4214-1.288-.9002-.836-2.6204-.921-3.9433-.103-1.1553.088-2.5694 1.307-3.0796z" fill="#e2e8f0"/><g fill="#f9771d"><path d="m115.595 48.1577c2.661-.5211 5.384-.5284 8.085-.4847h76.333c6.125 0 12.207 1.7858 17.396 5.0111 5.219 3.1561 9.557 7.6242 12.922 12.6645 2.936 4.3587 5.076 9.1949 6.709 14.1732 17.26-.0364 34.528-.0364 51.788-.0036.987-.1385 1.05 1.4578.055 1.414-2.029.1167-4.066-.0036-6.096.0365-6.522.0145-13.04.0109-19.561 0-8.595.0036-17.194-.0073-25.789.0073.803 3.0868 1.457 6.221 1.79 9.399.474 3.7501.349 7.5403.367 11.312.004 5.678-.011 11.36.008 17.042-15.866-.015-31.735-.004-47.601-.004 0 14.687.008 29.374-.003 44.061 44.789-.021 89.578.037 134.367-.029.158.121.477.361.635.481v.762h-327v-.696c.165152-.135.491785-.408.656936-.547 47.886564.073 95.773164-.011 143.656064.044.044-14.694.007-29.389.018-44.08-34.421 0-68.8457.004-103.267 0-.0183-3.021-.0073-6.038-.0073-9.056 13.5571-.029 27.1179-.011 40.6786-.007.0331-5.081-.0624-10.161.0551-15.2377.5652-12.0886 4.6609-24.2282 12.6029-33.5289 5.4169-6.3668 12.8557-11.2649 21.2017-12.7337zm19.815 1.1371c2.84 1.2464 5.468 2.9374 7.894 4.858 8.011 6.4179 13.487 15.58 16.39 25.3071 4.239-2.358 9.006-3.8887 13.891-3.9688 5.12-.1167 10.24 1.3885 14.57 4.0817.852.3499.217 1.8186-.62 1.3594-3.068-1.7238-6.36-3.1597-9.88-3.6335-6-.9366-12.217.6159-17.392 3.6736-.158.6742.272 1.3922.363 2.0846 4.305-1.3557 8.908-1.9315 13.396-1.2682 5.303.7507 10.287 3.269 14.199 6.877.815.5212-.242 1.8696-.924 1.1991-2.397-2.0519-5.021-3.896-7.979-5.0512-5.81-2.3507-12.522-2.2924-18.372-.1349 1.112 4.8508 1.365 9.8546 1.332 14.8147.007 5.8966-.018 11.7936.011 17.6906 25.261-.037 50.522-.011 75.782-.015-.018-6.873.015-13.747-.018-20.6167-.066-5.2553-.851-10.4851-2.239-15.5508-7.277-.0693-14.562.0364-21.84-.0511-.91-.2405-.562-1.6217.319-1.5124 7.006-.0474 14.016.0036 21.022-.0255-2.899-9.0419-8.133-17.5517-15.781-23.3755-5.633-4.3259-12.691-6.9208-19.851-6.7932-21.426.0291-42.851-.0766-64.273.051zm-18.692 5.802c-2.363 1.2208-4.709 2.6531-6.411 4.7268.745 1.2464 2.08 1.9133 3.211 2.7552 2.734 1.8805 5.27 4.2567 6.543 7.3764-2.312 2.5547-4.301 5.4375-5.534 8.6628 2.36 1.2464 4.69 2.6204 6.654 4.4389.701.4592-.085 1.6728-.793 1.2319-2.022-1.5344-4.037-3.2035-6.433-4.1292-.188.7945-.36 1.5926-.522 2.3944 2.731.7836 5.461 1.7348 7.862 3.2654.66.4993.029 1.1772-.514 1.4031-2.331-1.3921-4.889-2.3579-7.472-3.167-.76 5.5906 1.787 11.0645 5.299 15.2994-6.206 1.0601-11.755 4.9751-15.032 10.2771 2.011.026 4.026.026 6.041.004 1.721-3.014 4.033-5.817 7.09-7.562 1.34-.704 2.877-1.28 4.408-1.126.848.269.547 1.563-.331 1.443-4.246.408-7.252 3.928-9.42 7.259 1.864-.01 3.725.011 5.589-.014 2.129-3.677 5.178-7.311 9.443-8.495.778-.084 1.938-.664 2.463.189.414.485-.213 1.126-.742 1.061-4.246.404-7.255 3.932-9.424 7.259 13.993-.01 27.987.004 41.981-.007-.18-8.182.606-16.5019-1.281-24.5488-1.431.6013-2.8 1.3193-4.187 2.0081-.635.0984-1.079-.4993-.87-1.0824 1.402-1.1517 3.186-1.6911 4.811-2.46-.139-.5394-.279-1.0788-.414-1.6182-1.285.6269-2.261 1.6911-3.454 2.4455-.602.0911-1.251-.7799-.712-1.2319 1.094-1.1443 2.503-1.9242 3.736-2.9046-2.059-6.6803-5.156-13.0981-9.623-18.5247-1.739.2551-3.486.4483-5.222.7143-2.628-3.8303-6.136-7.2816-10.61-8.856-5.274-1.9206-11.208-.9439-16.13 1.5125z"/><path d="m121.886 57.287c3.611-.5576 7.457.4738 10.261 2.8062.785.605-.385 1.8551-1.053 1.0569-2.324-1.7347-5.245-2.726-8.166-2.4563-2.973.2186-5.777 1.4468-8.228 3.0832-.657.5065-1.619-.6597-.878-1.1662 2.327-1.7785 5.164-2.8974 8.064-3.3238z"/><path d="m149.792 72.9837c1.358-.4519 2.36.9403 2.573 2.0992.338 1.6437.033 3.7392-1.519 4.6831-1.219.6524-2.386-.6086-2.654-1.7092-.48-1.753-.198-4.1656 1.6-5.0731z"/><path d="m132.598 74.1353c1.362-.5721 2.448.8383 2.657 2.0263.334 1.6874.052 3.9688-1.691 4.7961-1.259.4556-2.25-.8382-2.507-1.9133-.437-1.6983-.121-3.9724 1.541-4.9091z"/><path d="m137.043 83.6765c-.448-.6013.26-1.4614.928-1.3995 1.971-.0364 3.942.0146 5.913.0438.701-.0948 1.431.7835.91 1.3849-1.046 1.0969-2.235 2.0482-3.38 3.0394.18 1.1772.459 2.3507 1.02 3.4149.668-.4811.984-1.261 1.497-1.8769.522-.4045 1.013.2259 1.296.594-.591 1.0606-1.145 2.4163-2.455 2.7407-1.406.1713-1.971-1.323-2.441-2.3471-.558.8419-1.215 1.815-2.327 1.9207-1.233-.1167-1.846-1.3193-2.172-2.358.378-.2697.778-.769 1.288-.43.396.3498.466 1.2099 1.108 1.1553.855-.9622 1.362-2.1867 1.597-3.4404-.947-.7872-1.938-1.5452-2.782-2.4418z"/></g><path d="m135.41 49.2948c21.422-.1276 42.847-.0219 64.273-.0511 7.16-.1275 14.218 2.4673 19.851 6.7933 7.648 5.8238 12.882 14.3336 15.781 23.3755-7.006.0291-14.016-.0219-21.022.0255-.881-.1094-1.229 1.2719-.319 1.5124 7.278.0875 14.563-.0182 21.84.051 1.388 5.0658 2.173 10.2956 2.239 15.5509.033 6.8697 0 13.7427.018 20.6167-25.26.004-50.521-.022-75.782.014-.029-5.896-.004-11.793-.011-17.6896.033-4.9601-.22-9.964-1.332-14.8147 5.85-2.1575 12.562-2.2158 18.372.1348 2.958 1.1553 5.582 2.9994 7.979 5.0512.682.6706 1.739-.6778.924-1.199-3.912-3.608-8.896-6.1263-14.199-6.8771-4.488-.6632-9.091-.0874-13.396 1.2683-.091-.6924-.521-1.4104-.363-2.0846 5.175-3.0577 11.392-4.6102 17.392-3.6736 3.52.4738 6.812 1.9097 9.88 3.6335.837.4592 1.472-1.0095.62-1.3594-4.33-2.6932-9.45-4.1984-14.57-4.0818-4.885.0802-9.652 1.6109-13.891 3.9688-2.903-9.727-8.379-18.8891-16.39-25.307-2.426-1.9206-5.054-3.6116-7.894-4.858z" fill="#fff"/><path d="m271.744 88.0352c1.78-.5175 3.857.1677 4.881 1.7238 1.182 1.6801.628 3.8376.741 5.751.081 2.2996-2.014 4.3879-4.33 4.3114-2.228.1056-4.283-1.7822-4.401-3.9798-.073-1.3338-.073-2.675.004-4.0089.107-1.7457 1.424-3.3128 3.105-3.7975zm.349 2.1903c-1.219.5103-1.41 1.9243-1.307 3.0796.085 1.3229-.367 3.0431.921 3.9433 1.219.9694 3.3.1385 3.446-1.4214.066-1.3302.07-2.6713-.007-4.0016-.18-1.3484-1.824-2.1976-3.053-1.5999z" fill="#fff"/></g></svg>