<svg fill="none" height="351" viewBox="0 0 375 351" width="375" xmlns="http://www.w3.org/2000/svg" xmlns:xlink="http://www.w3.org/1999/xlink"><clipPath id="a"><path d="m-20 39h415v312h-415z"/></clipPath><g clip-path="url(#a)"><path d="m-20 39h415v312h-415zm211.833 15.9263c-2.651.537-5.459 1.4274-7.262 3.5686-7.704 7.919-.095 20.5485 7.635 25.4018 4.95 1.6926-1.404 11.6983 6.137 8.8026-1.655-2.8345 2.36-4.8737.807-8.0141 6.835-2.8821 11.243-10.0737 12.626-17.211.922-10.0465-11.629-15.1241-19.943-12.5479zm-108.9781 14.3696c-7.7372.1156-7.9881 14.0231.278 12.5004l.1628.5438c-1.2816 3.8474-5.73 11.0118.1559 12.582.4611 3.0316-2.1767 7.6679.9155 9.3869.061.891.4204 1.652 1.0782 2.277-6.3539.938-12.8501.13-19.2514.367-10.4293-10.1888-28.494-12.5679-41.2898-8.9925-.3187.0816-.9697.2515-1.2952.3331-9.5545.2855-18.98014 6.8114-24.201546 14.5604-6.075814 9.727-4.278844 22.2.271241 32.185 7.018385 13.452 17.542605 25.477 29.090705 34.694.9629 4.174-.3052 9.075.7934 12.868-1.4919-.211-.8138 2.929.6577 2.691 3.4787.333 8.9578 1.788 11.5888-.639 3.1125-4.336-2.5361-13.431 3.2346-16.511.6306 17.83-1.0104 37.107.8273 54.019-3.0922 3.12-4.4213 7.777-7.9677 10.373-4.9367 2.855-3.6483 10.543 1.8376 12.072-.8747 1.265-1.5461 2.665-2.2106 4.058-1.7156 2.209-6.9302.313-4.6111 5.323.9358 4.683.2441 9.564 1.4511 14.199 3.1329.272 6.3064.143 9.4325-.129 1.6478 3.372 2.075 7.185 2.1292 10.896-1.641 1.204-3.9466 1.897-5.0519 3.583-.3255.197-.99.598-1.3155.795-6.4149-.7-4.2246 8.979-1.3359 11.386 1.4919-2.359 1.7699-5.316 2.0072-8.042.5493-.007 1.6343-.02 2.1767-.027.8951.048 1.7767 0 2.6582-.136.2916.055.868.15 1.1596.197-1.0647 5.737-1.5122 11.624-1.5393 17.442-.2645 2.407-2.9227 3.97-1.519 6.703 1.5868 1.012 2.6785 2.535 3.4651 4.221-1.6884-.476-1.7156.809-1.5257 2.093 93.3414.082 186.6894.055 280.0364.014.401-4.52-7.574-.7-10.198-2.019.183-5.424-.116-10.855.068-16.273 6.706-.068 13.426-.136 20.139.048 3.893 4.377-3.675 16.81 4.184 16.225.244-5.39-.115-10.794.088-16.178 2.448.089 4.116-.605 2.665-4.071-5.241.747-1.6-6.784-2.719-9.646-3.045-6.131 6.374-.734 2.719-7.348-5.947.279-1.227-9.258-2.638-12.86 3.066.72 3.194-5.112-.006-4.425-.156-4.643-.122-9.286.006-13.915 2.957.564 2.984-4.398.007-3.765-.244-3.8-.061-7.607-.074-11.4-2.909-4.398 4.475-3.079 2-7.28-4.916-.666-.556-9.02-2-12.419-3.642-5.798 5.472-1.026 1.993-6.613-3.268.292-1.79-3.617-2.115-5.778.678-1.666-.319-3.46-1.987-3.929-.8-8.782-6.368-16.511-8.063-25.13 2.062-2.984-.013-9.645.57-13.71 1.512-1.618 1.593-2.937.257-3.943-.115-.523-.339-1.563-.454-2.087.678-.557.915-2.617-.258-2.576.061-.326.177-.972.238-1.291 1.959-1.387 4.353-2.57 5.777-4.466 1.234.251 1.234-2.617 0-2.372-1.437-3.29-3.377-6.41-5.73-9.123-.61-2.12-2.828-3.786-4.516-5.247.027-1.897-.007-3.786-.095-5.676 1.309-2.338 1.241-5.451-.02-7.797-.292-4.493 1.213-11.093-.516-14.458-5.777-2.032-15.393.048-22.336-.686-.116-.129-.339-.374-.455-.503l-.603.054c-2.747-2.114-7.181-5.744-10.545-3.439-.956.17-1.898.394-2.827.618-2.218-5.7571-12.003.49-14.308-4.9618 1.586-5.7846 6.191-11.7595 4.197-17.578.814-.1496 1.139-.8701.97-2.1752 3.133.1428 6.116-1.7333 9.337-1.3595-.786-2.4266-4.611-2.8888-6.95-3.3307-.55-1.2371-3.967-1.2847-4.401.0544-.692.5914-1.092 1.3459-1.201 2.2635-.644.4826-.949 1.7402-.922 3.7726-4.855 2.617-6.442 10.0941-10.361 14.2881-4.74-.8361-9.439-1.8965-14.193-2.6578-1.071-.1291-3.207-.3942-4.279-.5234-3.099-3.4667-8.849.8089-12.667.8565-.786-.6866-3.139-1.006-3.261.3331-4.842-.5846-11.115.5098-14.329 3.9832-.739.6526-1.254 1.5022-1.837 2.2771-4.13-6.9061-15.733.8565-11.149 8.0479-21.882-.068-43.764.014-65.647-.041l-.251-.448c1.696-2.916 1.696-6.546 1.533-9.8088-2.787 1.0944-3.357 5.1588-5.873 6.9948-1.2-.157-2.414-.17-3.614-.089-3.994-3.473-11.602-2.685-16.932-4.0985-1.329-2.8005-3.058-5.3903-4.299-8.2316 1.668-2.148 4.95-3.6366 4.991-6.6003 2.651-.7205 7.743-3.7045 4.685-6.138.739-3.9221 1.614-7.8238 2.624-11.6847-3.526-.0612-7.045-.0272-10.571.0952-.665 4.7649-2.618 9.3396-2.882 14.1453 1.865.1631 3.743.2515 5.628.2583-.468.639-1.024 1.1896-1.546 1.7809-2.834.6866-4.631 3.5687-7.29 4.765-2.129-3.7861-2.163-9.3124-6.428-11.4536 4.57 1.142 6.706-3.9221 6.835-7.6471.97-.938 1.662-2.1139 2.252-3.3239.061-1.577-1.614-2.2567-2.876-2.617-7.8384-2.2839-13.7515 2.9365-19.8341 6.4439zm-47.5826 6.6751c-3.7431-.5302-6.0283 3.0248-9.1408 3.7861-4.9502-2.0188-11.6906 1.3595-13.5418 5.9885 16.6543 2.1208 33.8239.2379 50.6476.7477 2.5768-2.114-1.1731-3.9628-2.7192-5.1932-3.9194-3.8473-11.3175-7.5926-15.671-2.413-3.1125 0-5.9334-3.5415-9.5748-2.9161zm267.7627 5.4175c-5.75 2.2703-11.331 5.7574-15.447 10.3864-1.444 1.9916 1.716 1.9169 2.984 2.2431 20.363-.2107 41.154.6458 61.26-.4282.441-4.0037-6.34-6.9197-9.711-8.3812-2.854-1.9236-5.797 2.1004-8.354-.4758-5.92-5.2612-15.047-4.4455-20.818.4962-2.149-2.8821-5.994-5.0436-9.914-3.8405zm-147.84 12.1945c-3.641 1.7537-8.429 3.8609-9.785 7.905 10.938.204 21.889-.197 32.814.299.732-.373 2.753.272 2.488-.992-1.654-6.3895-10.212-9.897-15.718-6.1788-3.282 2.9161-5.961-3.8337-9.799-1.0332zm194.508 9.992c-.685.231-1.357.51-2.008.823-5.682.659-10.7 5.315-12.463 10.651-2.916 12.8 6.584 24.369 15.962 31.717 4.903 2.576-2.42 13.085 5.161 11.209 6.164 1.855 2.509-3.433 3.967-6.159-1.221-4.724 4.089-5.764 6.388-8.619 6.794-7.327 14.199-16.552 11.954-27.325-1.919-5.656-6.93-10.781-13.006-11.515-.359-.082-1.064-.252-1.424-.333-.515-2.325-5.058-.53-6.557-1.156-.319.007-.963.014-1.281.021-2.164.272-4.903-.823-6.693.686z" fill="#fff"/><path d="m191.833 54.9264c8.314-2.5762 20.865 2.5015 19.943 12.548-1.383 7.1373-5.791 14.3289-12.626 17.211 1.553 3.1404-2.462 5.1796-.807 8.0141-7.541 2.8957-1.187-7.1101-6.137-8.8026-7.73-4.8533-15.339-17.4829-7.635-25.4018 1.803-2.1412 4.611-3.0317 7.262-3.5687z" fill="#e5e8fd"/><path d="m82.8549 69.2959c6.0826-3.5075 11.9957-8.7279 19.8341-6.444 1.262.3603 2.937 1.04 2.876 2.617-7.7308-4.1056-14.3287 3.8813-21.2183 6.0701-4.2381.938-6.6996 10.7671-.4407 9.8018-.1967.1156-.5832.3399-.7731.4555-8.2661 1.5226-8.0152-12.3849-.278-12.5004z" fill="#45359e"/><path d="m84.3467 71.539c6.8896-2.1888 13.4875-10.1757 21.2183-6.0701-.59 1.2099-1.282 2.3859-2.252 3.3239-5.316-1.1284-6.7129 3.7794-8.0488 7.5247-3.3634 2.5558-7.4863 3.5483-11.3583 5.0233-6.2589.9652-3.7973-8.8638.4408-9.8018z" fill="#45359e"/><path d="m108.996 66.9442c3.526-.1223 7.045-.1563 10.571-.0951-1.01 3.8609-1.885 7.7626-2.624 11.6847-1.112.7681-1.973-.034-2.8-.7817-.848 1.1691-1.492 2.4742-2.401 3.5958-1.885-.0068-3.763-.0952-5.628-.2583.264-4.8058 2.217-9.3804 2.882-14.1454z" fill="#22b36f"/><path d="m95.2642 76.3178c1.3359-3.7454 2.7328-8.6531 8.0488-7.5247-.129 3.7249-2.265 8.789-6.835 7.647-.3051-.0272-.9154-.0952-1.2138-.1223z" fill="#f29d69"/><path d="m276.549 74.3531c.434-1.3391 3.851-1.2915 4.401-.0543-1.099.0135-3.296.0407-4.401.0543z" fill="#908bc0"/><path d="m276.549 74.3532c1.105-.0136 3.302-.0408 4.401-.0544 2.339.4419 6.164.9041 6.95 3.3307-3.221-.3738-6.204 1.5023-9.337 1.3595-1.078-.7817-2.224-1.4818-3.215-2.3723.109-.9176.509-1.6721 1.201-2.2635z" fill="#2c218c"/><path d="m35.2723 75.971c3.6414-.6253 6.4623 2.9161 9.5748 2.9161 4.3535-5.1796 11.7516-1.4343 15.671 2.4131 1.5461 1.2303 5.296 3.0792 2.7192 5.1932-16.8238-.5098-33.9934 1.373-50.6476-.7477 1.8512-4.6291 8.5916-8.0074 13.5417-5.9885 3.1125-.7613 5.3978-4.3164 9.1409-3.7862z" fill="#f1f3fd"/><path d="m303.035 81.3885c3.92-1.2032 7.765.9584 9.914 3.8405 5.771-4.9417 14.898-5.7574 20.818-.4962 2.557 2.5762 5.5-1.4479 8.354.4758 3.371 1.4614 10.152 4.3775 9.711 8.3812-20.106 1.074-40.897.2175-61.26.4282-1.268-.3263-4.428-.2515-2.984-2.2431 4.116-4.6291 9.697-8.1161 15.447-10.3864z" fill="#f1f3fd"/><path d="m83.9059 81.3411c3.872-1.475 7.9949-2.4674 11.3583-5.0232.2984.0272.9087.0951 1.2138.1223 4.265 2.1412 4.299 7.6675 6.428 11.4536 2.659-1.1963 4.456-4.0784 7.29-4.765.692.5031 1.377 1.0265 2.061 1.5431-.04 2.9636-3.322 4.4522-4.99 6.6002-1.73 1.5702-3.696 4.262-6.341 3.2764-1.4508-1.2847-2.8273-2.6374-4.1903-4.0037-.8137-3.4327-4.4891-3.018-5.5266.1224-4.3466 4.962 4.306 8.8909 1.2749 14.2198-2.726.83-5.4588.061-8.1169-.577-3.0922-1.72-.4544-6.3561-.9155-9.3877-.0339-4.1532 1.0918-8.5239-.1559-12.5819l-.1628-.5438c.1899-.1156.5764-.3399.773-.4555z" fill="#5969ed"/><path d="m274.426 80.3892c-.027-2.0324.278-3.2899.922-3.7725.99.8905 2.137 1.5906 3.215 2.3723.169 1.3051-.156 2.0256-.97 2.1751-1.058-.265-2.109-.5437-3.167-.7749z" fill="#de9e7b"/><path d="m111.742 81.3478c.909-1.1216 1.553-2.4267 2.401-3.5958.827.7477 1.688 1.5498 2.8.7817 3.058 2.4334-2.034 5.4175-4.685 6.138-.685-.5166-1.37-1.04-2.062-1.543.522-.5914 1.078-1.142 1.546-1.7809z" fill="#e6a26e"/><path d="m264.065 94.6773c3.919-4.194 5.506-11.6711 10.361-14.2881 1.058.2311 2.109.5098 3.167.7749 1.994 5.8185-2.611 11.7934-4.197 17.578-7.555 3.8539-16.682-2.651-23.524-6.7226 4.754.7613 9.453 1.8217 14.193 2.6578z" fill="#afbaeb"/><path d="m83.2957 82.3403c1.2477 4.0581.122 8.4288.1559 12.582-5.8859-1.5702-1.4375-8.7346-.1559-12.582z" fill="#133ca8"/><path d="m91.2091 90.6669c1.0375-3.1404 4.7129-3.555 5.5266-.1224.1492 2.7394.3594 5.4719.7323 8.1977 2.3192 4.2348-1.7155 5.7508-4.984 6.1448 3.0311-5.3291-5.6215-9.258-1.2749-14.2201z" fill="#4750ed"/><path d="m232.926 92.3527c3.818-.0476 9.568-4.3231 12.667-.8565.414 1.3595.889 2.7054 1.526 3.9901.081 2.4946-.014 4.9827-.278 7.4707-2.855-2.026-7.432-3.4399-10.07-.32-3.553 3.514-9.534-1.142-13.135 2.508-1.573 3.216-2.441 6.737-3.512 10.142-2.055 2.549-3.377 6.417-6.727 7.579-1.031-.863-2.041-1.747-3.065-2.61.99-1.727 2.17-3.338 3.194-5.05.739-2.699 2.793-5.452 2.014-8.354-1.58-2.923 3.092-3.957 1.491-6.811-.406-1.1968-1.078-2.2776-1.695-3.372 3.214-3.4734 9.487-4.5678 14.329-3.9832 1.091.1427 2.224.1019 3.261-.3331z" fill="#0633a4"/><path d="m96.7357 90.5444c1.363 1.3663 2.7396 2.719 4.1903 4.0037 2.645.9856 4.612-1.7062 6.341-3.2763 1.241 2.8413 2.97 5.4311 4.299 8.2316-4.686-.503-9.392-.7613-14.0979-.7613-.373-2.7258-.5832-5.4583-.7324-8.1977z" fill="#b0beee"/><path d="m245.593 91.4961c1.072.1291 3.208.3942 4.279.5234 6.842 4.0716 15.969 10.5765 23.524 6.7226 2.305 5.4519 12.09-.7953 14.308 4.9619-.258 1.074-.468 2.155-.631 3.249-12.165-.034-24.324.143-36.482-.027 2.624-4.581-.17-8.2723-3.472-11.4398-.637-1.2847-1.112-2.6306-1.526-3.9901z" fill="#e3e8f9"/><path d="m229.665 92.6859c.122-1.3391 2.475-1.0196 3.261-.3331-1.037.4351-2.17.4759-3.261.3331z" fill="#7c99d6"/><path d="m155.195 93.5828c3.838-2.8005 6.517 3.9493 9.799 1.0332 5.506-3.7182 14.064-.2107 15.718 6.179.265 1.264-1.756.618-2.488.992-10.925-.496-21.876-.095-32.814-.299 1.356-4.0443 6.144-6.1515 9.785-7.9052z" fill="#ebedfb"/><path d="m102.961 250.582c2.949.068 6.421-1.149 9.059.7 1.445 2.896 1.594 6.933.027 9.85-3.56.747-8.13 1.318-11.277-.694.624-3.099-2.0949-8.687 2.191-9.856z" fill="#ebedfb"/><path d="m247.119 95.4863c3.302 3.1676 6.096 6.8587 3.472 11.4397 12.158.17 24.317-.006 36.482.028l.095.679c-14.003.191-28.04-.061-42.002-.265.841-1.346 1.478-2.828 1.675-4.411.264-2.488.359-4.976.278-7.4707z" fill="#c4ccf2"/><path d="m24.9041 97.9606c12.7958-3.5754 30.8605-1.1963 41.2898 8.9934-6.7879.55-15.3116-1-21.0823.713.0475 15.335-.2238 30.684.1763 46.019-.2102 5.485-.1831 10.977-.2034 16.47-5.2689.04-10.6598 1.359-15.7999-.299-3.4041.326-7.6286 2.569-10.2461-.728-9.31041-10.427-19.502319-21.955-21.32642-36.393-4.14322-14.404 7.42524-29.004 20.98732-32.587-8.97809 4.915-16.50505 13.67-16.51183 24.396-1.573202 16.586 8.19153 31.628 17.93583 44.122 1.0647 1.733 4.957 1.597 5.2621-.496-7.5744-14.098-12.5856-30.133-10.9107-46.277.4747-8.646 4.5162-17.306 11.7109-22.3292 1.485-.8021-.6578-1.1351-1.2816-1.6042zm10.2054-.4078c-2.353 1.7673-2.2852 5.0572-3.2955 7.5992-3.5058 20.025-1.2003 40.485.7798 60.545-1.7631 3.867 4.6653 5.798 5.7639 2.474 4.0754-20.467 4.7942-41.729 2.5157-62.502-.6984-3.066-.4407-9.9039-5.7639-8.1162z" fill="#e9ebfe"/><path d="m202.35 106.994c-4.584-7.1912 7.019-14.9538 11.149-8.0477-1.892 3.5957-6.72 5.0437-6.965 9.5027-1.491 1.169-4.875 2.379-4.17-.788z" fill="#fbc760"/><path d="m132.112 103.691c2.516-1.835 3.086-5.9003 5.873-6.9947.163 3.2627.163 6.8927-1.533 9.8087-1.234.313-2.502.503-3.777.483-.169-1.102-.352-2.203-.563-3.297z" fill="#2e218e"/><path d="m213.499 98.9461c.583-.7749 1.098-1.6246 1.837-2.2772.617 1.0944 1.289 2.1752 1.695 3.3711-.888 2.522-3.044 4.371-3.275 7.192-2.387.544-4.78 1.02-7.222 1.217.245-4.459 5.073-5.907 6.965-9.5029z" fill="#ec9e6a"/><path d="m35.1095 97.5528c5.3232-1.7877 5.0655 5.0502 5.7639 8.1162 2.2785 20.773 1.5597 42.035-2.5157 62.502-1.0986 3.324-7.527 1.393-5.7639-2.474-1.9801-20.06-4.2856-40.52-.7798-60.545 1.0103-2.542.9425-5.8319 3.2955-7.5992z" fill="#dce1fe"/><path d="m23.6089 98.2935c.3255-.0815.9765-.2515 1.2952-.3331.6238.4691 2.7666.8021 1.2816 1.6042-7.1947 5.0234-11.2362 13.6834-11.7109 22.3294-1.6749 16.144 3.3363 32.179 10.9107 46.277-.3051 2.093-4.1974 2.229-5.2621.496-9.7443-12.494-19.509027-27.536-17.93582-44.122.00678-10.726 7.53374-19.481 16.51182-24.396 1.6343-.6252 3.2753-1.2369 4.9095-1.8555z" fill="#dce1fe"/><path d="m-.592651 112.853c5.221401-7.749 14.647051-14.2741 24.201551-14.5595-1.6342.6185-3.2752 1.2303-4.9095 1.8555-13.56207 3.582-25.13053 18.183-20.98731 32.587 1.824099 14.437 12.01601 25.966 21.32641 36.393 2.6175 3.297 6.8421 1.054 10.2461.727 5.1401 1.659 10.531.34 15.7999.299.0135 2.658 0 5.323-.0407 7.987-5.7707 3.08-.1221 12.174-3.2346 16.511-.556-4.71-8.6051-.938-12.2465-2.053-1.0986-3.793.1695-8.693-.7934-12.867-11.5481-9.217-22.07233-21.242-29.09071-34.694-4.55008-9.985-6.34706-22.458-.271241-32.186z" fill="#f0f3fb"/><path d="m97.4681 98.7422c4.7059 0 9.4119.2583 14.0979.7613 5.33 1.4135 12.938.6255 16.932 4.0985.007 1.122.007 2.243.007 3.365-14.159-.462-28.352.863-42.4766-.306l-.5831-.075c-.6578-.625-1.0172-1.386-1.0782-2.277 2.6582.639 5.3909 1.407 8.1169.578 3.2685-.394 7.3032-1.91 4.9841-6.1448z" fill="#7488cd"/><path d="m217.031 100.041c1.601 2.854-3.071 3.888-1.491 6.811-.597.142-1.187.265-1.784.38.231-2.821 2.387-4.67 3.275-7.191z" fill="#5d437b"/><path d="m236.771 102.637c2.638-3.1201 7.215-1.706 10.07.319-.197 1.584-.834 3.066-1.675 4.412l-.529.027c-6.584-.034-13.589-1.495-20.018.068-1.308 1.965-2.088 4.228-3.153 6.328-.454.497-.902 1-1.342 1.496 1.071-3.406 1.939-6.927 3.512-10.142 3.601-3.65 9.582 1.006 13.135-2.508z" fill="#201b8f"/><path d="m290.531 103.086c3.364-2.305 7.798 1.325 10.545 3.439-2.991.143-6.293 1.258-9.107-.204-.441-1.094-.956-2.161-1.438-3.235z" fill="#31268f"/><path d="m287.704 103.705c.929-.225 1.871-.449 2.827-.619.482 1.074.997 2.141 1.438 3.235-.007.334-.014.993-.014 1.319-1.2 0-3.594-.007-4.787-.007l-.095-.679c.163-1.095.373-2.176.631-3.249z" fill="#e0a487"/><path d="m349.703 103.575c1.79-1.509 4.529-.415 6.693-.687-3.337 3.705-2.659 9.034-3.357 13.616.149 8.218-.041 16.64 1.688 24.708.502 2.658 4.537 2.4 4.069-.53.197-12.269 4.882-26.347-1.119-37.814 1.499.625 6.042-1.169 6.557 1.156-1.125 2.365 1.94 3.942 2.645 5.954 4.211 10.488.576 21.65-4.143 31.221-1.119 2.018 2.916 2.596 3.316.632 6.666-7.749 13.128-18.802 8.388-29.195-1.512-3.997-5.547-5.941-8.782-8.279 6.076.734 11.087 5.859 13.006 11.514 2.245 10.774-5.16 19.998-11.954 27.326-2.299 2.855-7.609 3.895-6.388 8.619-1.458 2.726 2.197 8.014-3.967 6.158-7.581 1.877-.258-8.632-5.161-11.208-9.378-7.348-18.878-18.918-15.962-31.717 1.763-5.336 6.781-9.992 12.463-10.652-11.514 4.806-12.728 19.699-6.252 29.066 2.767 2.937 4.089 9.394 8.795 9.605-1.62-9.469-7.893-18.584-4.814-28.651-1.031-4.677 6.123-6.607 4.279-10.842z" fill="#eaedfd"/><path d="m356.396 102.889c.318-.007.962-.014 1.281-.021 6.001 11.467 1.316 25.545 1.119 37.814.468 2.93-3.567 3.188-4.069.53-1.729-8.068-1.539-16.49-1.688-24.708.698-4.582.02-9.911 3.357-13.615z" fill="#dee3fe"/><path d="m347.695 104.398c.651-.313 1.323-.592 2.008-.823 1.844 4.235-5.31 6.165-4.279 10.842-3.079 10.067 3.194 19.182 4.814 28.651-4.706-.211-6.028-6.668-8.795-9.605-6.476-9.366-5.262-24.26 6.252-29.065z" fill="#dee3fe"/><path d="m366.879 109.978c-.705-2.012-3.77-3.589-2.645-5.954.36.081 1.065.251 1.424.333 3.235 2.338 7.27 4.282 8.782 8.279 4.74 10.393-1.722 21.446-8.388 29.195-.4 1.964-4.435 1.387-3.316-.632 4.719-9.571 8.354-20.732 4.143-31.221z" fill="#dee3fe"/><path d="m128.498 103.602c1.2-.081 2.414-.068 3.614.089.211 1.094.394 2.195.563 3.297-1.39.027-2.78 0-4.17-.021 0-1.121 0-2.243-.007-3.365z" fill="#e29e71"/><path d="m85.4453 106.586.5831.075c-12.9924 2.338-27.375.34-40.9168 1.006 5.7707-1.713 14.2944-.163 21.0823-.714 6.4013-.237 12.8975.571 19.2514-.367z" fill="#bfcaf3"/><path d="m86.0284 106.661c14.1246 1.169 28.3176-.156 42.4766.306 1.39.02 2.78.048 4.17.02 1.275.021 2.543-.169 3.777-.482l.251.449c21.272 1.658 43.88.21 65.661.706-.705 3.168 2.679 1.958 4.17.789 2.442-.197 4.835-.673 7.222-1.217.597-.115 1.187-.238 1.784-.38.779 2.902-1.275 5.655-2.014 8.354-.116-.313-.339-.945-.455-1.258-53.706-.367-107.439-.156-161.1444-.102-.0136 25.749-.217 51.511.0949 77.259.1017 12.793-.9019 25.681.5086 38.405-2.231.843-4.462 1.707-6.659 2.651-.6035-26.136.6984-52.421-.5832-78.475-.4001-15.335-.1288-30.684-.1763-46.019 13.5417-.666 27.9244 1.333 40.9168-1.006z" fill="#8480ff"/><path d="m291.969 106.321c2.814 1.462 6.116.347 9.107.204l.603-.054c-2.231 2.399-6.564.822-9.724 1.169 0-.326.007-.986.014-1.319z" fill="#6f6ebb"/><path d="m301.679 106.471c.116.129.339.374.455.503 7.059 1.543 14.945.306 22.336.686.014 4.5-.054 9.007.027 13.513-2.041-.455-4.075-.815-6.089-1.318-.386-1.938.841-4.609-.902-5.996-32.013-.203-64.026-.054-96.04-.068 1.065-2.1 1.845-4.363 3.153-6.328 6.659.156 13.359.49 20.018-.068l.529-.027c13.962.204 27.999.455 42.002.265 1.193 0 3.587.007 4.787.007 3.16-.347 7.493 1.23 9.724-1.169z" fill="#8480ff"/><path d="m136.703 106.954c21.883.054 43.765-.028 65.648.04l.013.667c-21.781-.497-44.389.951-65.661-.707z" fill="#c7d1f4"/><path d="m224.619 107.463c6.429-1.563 13.434-.102 20.018-.068-6.659.557-13.359.224-20.018.068z" fill="#696cc0"/><path d="m302.134 106.974c6.943.734 16.559-1.346 22.336.686-7.391-.38-15.277.857-22.336-.686z" fill="#c7d1f3"/><path d="m324.47 107.66c1.73 3.365.224 9.965.516 14.458-.122-.238-.366-.707-.489-.945-.081-4.506-.013-9.013-.027-13.513z" fill="#d3dbf3"/><path d="m51.9266 113.846c53.7054-.055 107.4384-.265 161.1444.102.116.312.339.945.455 1.257-1.024 1.713-2.204 3.324-3.194 5.051-1.268 1.652-2.034 4.071-4.265 4.608-.095-1.053-.278-3.167-.367-4.221-14.64-.143-29.28-.115-43.914-.02-.129 9.271-.088 18.543-.04 27.808 13.25 1.149 30.806 1.169 44.049-.007.109-5.587-.02-11.168.027-16.749 4.103-.924 3.988-6.756 7.575-8.809 3.35-1.162 4.672-5.03 6.727-7.579.44-.496.888-.999 1.342-1.496 32.014.014 64.027-.135 96.04.068 1.743 1.387.516 4.058.902 5.996-4.713-1.638-5.398.89-4.862 4.595-2.014 4.52-.312 10.243 5.079 10.556-1.58 1.047-3.316 1.795-5.031 2.563-1.56-.102-2.754 1.128-2.686 2.678-1.885 3.235-2.909 6.926-4.862 10.101-2.577 1.475-5.608 1.978-8.178 3.507-1.756.626-4.495 2.386-4.685-.645.095-7.253.21-14.506.088-21.752-13.44-1.598-29.545-.313-44.009-.639.42 8.959-1.126 19.903.637 27.801 12.586.299 25.205-.442 37.784.245 3.167 4.731 7.5-.999 11.026-1.686 4.367.014 10.511.53 12.843-4.065.78-.34 1.567-.727 2.055-1.468 1.16 4.486-1.58 10.006.543 14.044l.325.421c-.325 2.896-.746 5.778-1.017 8.687-.441 4.371-1.126 8.918-.068 13.255 1.309 7.198.502 14.866 3.574 21.684-2.387 1.407-4.923 2.508-7.514 3.466-1.295 2.053-1.017 5.574 2.055 6.152-1.39 4.459 3.492 13.234-2.407 15.124-1.804 3.813 5.045 3.338 2.495 7.763-.949 3.541 2.468 10.08-2.495 11.283-1.838 3.073 1.817 2.597 2.339 4.582.258 3.528.299 7.055.115 10.59-.318 2.243-3.641 2.984-2.454 5.764 1.403.551 2.807 1.203 2.082 2.95-19.733.347-39.466.177-59.199.102-1.675-5.743-9.663-.204-12.742-3.555-1.675-5.057 1.628-12.351-5.587-12.826-.143-46.848.068-93.709-.095-140.55l-3.282-.014c-.448 46.461.061 92.88-.048 139.354.631 2.222-3.485 3.058-3.661.911-.929-3.719 1.756-13.548-5.039-11.087-.142-1.074-.42-3.222-.556-4.296-.19-1.332-.488-2.637-.874-3.915.155-.177.467-.53.623-.707 1.201-3.61.929-7.912.217-11.705-2.081-10.516 2.536-20.379 3.438-30.589 1.519-1.78.373-3.983-.156-5.934-1.769-5.118-.874-10.59-1.858-15.817-.054-.279-.162-.836-.217-1.115 1.702.87 4.293 2.4 5.588.102 1.946-4.187-.326-9.408-4.855-10.502-4.7-.571-5.093-5.533-8.165-8.109-1.627-2.162-4.767-1.19-7.052-.863-3.343-.32-6.422 2.229-3.146 4.982.108.224.325.666.434.89.264 3.474 1.152 8.375 5.764 7.648-1.533 2.494-5.107 3.018-6.178 5.872-1.539 3.175-1.98 6.805-3.73 9.857-2.292 1.597-4.943 2.603-7.215 4.241-1.057.605-2.136 1.224-3.336 1.489-.556-7.933.949-17.565-.732-24.471-13.766-.061-27.531.007-41.29-.027-.509.027-1.526.088-2.034.116-.143 9.251-.088 18.509-.048 27.76 11.562 2.203 26.168-.877 38.523 1.421 3.567 3.657 6.28-2.4 9.826-2.78-.685 1.148-1.465 2.229-2.163 3.371 4.387 2.243 7.317-3.555 11.541-3.983 1.506.279 2.997-.15 3.981-1.373l.576.047c.041 2.461.102 4.935.17 7.396-4.828 2.325-10.552 3.514-14.207 7.688-.556 5.03 3.927 8.449 6.422 12.235 3.282 2.604 4.876 8.796 9.643 8.646-.102 3.052.339 7.083-2.611 9.048-1.858.883-3.947.863-5.913 1.318-1.817 1.455-1.011 4.052-1.105 6.064-.163-.327-.495-.979-.658-1.299-11.453-.53-22.927-.02-34.38-.272.963-1.549 1.41-3.317 1.546-5.125 1.499-1.801 2.868-3.718 4.164-5.676 6.001-.047 12.009.082 18.017-.027 1.288-8.095.942-19.107.217-28.087-14.485-.523-29.43-1.101-43.819.055-.929 4.914-.305 10.046-.489 15.049-.712.204-1.41.422-2.108.653-.353.136-1.058.401-1.411.537-.292.109-.875.333-1.166.448-.163-32.62.095-65.363-.075-98.025-.542-3.235-6.727-.781-4.035 2.665.536 33.803-1.078 67.688.875 101.437.488 5.227-6.008 6.363-6.713 11.005-.827 2.005-.081 3.977.542 5.839-1.051 3.141-3.953 5.819-3.431 9.353 2.17 1.883 4.747 3.284 7.358 4.473 2.895 2.583-.177 6.668 1.118 9.924-.325 3.623-.44 7.26-.454 10.903-24.452.109-48.9047-.19-73.3572.157-1.5596-1.842-3.0922-3.705-4.5908-5.588-.0881-4.785-2.0207-10.019.8612-14.302 1.302-1.801 1.2545-3.154-.1288-4.037-.1221-.326-.3662-.972-.4815-1.298 3.8856-5.547 9.5478-9.959 12.3076-16.273 1.2749-4.092 7.7169-4.296 7.2354-8.966 9.88-.089 19.7735.197 29.6531-.055.028-.299.082-.89.109-1.189-.054-8.68-.034-17.354-.014-26.027-.027-.306-.081-.911-.101-1.217-14.4643.387-29.247-.938-43.5482.455-.7527 9.027-.8951 18.564.0542 27.509 2.2852 1.713 7.7168-1.4 8.5374 1.972-1.519 1.726-3.1668 3.385-5.0858 4.676-5.7232 2.61-7.6762 10.964-14.2674 11.59-.0406-1.407.6578-2.189 2.0547-2.25 3.594-.809 2.1835-5.52 1.5325-8.13.2984-1.291.6171-2.59.6917-3.915-.7595-2.107-3.0311-1.305-4.862-1.183-.2509-12.793.6645-25.646-.5086-38.405-.3119-25.749-.1085-51.511-.0949-77.259zm10.3682 8.986c-.373.15-1.1257.442-1.4986.591-.0746 8.817-.5696 18.027.3594 26.599 12.6941 1.393 26.1816-.374 39.1264.808 2.326 1.55 4.977-.747 4.51-3.052-.55-8.306 1.071-16.986-.828-25.089-13.8805-.075-27.7952-.312-41.6692.143zm58.2352 41.722c-13.175.796-26.7847-.584-39.7094.66-1.0918 7.688-.1695 16.062-.4679 24.015-1.7224 2.712.6035 3.779 2.2649 4.568 11.2226.442 22.4584.047 33.6884.204 3.058-.286 6.781.523 9.412-1.503.122-8.619.291-17.265-.244-25.87.034-2.76-3.086-2.216-4.944-2.074zm143.175 3.188c-1.024.272-2.136.435-2.909 1.231-.115 8.959-.128 17.924 0 26.883 2.618 1.706 6.334.925 9.433 1.496 10.151-1.543 20.302.911 30.514.007 2.462.516 7.426-.918 5.459-4.738-1.281-7.885.577-15.709-.088-23.648-2.495-1.686-5.906-1.489-8.761-1.53-11.216.225-22.452-.346-33.648.299zm-22.377 32.628c-1.024.36-2.902.387-2.943 1.794-.088 8.538-.095 17.089.054 25.633.536.986 1.655.85 2.611.877 13.515-.109 27.036.109 40.551-.115 1.756-8.817 1.539-19.652-.326-27.999-12.938-.897-26.771-.523-39.947-.19zm15.515 37.195c-2.075 8.551-.285 18.625-.827 27.727 14.396.115 28.799.129 43.195-.028 2.556-2.569-.366-6.906.671-10.189-.379-5.791.8-11.841-.63-17.496-14.125-.204-28.277-.129-42.409-.014zm-181.7388.802c-2.9905.687-2.5294 4.153-2.8752 6.587.0136 6.947-.1966 13.907.1763 20.854.5154 1.054 1.024 2.631 2.5226 2.271 14.03-.313 28.5011.618 42.2591-.469 1.689-9.041.163-19.217.007-28.305-13.718-1.352-28.148.401-42.0898-.938z" fill="#e0e5f8"/><path d="m153.778 246.796c2.556 1.543 5.445 4.01 8.524 2.189.237 6.518-.075 13.037.23 19.556.658.802 1.417 1.733 2.591 1.563 10.612.048 21.231.027 31.85-.013 2.977 1.814 3.255-.571 3.974-2.094.285 3.181-.217 6.376-.983 9.462-14.573.319-29.152-.02-43.731.19l-.122-.584c.115-2.407.447-4.826-.292-7.151-.088-1.292-.115-2.583-.149-3.868-.014-.306-.034-.904-.048-1.203-.468-6.07-3.499-11.766-1.844-18.047z" fill="#e0e5f8"/><path d="m313.546 124.45c-.536-3.705.149-6.233 4.862-4.595 2.014.503 4.048.863 6.089 1.318.123.238.367.707.489.945 1.261 2.345 1.329 5.459.02 7.797-.624.992-1.288 1.958-1.933 2.936-4.353-1.57-4.536-7.735-9.527-8.401z" fill="#5c6dec"/><path d="m136.635 124.647c-2.692-3.446 3.493-5.9 4.035-2.664.17 32.661-.088 65.404.075 98.025-1.35 1.869-2.564 3.854-3.235 6.076-1.953-33.749-.339-67.634-.875-101.437z" fill="#d1d7f5"/><path d="m161.786 120.623c14.634-.095 29.274-.122 43.914.02.088 1.054.272 3.168.367 4.222-.217.129-.638.38-.855.509-.041-1.012-.122-3.038-.163-4.051-14.199-.115-28.405-.163-42.591 0-.15 9.027-.014 18.068-.048 27.101l-.664.007c-.048-9.265-.089-18.536.04-27.808z" fill="#55bf93"/><path d="m206.067 124.864c2.23-.537 2.997-2.956 4.265-4.608 1.024.863 2.034 1.747 3.065 2.61-3.587 2.053-3.472 7.885-7.575 8.809-3.01.354-1.41-1.746-.746-3.378-2.983.089-1.634-2.148.136-2.923.217-.129.638-.38.855-.51z" fill="#e9a06e"/><path d="m230.275 120.569 3.282.013c.163 46.841-.048 93.702.095 140.55 7.215.476 3.912 7.769 5.587 12.827 3.079 3.351 11.067-2.189 12.742 3.555l-.698-.021c-3.927-2.739-9.392.252-13.393-2.148-1.587-2.311-.387-5.383-.943-7.919 2.116-4.629-4.217-2.882-4.475-6.41-.543-16.218-.054-32.457-.204-48.682-.162-.374-.501-1.115-.671-1.482-.122 16.347.082 32.709-.041 49.056.211 3.42-4.577 5.296-6.672 2.549-.054-3.527-.102-7.055-.136-10.576-1.776-1.299-4.17-.687-6.198-1.21.997-.279 1.987-.598 2.977-.925 6.795-2.46 4.11 7.369 5.039 11.087.176 2.148 4.292 1.312 3.661-.911.109-46.474-.4-92.893.048-139.353z" fill="#ced7f4"/><path d="m162.458 121.323c14.186-.163 28.392-.116 42.591 0 .041 1.013.122 3.038.163 4.051-1.77.775-3.119 3.012-.135 2.923-.665 1.632-2.265 3.732.745 3.378-.047 5.581.082 11.162-.027 16.749-14.464.021-28.921.027-43.385 0 .034-9.034-.102-18.074.048-27.101zm4.238 11.012c-1.187 5.397 2.109 11.854 7.9 12.704.508 1.156 4.943 1.156 5.472 0 3.614-.537 6.428-3.365 7.337-6.879 3.072-6.512-3.106-14.777-10.077-14.2-5.024-.448-9.439 3.712-10.632 8.375zm34.366-6.995c.02-3.548-6.828-.38-9.086-1.169-2.503 2.903 8.218 2.386 9.086 1.169zm-9.487 3.413c-.542 4.411 7.039.781 9.48 1.984.543-4.404-7.052-.788-9.48-1.984zm.367 6.518c2.719-.068 8.937 2.094 9.12-1.114-1.546-1.686-11.67-1.238-9.12 1.114zm-.367 3.657c0 .333-.006 1.006-.006 1.339 1.553 1.605 8.157.938 9.486.007 0-.333.007-1.006.007-1.339-1.553-1.604-8.171-.945-9.487-.007zm9.487 6.125c.02-3.549-6.828-.381-9.086-1.169-2.503 2.902 8.218 2.385 9.086 1.169z" fill="#1fb36e"/><path d="m62.2948 122.832c13.874-.455 27.7887-.217 41.6692-.142 1.899 8.102.278 16.782.828 25.089.467 2.304-2.184 4.602-4.51 3.052-12.9448-1.183-26.4323.584-39.1264-.809-.9291-8.572-.434-17.782-.3594-26.598.3729-.15 1.1256-.442 1.4986-.592zm3.0786 2.536c-.1628 1.937 2.353 3.194 4.1296 1.998 10.1716-.013 20.3432.048 30.508-.027 0-.496 0-1.489 0-1.985-11.5414-.054-23.0895-.068-34.6376.014zm.0067 10.169c-.1424 3.521 4.9638 1.427 6.6726 1.916 2.9091-3.092-5.513-1.645-6.6726-1.916zm27.1988 0c-1.1663 4.275 5.357 1.08 7.4321 2.012 1.166-4.276-5.3639-1.088-7.4321-2.012zm0 4.078c-1.1663 4.276 5.357 1.081 7.4321 2.012 1.166-4.276-5.3639-1.088-7.4321-2.012zm-.0814 4.092c-.0678 3.841 5.4452 1.237 7.5135 2.012 1.18-4.323-5.4452-1.067-7.5135-2.012z" fill="#f6f8fd"/><path d="m166.696 132.335c1.193-4.663 5.608-8.823 10.632-8.375 6.971-.577 13.149 7.688 10.077 14.2-.909 3.514-3.723 6.342-7.337 6.879-1.831.007-3.655.007-5.472 0-5.791-.849-9.087-7.307-7.9-12.704zm8.727-5.703c-8.693 1.074-8.381 15.811.542 16.388 10.375 2.543 13.434-14.94 3.269-16.388-.366-1.21-3.452-1.21-3.811 0z" fill="#dff4eb"/><path d="m201.062 125.341c-.868 1.216-11.589 1.733-9.086-1.17 1.939 2.461 6.157.707 9.086 1.17z" fill="#a2e1c4"/><path d="m191.976 124.171c2.258.789 9.106-2.379 9.086 1.169-2.929-.462-7.147 1.292-9.086-1.169z" fill="#f5fafa"/><path d="m313.546 124.45c4.991.666 5.174 6.831 9.527 8.401 0 .286.014.85.021 1.135-1.512.252-2.997.612-4.469 1.02-5.391-.313-7.093-6.036-5.079-10.556z" fill="#ea9f6f"/><path d="m65.3734 125.367c11.5481-.081 23.0962-.068 34.6376-.013v1.985c-10.1649.074-20.3364.013-30.508.027-1.7766 1.196-4.2924-.061-4.1296-1.999z" fill="#bdc3ea"/><path d="m175.423 126.632c.359-1.21 3.445-1.21 3.811 0-1.275.082-2.543.082-3.811 0z" fill="#7dcda8"/><path d="m175.965 143.02c-8.923-.577-9.235-15.314-.542-16.388 1.268.081 2.536.081 3.811 0 10.165 1.448 7.106 18.931-3.269 16.388z" fill="#1fb36f"/><path d="m191.575 128.753c2.428 1.196 10.023-2.42 9.48 1.984-2.441-1.203-10.022 2.427-9.48-1.984z" fill="#def3eb"/><path d="m323.073 132.852c.645-.979 1.309-1.945 1.933-2.937.088 1.89.122 3.779.095 5.676-.678-.524-1.343-1.067-2.007-1.604-.007-.286-.021-.85-.021-1.135z" fill="#8480ff"/><path d="m249.262 130.819c14.464.326 30.569-.959 44.009.639-14.451.054-28.901-.163-43.338.061-.142 9.034-.027 18.067-.034 27.101-1.763-7.898-.217-18.842-.637-27.801z" fill="#edd792"/><path d="m249.933 131.519c14.437-.224 28.887-.006 43.338-.061.122 7.246.007 14.499-.088 21.752-2.482 1.482-2.991 4.581-5.5 5.655-12.579-.686-25.198.055-37.784-.245.007-9.033-.108-18.067.034-27.101zm4.028 6.05v1.346c9.738 1.162 24.127 1.135 33.898.02 1.316.843 2.15-1.59.685-1.373-9.941-1.237-24.676-1.081-34.583.007zm.685 6.784c5.852-.388 13.548.931 18.288-.68 0-.333 0-.992 0-1.325-6.191-.021-12.402-.238-18.573.176-.766-1.067-.807 2.522.285 1.829zm22.391-2.005c-.095 3.602-.102 7.198 0 10.807 3.818.177 7.642.055 11.473.014.089-3.603.089-7.205 0-10.808-3.824-.177-7.655-.061-11.473-.013zm-23.076 4.737c0 .333-.007 1.006-.007 1.346 4.415 1.842 14.518.694 18.98 0 0-.333.007-1.006.007-1.339-4.421-1.856-14.525-.7-18.98-.007zm.407 5.907c6.157.524 12.382.109 18.566.177 0-.333.007-.992.007-1.319-3.411-2.222-10.992.163-15.596-.707-2.997-4.71-4.347 2.828-2.977 1.849z" fill="#fcc95e"/><path d="m191.942 135.272c-2.55-2.352 7.574-2.801 9.12-1.115-2.699.897-7.323-1.727-9.12 1.115z" fill="#a7ddc3"/><path d="m191.942 135.272c1.797-2.842 6.421-.218 9.12-1.115-.183 3.208-6.401 1.047-9.12 1.115z" fill="#f0fafa"/><path d="m318.625 135.006c1.472-.407 2.957-.768 4.469-1.019.664.537 1.329 1.081 2.007 1.604 1.688 1.461 3.906 3.127 4.516 5.248-.366 5.308-1.356 10.692-.047 15.96-.061.319-.177.965-.238 1.291-.359.85-.19 1.795.258 2.577.115.523.339 1.563.454 2.086.095 1.768-.691 3.188-2.163 4.113l-.569.061c-2.828.02-5.642.048-8.45.082-1.471-.286-2.922-.626-4.387-.898l-.325-.421c4.414-.055.054-6.159 2.739-8.544 2.482-2.767 1.682-7.335-1.648-8.987-1.437-1.271-1.369 1.387-1.742 2.264-1.106.469-1.933 1.448-1.947 2.692-2.332 4.595-8.476 4.078-12.843 4.064-.291-1.107-.583-2.209-.841-3.323 2.57-1.53 5.601-2.033 8.178-3.508 1.953-3.174 2.977-6.865 4.862-10.101 1.248-.469 2.197-1.441 2.686-2.678 1.715-.768 3.451-1.516 5.031-2.563z" fill="#8b60ff"/><path d="m65.3801 135.536c1.1596.272 9.5817-1.176 6.6726 1.917-1.7088-.489-6.815 1.604-6.6726-1.917z" fill="#c1c8ec"/><path d="m92.5789 135.536c2.0682.925 8.5981-2.263 7.4321 2.012-2.0751-.931-8.5984 2.264-7.4321-2.012z" fill="#c1c9ed"/><path d="m253.961 137.569c9.907-1.087 24.642-1.244 34.583-.007-11.534.007-23.062-.013-34.583.007z" fill="#fde0a0"/><path d="m253.961 137.569c11.521-.02 23.049 0 34.583-.007 1.465-.217.631 2.216-.685 1.373-11.304-.041-22.601.007-33.898-.02 0-.333 0-1.006 0-1.346z" fill="#fafcf7"/><path d="m310.908 140.247c-.068-1.55 1.126-2.78 2.686-2.678-.489 1.237-1.438 2.209-2.686 2.678z" fill="#8b60ff"/><path d="m191.575 138.929c1.316-.939 7.934-1.598 9.487.006-3.167-.013-6.327-.013-9.487-.006z" fill="#6bc49e"/><path d="m191.575 138.928c3.16-.007 6.32-.007 9.487.007 0 .333-.007 1.006-.007 1.339-3.173 0-6.326.007-9.486-.007 0-.333.006-1.006.006-1.339z" fill="#eefdf6"/><path d="m253.961 138.915c11.297.027 22.594-.021 33.898.02-9.771 1.115-24.16 1.142-33.898-.02z" fill="#fad889"/><path d="m92.5789 139.615c2.0682.924 8.5981-2.264 7.4321 2.012-2.0751-.931-8.5984 2.263-7.4321-2.012z" fill="#94a0d4"/><path d="m191.569 140.268c3.16.013 6.313.006 9.486.006-1.329.932-7.934 1.598-9.486-.006z" fill="#6fc9a2"/><path d="m329.57 156.799c-1.309-5.268-.319-10.652.047-15.961 2.353 2.713 4.293 5.833 5.73 9.122-.047.789-.047 1.584 0 2.373-1.424 1.896-3.818 3.079-5.777 4.466z" fill="#784dee"/><path d="m254.646 144.353c-1.092.693-1.051-2.896-.285-1.829 5.066 2.78 12.62.387 18.573 1.149-4.74 1.611-12.436.292-18.288.68z" fill="#fde7b2"/><path d="m254.361 142.524c6.171-.414 12.382-.197 18.573-.176v1.325c-5.953-.761-13.507 1.631-18.573-1.149z" fill="#fbfcfc"/><path d="m277.037 142.347c3.818-.047 7.649-.163 11.473.014.089 3.603.089 7.205 0 10.808-3.831.041-7.655.163-11.473-.014-.102-3.609-.095-7.205 0-10.808z" fill="#fbfdfb"/><path d="m92.4975 143.707c2.0683.945 8.6935-2.311 7.5135 2.012-2.0683-.775-7.5813 1.829-7.5135-2.012z" fill="#bec7ed"/><path d="m201.062 145.053c-.868 1.217-11.589 1.733-9.086-1.169 1.939 2.46 6.157.7 9.086 1.169z" fill="#aae0c6"/><path d="m191.976 143.884c2.258.788 9.106-2.379 9.086 1.169-2.929-.469-7.147 1.291-9.086-1.169z" fill="#f2fbfb"/><path d="m174.596 145.039c1.817.007 3.641.007 5.472 0-.529 1.156-4.964 1.156-5.472 0z" fill="#86d3ad"/><path d="m253.961 147.085c4.455-.693 14.559-1.849 18.98.007-6.327-.02-12.653-.02-18.98-.007z" fill="#f8e296"/><path d="m253.961 147.085c6.327-.013 12.653-.013 18.98.007 0 .333-.007 1.006-.007 1.339-6.333.007-12.653.014-18.98 0 0-.34.007-1.013.007-1.346z" fill="#fefcfb"/><path d="m313.499 150.423c.373-.877.305-3.535 1.742-2.264 3.33 1.652 4.13 6.22 1.648 8.986-2.685 2.386 1.675 8.49-2.739 8.545-2.123-4.038.617-9.558-.543-14.044-.027-.306-.081-.918-.108-1.223z" fill="#784dee"/><path d="m161.746 148.431.664-.007c14.464.028 28.921.021 43.385 0-13.243 1.176-30.799 1.156-44.049.007z" fill="#b8dcd4"/><path d="m253.954 148.431c6.327.014 12.647.007 18.98 0-4.462.693-14.565 1.842-18.98 0z" fill="#fed68c"/><path d="m335.347 149.961c1.234-.245 1.234 2.623 0 2.372-.047-.789-.047-1.584 0-2.372z" fill="#784dee"/><path d="m311.552 153.115c.014-1.244.841-2.223 1.947-2.692.027.306.081.918.108 1.223-.488.741-1.275 1.129-2.055 1.469z" fill="#784dee"/><path d="m254.368 152.992c-1.37.979-.02-6.559 2.977-1.849 4.604.87 12.185-1.516 15.596.707-5.743 1.088-13.928-2.08-18.573 1.142z" fill="#ffe6bd"/><path d="m254.368 152.992c4.645-3.222 12.83-.054 18.573-1.142 0 .326-.007.986-.007 1.319-6.184-.068-12.409.347-18.566-.177z" fill="#fafdf6"/><path d="m287.683 158.865c2.509-1.074 3.018-4.174 5.5-5.656.189 3.032 2.929 1.272 4.685.646.258 1.115.55 2.216.841 3.324-3.526.687-7.859 6.417-11.026 1.686z" fill="#eda772"/><path d="m45.2879 153.686c1.2816 26.054-.0203 52.339.5832 78.475-1.8377-16.912-.1967-36.189-.8273-54.018.0407-2.665.0542-5.33.0407-7.987.0203-5.493-.0068-10.985.2034-16.47z" fill="#cdd9fb"/><path d="m207.66 156.296c2.285-.327 5.425-1.299 7.052.863-2.366-.197-4.712-.564-7.052-.863z" fill="#6378e3"/><path d="m204.514 161.278c-3.276-2.753-.197-5.302 3.146-4.982 2.339.299 4.686.666 7.052.863.956 3.841 2.082 7.926 4.571 11.073 3.146 2.148 6.679 3.949 8.449 7.538-1.295 2.298-3.886.768-5.588-.102-2.712-.741-5.228-1.951-7.574-3.473-.359-.517-.719-1.027-1.092-1.53-3.167-2.712-.468-7.15-4.964-8.863-.996-.13-2.997-.388-4-.524z" fill="#0b36a6"/><path d="m214.712 157.159c3.072 2.576 3.465 7.538 8.165 8.109 4.529 1.095 6.801 6.315 4.855 10.502-1.77-3.589-5.303-5.39-8.449-7.538-2.489-3.147-3.615-7.232-4.571-11.073z" fill="#5a6deb"/><path d="m329.332 158.09c1.173-.041.936 2.019.258 2.576-.448-.782-.617-1.726-.258-2.576z" fill="#784dee"/><path d="m204.514 161.278c1.003.136 3.004.395 4 .524-1.139.414-2.373.645-3.566.367-.109-.225-.326-.666-.434-.891z" fill="#7b6f8e"/><path d="m204.948 162.169c1.193.279 2.427.047 3.566-.367 4.496 1.713 1.797 6.151 4.964 8.864-.915-.32-1.817-.68-2.766-.85-4.612.727-5.5-4.174-5.764-7.647z" fill="#e49a6e"/><path d="m330.044 162.753c1.336 1.006 1.255 2.325-.257 3.943l-.611.075c-.325.027-.976.074-1.295.095 1.472-.925 2.258-2.345 2.163-4.113z" fill="#784dee"/><path d="m120.53 164.555c1.858-.143 4.978-.687 4.944 2.073.535 8.605.366 17.252.244 25.871-2.631 2.025-6.354 1.217-9.412 1.502-11.23-.156-22.4658.238-33.6884-.204-1.6614-.788-3.9873-1.856-2.2649-4.568.2984-7.953-.6239-16.327.4679-24.015 12.9247-1.244 26.5344.136 39.7094-.659zm-37.9667.958c-2.3598 7.994-.4272 18.312-.3933 26.653 13.5485.802 28.243.747 41.805-.007 1.139-8.32.516-17.918.007-26.272-13.467-1.054-27.6803-.245-41.4187-.374z" fill="#edeffb"/><g fill="#f8fafd"><path d="m82.5633 165.513c13.7384.129 27.9517-.68 41.4187.374.509 8.354 1.132 17.952-.007 26.272-13.562.754-28.2565.808-41.805.006-.0339-8.34-1.9665-18.659.3933-26.652zm3.1532 6.077c-.1627 1.937 2.3463 3.188 4.1297 1.998 10.1718-.014 20.3428.048 30.5078-.027 0-.496 0-1.489 0-1.985-11.541-.054-23.0894-.068-34.6375.014zm.0746 4.751c.0068.489.0068 1.468.0068 1.958 6.3199.176 12.6466.034 18.9661.013-.006-.489-.006-1.468-.006-1.957-6.3203-.184-12.647-.034-18.9669-.014zm25.3069.143c-4.265 1.216-1.939 7.355-1.797 10.237 3.085.36 8.158 1.549 10.978-.367 0-2.991.841-6.485-.8-9.163-2.407-1.808-5.655-.619-8.381-.707zm-25.3137 9.367c.0068.319.0136.965.0136 1.291 6.3199.17 12.6466.02 18.9731.014-.007-.32-.013-.966-.013-1.292-6.3203-.17-12.6537-.027-18.9737-.013z"/><path d="m262.932 168.912c13.746.136 27.952-.68 41.426.373.508 8.354 1.132 17.952-.007 26.272-13.766 1.047-28.196.225-42.212.422.258-8.884-1.594-18.727.793-27.067zm3.235 2.657c-.543 4.439 7.1.762 9.554 1.978-.576-4.18-6.95-1.04-9.554-1.978zm17.441 1.883c-4.977 3.324-6.463 11.508-2.082 16.001.698 1.251 2.95-.258 2.007-1.332-3.316-3.711-2.271-10.013 1.397-12.65 3.038-1.665 6.761-1.611 9.833-.007 1.044 2.311 4.055 3.936 3.282 6.947 1.505 1.944-4.076 7.729.603 6.791 3.099-3.99 3.065-11.087-1.092-14.241-3.214-4.092-9.819-4.214-13.948-1.509zm-17.441 13.078c-.732 4.303 6.279.993 8.646 1.931 2.983-3.956-6.978-1.081-8.646-1.931z"/><path d="m256.843 237.565c14.132-.115 28.284-.19 42.409.014 1.43 5.655.251 11.705.63 17.496-1.037 3.283 1.885 7.62-.671 10.19-14.396.156-28.799.142-43.195.027.542-9.102-1.248-19.176.827-27.727zm4.74 5.438c-.665.462-.956 1.108-.888 1.924 11.534.068 23.076.054 34.61.007 0-.497 0-1.489 0-1.985-11.243-.021-22.486-.129-33.722.054zm-.841 9.462c0 .333-.007.993-.007 1.326 5.242 1.393 15.739.999 21.015 0 0-.333 0-.993 0-1.326-7.005-.081-14.01-.061-21.008 0zm23.049 1.339c1.41 1.591 13.704 1.584 11.121-1.162-2.814.897-10.619-2.488-11.121 1.162zm-22.886 3.501c-1.35.408-.624 2.046.542 1.89 11.284.088 22.574.054 33.858.013 0-.496 0-1.488 0-1.985-11.467-.013-22.94-.163-34.4.082z"/><path d="m75.1313 239.645c13.8605.292 28.1147-1.203 41.7647.714-.441 8.693 1.295 17.754-.78 26.265-13.894.129-27.8159.183-41.7103-.007-2.0885-5.166-.1695-11.889-.8476-17.578.6713-2.991-1.5732-7.396 1.5732-9.394zm2.5293 6.022v1.985c10.3886.075 20.7839.021 31.1794.021 2.977 1.882 3.343-.476 4.062-2.019-11.745-.027-23.4966-.048-35.2414.013zm-.0068 4.765c.0068.49.0068 1.462.0068 1.951 5.4181.218 10.8497-.013 16.2678.061 4.0686 3.508 4.2585-2.086 1.9936-2.012-6.0894-.149-12.1788-.04-18.2682 0zm25.3072.15c-4.2859 1.169-1.567 6.756-2.191 9.856 3.147 2.012 7.717 1.441 11.277.693 1.567-2.916 1.418-6.953-.027-9.849-2.638-1.849-6.11-.632-9.059-.7zm-25.3139 9.36c.0067.319.0135.965.0135 1.291 6.32.17 12.6467.021 18.9734.014-.0068-.319-.0136-.965-.0136-1.292-6.3199-.169-12.6534-.027-18.9733-.013z"/></g><path d="m314.475 166.111c1.465.272 2.916.612 4.387.898.943.21 1.892.394 2.862.55-3.872 11.134-2.468 23.016-2.692 34.585.298 2.413-.515 5.425 1.078 7.573l.332.543c-.359-.013-1.085-.04-1.451-.054-1.817-13.065-2.027-26.421.061-39.445-2.624 1.128-4.068 3.942-5.397 6.342-.048-.578-.15-1.734-.197-2.305.271-2.909.692-5.791 1.017-8.687z" fill="#31218b"/><path d="m146.197 166.893c.508-.027 1.525-.088 2.034-.116-3.343 8.15-.583 18.754-1.417 27.87l-.665.006c-.041-9.251-.095-18.509.048-27.76z" fill="#e77f92"/><path d="m148.231 166.777c13.759.034 27.524-.034 41.29.028.108 8.204-.177 16.415.135 24.613-4.59-1.203-1.892 2.773-4.767 3.446-12.687-.435-25.381-.088-38.075-.217.834-9.116-1.926-19.72 1.417-27.87zm2.658 5.486c.007.489.007 1.468.007 1.957 6.32.177 12.64.034 18.966.014-.006-.489-.006-1.468-.006-1.958-6.32-.183-12.647-.034-18.967-.013zm23.11.652c-.21 3.385-.088 6.784-.034 10.183 1.682 1.869 9.799.72 11.44 0 .21-3.385.074-6.798.034-10.183-1.689-1.876-9.813-.727-11.44 0zm-23.11 4.099c0 .333-.007.993-.007 1.326 4.415 1.842 14.512.693 18.987 0-.006-.327-.013-.979-.013-1.305-6.32-.177-12.647-.034-18.967-.021zm0 4.738c0 .333-.007 1.006-.007 1.346 4.415 1.842 14.525.693 18.98 0 0-.333.007-1.006.007-1.339-4.421-1.856-14.525-.7-18.98-.007zm.685 6.784c11.297.007 22.588.047 33.892-.021.081-1.128.257-2.521-1.343-2.039-10.945.15-21.903-.238-32.834.231-.752-1.08-.82 2.57.285 1.829z" fill="#f94c59"/><path d="m189.521 166.805c1.681 6.906.176 16.538.732 24.47l-.597.143c-.312-8.198-.027-16.409-.135-24.613z" fill="#f8697c"/><path d="m318.862 167.008c2.808-.034 5.622-.061 8.45-.081-1.899.217-3.716.469-5.588.632-.97-.156-1.919-.34-2.862-.551z" fill="#784dee"/><path d="m210.712 169.816c.949.17 1.851.53 2.766.85.373.503.733 1.012 1.092 1.529.787 3.378 3.777 5.295 6.503 7.083 1.539 1.475.922-1.625 1.288-2.495.984 5.227.089 10.699 1.858 15.818.529 1.951 1.675 4.153.156 5.934-1.261.428-2.515.897-3.763 1.366-3.147 0-6.408.632-9.466-.333-1.662-3.569 1.742-6.349 3.207-9.272 1.119-3.915-2.265-6.675-5.086-8.53-1.953 3.827-3.35 8.68-7.703 10.373-2.346.441-4.665 1.114-7.066 1.155-.258-1.183-.549-2.352-.909-3.507 2.272-1.639 4.923-2.645 7.215-4.242 1.75-3.052 2.191-6.682 3.73-9.856 1.071-2.855 4.645-3.378 6.178-5.873z" fill="#bca3ff"/><path d="m313.655 177.103c1.329-2.4 2.773-5.214 5.397-6.342-2.088 13.024-1.878 26.38-.061 39.445-.685-.129-1.363-.286-2.027-.469-3.072-6.818-2.265-14.485-3.574-21.684.102-3.65.265-7.293.265-10.95z" fill="#45359e"/><path d="m85.7165 171.59c11.5481-.082 23.0965-.068 34.6375-.014v1.985c-10.165.075-20.336.014-30.5078.027-1.7835 1.19-4.2925-.061-4.1297-1.998z" fill="#bdc5f0"/><path d="m266.167 171.569c2.604.938 8.978-2.202 9.554 1.978-2.454-1.216-10.097 2.461-9.554-1.978z" fill="#bbc5eb"/><path d="m283.608 173.452c4.129-2.705 10.734-2.583 13.948 1.509.116 2.066-1.695.816-2.793.503-3.072-1.604-6.795-1.658-9.833.007-1.932.632-1.919-.537-1.322-2.019z" fill="#8799d1"/><path d="m150.889 172.263c6.32-.021 12.647-.17 18.967.013 0 .49 0 1.469.007 1.958-6.327.02-12.647.163-18.967-.014 0-.489 0-1.468-.007-1.957z" fill="#f8e5e5"/><path d="m173.999 172.915c1.627-.727 9.751-1.876 11.44 0-3.818-.006-7.629-.006-11.44 0z" fill="#f3cfc9"/><path d="m214.57 172.195c2.346 1.522 4.862 2.732 7.574 3.473.055.279.163.836.217 1.115-.366.87.251 3.97-1.288 2.495-2.726-1.788-5.716-3.705-6.503-7.083z" fill="#b397ff"/><path d="m173.999 172.915c3.811-.007 7.622-.007 11.44 0 .04 3.385.176 6.798-.034 10.183-3.818 0-7.629 0-11.44 0-.054-3.399-.176-6.798.034-10.183z" fill="#f9fbfc"/><path d="m281.526 189.453c-4.381-4.493-2.896-12.677 2.082-16.001-.597 1.482-.611 2.651 1.322 2.019-3.668 2.637-4.713 8.939-1.397 12.65.943 1.074-1.309 2.583-2.007 1.332z" fill="#b9c4ee"/><path d="m297.556 174.961c4.157 3.154 4.191 10.251 1.092 14.241-4.679.938.902-4.847-.603-6.791.773-3.011-2.238-4.635-3.282-6.947 1.098.313 2.909 1.564 2.793-.503z" fill="#bbc6ed"/><path d="m313.39 188.053c-1.058-4.336-.373-8.884.068-13.255.047.571.149 1.727.197 2.305 0 3.657-.163 7.3-.265 10.95z" fill="#45359e"/><path d="m85.7911 176.341c6.3199-.02 12.6466-.17 18.9669.014 0 .489 0 1.468.006 1.958-6.3195.02-12.6462.163-18.9661-.014 0-.489 0-1.468-.0068-1.958z" fill="#8799cf"/><path d="m111.098 176.484c2.726.088 5.974-1.101 8.381.707 1.641 2.678.8 6.172.8 9.163-2.82 1.917-7.893.727-10.978.367-.142-2.882-2.468-9.02 1.797-10.237z" fill="#ebedfa"/><path d="m150.889 177.014c6.32-.014 12.647-.156 18.967.02 0 .327.007.979.013 1.306-6.333.006-12.66.013-18.987 0 0-.333.007-.993.007-1.326z" fill="#fbf9f3"/><path d="m150.882 178.34c6.327.013 12.654.007 18.987 0-4.475.693-14.572 1.842-18.987 0z" fill="#fec3cf"/><path d="m150.889 181.752c4.455-.694 14.559-1.849 18.98.007-6.326-.021-12.653-.021-18.98-.007z" fill="#f6808f"/><path d="m150.889 181.752c6.327-.014 12.654-.014 18.98.006 0 .334-.006 1.006-.006 1.34-6.327.006-12.654.013-18.981 0 0-.34.007-1.013.007-1.346z" fill="#fdfbfe"/><path d="m209.267 181.766c2.821 1.855 6.205 4.615 5.086 8.53-1.465 2.923-4.869 5.703-3.207 9.272-.299-.048-.902-.15-1.208-.204-.183-.204-.549-.625-.739-.836.36-2.923.102-5.316-.766-7.171l-.576-.048c-1.492-.36-2.97.286-3.981 1.373-.78-.17-1.546-.353-2.312-.544 4.353-1.692 5.75-6.545 7.703-10.372z" fill="#b397ff"/><path d="m150.882 183.098c6.327.013 12.654.006 18.981 0-4.456.693-14.566 1.842-18.981 0z" fill="#fc8f9b"/><path d="m173.965 183.098h11.44c-1.641.72-9.758 1.869-11.44 0z" fill="#f999a0"/><path d="m85.7843 185.851c6.3199-.014 12.6534-.157 18.9737.013 0 .327.006.972.013 1.292-6.3265.007-12.6532.156-18.9731-.014 0-.326-.0068-.972-.0136-1.291z" fill="#afbcec"/><path d="m151.574 188.536c-1.105.741-1.037-2.909-.285-1.829 10.104 2.706 22.473.456 33.444 1.149-.156-.347-.461-1.033-.61-1.38 1.6-.482 1.424.911 1.343 2.039-11.304.068-22.595.028-33.892.021z" fill="#fed0da"/><path d="m151.289 186.707c10.931-.469 21.889-.081 32.834-.231.149.347.454 1.033.61 1.38-10.971-.693-23.34 1.557-33.444-1.149z" fill="#f8f7f3"/><path d="m266.167 186.53c1.668.85 11.629-2.025 8.646 1.931-2.367-.938-9.378 2.372-8.646-1.931z" fill="#bac4ef"/><path d="m190.253 191.275c1.2-.265 2.279-.883 3.336-1.488.36 1.155.651 2.324.909 3.507-3.546.381-6.259 6.437-9.826 2.78.055-.306.163-.911.217-1.21 2.875-.673.177-4.649 4.767-3.446z" fill="#f2a06f"/><path d="m52.0215 191.105c1.1731 12.759.2577 25.613.5086 38.405-1.4105-12.725-.4069-25.612-.5086-38.405z" fill="#c1cbf1"/><path d="m203.876 192.682c1.011-1.087 2.489-1.733 3.981-1.373-.984 1.224-2.475 1.652-3.981 1.373z" fill="#f6a69b"/><path d="m208.433 191.356c.868 1.856 1.126 4.249.766 7.172l-.596.224c-.068-2.461-.129-4.935-.17-7.396z" fill="#bca3ff"/><path d="m320.11 209.716c3.364-5.635 1.648-12.602 2.923-18.76.807 1.142 1.668 2.263 2.251 3.555-.007 6.845-.42 13.71-.041 20.555 1.601-.027 3.527-.054 5.181-.401 1.621.02 3.33.197 4.971-.014-.021 1.203.006 2.407.101 3.61-3.438.149-6.869 0-10.287.292-.074 5.152-.271 10.325.021 15.484 3.16.082 6.347.055 9.514.096.501 1.128.739 2.345.074 3.466-3.214-.027-6.415-.278-9.615-.061-.061 5.166-.272 10.352.034 15.518 1.81.041 5.438.13 7.249.17 1.512.449 3.037 1.292 3.119 3.073-3.479.163-6.944.027-10.402.319-.109 4.928-.217 9.87.013 14.805 3.411.082 6.856.034 10.28.122-.142 1.231-.251 2.611-1.525 3.188-2.598.945-6.775-1.42-8.7 1.027-.055 2.637-.109 5.281-.156 7.926-3.384-.034-6.748.21-10.111-.062.793-1.984-2.055-7.844 3.092-6.389 3.513-2.644-5.655-1.849-2.529-5.628 1.79-.334 5.045.516 2.834-3.542-1.356-3.337 3.255-12.996-3.038-11.481-.698-1.25.116-2.311.936-3.228.495-.116 1.485-.34 1.98-.456.129-5.105.299-10.216.034-15.314-.963-.089-1.926-.143-2.882-.17-.088-1.061-.068-2.121-.034-3.175.997.075 2.008.191 3.025.259-.088-5.302.196-10.618-.136-15.906-.909-.143-1.817-.265-2.726-.361-.366-1.495-1.132-2.732-2.753-3.011 3.343.157 11.365.965 7.635-4.962z" fill="#c9cbfb"/><path d="m325.209 190.747-.018 1.073c-.066 30.307-.214 60.614.089 90.922-1.778.822-3.586.895-5.436.635-.142-30.787-.119-61.604.006-92.401 1.249-2.906 3.634-.823 5.359-.229z" fill="#8480ff"/><path d="m194.498 193.294c2.401-.041 4.72-.714 7.066-1.156.766.191 1.532.374 2.312.544-4.224.428-7.154 6.226-11.541 3.983.698-1.142 1.478-2.222 2.163-3.371z" fill="#f0a574"/><path d="m30.2204 195.292c-1.4715.238-2.1496-2.902-.6577-2.692 3.6414 1.115 11.6905-2.657 12.2465 2.053-2.631 2.427-8.1101.972-11.5888.639z" fill="#d3d8ee"/><path d="m146.149 194.653.665-.007c12.694.129 25.388-.217 38.075.218-.054.299-.162.904-.217 1.21-12.355-2.298-26.961.782-38.523-1.421z" fill="#dfd9d6"/><path d="m327.312 166.927.569-.061c.319-.021.97-.068 1.295-.095-.027.305-.081.91-.108 1.209-3.113 7.301-6.449 14.866-6.035 22.976-1.275 6.158.441 13.125-2.923 18.76-1.593-2.148-.78-5.159-1.078-7.572.224-11.569-1.18-23.451 2.692-34.585 1.872-.163 3.689-.415 5.588-.632z" fill="#45359e"/><path d="m329.176 166.771.611-.075c-.583 4.065 1.492 10.726-.57 13.71-.068-4.146-.047-8.286-.149-12.425.027-.3.081-.905.108-1.21z" fill="#45359e"/><path d="m263.705 167.743c11.196-.646 22.432-.075 33.648-.3 2.855.041 6.266-.156 8.761 1.53.665 7.939-1.193 15.763.088 23.648 1.967 3.82-2.997 5.254-5.459 4.738-10.212.904-20.363-1.55-30.514-.007-3.099-.571-6.815.211-9.433-1.495-.129-8.959-.115-17.925 0-26.884.773-.795 1.885-.959 2.909-1.23zm-.773 1.169c-2.387 8.34-.535 18.183-.793 27.067 14.016-.197 28.446.625 42.212-.422 1.139-8.32.515-17.917.007-26.271-13.474-1.054-27.68-.238-41.426-.374z" fill="#ebeffa"/><path d="m75.1042 238.367c13.9418 1.339 28.3718-.414 42.0898.938.156 9.088 1.682 19.264-.007 28.305-13.758 1.087-28.2292.156-42.2591.469-1.4987.36-2.0072-1.217-2.5226-2.271-.373-6.947-.1627-13.907-.1763-20.854.3458-2.434-.1153-5.9 2.8752-6.587zm.0271 1.278c-3.1464 1.999-.9019 6.403-1.5732 9.394.6781 5.69-1.241 12.412.8476 17.578 13.8944.19 27.8163.136 41.7103.007 2.075-8.51.339-17.571.78-26.265-13.65-1.917-27.9043-.422-41.7647-.714z" fill="#ebeffa"/><path d="m323.033 190.956c-.414-8.11 2.922-15.675 6.035-22.976.102 4.14.081 8.28.149 12.426 1.695 8.619 7.263 16.348 8.063 25.13-.638 1.128-1.858 1.339-3.031 1.455-4.164-2.672-6.585-7.838-8.965-12.48-.583-1.292-1.444-2.413-2.251-3.555z" fill="#31218b"/><path d="m325.284 194.511c2.38 4.642 4.801 9.808 8.965 12.48-.516 2.923-1.045 6.029-3.825 7.674-1.654.347-3.58.374-5.181.401-.379-6.845.034-13.71.041-20.555z" fill="#faf9f7"/><path d="m63.8748 199.242c14.3012-1.394 29.0839-.068 43.5482-.456.02.306.074.911.101 1.217-14.4908-1.455-29.1175.013-43.6492-.761z" fill="#efdaa5"/><path d="m194.396 206.44c3.655-4.174 9.378-5.363 14.207-7.688l.596-.224c.19.211.556.632.739.836-.413 3.195 1.703 7.681-.732 10.046-4.523 1.652.17 6.404.936 9.109.875 2.529 1.227 5.193 1.871 7.783-.386.258-1.166.761-1.552 1.02-4.767.149-6.361-6.043-9.643-8.647-2.495-3.786-6.978-7.205-6.422-12.235z" fill="#0c33a4"/><path d="m220.612 199.901c1.248-.469 2.502-.938 3.763-1.366-.902 10.209-5.519 20.072-3.438 30.588-.142 3.895-.183 7.797-.217 11.705-.156.177-.468.53-.624.707-1.159.054-2.312.129-3.458.224-1.919-1.828-1.763-4.738-2.57-7.11-.583-2.807-1.139-5.628-2.055-8.347-.644-2.59-.996-5.254-1.871-7.783.224-.863.461-1.727.705-2.583.997-2.814.936-6.546 4.096-7.98 2.685-.986 2.319-4.833 5.133-5.758 1.411-.326 3.119-2.453.536-2.297z" fill="#0e5fe6"/><path d="m63.929 226.751c-.9494-8.946-.807-18.482-.0543-27.509.2713 9.163.3933 18.346.0543 27.509z" fill="#ebd6c5"/><path d="m63.8748 199.242c14.5317.775 29.1584-.694 43.6492.761-.02 8.673-.04 17.347.014 26.027-9.8597 1.231-19.8414.32-29.7485.558.0203-2.38-2.665.183-3.9737.217-3.2956-.088-6.5912-.204-9.8868-.054.3391-9.163.217-18.346-.0542-27.509zm4.2856 2.923c-.5425 4.411 7.0387.774 9.4799 1.984.5425-4.404-7.0455-.788-9.4799-1.984zm30.0332 2.188c-4.7603 1.04-2.136 10.054 2.9834 7.199 3.723-2.087.929-8.218-2.9834-7.199zm-12.2126.605c-3.6822 1.972-.0814 8.511 3.6753 6.587 3.6279-2.311 1.4647-9.53-3.6753-6.587zm-16.9866 2.019c-2.9836 3.963 6.971 1.067 8.6459 1.931.7323-4.303-6.2928-1.006-8.6459-1.931zm-.4136 6.58c2.726-.34 8.8967 2.032 9.0663-1.23-.4001-1.972-5.1265.509-6.1098-.687-1.6139-3.344-6.1978 2.957-2.9565 1.917zm18.7564.999c-2.1768.36-4.4484 3.895-.8816 3.882 2.3395-.68.4679 2.82 2.1022 2.746 4.8009.972 3.2481-8.742-1.2206-6.628zm10.1105-.143c-2.9837 2.753-1.1596 8.953 3.7903 6.723 3.282-2.671.461-8.238-3.7903-6.723zm-29.3619 2.719c.5764 4.181 6.937 1.034 9.5545 1.978.5425-4.438-7.1133-.768-9.5545-1.978zm.0746 4.745c-.5425 4.411 7.0387.775 9.4799 1.985.5425-4.405-7.0455-.789-9.4799-1.985z" fill="#fbca5e"/><path d="m209.938 199.364c.306.054.909.156 1.208.204 3.058.965 6.319.333 9.466.333 2.583-.157.875 1.971-.536 2.297-2.814.925-2.448 4.772-5.133 5.758-3.16 1.434-3.099 5.166-4.096 7.98-.847-1.836 1.031-5.982-1.641-6.526 2.435-2.365.319-6.851.732-10.046z" fill="#0948d4"/><path d="m241.328 200.37c13.176-.333 27.009-.707 39.947.19 1.865 8.347 2.082 19.182.326 27.998-13.515.225-27.036.007-40.551.116-.956-.027-2.075.109-2.611-.877-.149-8.544-.142-17.095-.054-25.633.041-1.407 1.919-1.434 2.943-1.794zm2.617 5.227c-4.231 3.419 8.219 2.848 6.069.516-1.878-.89-4.089-.638-6.069-.516zm-.834 4.704c-1.241 3.086 6.958 1.25 6.781.673-1.695-.17-5.085-.503-6.781-.673zm0 4.078c-1.241 3.086 6.958 1.251 6.781.673-1.695-.17-5.085-.503-6.781-.673zm27.118.007c-.59 3.535 5.764.197 7.459 1.332.59-3.534-5.784-.211-7.459-1.332zm-27.118 10.189v1.326c11.521.054 23.049.047 34.57 0 0-.333.007-.993.007-1.326-9.907-1.257-24.676-1.081-34.577 0z" fill="#f6f7fc"/><path d="m162.302 248.984c.963-2.365 2.319-4.54 3.492-6.804 11.453.252 22.927-.258 34.38.272.163.32.495.972.658 1.298-10.708 1.89-22.33-.768-33.133 1.068-1.451 1.726-.508 2.236 2.821 1.515 9.765.055 19.53-.156 29.288.089 1.79 1.04.807 3.283.827 4.948 2.156 5.73-6.001.945-5.703 5.03 2.061.524 5.093-.897 6.245 1.407-1.491 1.808-5.852-.788-6.218 1.469v1.298c.299 2.195 6.544-1.394 5.35 1.944-1.898.401-5.533-.727-5.357 2.026 2.665-.136 6.388-.021 5.995 3.453-.719 1.522-.997 3.908-3.974 2.093-10.619.041-21.238.061-31.85.014-1.174.17-1.933-.761-2.591-1.564-.305-6.518.007-13.037-.23-19.556zm5.547 5.506c-1.289 4.167 4.956 1.054 6.835 1.999.115-3.569-5.147-1.326-6.835-1.999z" fill="#f6f7fc"/><path d="m68.1604 202.165c2.4344 1.196 10.0224-2.42 9.4799 1.984-2.4412-1.209-10.0224 2.427-9.4799-1.984z" fill="#fbf3e3"/><path d="m145.919 203.32c14.389-1.156 29.334-.578 43.819-.055-14.6.381-29.22.354-43.819.055z" fill="#c4d1f8"/><path d="m145.43 218.369c.183-5.003-.44-10.135.489-15.049-.434 4.649 1.512 11.175-.489 15.049z" fill="#b0bbf8"/><path d="m145.919 203.32c14.599.299 29.219.326 43.819-.054-.38 9.353-.136 18.72-.217 28.086-6.008.109-12.016-.02-18.017.028-.333-1.265-1.269-4.487-2.801-2.529-1.166 1.754-4.381-.551-3.587 2.508-4.516.034-9.026-.054-13.535.007.305-1.801.603-3.609.712-5.438 10.829-.061 21.658.095 32.481-.02.997.503 1.2-2.413.19-1.958-10.877-.163-21.754-.034-32.63-.034l-.57-.014c-.244-.931-.488-1.862-.766-2.78 11.48.055 22.967.116 34.454.007 0-.489 0-1.468 0-1.957-11.826.265-23.801-.775-35.533.482-2.21-.149-4.4-.476-6.597-.632.698-.231 1.396-.449 2.108-.653 2.001-3.874.055-10.4.489-15.049zm4.292 6.322c.007.496.007 1.481.007 1.978 11.745.081 23.489.047 35.241.006-.007-.496-.007-1.481-.007-1.978-11.745-.088-23.496-.047-35.241-.006zm.4 6.566c2.801-.904 10.612 2.488 11.121-1.163-1.417-1.597-13.711-1.59-11.121 1.163zm13.162-1.149c0 .34-.007 1.013-.007 1.346 5.398 1.325 15.522 1.149 21.279-.116.848.796.773-2.555-.271-1.91-6.747.435-15.373-.958-21.001.68z" fill="#5a6bef"/><path d="m189.738 203.266c.725 8.979 1.071 19.991-.217 28.086.081-9.366-.163-18.733.217-28.086z" fill="#c0cdfa"/><path d="m98.1936 204.353c3.9124-1.019 6.7064 5.112 2.9834 7.199-5.1194 2.855-7.7437-6.159-2.9834-7.199zm.651 1.992c-1.8852.761-1.9733 3.691.495 3.283 2.4344.986 1.6684-4.296-.495-3.283z" fill="#fcedcf"/><path d="m85.981 204.958c5.14-2.943 7.3032 4.276 3.6753 6.587-3.7567 1.924-7.3574-4.615-3.6753-6.587z" fill="#faf7e8"/><path d="m243.945 205.597c1.98-.122 4.191-.374 6.069.517 2.15 2.331-10.3 2.902-6.069-.517z" fill="#bbc7ee"/><path d="m334.249 206.991c1.173-.116 2.393-.327 3.031-1.455 1.668.469 2.665 2.264 1.987 3.929-.95 1.964-2.259 3.718-3.872 5.186-1.641.211-3.35.034-4.971.014 2.78-1.645 3.309-4.751 3.825-7.674z" fill="#312690"/><path d="m98.8446 206.345c2.1634-1.013 2.9294 4.269.495 3.283-2.4683.408-2.3801-2.522-.495-3.283z" fill="#f6cb5d"/><path d="m68.9944 206.977c2.3531.924 9.3782-2.372 8.6459 1.93-1.6749-.863-11.6295 2.033-8.6459-1.93z" fill="#fbf3e6"/><path d="m150.211 209.642c11.745-.041 23.496-.082 35.241.006 0 .497 0 1.482.007 1.978-11.752.041-23.496.075-35.241-.006 0-.497 0-1.482-.007-1.978zm3.384.666c8.856 1.57 20.567.238 30.514.652-8.856-1.57-20.566-.244-30.514-.652z" fill="#d8e2f7"/><path d="m210.142 218.519c-.766-2.705-5.459-7.457-.936-9.108 2.672.543.794 4.69 1.641 6.525-.244.857-.481 1.72-.705 2.583z" fill="#c1d4f1"/><path d="m309.45 213.203c2.591-.958 5.127-2.059 7.514-3.466.664.183 1.342.34 2.027.469.366.013 1.092.041 1.451.054 3.73 5.928-4.292 5.119-7.635 4.962-1.492-.034-3.018-.34-3.357-2.019z" fill="#291f8c"/><path d="m153.595 210.307c9.948.408 21.658-.917 30.514.653-9.947-.415-21.658.918-30.514-.653z" fill="#fdfdff"/><path d="m243.111 210.301c1.696.17 5.086.503 6.781.673.177.578-8.022 2.413-6.781-.673z" fill="#7a8fc8"/><path d="m68.5808 213.557c-3.2413 1.04 1.3426-5.261 2.9565-1.917.9833 1.197 5.7097-1.284 6.1098.687-2.5972.965-7.6355-1.87-9.0663 1.23z" fill="#f9e09a"/><path d="m68.5808 213.557c1.4308-3.1 6.4691-.265 9.0663-1.23-.1696 3.263-6.3403.89-9.0663 1.23z" fill="#fff7fd"/><path d="m87.3372 214.556c4.4687-2.114 6.0216 7.599 1.2206 6.627-1.6343.075.2373-3.426-2.1021-2.746-3.5669.014-1.2952-3.521.8815-3.881z" fill="#faf3e1"/><path d="m97.4477 214.413c4.2513-1.515 7.0723 4.052 3.7903 6.723-4.9499 2.23-6.774-3.97-3.7903-6.723z" fill="#fbf7ea"/><path d="m150.611 216.208c-2.59-2.753 9.704-2.76 11.121-1.163-3.363.87-8.639-1.624-11.121 1.163z" fill="#acb6f7"/><path d="m163.773 215.059c5.628-1.638 14.254-.245 21.001-.68 1.044-.645 1.119 2.706.271 1.91-5.764-3.031-14.477-.346-21.272-1.23z" fill="#aab4f4"/><path d="m243.111 214.379c1.696.17 5.086.503 6.781.673.177.578-8.022 2.413-6.781-.673z" fill="#b1bbed"/><path d="m270.229 214.386c1.675 1.122 8.049-2.202 7.459 1.332-1.695-1.135-8.049 2.203-7.459-1.332z" fill="#b5bfed"/><path d="m150.611 216.208c2.482-2.787 7.758-.292 11.121-1.162-.509 3.65-8.32.258-11.121 1.162z" fill="#f3fbfb"/><path d="m163.773 215.059c6.795.884 15.508-1.801 21.272 1.23-7.093.204-14.186.116-21.279.116 0-.333.007-1.006.007-1.346z" fill="#f4fdff"/><path d="m163.766 216.405c7.093 0 14.186.088 21.279-.115-5.757 1.264-15.881 1.441-21.279.115z" fill="#8085e0"/><path d="m68.0858 217.132c2.4411 1.21 10.097-2.46 9.5545 1.978-2.6175-.945-8.9781 2.203-9.5545-1.978z" fill="#fcf4e3"/><path d="m315.397 234.241c-1.078-5.247-.434-10.746.163-16.008.909.096 1.817.218 2.726.361.332 5.288.047 10.604.136 15.906-1.018-.068-2.028-.184-3.025-.259z" fill="#dce3f7"/><path d="m325.209 218.553c3.418-.292 6.849-.143 10.287-.292.672 4.873 1.845 12.521-.752 15.872-3.167-.041-6.354-.014-9.514-.096-.292-5.159-.095-10.332-.021-15.484z" fill="#fcfdfd"/><path d="m141.911 219.559c.353-.136 1.058-.401 1.41-.537 2.198.156 4.388.483 6.598.632.265.367.807 1.101 1.079 1.468.278.918.522 1.849.766 2.78-.4 1.843-1.539 2.978-3.472 2.957.075 1.992.21 3.984-.014 5.982l-.027.564c1.099 5.567-.095 12.603-6.713 13.813-2.088-.17-4.231-.075-6.157-.966-2.936-9.747 4.38-17.659 6.53-26.693z" fill="#21188d"/><path d="m149.919 219.654c11.732-1.258 23.707-.218 35.533-.483v1.958c-11.487.109-22.974.047-34.454-.007-.272-.367-.814-1.101-1.079-1.468z" fill="#e5ebfb"/><path d="m140.745 220.008c.291-.116.874-.34 1.166-.449-2.15 9.034-9.466 16.946-6.53 26.693-1.634-.707-3.058-1.835-4.042-3.324-.623-1.862-1.369-3.833-.542-5.838.705-4.643 7.201-5.778 6.713-11.005.671-2.223 1.885-4.208 3.235-6.077z" fill="#1137a5"/><path d="m68.1604 221.877c2.4344 1.196 10.0224-2.42 9.4799 1.985-2.4412-1.21-10.0224 2.427-9.4799-1.985z" fill="#fbf5e4"/><path d="m151.764 223.902.57.014c-.007.333-.014.999-.014 1.325l-.027.687c-.109 1.828-.407 3.637-.712 5.438-1.017.673-2.109 1.21-3.303 1.475.224-1.999.089-3.99.014-5.982 1.933.021 3.072-1.115 3.472-2.957z" fill="#dd9875"/><path d="m152.334 223.916c10.876 0 21.753-.129 32.63.034-.129.286-.393.863-.522 1.156-10.701.367-21.415.034-32.122.136 0-.327.007-.993.014-1.326z" fill="#f8fbf7"/><path d="m184.964 223.95c1.01-.456.807 2.461-.19 1.957-10.823.116-21.652-.04-32.481.021l.027-.687c10.707-.102 21.421.231 32.122-.136.129-.292.393-.87.522-1.155z" fill="#bcc7fb"/><path d="m243.111 224.575c9.901-1.08 24.67-1.257 34.577 0-11.528-.006-23.056-.02-34.577 0z" fill="#d1dafe"/><path d="m243.111 224.575c11.521-.02 23.049-.007 34.577 0 0 .333-.007.993-.007 1.326-11.521.047-23.049.054-34.57 0 0-.333 0-.993 0-1.326z" fill="#b1bfe4"/><path d="m73.8158 226.805c1.3087-.034 3.994-2.597 3.9737-.218l-.0136.687c.4815 4.67-5.9605 4.874-7.2354 8.966-.9832-1.027-2.0479-1.965-3.1599-2.842 1.919-1.291 3.5668-2.95 5.0857-4.676.4883-.612.9223-1.271 1.3495-1.917z" fill="#efa26e"/><path d="m77.7894 226.588c9.9072-.238 19.8888.673 29.7486-.558-.027.299-.081.891-.109 1.19-9.8796.251-19.7731-.034-29.6531.054z" fill="#efd9a3"/><path d="m63.929 226.751c3.2956-.15 6.5912-.034 9.8868.054-.4272.646-.8612 1.305-1.3495 1.917-.8205-3.371-6.2521-.258-8.5373-1.971z" fill="#f0d2a6"/><path d="m210.461 227.321c.386-.258 1.166-.761 1.552-1.019.916 2.719 1.472 5.54 2.055 8.347-1.275 1.55-5.255 4.853-6.218 1.72 2.95-1.965 2.509-5.996 2.611-9.048z" fill="#ea5f65"/><path d="m168.703 228.851c1.532-1.958 2.468 1.264 2.801 2.529-1.296 1.957-2.665 3.874-4.164 5.675-.997-.38-1.987-.781-2.977-1.162.597-1.441.773-2.991.753-4.534-.794-3.059 2.421-.754 3.587-2.508z" fill="#e9a074"/><path d="m52.5301 229.51c1.8308-.122 4.1025-.924 4.862 1.183-8.3882-1.958-11.3718 7.681-16.3356 12.263-3.9872 2.195-2.9294 8.089-.5221 11.113-.2034.129-.5967.401-.7934.537-5.4859-1.529-6.7743-9.217-1.8377-12.072 3.5465-2.596 4.8756-7.253 7.9678-10.373 2.197-.944 4.428-1.808 6.659-2.651z" fill="#45359e"/><path d="m220.937 229.123c.712 3.793.984 8.096-.217 11.705.034-3.908.075-7.81.217-11.705z" fill="#6697ee"/><path d="m41.0565 242.955c4.9638-4.581 7.9474-14.22 16.3356-12.262-.0746 1.325-.3933 2.624-.6917 3.915-3.1261-.496-6.5912 3.943-4.4823 6.594.6917 1.475-.7255 2.916-1.1527 4.289-.3527.517-.7053 1.033-1.0579 1.557-1.424.876-2.6243 2.046-3.655 3.357-1.8241 1.394-3.5126 3.1-5.8181 3.664-2.4073-3.025-3.4651-8.918.5221-11.114z" fill="#45359e"/><path d="m148.278 232.841c1.194-.265 2.286-.802 3.303-1.475 4.509-.061 9.019.027 13.535-.007.02 1.543-.156 3.093-.753 4.534-2.034 2.141-2.95 5.2-5.221 7.09-3.296-3.181-5.12-10.38-10.891-9.578z" fill="#dee3f7"/><path d="m53.1132 244.988c6.5912-.625 8.5442-8.979 14.2674-11.59 1.1121.877 2.1767 1.815 3.1599 2.842-2.7599 6.315-8.422 10.726-12.3076 16.273.1153.326.3594.972.4815 1.298-.4543 1.319-.3526 2.739.1288 4.038-2.8819 4.282-.9493 9.516-.8612 14.301-1.7969 1.285-3.7974 2.271-5.9198 2.889-2.4005-.054-4.7942-.095-7.1947-.061l-.5967-.149c-2.8616-4.813.5289-10.604-.8002-15.716.0881-1.863-2.3056-1.353-2.0004.299-1.4647.007-3.8245 1.387-3.9398-.748.6645-1.393 1.3359-2.793 2.2106-4.058.1967-.136.59-.408.7934-.537 2.3056-.564 3.994-2.27 5.8181-3.663 1.8309-.3 2.9973-1.713 3.655-3.358.3526-.524.7053-1.04 1.0579-1.557.6781-.184 1.363-.353 2.0478-.503z" fill="#105fe6"/><path d="m148.251 233.405c5.771-.802 7.595 6.397 10.891 9.578 2.271-1.89 3.187-4.949 5.221-7.09.99.381 1.98.782 2.977 1.162-.136 1.808-.583 3.576-1.546 5.126-1.173 2.263-2.529 4.438-3.492 6.804-3.079 1.821-5.968-.646-8.524-2.189-3.16-5.071-7.263 3.623-4.381 6.458 2.557 2.555-.318 6.403 1.689 9.169 1.2 1.271 2.841 2.053 4.536 2.42.014.299.034.897.048 1.203l-.488-.177c-5.636 2.543-12.722 3.202-18.798.809-1.295-3.256 1.777-7.341-1.118-9.924 2.915-.686 1.817-5.682-.57-6.614 1.268-2.685 4.367-2.338 6.842-2.923 6.618-1.209 7.812-8.245 6.713-13.812z" fill="#adbaec"/><path d="m52.2181 241.202c-2.1089-2.651 1.3562-7.09 4.4823-6.594.651 2.61 2.0614 7.321-1.5325 8.13-1.3969.061-2.0954.843-2.0547 2.25-.6849.149-1.3697.319-2.0478.503.4272-1.373 1.8444-2.814 1.1527-4.289z" fill="#f09c6f"/><path d="m315.431 237.416c.956.027 1.919.081 2.882.169.265 5.099.095 10.21-.034 15.315-.495.116-1.485.34-1.98.455-3.512-4.112-.413-10.964-.868-15.939z" fill="#dde2f6"/><path d="m325.203 237.538c3.2-.217 6.401.034 9.615.061 3.113 3.011.271 8.341 1.228 12.113 2.237 4.391-1.601 3.209-3.56 3.514-1.811-.04-5.439-.129-7.249-.17-.306-5.166-.095-10.352-.034-15.518z" fill="#fbfcfd"/><path d="m325.271 275.76c1.925-2.447 6.102-.082 8.7-1.027 4.109.734 1.241 6.24 2.081 8.98 1.838 6.246-5.913 3.589-9.005 4.588-.434 0-1.302-.007-1.736-.014-3.438-.299-6.876-.51-10.314-.639-2.455-7.117 8.504-.788 10.118-3.963.047-2.644.101-5.288.156-7.925z" fill="#fbfcfd"/><path d="m216.638 241.759c1.146-.095 2.299-.17 3.458-.224.387 1.278.685 2.583.875 3.915-1.587-.156-3.167-.272-4.746-.36.183-1.108.325-2.216.413-3.331z" fill="#df9c7a"/><path d="m131.339 242.928c.984 1.489 2.408 2.617 4.042 3.324 1.926.891 4.069.795 6.157.965-2.475.585-5.574.238-6.842 2.923 2.387.931 3.485 5.928.57 6.614-2.611-1.189-5.188-2.59-7.358-4.473-.522-3.534 2.38-6.212 3.431-9.353z" fill="#778ccd"/><path d="m261.583 243.003c11.236-.183 22.479-.074 33.722-.054v1.985c-11.534.047-23.076.061-34.61-.007-.068-.816.223-1.461.888-1.924z" fill="#bac6f0"/><path d="m149.397 253.253c-2.882-2.834 1.221-11.528 4.381-6.457-1.655 6.281 1.376 11.977 1.844 18.047-1.695-.367-3.336-1.149-4.536-2.42-2.007-2.766.868-6.614-1.689-9.17z" fill="#9cade2"/><path d="m170.52 246.334c-3.329.72-4.272.21-2.821-1.516 10.918.347 21.835-.007 32.76.177-.163.36-.489 1.074-.651 1.427-9.758-.245-19.523-.034-29.288-.088z" fill="#b2bdea"/><path d="m216.224 245.09c1.58.088 3.16.204 4.747.36 1.038 6.723-7.025 3.732-11.243 4.398-1.512-2.753 4.72-3.025 6.496-4.758z" fill="#f5505d"/><path d="m77.6606 245.668c11.7448-.061 23.4964-.041 35.2414-.014-.719 1.543-1.085 3.902-4.062 2.019-10.3955 0-20.7908.055-31.1794-.02 0-.496 0-1.489 0-1.985z" fill="#bbc5f0"/><path d="m220.971 245.45c.136 1.074.414 3.222.556 4.296-.99.326-1.98.646-2.977.925-2.929-.367-6.028.006-8.822-.823 4.218-.666 12.281 2.325 11.243-4.398z" fill="#e29fb5"/><path d="m46.3525 250.405c1.0308-1.312 2.231-2.481 3.655-3.358-.6577 1.645-1.8241 3.059-3.655 3.358z" fill="#703c92"/><path d="m77.6538 250.432c6.0894-.04 12.1788-.149 18.2682 0 2.2648-.074 2.075 5.52-1.9936 2.012-5.4181-.074-10.8497.157-16.2678-.061 0-.489 0-1.461-.0068-1.951z" fill="#8d9bd2"/><path d="m260.742 252.465c6.998-.061 14.003-.082 21.008 0v1.325c-7.005.007-14.01.014-21.015 0 0-.333.007-.992.007-1.325z" fill="#798fc8"/><path d="m283.791 253.804c.502-3.65 8.307-.265 11.121-1.162-2.489 2.78-7.771.285-11.121 1.162z" fill="#7890c9"/><path d="m294.912 252.642c2.583 2.746-9.711 2.753-11.121 1.162 3.35-.877 8.632 1.618 11.121-1.162z" fill="#b2bfde"/><path d="m58.7144 253.811c1.3833.884 1.4308 2.236.1288 4.038-.4814-1.299-.5832-2.719-.1288-4.038z" fill="#7f9df2"/><path d="m260.735 253.791c7.005.013 14.01.006 21.015 0-5.276.999-15.773 1.393-21.015 0z" fill="#b0bfe0"/><path d="m167.849 254.491c1.688.673 6.95-1.57 6.835 1.998-1.879-.945-8.124 2.169-6.835-1.998z" fill="#bdc6f0"/><path d="m315.363 256.584c6.293-1.515 1.682 8.144 3.038 11.481 2.211 4.058-1.044 3.209-2.834 3.542-.929-4.962-.658-10.026-.204-15.023z" fill="#dde2f7"/><path d="m325.203 256.618c3.458-.292 6.923-.156 10.402-.319.875 5.003.488 10.216-.109 15.246-3.424-.088-6.869-.04-10.28-.122-.23-4.935-.122-9.877-.013-14.805z" fill="#fafbfd"/><path d="m260.905 257.305c11.46-.245 22.933-.095 34.4-.082v1.985c-11.284.041-22.574.075-33.858-.014-1.166.157-1.892-1.481-.542-1.889z" fill="#b7c5ed"/><path d="m41.4702 259.412c-.3052-1.652 2.0885-2.162 2.0004-.299-.5764.713-1.2409.815-2.0004.299z" fill="#e39140"/><path d="m32.9193 263.987c-2.3191-5.01 2.8955-3.113 4.6111-5.322.1153 2.134 2.4751.754 3.9398.747.7595.517 1.424.415 2.0004-.299 1.3291 5.112-2.0615 10.903.8001 15.716-.2102 1.067-.3729 2.141-.4678 3.228-3.1261.272-6.2996.402-9.4325.13-1.207-4.636-.5153-9.517-1.4511-14.2z" fill="#adbbed"/><path d="m194.959 259.276c1.804.537 6.842-1.876 6.076 1.271-2.021.136-4.069.021-6.076.027 0-.326 0-.972 0-1.298z" fill="#7f8fcd"/><path d="m77.6471 259.942c6.3199-.014 12.6534-.156 18.9733.014 0 .326.0068.972.0136 1.291-6.3267.007-12.6534.156-18.9734-.013 0-.327-.0068-.972-.0135-1.292z" fill="#b2bee2"/><path d="m136.384 266.679c6.076 2.392 13.162 1.733 18.798-.809.372 3.555-3.866 5.084-6.788 4.724-3.913-.843-7.805.075-11.711.258-.061-1.393-.163-2.787-.299-4.173z" fill="#dc3955"/><path d="m155.182 265.87.488.176c.034 1.285.061 2.577.149 3.868-.115 2.366-.461 4.84.292 7.151l.122.584c.034 1.999.067 4.045.095 6.064v.673c-.034 1.155-.102 3.453-.136 4.608-.197 1.883-.393 3.82-.454 5.737-.516 3.841-.163 7.96-2.116 11.44-1.397-.006-2.794 0-4.184.021-.359-2.672-.604-5.37-.8-8.048.129-4.861.569-9.775-.305-14.594-.8-2.665-.373-6.186-2.672-8.103-.427 2.005-.868 4.017-1.065 6.057-.325 2.596-.42 5.206-.284 7.823-.129 1.747-.265 3.494-.407 5.248-1.119 1.665-1.194 3.249-.224 4.751-.522 2.196.664 5.404-1.546 6.954-1.18-.02-2.353-.02-3.533.007-2.577-2.536-.821-6.852-1.438-10.189-.095-4.398.733-8.912-.278-13.242-.108-1.76-.203-3.507-.278-5.254.007-2.27.041-4.493.075-6.75 3.906-.183 7.798-1.101 11.711-.258 2.922.36 7.16-1.169 6.788-4.724z" fill="#f94b57"/><path d="m135.93 277.581c.014-3.643.129-7.28.454-10.903.136 1.387.238 2.78.299 4.174-.034 2.257-.068 4.479-.075 6.75z" fill="#e6abbd"/><path d="m155.819 269.914c.739 2.325.407 4.745.292 7.151-.753-2.311-.407-4.785-.292-7.151z" fill="#f38398"/><path d="m52.0622 275.039c2.1224-.618 4.1228-1.604 5.9198-2.889 1.4986 1.883 3.0311 3.746 4.5908 5.588 1.0103 2.087 1.8309 4.337 3.3295 6.145l.3526.516c1.4918 5.764-5.4655 6.322-8.9103 8.293-2.8955-2.243.4611-10.713-6.0012-11.821.7866 6.424.8544 13.296-1.4512 19.366-.495-6.022 1.9258-11.902.8205-17.925.9697-3.242-1.146-5.465-3.7567-6.505 1.7292-.102 3.4312-.36 5.1062-.768z" fill="#31218b"/><path d="m221.12 279.553c.767-4.058 4.239-7.301 8.409-7.484-.027 1.665-.075 4.989-.102 6.654-1.444 2.339-6.564 3.277-4.78 6.499-.414 1.624-.489 5.132 1.634 3.48.827-.619 1.654-1.244 2.522-1.808 1.336.136 2.753.347 3.513 1.604-.048 3.671.088 8.082-2.929 10.706-1.974 2.128-6.436 2.61-6.07 6.226-3.566.021-7.12.068-10.68 0-.827-1.481-1.668-2.97-2.278-4.554.041-2.134.156-4.214.224-6.321 3.397-.157 6.218 2.114 9.269 3.262.217-1.971 1.18-3.677 2.164-5.342-.95-1.591-3.16-2.223-4.632-3.385.054-1.333-.902-2.339-2.15-2.604-.162-.333-.501-.999-.664-1.339-.041-2.406-.007-4.779-.068-7.178 1.166-.027 2.326.034 3.486.156.996.558 1.959 1.285 3.132 1.428z" fill="#5a8961"/><path d="m44.2708 274.829.5967.149c.6984.272 1.3901.551 2.0885.829 2.6107 1.04 4.7264 3.263 3.7567 6.506 1.1054 6.022-1.3155 11.902-.8205 17.924 2.3056-6.07 2.2378-12.942 1.4512-19.366 6.4623 1.108 3.1057 9.578 6.0012 11.821-4.1636 7.341-5.4384 16.654-9.5206 24.389-2.2242.435-3.0921-.877-3.1328-2.93.0271-5.818.4746-11.705 1.5393-17.442-.2916-.047-.868-.142-1.1596-.197 1.5936-1.427 3.1329-6.471.8612-7.558-.0542-3.712-.4814-7.525-2.1292-10.897.0949-1.087.2576-2.161.4679-3.228z" fill="#45359e"/><path d="m44.8675 274.978c2.4005-.034 4.7942.007 7.1947.061-1.675.408-3.377.667-5.1062.769-.6984-.279-1.3901-.558-2.0885-.83z" fill="#6575a9"/><path d="m145.661 275.447c2.299 1.917 1.871 5.438 2.672 8.103l-.055.734c-1.152.047-2.305.095-3.451.136-.082-.972-.163-1.944-.231-2.916.197-2.039.638-4.052 1.065-6.057z" fill="#b0acd5"/><path d="m214.502 277.969c.231-1.971 2.95-1.339 3.486.156-1.16-.122-2.32-.183-3.486-.156z" fill="#7ac5b7"/><path d="m62.5728 277.737c24.4524-.346 48.9052-.047 73.3572-.156l.678.02c.075 1.747.17 3.494.278 5.255l-.122.748c-23.618.36-47.2433-.211-70.8617.278-1.4986-1.808-2.3191-4.058-3.3295-6.145z" fill="#8480ff"/><path d="m156.233 277.649c14.579-.21 29.158.129 43.731-.19.556 2.012.583 4.072.42 6.165-14.681.265-29.376-.034-44.056.089-.028-2.019-.061-4.065-.095-6.064z" fill="#8480ff"/><path d="m251.005 276.958.82.022c23.182.078 46.364.256 69.547-.107.629 2.133.685 4.302.486 6.521-23.549.171-47.122.142-70.678-.007-2.223-1.499-.629-4.36-.175-6.429z" fill="#8480ff"/><path d="m214.57 285.147c-.766-2.366-.787-4.765-.068-7.178.061 2.399.027 4.772.068 7.178z" fill="#6abead"/><path d="m144.312 289.327c-.136-2.617-.041-5.227.284-7.824.068.972.15 1.944.231 2.916-.163 1.632-.332 3.27-.515 4.908z" fill="#f07f94"/><path d="m335.395 214.651c1.613-1.468 2.922-3.222 3.872-5.186.325 2.161-1.153 6.07 2.115 5.778 3.479 5.587-5.635.815-1.993 6.613 1.444 3.399-2.916 11.753 2 12.419 2.475 4.201-4.909 2.882-2 7.28.013 3.793-.17 7.6.074 11.4 2.977-.633 2.95 4.329-.007 3.765-.128 4.629-.162 9.272-.006 13.915 3.2-.687 3.072 5.145.006 4.425 1.411 3.602-3.309 13.139 2.638 12.86 3.655 6.614-5.764 1.217-2.719 7.348 1.119 2.862-2.522 10.393 2.719 9.646 1.451 3.466-.217 4.16-2.665 4.071-.203 5.384.156 10.788-.088 16.178-7.859.585-.291-11.848-4.184-16.225-6.713-.184-13.433-.116-20.139-.048-.184 5.418.115 10.849-.068 16.273-1.126.014-2.245.014-3.364.007-.074-5.173.238-10.352-.061-15.505-1.878-1.223-3.153-4.846-.108-5.295-.407-3.827 1.614-9.299-.563-12.419-4.611-1.801 3.391-5.2-.129-7.477-19.821-.163-39.655-.136-59.47-.02-1.681 7.49 9.006.482 12.098 4.2.183 3.773-.027 7.552.156 11.325 4.251.17 8.524-.17 12.775.122.617 3.97-.963 8.667.516 12.365 3.566 1.087 7.859.088 11.697.537.102 4.044.054 8.102.041 12.16-13.271-.401-26.677.857-39.866-.612-.041-.367-.129-1.108-.17-1.475.278-1.06.577-2.107.848-3.154.997-2.42 1.6-4.996 3.241-7.083-.244-.414-.936-1.651-1.41-.74l-.604.068c-.149-1.836.55-3.855-.556-5.411-3.261-2.502-1.227-6.9-3.329-10.067 2.794-5.051-4.11-9.421-7.188-4.969-1.011 1.964-.292 4.248.19 6.247-2.123 2.848.346 6.709-2.089 9.503-.298 1.549-.542 3.12-.719 4.71-2.509 1.346 1.852 6.6 2.096 9.639.034 1.142.013 2.284.006 3.433-3.865-.096-7.73-.089-11.582-.109 1.18-5.608 1.58-11.658 4.293-16.783 1.939.204 2.156-1.264 1.919-2.848-3.445-.109-6.863-.041-10.301-.082-.366-3.616 4.096-4.098 6.07-6.226 3.017-2.624 2.881-7.035 2.929-10.706.502-2.651-1.878-3.371-3.513-1.604-.868.564-1.695 1.189-2.522 1.808-.407-.87-1.228-2.61-1.634-3.48-1.784-3.222 3.336-4.16 4.78-6.499.027-1.665.075-4.989.102-6.654-4.17.183-7.642 3.426-8.409 7.484-1.173-.143-2.136-.87-3.132-1.428-.536-1.495-3.255-2.127-3.486-.156-.719 2.413-.698 4.812.068 7.178.163.34.502 1.006.664 1.339.007 1.305.896 2.325 2.15 2.603 1.472 1.163 3.682 1.795 4.632 3.386-.984 1.665-1.947 3.371-2.164 5.342-3.051-1.148-5.872-3.419-9.269-3.262-2.116.21-.577 4.676-.224 6.321.61 1.584 1.451 3.073 2.278 4.554-1.037.191-3.099.558-4.129.741 2.298 3.637 4.021 8.592 4.95 13.378.156 1.876.393 3.738.556 5.614-4.313.007-8.612.034-12.911-.013-1.241-13.514-1.031-27.183-.075-40.717-14.898-.149-29.803 0-44.7-.047v-.673c14.68-.123 29.375.176 44.056-.089.163-2.093.136-4.153-.42-6.165.766-3.086 1.268-6.281.983-9.462.393-3.473-3.33-3.589-5.995-3.453-.176-2.753 3.459-1.625 5.357-2.026 1.194-3.337-5.051.252-5.35-1.944 2.007-.006 4.055.109 6.076-.027.766-3.147-4.272-.734-6.076-1.271.366-2.257 4.727.34 6.218-1.468-1.152-2.304-4.184-.884-6.245-1.407-.298-4.085 7.859.7 5.703-5.03-.02-1.666.963-3.909-.827-4.949.162-.353.488-1.067.651-1.427-10.925-.184-21.842.17-32.76-.177 10.803-1.835 22.425.823 33.133-1.067.094-2.012-.712-4.609 1.105-6.063 1.966-.456 4.055-.435 5.913-1.319.963 3.133 4.943-.17 6.218-1.72.807 2.372.651 5.282 2.57 7.11-.088 1.115-.23 2.223-.413 3.331-1.777 1.733-8.009 2.005-6.497 4.758 2.794.829 5.893.456 8.822.823 2.028.523 4.422-.089 6.198 1.21.034 3.521.082 7.048.136 10.576 2.095 2.746 6.883.87 6.672-2.549.123-16.347-.081-32.709.041-49.056.17.367.509 1.107.671 1.481.15 16.226-.339 32.465.204 48.683.258 3.528 6.591 1.781 4.475 6.41.556 2.536-.644 5.608.943 7.919 4.001 2.4 9.466-.591 13.393 2.148-.387 1.971-1.743 4.697.149 6.125 20.051.142 40.116.169 60.161.006.17-2.114.122-4.18-.413-6.212.725-1.747-.679-2.4-2.082-2.951-1.187-2.78 2.136-3.521 2.454-5.764.184-3.534.143-7.062-.115-10.59-.522-1.985-4.177-1.509-2.339-4.581 4.963-1.204 1.546-7.743 2.495-11.284 2.55-4.425-4.299-3.949-2.495-7.763 5.899-1.889 1.017-10.665 2.407-15.124-3.072-.578-3.35-4.099-2.055-6.152.339 1.679 1.865 1.985 3.357 2.019 1.621.279 2.387 1.516 2.753 3.011-.597 5.262-1.241 10.761-.163 16.008-.034 1.054-.054 2.114.034 3.175.455 4.975-2.644 11.827.868 15.94-.82.917-1.634 1.978-.936 3.228-.454 4.996-.725 10.06.204 15.023-3.126 3.779 6.042 2.984 2.529 5.628-5.147-1.455-2.299 4.404-3.092 6.389 3.363.272 6.727.028 10.111.062-1.614 3.174-12.573-3.154-10.118 3.962 3.438.13 6.876.34 10.314.639-2.217 1.237-11.955-2.202-9.866 2.427 6.354.931 13.27.503 19.855.394 1.349-4.839-5.473-1.998-8.253-2.807 3.092-.999 10.843 1.658 9.005-4.588-.84-2.74 2.028-8.246-2.081-8.98 1.274-.577 1.383-1.957 1.525-3.188.597-5.03.984-10.243.109-15.246-.082-1.781-1.607-2.624-3.119-3.073 1.959-.305 5.797.877 3.56-3.514-.957-3.772 1.885-9.102-1.228-12.113.665-1.121.427-2.338-.074-3.466 2.597-3.352 1.424-10.999.752-15.872-.095-1.203-.122-2.407-.101-3.61zm-20.35 77.246c-.231 4.275-.055 8.558-.034 12.847 6.13.109 12.273-.102 18.404.285-4.93 1-10.057.157-15.041.415-4.346-2.461-3.289.918-3.37 2.705 6.774.068 13.549.068 20.33-.006.047-1.306.278-2.964-1.404-3.154 5.004-.646.603-9.517 2.048-13.092-6.985-.089-13.962-.075-20.933 0z" fill="#c9cbfb"/><path d="m136.886 282.856c1.011 4.33.183 8.844.278 13.242-.542-3.895-.583-7.831-.502-11.746l.102-.748z" fill="#f9a0b1"/><path d="m65.9023 283.883c23.6184-.49 47.2437.081 70.8617-.279l-.102.748c-23.469.081-46.9379 0-70.4071.047z" fill="#c4c9e9"/><path d="m148.333 283.549c.874 4.82.434 9.734.305 14.594-.529-4.602-.624-9.244-.36-13.86z" fill="#faa8a9"/><path d="m66.2549 284.399c23.4692-.047 46.9381.034 70.4071-.047-.081 3.915-.04 7.851.502 11.745.617 3.338-1.139 7.654 1.438 10.19.034 1.04.047 2.08.041 3.12-1.357 1.108-2.977 2.304-2.652 4.302-3.499-.36-5.214.952-4.075 4.507 5.899-2.025 3.668 3.82 4.055 6.947-28.203-.027-56.4117.088-84.6141-.054-1.7427-2.407-2.8005-5.166-3.5329-8.028 4.0822-7.735 5.357-17.048 9.5206-24.389 3.4448-1.971 10.4021-2.529 8.9103-8.293z" fill="#fefefe"/><path d="m156.328 284.386c14.897.047 29.802-.102 44.7.047-.956 13.534-1.166 27.203.075 40.716-15.42.048-30.847 0-46.261.041-.122-2.848-1.946-8.442 3.493-6.906 2.814-1.074.108-6.213-2.706-4.581.081-1.72-1.058-2.971-2.102-4.181.02-1.121.047-2.236.095-3.351 1.953-3.48 1.6-7.599 2.116-11.44.189-1.93.447-3.813.454-5.737.034-1.155.102-3.453.136-4.608z" fill="#fefefe"/><path d="m251.255 284.454c19.815-.116 39.649-.143 59.47.02 3.52 2.277-4.482 5.676.129 7.477 2.177 3.12.156 8.592.563 12.419-3.045.449-1.77 4.072.108 5.295.299 5.153-.013 10.332.061 15.505-7.683 0-15.365.02-23.048-.007.013-4.058.061-8.116-.041-12.16-3.838-.449-8.131.55-11.697-.537-1.479-3.698.101-8.395-.516-12.365-4.251-.292-8.524.048-12.775-.122-.183-3.773.027-7.552-.156-11.325-3.092-3.718-13.779 3.29-12.098-4.2z" fill="#fefefe"/><path d="m144.827 284.42c1.146-.041 2.299-.089 3.451-.136-.264 4.615-.169 9.258.36 13.86.196 2.678.441 5.376.8 8.048.047 1.108.068 2.216.075 3.33-.326 1.435-.563 2.882-.679 4.351-2.02.176-4.014.489-6.041.448-.211-1.617-.434-3.228-.665-4.833-.02-1.074-.02-2.141.007-3.208 2.21-1.55 1.024-4.758 1.546-6.954 1.01-1.692 1.085-3.276.224-4.751.142-1.754.278-3.501.406-5.248.184-1.638.353-3.276.516-4.907z" fill="#faf9f8"/><path d="m224.647 285.222c.406.87 1.227 2.61 1.634 3.48-2.123 1.652-2.048-1.856-1.634-3.48z" fill="#7ec4b3"/><path d="m228.803 286.894c1.635-1.767 4.015-1.047 3.513 1.604-.76-1.257-2.177-1.468-3.513-1.604z" fill="#63bca1"/><path d="m215.234 286.486c1.248.265 2.204 1.271 2.15 2.603-1.254-.278-2.143-1.298-2.15-2.603z" fill="#6ec3ae"/><path d="m315.445 290.714c-2.089-4.629 7.649-1.19 9.866-2.427.434.007 1.302.014 1.736.014 2.78.809 9.602-2.033 8.253 2.807-6.585.109-13.501.537-19.855-.394z" fill="#c9cbfb"/><path d="m40.8802 292.536c1.1053-1.686 3.4109-2.379 5.0519-3.582 2.2717 1.087.7324 6.131-.8612 7.558-.8815.136-1.7631.184-2.6582.136-1.0171-1.148-1.4715-2.596-1.5325-4.112z" fill="#31218b"/><path d="m155.738 294.731c.061-1.917.257-3.854.454-5.737-.007 1.924-.265 3.807-.454 5.737z" fill="#f6aaab"/><path d="m239.504 291.72c3.078-4.452 9.982-.081 7.188 4.969 2.102 3.168.068 7.565 3.329 10.067-.162 1.828-.142 3.745-.712 5.526-3.695.041-7.364.055-11.046-.054-.265-1.591-.488-3.175-.658-4.758 2.435-2.794-.034-6.655 2.089-9.503 1.227-1.883-.183-4.235-.19-6.247z" fill="#45714d"/><path d="m239.694 297.967c-.482-1.998-1.201-4.282-.19-6.247.007 2.012 1.417 4.364.19 6.247z" fill="#65bfa4"/><path d="m315.045 291.897c6.971-.075 13.948-.089 20.933 0-1.445 3.575 2.956 12.446-2.048 13.092l-.515.04c-6.131-.387-12.274-.176-18.404-.285-.021-4.289-.197-8.572.034-12.847z" fill="#fdfdfd"/><path d="m39.5647 293.331c.3255-.197.99-.598 1.3155-.795.0611 1.515.5154 2.963 1.5325 4.112-.5424.007-1.6274.02-2.1767.027-.2644-1.108-.4882-2.222-.6713-3.344z" fill="#f9b98f"/><path d="m38.2288 304.717c-2.8887-2.407-5.079-12.086 1.3359-11.386.1831 1.122.4069 2.236.6713 3.344-.2373 2.726-.5153 5.683-2.0072 8.042z" fill="#e2e5f4"/><path d="m143.681 299.326c-.97-1.502-.895-3.086.224-4.751.861 1.475.786 3.059-.224 4.751z" fill="#f4a4a7"/><path d="m210.359 300.876c-.353-1.645-1.892-6.111.224-6.321-.068 2.107-.183 4.187-.224 6.321z" fill="#83c2bc"/><path d="m333.414 305.029.516-.041c1.682.191 1.451 1.849 1.404 3.154-6.781.075-13.556.075-20.33.007.081-1.787-.977-5.166 3.37-2.705 4.984-.258 10.111.584 15.04-.415z" fill="#c9cbfb"/><path d="m208.508 306.171c1.03-.183 3.092-.55 4.129-.741 3.56.068 7.114.021 10.68 0 3.438.041 6.856-.027 10.301.082.237 1.584.02 3.052-1.919 2.848.441-.721.915-1.421 1.315-2.155-8.164.381-16.342-.394-24.506-.034z" fill="#b15206"/><path d="m138.602 306.287c1.18-.027 2.353-.027 3.533-.007-.027 1.067-.027 2.135-.007 3.209-1.166-.021-2.326-.048-3.485-.082.006-1.04-.007-2.08-.041-3.12z" fill="#ec9868"/><path d="m149.438 306.191c1.39-.02 2.787-.027 4.184-.02-.048 1.115-.075 2.23-.095 3.351-1.336 0-2.679 0-4.014 0-.007-1.115-.028-2.223-.075-3.331z" fill="#e9a076"/><path d="m208.508 306.171c8.164-.36 16.342.415 24.506.034-.4.734-.874 1.434-1.315 2.155-2.713 5.125-3.113 11.175-4.293 16.783-4.034.034-8.055.081-12.077.034-.61-1.89-1.085-3.814-1.871-5.629-.929-4.785-2.652-9.74-4.95-13.377z" fill="#b15206"/><path d="m250.021 306.756c1.106 1.556.407 3.575.556 5.411-.318.027-.956.088-1.268.115.57-1.781.549-3.698.712-5.526z" fill="#62b59f"/><path d="m236.886 312.18c.177-1.59.421-3.16.719-4.71.17 1.584.393 3.167.658 4.758-.346-.014-1.031-.041-1.377-.048z" fill="#79c1ae"/><path d="m135.991 313.709c-.325-1.998 1.295-3.194 2.652-4.302 1.159.034 2.319.061 3.485.081.231 1.604.454 3.215.665 4.833-2.299 0-4.578-.068-6.802-.612z" fill="#2e228f"/><path d="m149.513 309.522h4.014c1.044 1.21 2.183 2.461 2.102 4.181-2.258.238-4.557.761-6.795.17.116-1.468.353-2.916.679-4.351z" fill="#2b208c"/><path d="m251.181 312.099c.474-.911 1.166.326 1.41.74-1.641 2.087-2.244 4.663-3.241 7.083.054-2.712.976-5.288 1.831-7.823z" fill="#bc6621"/><path d="m238.982 321.819c-.244-3.039-4.605-8.293-2.096-9.639.346.007 1.031.034 1.377.048 3.682.109 7.351.095 11.046.054.312-.027.95-.088 1.268-.115l.604-.068c-.855 2.535-1.777 5.111-1.831 7.823-.271 1.047-.57 2.094-.848 3.154-1.939 3.766-9.039 3.44-9.52-1.257z" fill="#bc6621"/><path d="m135.991 313.71c2.224.544 4.503.612 6.802.612 2.027.04 4.021-.272 6.041-.449 2.238.591 4.537.068 6.795-.17 2.814-1.631 5.52 3.507 2.706 4.581-5.439-1.536-3.615 4.058-3.492 6.907-1.092 0-2.17-.014-3.255-.028 3.132-8.694-6.049-7.137-11.413-6.736-1.79 1.672-.475 4.554-.848 6.736-1.118.007-2.237.007-3.356 0-.387-3.126 1.844-8.972-4.055-6.947-1.139-3.555.576-4.867 4.075-4.506z" fill="#c9cbfb"/><path d="m44.6912 314.151c.0407 2.053.9086 3.365 3.1328 2.93.7324 2.862 1.7902 5.621 3.5329 8.028-1.1799-.007-3.5397-.027-4.7196-.034-.7866-1.686-1.8783-3.209-3.4651-4.221-1.4037-2.733 1.2545-4.296 1.519-6.703z" fill="#e2e4f3"/><path d="m140.175 318.427c5.364-.401 14.545-1.958 11.413 6.736-4.089.007-8.172.027-12.261 0 .373-2.182-.942-5.064.848-6.736z" fill="#fafbfc"/><path d="m213.458 319.548c.786 1.815 1.261 3.739 1.871 5.629-.332 0-.99-.007-1.315-.014-.163-1.876-.4-3.739-.556-5.615z" fill="#b15206"/><path d="m238.982 321.819c.481 4.697 7.581 5.023 9.52 1.257.041.367.129 1.108.17 1.475-2.285 2.529-6.646 1.462-9.684.701.007-1.149.028-2.291-.006-3.433z" fill="#bc6621"/><path d="m248.672 324.551c13.189 1.469 26.595.211 39.866.612 7.683.027 15.365.007 23.048.007 1.119.007 2.238.007 3.364-.007 2.624 1.319 10.599-2.501 10.198 2.019-93.347.041-186.695.068-280.0364-.014-.1899-1.284-.1627-2.569 1.5257-2.093 1.1799.006 3.5397.027 4.7196.034 28.2024.142 56.4111.027 84.6141.054 1.119.007 2.238.007 3.356 0 4.089.027 8.172.007 12.261 0 1.085.014 2.163.027 3.254.027 15.414-.041 30.841.007 46.261-.041 4.299.048 8.598.021 12.911.014.325.007.983.014 1.315.014 4.022.047 8.043 0 12.077-.034 3.852.02 7.717.013 11.582.108 3.038.762 7.399 1.829 9.684-.7z" fill="#5b34c7"/><path d="m319.747 214.915h13.28v3.31915h-13.28z" fill="#c9cbfb"/><path d="m319.747 234.276h17.7067v3.31915h-17.7067z" fill="#c9cbfb"/><path d="m319.747 253.085h17.7067v3.31915h-17.7067z" fill="#c9cbfb"/><path d="m319.747 271.34h17.7067v3.31915h-17.7067z" fill="#c9cbfb"/><path d="m304 325h71v2h-71z" fill="#5b34c7"/><path d="m0 325h71v2h-71z" fill="#5b34c7"/></g><path d="m214.425.353139c.766-.65133 1.939-.17897 2.865-.2963268-1.428 1.5989878-1.138 3.8991778-1.437 5.8766378.064 3.54711-.017 7.18225.723 10.66475.215 1.1472 1.943 1.0357 1.742-.2288.084-5.2957 2.091-11.37187-.479-16.3213892.642.2699202 2.587-.5046328 2.808.4987672-.482 1.021002.83 1.701672 1.132 2.570112 1.803 4.52704.247 9.34451-1.774 13.47551-.479.8714 1.248 1.1207 1.42.2728 2.854-3.3446 5.62-8.11518 3.591-12.60115-.647-1.72514-2.375-2.56424-3.76-3.57351 2.602.31686 4.747 2.52904 5.569 4.97006.961 4.6503-2.21 8.6316-5.119 11.7944-.984 1.2322-3.257 1.6811-2.735 3.7202-.624 1.1765.941 3.4591-1.698 2.6581-3.246.8098-.11-3.7261-2.209-4.838-4.015-3.1716-8.083-8.1651-6.835-13.68971.755-2.30312 2.904-4.312857 5.337-4.597447-4.93 2.074277-5.45 8.502497-2.677 12.545457 1.184 1.2674 1.75 4.0547 3.765 4.1456-.694-4.0869-3.379-8.02133-2.061-12.36646-.441-2.01854 2.622-2.85177 1.832-4.679601z" fill="#eaedfd"/><g fill="#dee3fe"><path d="m217.072.0560621c.136-.0028997.41-.0057991.546-.0086988 2.561 4.8918667.562 10.8972367.478 16.1312367.199 1.2498-1.522 1.36-1.736.2262-.738-3.442-.657-7.03477-.72-10.54056.298-1.95442.008-4.22782 1.432-5.8081779z"/><path d="m213.36.69999c.278-.133389.564-.252278.857-.350869.786 1.806539-2.266 2.630069-1.826 4.625089-1.313 4.29451 1.363 8.18309 2.054 12.22239-2.008-.0899-2.572-2.8446-3.752-4.0973-2.762-3.99586-2.245-10.34919 2.667-12.39931z"/><path d="m221.544 3.08021c-.301-.85832-1.608-1.53106-1.128-2.540171.153.034797.454.10729.607.142087 1.38.997514 3.101 1.826834 3.746 3.531884 2.022 4.4337-.734 9.14869-3.578 12.45439-.171.838-1.892.5915-1.415-.2697 2.014-4.0828 3.564-8.84419 1.768-13.31849z"/></g><path d="m137.18 12.413c5.331-1.6522 13.381 1.6042 12.789 8.0471-.887 4.5772-3.714 9.1892-8.097 11.0375.996 2.014-1.579 3.3218-.518 5.1396-4.835 1.857-.761-4.5598-3.935-5.6452-4.958-3.1125-9.837-11.2119-4.897-16.2904 1.157-1.3732 2.957-1.9443 4.658-2.2886z" fill="#e5e8fd"/><path d="m300.789 14.3546c-3.126-.5369-5.548 2.5035-8.22 2.5035-3.737-4.4468-10.089-1.2313-13.454 2.0716-1.327 1.0563-4.546 2.6436-2.334 4.4585 14.443-.4377 29.184 1.1788 43.482-.6419-1.59-3.9741-7.376-6.8744-11.626-5.1412-2.672-.6536-4.634-3.7057-7.848-3.2505z" fill="#f1f3fd"/><path d="m70.9102 19.0054c-3.365-1.0329-6.6658.8229-8.5113 3.2972-4.9542-4.2425-12.7901-4.9428-17.8724-.426-2.1948 2.2117-4.7214-1.243-7.1723.4085-2.8934 1.2547-8.715 3.7582-8.3366 7.1954 17.2612.922 35.1103.1867 52.5927.3676 1.0887-.2801 3.8016-.2159 2.5615-1.9258-3.5337-3.974-8.3249-6.9677-13.2616-8.9169z" fill="#f1f3fd"/></svg>