<svg fill="none" height="314" viewBox="0 0 374 314" width="374" xmlns="http://www.w3.org/2000/svg" xmlns:xlink="http://www.w3.org/1999/xlink"><clipPath id="a"><path d="m0 0h374v314h-374z"/></clipPath><g clip-path="url(#a)"><path d="m-16 0h406v314h-406zm223.114 24.3696c-.033 1.3823-.729 2.1394-2.136 2.1723-.869 2.3369 2.627 1.31 2.13 3.7456 1.472-.4345 1.923-2.3435 3.741-2.2052-.471-1.5865-2.149-3.219-3.735-3.7127zm-74.035 9.0711c-28.447 7.274-55.1749 29.8135-59.958 59.5941-2.4811 4.7594-5.2342 9.5382-9.3208 13.1462-7.9143 8.9-21.0562 9.696-29.2094 18.385-5.5726 6.748-10.0704 14.463-12.0208 22.961-6.017 28.609 1.831 61.346 23.8027 81.568.2521.757-.7098 2.85.6502 2.62.1327 3.528.6037 7.057 1.0083 10.565-.7363.718-1.015 3.042.3118 3.134-.0796 1.165.0664 2.337.3251 3.482-.8226.889-1.1211 3.555.3781 3.759-.0331 1.817.0664 3.64.2986 5.457-.8691.889-1.1411 3.607.4245 3.752.0465.296.1261.902.1725 1.205.0664 1.619-1.1476 4.871.3981 5.51.0729 3.047.3516 6.082.6435 9.117.0199.368.053 1.099.0729 1.468-8.6838 2.765-18.2899.941-27.1993 3.304-1.8774.112-1.7049 2.469.1924 2.298 25.1428 3.39 50.7832 3.015 76.0386 4.246 66.3 1.171 132.746 1.013 199.026-.757 5.44-1.396 12.028.822 16.691-1.791 11.822 1.435 23.962-.395 35.685-2.212.126-2.83-4.631-2.56-6.336-2.837-9.168-.197-18.243-2.047-27.418-1.619.053-2.048-.146-4.115-.252-6.135.325-1.705.378-3.43.152-5.181.173-1.81.272-3.627.292-5.431.889 1.053-.159-2.185 1.155-1.632 3.463.539 1.366-4.128 1.897-5.997-.504-3.674-8.425-.106-11.291-1.64 6.203-5.292 10.561-12.895 11.974-20.854 1.214.092 1.108-1.968.372-2.521.079-.487.239-1.475.318-1.962 1.34-.079.299-2.324.664-3.285 12.797-2.955 22.88-13.31 26.542-25.692 5.427-14.463 5.102-30.755.577-45.422-2.872-13.29-15.357-20.973-21.898-32.229-6.143-10.73-9.447-23.2703-9.248-35.567 3.516-.4477 8.869.9611 11.311-.6715 1.307-.2765 3.41-1.0203 3.31-2.6397 1.128-5.049 1.135-14.6665 0-19.755-.325-9.8479-10.302-18.6491-20.393-15.6539-32.115-.1909-64.462-1.2047-96.285.6122-.518-1.3495-3.463 2.7318-5.401 2.5739-9.672-1.6655-15.642-10.4601-24.519-13.87-16.737-7.8599-36.188-6.9054-53.934-3.4033z" fill="#fff"/><path d="m207.114 24.3696c1.586.4937 3.264 2.1263 3.735 3.7127-1.817-.1382-2.269 1.7708-3.741 2.2053.497-2.4357-2.999-1.4087-2.13-3.7456 1.407-.033 2.103-.79 2.136-2.1724z" fill="#a0a8fb"/><path d="m133.079 33.4406c17.746-3.502 37.197-4.4565 53.934 3.4033 8.877 3.4099 14.847 12.2046 24.519 13.87 1.938.158 4.883-3.9233 5.401-2.5739-1.553 1.3561-3.172 2.6397-4.731 3.9958-11.324-1.5272-18.449-12.0465-29.136-15.3643-29.382-10.2823-64.449-3.0346-87.0047 18.4714-9.878 9.1435-17.9118 20.9267-20.5654 34.2372-2.2887 10.1243-9.3738 18.8399-18.5022 23.7839-4.2523 3.337-10.3357 3.68-14.3758 7.149l-.2919.493c-11.9677 6.728-17.6464 20.572-19.484 33.5-3.2374 25.654 3.8145 54.394 23.6966 72.016-.0531.889-.1128 1.778-.1659 2.673-21.9717-20.223-29.8197-52.959-23.8027-81.568 1.9504-8.498 6.4482-16.213 12.0208-22.961 8.1531-8.689 21.2951-9.485 29.2094-18.385 4.0866-3.608 6.8397-8.3868 9.3208-13.1462 4.7831-29.7806 31.511-52.3202 59.958-59.5942z" fill="#bca3ff"/><path d="m316.993 86.2349c.504.0065 1.499.0065 1.997.0131-.199 12.2967 3.105 24.837 9.248 35.567 6.541 11.257 19.026 18.939 21.898 32.229 4.525 14.667 4.85 30.959-.577 45.422-3.662 12.382-13.745 22.737-26.542 25.692 1.943-3.982 9.174-3.778 12.465-7.359 12.014-9.993 16.459-26.338 16.625-41.406-.405-14.377-3.384-29.958-14.416-40.234-13.487-13.027-20.048-31.505-20.698-49.9241z" fill="#bca3ff"/><path d="m96.0613 55.243c22.5557-21.5061 57.6227-28.7537 87.0047-18.4714 10.687 3.3177 17.812 13.8371 29.136 15.3643-9.002 14.1859-.782 32.5651-4.882 47.9951-.843 2.304 2.017 5.826.053 7.722-14.708.658-29.501-.856-44.149.948-8.445 2.067-13.427 10.901-14.595 18.965-.259 42.762-.013 85.537-.119 128.305-9.043.25-18.277-.217-27.22.553-.119-1-.365-2.995-.491-3.995-.119-2.528-.238-5.049-.364-7.564.099-2.771.059-5.523-.206-8.268-.153-2.515-.312-5.023-.478-7.524.06-4.503.75-9.098-.159-13.548-.153-1.639-.318-3.265-.484-4.884.033-2.126.252-4.233-.193-6.313-.683-5.378-1.028-10.789-1.691-16.167-.093-1.034-.292-3.108-.385-4.141-.252-1.949-.65-3.871-.882-5.813 3.947.086 5.765-4.14 2.925-6.819-.033 8.807-1.579-.553-2.182-2.298 4.093-.796 7.987-2.85 10.893-5.826 1.923-1.849 3.489-4.009 5.128-6.089 1.764-1.724 1.346-4.535.63-6.662-.464-1.507-.67-3.1-1.367-4.502-.683-1.152-1.38-2.304-2.209-3.364-1.605-.81-2.554-2.179-2.978-3.89-.896-1.192-2.004-2.199-3.045-3.259-1.188-1.086-2.402-2.126-3.576-3.219-1.373-1.211-2.727-2.442-4.146-3.594-1.274-1.001-2.501-2.054-3.848-2.936-2.01-1.277-3.961-2.653-5.831-4.121-1.029-1.066-2.083-2.113-3.045-3.232 1.2-.072 3.609-.211 4.816-.277 2.574-3.725 9.254-2.139 10.375-6.977.12-2.285.498-4.641-.225-6.866-.823-4.068-3.947-6.9187-7.589-8.5644-2.336-1.1784-3.609-3.456-4.511-5.7863-1.208-3.0742-4.996-4.529-8.094-3.5547-1.1277-2.2184.8625-5.0754-1.4594-6.8988-1.6585.1119-4.9689.3225-6.6274.4344-4.0733 1.0599-3.5624 5.918-.889 8.2812-1.612 2.5081-3.244 5.2399-3.0317 8.4129-.1725.5595-.3449 1.119-.5174 1.6786-1.486 4.2851-8.0802 6.3131-6.2758 11.6121.0332 2.554 1.7249 4.568 3.6487 6.063 1.5126.915 3.0516.981 4.6239.184l.5175.086c.252.934 1.0614 1.573 2.0432 1.573 2.3949.494-.0265 2.185-.6966 3.272-1.9105 1.244-3.8742 2.389-5.9374 3.363-1.4727.942-2.773 2.107-4.1263 3.206-1.4396 1.192-2.8393 2.436-4.0865 3.831-.889.988-1.5988 2.113-2.3684 3.193-.9752 1.093-1.9437 2.199-2.8659 3.338-1.0614 1.277-2.0698 2.6-3.1909 3.831-1.3998 1.362-2.7863 2.745-4.1529 4.147-1.0415.796-2.1162 1.547-3.1976 2.284-2.7995 1.521-5.2939 3.719-8.4981 4.378l-.0531-.639c.8027-1.902.6435-3.508-.4776-4.812.6435-2.804-.0266-4.397-2.7067-3.903-1.884-.711-3.4762-.521-4.7765.559-.8823.02-1.7646.053-2.6403.099-2.7664-.533-.8823 3.14-.9088 4.786.1592 1.059.3383 2.113.5373 3.172-5.5394 2.693-.9354 7.794.9288 11.257.0862 1.698.1857 3.397.2852 5.102-.3781 1.132-.4842 2.468.4047 3.41.0796.427.2455 1.283.3317 1.711.0531 1.87-.0066 3.779.2322 5.648.0663.849.1194 1.705.1725 2.561.0066.316.0265.954.0398 1.27-.2256.988-.0332 1.567.5639 1.738 1.1344-.013 3.4165-.052 4.5509-.072.2587.197.7629.579 1.015.777-.3251.033-.9818.112-1.3069.151-6.2094-2.278-3.7416 3.463-3.6421 6.701.0929 1.238.1858 2.482.2787 3.72.1127 1.033.3383 3.094.4511 4.127.0597 1.04.1194 2.087.1725 3.133-.8492 1.923-.6767 3.502.5174 4.753.0531 1.258.1062 2.528.1659 3.792.1127 1.033.3317 3.094.4444 4.121.1327 3.489.4909 6.958.9686 10.42-19.8821-17.622-26.934-46.362-23.6966-72.016 1.8376-12.928 7.5163-26.772 19.484-33.499-.4179 2.02-.9818 4.008-1.4396 6.023-.9486 4.983-2.1228 10.006-1.7712 15.12 3.0118 1.699 7.1381-.125 10.5679 0 .5108-5.318-2.4612-10.071-3.9074-15.041-1.0415-2.205-2.0366-4.43-3.1578-6.596 4.0401-3.469 10.1235-3.812 14.3759-7.149 9.1283-4.944 16.2134-13.6595 18.5021-23.7838 2.6536-13.3105 10.6874-25.0937 20.5654-34.2372zm38.3777-2.5147c3.934 2.3567 4.113 6.155 2.786 10.3811 2.402-1.2112 5.188-1.8892 6.163 1.2903 4.438-2.2448 9.891-5.8324 13.149-9.6504-7.364-.7307-14.734-1.3495-22.098-2.021zm-24.937 2.067c-3.052 2.9557-5.029 7.4649-6.024 11.5397 4.1 1.6457 7.337 5.8719 11.789 6.0233-.339-4.3578 3.755-6.7079 5.386-10.5259.412-2.4225-2.215-1.7576-3.688-1.5009-1.625-2.7319-4.624-4.3315-7.463-5.5362zm21.229 13.7515c-.027 1.5207-2.501 6.0694.424 5.0951.027-1.5206 2.488-6.0693-.424-5.0951zm0 8.5708c-1.845 1.4351.517 3.7259 1.877 4.6146-.299-1.4351.225-4.9569-1.877-4.6146zm3.774 7.1358c1.055 1.6852 2.594 3.2058 4.777 2.6529-.239-2.0538-2.946-2.8767-4.777-2.6529zm16.519.0527c.915 2.1723 3.741.9611 5.453 1.2836.882-3.0873-4.776.0461-5.453-1.2836zm-5.546.9281c-1.068.2436-2.78.0725-2.262 1.6918.842 2.3633 10.143-3.4625 2.262-1.6918zm13.653 2.2448c-.087 2.0143 1.85 4.371 4.02 4.0418-.007-2.0801-2.276-3.4033-4.02-4.0418zm6.017 6.1154c-1.626 2.0933 2.965 3.5877 4.703 3.1729-.962-1.7707-3.065-2.2447-4.703-3.1729zm25.182 1.8959c-.471 2.3895 3.151.9347 4.618 1.2375.471-2.3895-3.158-.9347-4.618-1.2375zm-8.624.6517c-.59 2.2842 2.634 1.0071 3.954 1.2507.59-2.2842-2.634-1.0072-3.954-1.2507zm17.222-.0593c-.325 2.0802 2.647 1.5996 4.013 2.0407.299-2.0802-2.567-2.0143-4.013-2.0407zm-25.694.7505c-2.938 2.5278 4.133.4542 4.478 1.2375.923-2.7977-3.814-.2435-4.478-1.2375z" fill="#dde2fb"/><path d="m216.933 48.1399c31.823-1.8169 64.17-.8031 96.285-.6122-13.513 7.4715-11.125 25.087-10.7 38.0025 9.261.158 18.522 0 27.783.0461-2.442 1.6325-7.795.2238-11.311.6715-.498-.0066-1.493-.0066-1.997-.0132-4.843-.0198-9.686-.1053-14.515.0526-.173 27.4038.093 54.8148-.106 82.2258 0 9.361-8.299 18.847-18.33 17.069-8.253-4.364-14.562-12.448-12.804-22.329 3.171-1.514 13.036 3.285 11.935-2.587-3.981-.111-7.948-.065-11.921-.046-.04-1.955-.034-3.884-.027-5.819 2.873-.243 10.475 3.048 9.294-2.034-3.104-.086-6.189-.072-9.281-.046-.033-1.988-.006-3.95 0-5.931 5.765 0 11.53.099 17.302-.046.796-2.745-3.039-2.568-4.684-2.554-4.186.151-8.578-.771-12.631.546-.597-8.893 1.705-18.399-1.957-26.858 2.282-1.079 12.445 2.278 10.84-2.225-2.746.461-11.616-3.199-11.503 1.415-1.845-2.501-3.304-5.417-6.064-7.083 7.53-.138 15.079.125 22.615-.112-.013-1.731.823-4.917-3.29-2.587-10.024.06-20.055-.105-30.079.079 1.387 1.047 3.397.547 5.042.975-9.606-.672-15.755 8.373-16.936 16.878-1.572-6.346 3.854-11.553 7.629-15.99-2.481-1.803-7.324-.665-7.324-4.713-.663-2.594.955-4.6408 1.3-7.0436-6.979 2.4488-14.575.7176-21.799 1.3429-1.977 2.2317-.411 5.9177-.982 8.7087-3.032.145-5.99.863-9.009 1.047-2.627-1.863 1.519-8.505-2.388-8.439 4.1-15.4302-4.12-33.8094 4.882-47.9954 1.559-1.356 3.178-2.6397 4.731-3.9957zm22.787 4.733c-5.698 3.0281-14.243.0132-20.844 1.1323-.093 6.7802-.073 13.5605 0 20.3408 7.039.1251 14.091.0527 21.143.0066.318-6.0364-.372-12.1124.371-18.129.584-1.3364 2.117-4.5883-.67-3.3507zm11.65 1.1323c-.06.8623-.06 1.7181 0 2.5804 12.365.0593 24.738.0527 37.11 0 .047-.8623.053-1.7181 0-2.5804-12.372-.0593-24.738-.0527-37.11 0zm.809 7.9651c-1.36.6254-1.108 3.1927.531 3.173 9.009.0592 18.024.0921 27.033-.0395.829-1.0862 2.269-2.9425-.06-3.0084-9.121-.5134-18.349-.1711-27.504-.1251zm-.179 8.4721c-1.314-.2501-.697 2.1987.179 2.541 12.054.1514 24.114.1646 36.168-.0132.325-.8557 1.248-1.9419 0-2.5014-10.13-1.1586-25.779-1.1455-36.347-.0264zm.159 28.9644c-.524.3555-1.586 2.2912-.192 1.9552 12.12-.54 25.547 1.185 36.858-.889 1.678.619-2.388-5.266-3.635-1.7377-10.721.4345-23.763-.8755-33.031.6715z" fill="#7980ff"/><path d="m313.218 47.5276c10.091-2.9951 20.068 5.8061 20.393 15.654-.013 6.5828.013 13.1722 0 19.755.1 1.6193-2.003 2.3632-3.31 2.6397-9.261-.0461-18.522.1119-27.783-.0461-.425-12.9155-2.813-30.5311 10.7-38.0026z" fill="#5b34c7"/><path d="m240.085 246.855c9.407.56 19.219-1.152 28.42.823 1.201 6.958-.783 14.061.365 21.091-.365 2.857-1.4 5.563-2.375 8.262-2.461 5.312-8.372 9.104-14.329 8.597-2.846-1.718-6.422-2.837-8.107-5.872-6.681-9.584-3.105-22.072-3.974-32.901z" fill="#5b34c7"/><path d="m134.439 52.7285c7.364.6715 14.734 1.2902 22.098 2.0209-3.258 3.8181-8.711 7.4057-13.149 9.6504-.975-3.1795-3.761-2.5014-6.163-1.2902 1.327-4.2262 1.148-8.0244-2.786-10.3811z" fill="#bca3ff"/><path d="m239.72 52.8729c2.787-1.2376 1.254 2.0144.67 3.3507-.743 6.0167-.053 12.0926-.371 18.129-7.052.0461-14.104.1185-21.143-.0066-.073-6.7803-.093-13.5606 0-20.3408 6.601-1.1191 15.146 1.8958 20.844-1.1323zm-18.847 3.1203c-.099 5.4571-.099 10.9208 0 16.378 5.493.0922 10.993.0922 16.492.0066.232-3.9958.02-8.0113-.066-12.0071-2.74 2.6727-3.45 10.131-8.259 9.2489-1.48-3.8641-5.726-6.754-5.56-11.0657 4.074.4674 3.596 7.4649 7.165 8.5181 2.395-3.6139 4.703-7.3003 6.793-11.1052-5.526-.0461-11.045-.079-16.565.0264z" fill="#fdf8f4"/><path d="m181.958 212.954c2.78-1.521 1.36 1.895.717 3.232-.664 5.371-.153 10.796-.312 16.2.418 1.935-2.468 3.008-3.981 1.962-5.745.013-11.49.066-17.228-.033-.06-6.767-.099-13.528.02-20.282 6.833-1.382 14.303.606 20.784-1.079zm-18.794 2.995c.02 5.424-.623 11.033.756 16.352 5.46.151 10.933.118 16.406.039.173-3.739.047-7.491 0-11.224-3.569 1.514-4.345 6.669-7.383 9.203-3.696-1.764-4.512-6.451-6.681-9.644-.789-.678-.318-2.172.75-2.054 2.05 2.693 3.416 5.839 5.446 8.558 3.125-3.094 4.856-7.57 7.364-11.191-5.553-.125-11.112-.138-16.658-.039z" fill="#fdf8f4"/><path d="m161.957 259.448c6.587.072 13.606-.665 19.941.369 1.042 6.293.279 13.257.379 19.807-6.11 1.745-12.817.487-19.12.757-3.409-.816-1.499-5.477-2.049-7.846.796-4.154-1.46-9.473.849-13.087zm1.977 1.981c-1.811 5.076-1.108 11.073-.034 16.286 5.473.158 10.953.132 16.426.04.093-5.464.093-10.921 0-16.378-5.466-.099-10.933-.132-16.392.052z" fill="#fdf8f4"/><path d="m251.37 54.0054c12.372-.0527 24.738-.0593 37.11 0 .053.8623.047 1.7181 0 2.5804-12.372.0527-24.745.0593-37.11 0-.06-.8623-.06-1.7181 0-2.5804z" fill="#fbfbf6"/><path d="m109.502 54.7954c2.839 1.2047 5.838 2.8043 7.463 5.5362 1.473-.2568 4.1-.9216 3.688 1.5008-1.631 3.8181-5.725 6.1681-5.386 10.5259-4.452-.1514-7.689-4.3775-11.789-6.0232.995-4.0748 2.972-8.584 6.024-11.5397z" fill="#a0a8fb"/><path d="m220.873 55.9933c5.52-.1053 11.039-.0724 16.565-.0263-2.089 3.8048-4.398 7.4912-6.793 11.1052-3.569-1.0533-3.091-8.0508-7.165-8.5182-.166 4.3118 4.08 7.2016 5.56 11.0657 4.809.8821 5.519-6.5762 8.259-9.2488.086 3.9957.298 8.0113.066 12.007-5.499.0856-10.999.0856-16.492-.0066-.099-5.4571-.099-10.9208 0-16.378z" fill="#c9cbfb"/><path d="m252.179 61.9708c9.155-.0461 18.383-.3884 27.504.1251 2.329.0658.889 1.9221.06 3.0083-9.009.1317-18.024.0987-27.033.0395-1.639.0197-1.891-2.5476-.531-3.1729z" fill="#fef2ec"/><path d="m333.611 63.1816c1.134 5.0886 1.128 14.706 0 19.7551.013-6.5829-.013-13.1722 0-19.7551z" fill="#5b34c7"/><path d="m130.731 68.5466c2.912-.9743.451 3.5745.424 5.0951-2.925.9742-.451-3.5745-.424-5.0951z" fill="#a1a9fe"/><path d="m252 70.4425c10.568-1.1191 26.217-1.1322 36.347.0264-12.12-.0659-24.234-.0264-36.347-.0264z" fill="#ffe1d0"/><path d="m252.179 72.9837c-.876-.3423-1.493-2.7911-.179-2.541 12.113 0 24.227-.0395 36.347.0263 1.248.5596.325 1.6457 0 2.5015-12.054.1777-24.114.1646-36.168.0132z" fill="#fef7f2"/><path d="m130.731 77.1175c2.102-.3423 1.578 3.1795 1.877 4.6146-1.36-.8887-3.722-3.1795-1.877-4.6146z" fill="#a1a9fe"/><path d="m89.9912 80.1063c1.6585-.1119 4.9689-.3225 6.6274-.4344 2.3219 1.8234.3317 4.6804 1.4594 6.8988-3.3369 1.4745-1.3135-3.2783-2.3617-5.161-.4643-2.4488-3.9339-.757-5.7251-1.3034z" fill="#45359e"/><path d="m89.1022 88.3872c-2.6735-2.3632-3.1843-7.2213.889-8.2811 1.7912.5463 5.2608-1.1454 5.7251 1.3034 1.0482 1.8826-.9752 6.6354 2.3617 5.1609 3.098-.9743 6.886.4805 8.093 3.5547.903 3.2453-2.573 6.1944-5.426 4.0682-2.6006 1.6654-7.596-.5332-5.7982 4.0813-2.4745-2.4817-5.7318-2.0604-8.8763-1.4745-.2123-3.1729 1.4197-5.9048 3.0317-8.4129z" fill="#45359e"/><path d="m134.505 84.2534c1.831-.2238 4.538.5991 4.777 2.6529-2.183.553-3.722-.9677-4.777-2.6529z" fill="#a1a9fe"/><path d="m151.024 84.3058c.677 1.3298 6.335-1.8037 5.453 1.2837-1.712-.3226-4.538.8887-5.453-1.2837z" fill="#a1a9fe"/><path d="m145.478 85.2342c7.881-1.7708-1.42 4.055-2.262 1.6918-.518-1.6194 1.194-1.4482 2.262-1.6918z" fill="#a1a9fe"/><path d="m302.478 86.2874c4.829-.158 9.672-.0724 14.515-.0527.65 18.4183 7.211 36.8963 20.698 49.9243 11.032 10.276 14.011 25.857 14.416 40.234-.166 15.068-4.611 31.413-16.625 41.406-3.291 3.581-10.522 3.377-12.465 7.359-.365.961.676 3.206-.664 3.285-.026-1.178-.073-3.535-.099-4.713-3.908 3.311-7.304 7.175-10.164 11.408 1.407-13.758-.709-27.766-5.718-40.511-5.447 8.479-7.576 19.123-11.012 27.99-2.369-4.206-5.182-8.149-8.532-11.631-1.055-1.159-1.074.796-1.147 1.474-.75 4.457-.644 9.019-.02 13.488.338 3.18 1.048 6.3 1.625 9.44-9.002 3.008-11.178 13.225-17.772 19.005-.485 4.772.033 9.617-.644 14.376-1.148-7.03.836-14.133-.365-21.091-9.201-1.975-19.013-.263-28.42-.823.033-20.143-.133-40.293.066-60.43 1.015-.151 3.052-.441 4.074-.592 13.261-.455 26.542-.033 39.817-.251 10.031 1.778 18.33-7.708 18.33-17.069.199-27.411-.067-54.821.106-82.2256zm29.295 77.0586c-.968.559-.278 1.593-.272 2.435-1.114 1.205-4.139.283-3.9 2.601 3.575-1.732 3.476 1.527 4.239 3.337 2.76.408.418-6.076 5.141-3.344.219-1.823-1.924-1.791-3.178-2.021-.265-1.152-.185-3.614-2.03-3.008zm-71.799 42.696c-.425 1.692.318 4.022 2.501 3.219 2.262-1.679-.319-4.154-2.501-3.219zm-3.291 3.923c.073 1.119-.676 3.371 1.267 2.633 2.601-.329.797-3.561-1.267-2.633zm7.298 0c.073 1.119-.677 3.371 1.267 2.633 2.6-.329.789-3.561-1.267-2.633zm-10.495 3.39c-1.553 1.133-.942 3.41 1.194 2.581 2.541.783.73-3.877-1.194-2.581zm6.508-.052c-.604 2.185.411 3.192 2.614 2.593.603-2.185-.412-3.192-2.614-2.593zm8.093.052c-1.141.652-1.419 3.344.511 2.574 2.939.533 2.076-3.785-.511-2.574zm-18.708 3.897c-.603 2.186.412 3.193 2.614 2.594.604-2.185-.411-3.193-2.614-2.594zm7.298 0c-.604 2.186.411 3.193 2.614 2.594.603-2.185-.412-3.193-2.614-2.594zm7.297 0c-.604 2.186.411 3.193 2.614 2.594.604-2.185-.411-3.193-2.614-2.594zm7.298 0c-.604 2.186.411 3.193 2.613 2.594.604-2.185-.411-3.193-2.613-2.594zm-17.793 3.358c-1.871 1.106-.371 4.101 1.705 3.133 1.937-1.277.239-3.542-1.705-3.133zm7.304-.014c-1.798.883-.504 4.26 1.42 2.857 2.368-.414.617-3.982-1.42-2.857zm7.298 0c-1.599.843-.797 3.766 1.141 3.213 2.54-.237 1.253-4.424-1.141-3.213zm-11.411 3.891c-.212 1.56-.272 3.39 1.838 2.528 1.943-1.58.331-3.364-1.838-2.528zm7.417.079c-1.718 1.599.531 3.515 2.076 2.113 1.453-1.764-.245-2.824-2.076-2.113zm-3.304 3.272c-1.599.842-.796 3.765 1.141 3.212 2.541-.237 1.254-4.424-1.141-3.212z" fill="#dde2fb"/><path d="m159.131 87.479c1.744.6385 4.013 1.9617 4.02 4.0418-2.17.3292-4.107-2.0275-4.02-4.0418z" fill="#a1a9fe"/><path d="m106.171 90.125c.903 2.3303 2.176 4.608 4.512 5.7863-1.798 1.0861-4.173 1.7181-5.341 3.5218-1.28.9089-2.202-2.7648-4.033-2.4291-2.2093.0988-6.1566-2.2118-6.3622 1.2705-1.7978-4.6145 3.1976-2.4159 5.7982-4.0813 2.853 2.1262 6.329-.8229 5.426-4.0682z" fill="#45359e"/><path d="m165.148 93.5942c1.638.9282 3.741 1.4022 4.703 3.173-1.738.4147-6.329-1.0796-4.703-3.173z" fill="#a1a9fe"/><path d="m190.33 95.49c1.46.3028 5.089-1.152 4.618 1.2376-1.467-.3028-5.089 1.152-4.618-1.2376z" fill="#a1a9fe"/><path d="m86.0705 96.8c3.1445-.5859 6.4018-1.0072 8.8763 1.4746-.4577 1.7181-1.0747 4.6274-3.4497 3.3964 1.3069-3.4754-3.3501-2.0206-5.1745-.934-.2454-.7575-.5042-1.5079-.7695-2.2584.1725-.5595.3449-1.119.5174-1.6786z" fill="#45359e"/><path d="m94.9468 98.2748c.2057-3.4823 4.1529-1.1717 6.3622-1.2704 1.831-.3358 2.753 3.3376 4.033 2.429 4.08-1.2046 2.475 3.5486 2.926 6.0756.557 5.668-7.676 5.82-5.148 11.257.252 1.817 2.408.685 3.649.777.451.256.902.513 1.353.777-1.207.065-3.616.204-4.816.276.962 1.119 2.016 2.166 3.045 3.232-3.994 4.523-13.0959 3.996-16.9369-.559.67-1.087 3.0914-2.778.6965-3.272 2.9057.237 2.4148-3.344 2.8924-5.286-.2122-1.554 1.36-4.259-.2587-5.306-1.5258-.494-2.846-1.343-3.4298-2.89.0465-1.415.2521-3.284 2.1826-2.843 2.375 1.231 2.992-1.679 3.4497-3.3972zm4.0003 1.31c-4.604 2.9822 7.0119-.678 0 0zm-2.0234 3.8382c-1.5921.849-.796 3.772 1.1411 3.212 2.4342-.138.9752-4.378-1.1411-3.212z" fill="#f8cbcb"/><path d="m105.342 99.4334c1.168-1.8037 3.543-2.4356 5.341-3.5218 3.642 1.6457 6.766 4.4964 7.589 8.5644-.212 1.593-.431 3.193-.657 4.786-.61 2.02-1.91 3.87-4.232 3.883 1.817-5.035-.478-10.032-4.445-13.2705-.246 1.8435-.173 3.8115-.67 5.6345-.451-2.527 1.154-7.2802-2.926-6.0756z" fill="#45359e"/><path d="m181.706 96.1419c1.32.2435 4.544-1.0335 3.954 1.2507-1.32-.2436-4.544 1.0335-3.954-1.2507z" fill="#a1a9fe"/><path d="m198.928 96.0825c1.446.0264 4.312-.0395 4.013 2.0407-1.366-.4411-4.338.0395-4.013-2.0407z" fill="#a1a9fe"/><path d="m173.234 96.8333c.664.994 5.401-1.5602 4.478 1.2375-.345-.7833-7.416 1.2903-4.478-1.2375z" fill="#a1a9fe"/><path d="m219.699 98.8146c7.224-.6254 14.82 1.1059 21.799-1.3429-.345 2.4027-1.963 4.4503-1.3 7.0433.63 1.567-1.154 5.589-2.269 2.93-.723-3.476-1.837 1.494-3.735 1.158-2.229-2.672 3.357-4.733 2.641-7.827-5.235.204-10.781-.9411-15.842.77-.916 1.791 1.559 8.038-2.276 5.978.571-2.791-.995-6.478.982-8.7094z" fill="#fdf7f3"/><path d="m182.011 121.361c2.322-1.336 1.931 1.79.909 2.936-1.751 5.977.663 12.928-1.015 18.761-6.521.184-14.163 1.764-20.691-.356.079-6.55-.67-13.514.365-19.814 6.315-1.81 14.555 1.336 20.432-1.527zm-18.084 3.14c-1.997 5.121-.69 10.954-.02 16.273 5.46.592 10.94.493 16.413.019.185-3.732.046-7.471.019-11.197-3.874 2.08-4.305 7.55-7.854 10.032-1.931-4.042-6.256-7.346-6.74-11.934 4.385-.422 3.781 6.938 7.151 7.774 2.475-3.324 5.898-6.807 6.15-11-5.035-.211-10.084-.079-15.119.033z" fill="#fdf7f3"/><path d="m79.2773 110.091c-1.8044-5.299 4.7898-7.327 6.2758-11.612.2653.7504.5241 1.5009.7695 2.258-2.5541 2.949-5.1015 5.951-7.0453 9.354z" fill="#45359e"/><path d="m252.159 99.4071c9.268-1.547 22.31-.237 33.031-.6715 1.247-3.5284 5.313 2.3564 3.635 1.7374-11.749-2.5471-24.532-.375-36.666-1.0659z" fill="#fde2d7"/><path d="m86.3226 100.737c1.8244-1.0866 6.4814-2.5414 5.1745.934-1.9305-.441-2.1361 1.429-2.1826 2.844-3.9936-.619-5.1678 4.628-6.0767 7.439-1.9438.395.0995 2.508.1062 3.745l-.418.455c-1.9239-1.495-3.6155-3.509-3.6487-6.063 1.9438-3.404 4.4912-6.405 7.0453-9.354z" fill="#45359e"/><path d="m98.9471 99.5847c-4.604 2.9823 7.0119-.678 0 0z" fill="#f8cbcb"/><path d="m252.159 99.4068c12.134.6912 24.917-1.4811 36.666 1.0662-11.311 2.074-24.738.349-36.858.889-1.394.336-.332-1.5997.192-1.9552z" fill="#fdfbf9"/><path d="m108.938 99.8745c3.967 3.2385 6.262 8.2355 4.445 13.2705-3.052.02-4.193 3.167-6.614 4.398-1.241-.092-3.397 1.04-3.649-.777-2.528-5.437 5.705-5.589 5.148-11.257.497-1.823.424-3.791.67-5.6345z" fill="#352781"/><path d="m207.32 100.131c3.907-.065-.239 6.577 2.388 8.44 3.019-.185 5.977-.902 9.009-1.047 3.835 2.06 1.36-4.187 2.276-5.977 5.061-1.7119 10.607-.566 15.842-.771.716 3.094-4.87 5.155-2.641 7.827 1.898.336 3.012-4.634 3.735-1.158 1.115 2.659 2.899-1.363 2.269-2.93 0 4.049 4.843 2.91 7.324 4.714-3.775 4.437-9.201 9.644-7.629 15.989.464 20.124-.033 40.254.239 60.371 1.021.06 3.065.185 4.093.244-1.022.151-3.058.441-4.073.592-.2 20.137-.034 40.287-.067 60.431.869 10.828-2.706 23.316 3.974 32.9 1.685 3.035 5.261 4.154 8.107 5.872-33.356.007-66.732.303-100.081-.138-3.748-1.007-3.695-5.246-3.609-8.38.06-7.017.067-14.028.034-21.038.106-42.769-.14-85.544.119-128.306 1.168-8.064 6.15-16.898 14.595-18.965 14.648-1.804 29.441-.29 44.149-.948 1.964-1.896-.896-5.418-.053-7.722zm15.411 3.897c.703 1.172 2.096 3.516 2.799 4.694 2.972-1.271-.172-5.885-2.799-4.694zm-40.72 17.333c-5.877 2.863-14.117-.283-20.432 1.527-1.035 6.3-.286 13.264-.365 19.814 6.528 2.12 14.17.54 20.691.356 1.679-5.833-.736-12.784 1.015-18.761 1.022-1.146 1.413-4.272-.909-2.936zm11.789 1.83c-.969.494-.856 1.567-.849 2.488 6.819.264 13.666-.342 20.459.566.451-.961 1.36-2.402-.033-3.047-6.528-.191-13.056-.185-19.577-.007zm-.81 8.492c-.053.862-.059 1.718 0 2.58 12.366.059 24.739.053 37.111 0 .053-.862.053-1.718 0-2.58-12.366-.06-24.738-.053-37.111 0zm0 7.899c-.053.862-.059 1.718 0 2.581 12.366.059 24.739.052 37.111 0 .053-.863.053-1.719 0-2.581-12.366-.059-24.738-.053-37.111 0zm-11.072 27.911c-6.654 1.85-14.661-1.869-20.698 1.811-.139 6.345-.524 13.073.359 19.169 4.166 1.066 9.062.177 13.486.48 1.805-1.033 6.76 1.718 7.265-1.376.245-6.819-.743-13.85 1.393-20.393-.451.079-1.354.23-1.805.309zm11.059 1.06c.007.474.007 1.422.013 1.896 10.602.125 21.209.046 31.817.013-.007-.474-.007-1.422-.013-1.896-10.601-.131-21.209-.046-31.817-.013zm.013 7.899c-.053.85-.053 1.705 0 2.561 9.288.099 18.589.066 27.877 0-.027-.915.086-1.975-.83-2.514-9.009-.191-18.031-.079-27.047-.047zm0 7.893c-.053.856-.059 1.718 0 2.581 12.366.059 24.739.052 37.111 0 .053-.863.053-1.725 0-2.581-12.366-.059-24.738-.052-37.111 0zm-11.032 28.609c-6.481 1.685-13.951-.303-20.784 1.08-.12 6.754-.08 13.514-.02 20.281 5.738.099 11.483.046 17.228.033 1.513 1.047 4.399-.026 3.981-1.961.159-5.405-.352-10.829.312-16.201.643-1.336 2.063-4.753-.717-3.232zm11.032.362c-.053.849-.053 1.699 0 2.554 8.392.158 16.791.007 25.19.04 2.03 2.732 5.645-2.489 2.614-2.581-9.262-.144-18.536-.046-27.804-.013zm-.026 7.9c.046 1.092-.345 2.527.836 3.172 7.629.158 15.265.172 22.894-.013 1.406-.665.451-2.119.033-3.107-7.921-.197-15.849-.099-23.763-.052zm-.013 8.564c-.677 2.231 1.758 2.277 3.337 2.547 7.735.106 15.477.092 23.219.007 1.486-.658 6.282.625 5.307-2.548-10.621-.131-21.242-.052-31.863-.006zm.849 29.01c-.969.5-.856 1.567-.849 2.489 8.571.157 17.155.105 25.726-.04 1.758-1.014.272-2.442-1.207-2.469-7.888-.151-15.782-.138-23.67.02zm-31.843.658c-2.309 3.614-.053 8.933-.849 13.087.55 2.37-1.36 7.031 2.049 7.847 6.303-.27 13.01.987 19.12-.757-.1-6.55.663-13.515-.379-19.808-6.335-1.033-13.354-.296-19.941-.369zm30.98 7.854c-.073 1.007.02 2.587 1.394 2.561 10.322.059 20.658.118 30.98-.053.962-.514.843-1.587.863-2.508-11.079-.079-22.158-.079-33.237 0zm.053 7.893c-.053.849-.053 1.711 0 2.567 6.575.059 13.149.138 19.723-.059 1.062-.514 1.062-1.942 0-2.449-6.574-.204-13.148-.125-19.723-.059z" fill="#7980ff"/><path d="m96.9237 103.423c2.1163-1.166 3.5753 3.074 1.1411 3.212-1.9372.56-2.7332-2.363-1.1411-3.212z" fill="#f8cbcb"/><path d="m83.2378 111.954c.9089-2.811 2.0831-8.058 6.0767-7.439.5838 1.547 1.904 2.396 3.4298 2.89.0995 1.764.1858 3.535.2587 5.306-.4776 1.942.0133 5.523-2.8924 5.286-.0398-1.06-1.0349-1.705-2.0433-1.574l-.5174-.085c-1.0548-.158-3.1511-.481-4.2059-.639-.0067-1.237-2.05-3.35-.1062-3.745z" fill="#352781"/><path d="m222.731 104.028c2.627-1.191 5.771 3.423 2.799 4.694-.703-1.179-2.096-3.522-2.799-4.694z" fill="#fdefe5"/><path d="m82.3223 151.892c1.7978.901 1.6386 3.324 2.3285 4.976.2389 2.574.4777 5.148.8094 7.709.0265.862.0464 1.718.0531 2.58-.2389 1.093-.4976 2.179-.6966 3.285-2.9322 12.29-4.4647 24.936-3.9472 37.575 1.2339 13.238-7.0719 24.606-7.848 37.62-4.9225-1.724-9.1218-4.904-13.9049-6.885-.2255-.652-.4511-1.297-.6766-1.936-.1526-3.442-.5772-6.852-.9288-10.275-.1061-1.027-.3118-3.094-.4179-4.121.0331-3.917-.4777-7.794-.9089-11.678-.1061-1.034-.3184-3.101-.4246-4.134-.0796-.816-.1526-1.633-.2255-2.449-.1062-1.033-.3251-3.094-.4312-4.127-.2389-4.101-.6435-8.203-.7961-12.304.9221-3.377-2.3683-2.903-4.8097-3.159 1.0416-.244 3.118-.731 4.1596-.975 0-.46 0-1.375 0-1.836-.3981-2.62-.8293-5.26-.8426-7.919.4379-1.119.5639-2.469-.3449-3.397-.0796-1.099-.2322-3.305-.3118-4.404.0729-1.751.1791-3.495.3184-5.233 7.377-.83 14.9862-1.06 21.9585-3.838 2.5408-.757 4.5443-2.567 6.6008-4.134.3251-.237.9686-.711 1.287-.941zm-11.2247 68.816c-2.501 1.554-2.1892 3.641.2919 4.997.1526-1.574 4.06-2.054 2.1958-3.154-1.9304.488-.7231-2.758-2.4877-1.843z" fill="#dde2fb"/><path d="m118.272 104.476c.723 2.225.345 4.581.225 6.865-.291-.691-.59-1.382-.882-2.08.226-1.593.445-3.192.657-4.785z" fill="#352781"/><path d="m92.7443 107.405c1.6187 1.047.0465 3.752.2587 5.306-.0729-1.771-.1592-3.542-.2587-5.306z" fill="#352781"/><path d="m251.788 107.366c10.023-.185 20.054-.02 30.078-.079 4.113-2.331 3.277.855 3.29 2.587-7.536.237-15.085-.027-22.615.112-1.851-.731-3.721-1.442-5.712-1.646-1.645-.428-3.655.072-5.041-.974z" fill="#fcf9f7"/><path d="m239.893 125.218c1.181-8.505 7.33-17.55 16.936-16.878 1.991.204 3.861.915 5.712 1.646 2.76 1.665 4.219 4.581 6.064 7.083.166.204.497.605.663.809 3.662 8.459 1.36 17.965 1.957 26.858 0 .514.007 1.541.013 2.054-.006 1.982-.033 3.943 0 5.931 0 .52-.006 1.56-.013 2.08-.007 1.936-.013 3.865.027 5.82-.014.875-.02 1.751-.014 2.633-1.758 9.881 4.551 17.964 12.804 22.329-13.275.217-26.556-.204-39.817.25-1.028-.059-3.072-.185-4.093-.244-.272-20.117.225-40.247-.239-60.371z" fill="#5b34c7"/><path d="m117.615 109.261c.292.698.591 1.389.882 2.08-1.121 4.839-7.801 3.252-10.375 6.978-.451-.263-.902-.52-1.353-.777 2.421-1.231 3.562-4.377 6.614-4.397 2.322-.013 3.622-1.863 4.232-3.884z" fill="#352781"/><path d="m268.605 117.069c-.113-4.615 8.757-.955 11.503-1.416 1.605 4.503-8.558 1.146-10.84 2.225-.166-.204-.497-.605-.663-.809z" fill="#fef9f3"/><path d="m82.926 116.153.418-.454c1.0548.158 3.1511.481 4.2059.639-1.5722.796-3.1113.73-4.6239-.185z" fill="#45359e"/><path d="m88.0674 116.424c1.0083-.132 2.0034.513 2.0432 1.573-.9818 0-1.7912-.639-2.0432-1.573z" fill="#352781"/><path d="m42.6179 120.413c1.1211 2.165 2.1162 4.39 3.1578 6.596 1.0548 3.436-5.9573 3.08-4.8893-.079.4578-2.015 1.0217-4.003 1.4396-6.024z" fill="#f7776f"/><path d="m83.4766 124.632c2.0632-.974 4.0269-2.119 5.9374-3.363 3.8411 4.555 12.943 5.081 16.937.559 1.87 1.468 3.821 2.844 5.831 4.121-8.286 3.877-18.6881 3.462-27.3587.48-1.1543.047-1.2671-.901-1.3467-1.797z" fill="#0047c5"/><path d="m193.8 123.191c6.521-.178 13.049-.185 19.577.006 1.393.645.484 2.087.033 3.048-6.793-.908-13.64-.303-20.459-.566-.007-.922-.12-1.995.849-2.488z" fill="#fdf7f2"/><path d="m79.3503 127.838c1.3533-1.099 2.6536-2.264 4.1263-3.206.0796.896.1924 1.844 1.3467 1.797 8.6706 2.982 19.0727 3.397 27.3587-.48 1.347.882 2.574 1.935 3.848 2.936-11.849 3.489-25.3422 4.753-36.6797-1.047z" fill="#023ea8"/><path d="m163.927 124.501c5.035-.112 10.084-.244 15.119-.033-.252 4.193-3.675 7.675-6.15 11-3.37-.836-2.766-8.196-7.151-7.775.484 4.588 4.809 7.893 6.74 11.935 3.549-2.482 3.98-7.952 7.854-10.032.027 3.726.166 7.465-.019 11.197-5.473.474-10.953.573-16.413-.02-.67-5.319-1.977-11.151.02-16.272z" fill="#c9cbfb"/><path d="m163.164 215.949c5.546-.099 11.105-.085 16.658.04-2.508 3.62-4.239 8.096-7.364 11.19-2.03-2.718-3.396-5.865-5.446-8.557-1.068-.119-1.539 1.376-.75 2.054 2.169 3.192 2.985 7.879 6.681 9.643 3.038-2.534 3.814-7.688 7.383-9.202.047 3.732.173 7.484 0 11.223-5.473.079-10.946.112-16.406-.039-1.38-5.319-.736-10.928-.756-16.352z" fill="#c9cbfb"/><path d="m39.1152 142.05c-.3516-5.114.8226-10.137 1.7712-15.12-1.068 3.159 5.9441 3.515 4.8893.079 1.4462 4.97 4.4182 9.722 3.9074 15.041-3.4298-.125-7.5561 1.699-10.5679 0z" fill="#fed2cf"/><path d="m75.2638 131.67c1.2472-1.396 2.6469-2.64 4.0865-3.832 11.3375 5.8 24.8307 4.536 36.6797 1.047 1.419 1.152 2.773 2.383 4.146 3.594-13.713 6.313-31.6045 7.031-44.9122-.809z" fill="#0047c5"/><path d="m72.8954 134.862c5.9375 1.969 11.6162 5.016 17.998 5.293 11.1716 2.324 22.3036-1.679 32.8586-4.457 1.041 1.06 2.149 2.067 3.045 3.259-1.599 3.12-10.946 2.403-8.028 7.116 3.828-.494 7.265-2.409 11.006-3.226.829 1.06 1.526 2.212 2.209 3.364-.146 4.305-8.504 2.166-8.086 7.149 3.356.046 6.587-.981 9.453-2.646.716 2.126 1.134 4.937-.63 6.662-4.478 1.467-9.573 2.356-13.255 5.378-.624 3.923 5.513.125 8.127.711-2.906 2.975-6.8 5.029-10.893 5.825-.365-.177-1.095-.539-1.46-.717-3.105.526-6.203 1.132-9.294 1.718-3.111 1.001-9.8515-2.245-9.0687 3.502.9022-3.653-1.8708-3.792-4.8229-2.949l-.5307.066c-2.2357-.231-4.4647-.415-6.707-.468.199-1.106.4578-2.192.6966-3.284 9.0952.928 18.4287 1.691 27.4247-.369 2.753-.27 2.641-6.385-1.453-3.357-8.611 1.316-17.3343 1.224-26.0248 1.145-.3317-2.561-.5705-5.134-.8093-7.708 9.8713 1.751 19.9351 1.31 29.8001-.204-.664 10.506 8.153-5.148 1.559-6.531-1.314.04-1.367 2.271-2.077 3.246-9.592.434-19.4771 2.751-28.8974-.132-.9155-.474-1.3997-2.712-2.7133-1.356-.3184.23-.9619.704-1.287.941-6.1696-1.863-13.0689-2.764-18.3496-6.655 1.3666-1.402 2.7531-2.784 4.1529-4.147 7.3637 3.397 15.225 5.839 23.3052 6.747 8.1001.836 16.4992 1.073 24.3072-1.553 1.366-.402.816-1.975.922-3.022-6.82.52-13.56 2.041-20.4328 1.797-8.3257-.875-16.9698-2.08-24.4529-6.036-.1194-.441-.345-1.323-.4578-1.764.9222-1.139 1.8907-2.245 2.8659-3.338z" fill="#0047c5"/><path d="m72.8954 134.862c.7696-1.079 1.4794-2.205 2.3684-3.193 13.3077 7.841 31.1992 7.123 44.9122.81 1.174 1.093 2.388 2.133 3.576 3.219-10.555 2.778-21.687 6.78-32.8586 4.457-6.3819-.277-12.0606-3.325-17.998-5.293z" fill="#023ea8"/><path d="m192.991 131.683c12.372-.053 24.744-.06 37.11 0 .053.862.053 1.718 0 2.58-12.372.053-24.745.059-37.11 0-.06-.862-.054-1.718 0-2.58z" fill="#fefbfa"/><path d="m192.991 139.582c12.372-.053 24.744-.059 37.11 0 .053.862.053 1.718 0 2.581-12.372.052-24.745.059-37.11 0-.06-.863-.054-1.719 0-2.581z" fill="#fefbfa"/><path d="m66.8386 142.031c1.1211-1.231 2.1295-2.554 3.1909-3.831.1128.441.3384 1.323.4578 1.764 7.4831 3.956 16.1272 5.161 24.4529 6.036-2.8991-.105-8.1797-.717-4.7964 2.778-8.0802-.908-15.9415-3.35-23.3052-6.747z" fill="#023ea8"/><path d="m126.797 138.957c.424 1.711 1.373 3.08 2.978 3.89-3.741.816-7.178 2.732-11.006 3.226-2.919-4.714 6.429-3.996 8.028-7.116z" fill="#023ea8"/><path d="m42.9761 144.045c1.3003-1.079 2.8925-1.27 4.7765-.559-1.1609 1.303-2.7531 1.487-4.7765.559z" fill="#bf9b7d"/><path d="m47.7526 143.486c2.6801-.494 3.3502 1.099 2.7067 3.903-.889 1.936-.7298 3.542.4776 4.812l.0531.639c.272 4.404.7894 8.794 1.1676 13.198.0796 1.1.2322 3.305.3118 4.404-.3981 1.119-.4909 2.436.3449 3.397.0133 2.659.4445 5.299.8426 7.919-1.9372.309-3.8809.586-5.8313.797-1.8509-.204-3.7084-.31-5.5062-.764-.0531-.856-.1062-1.712-.1725-2.561-.0199-1.902.199-3.791-.2322-5.648-.0862-.428-.2521-1.283-.3317-1.711.3781-1.139.5042-2.482-.4047-3.41-.0995-1.705-.199-3.404-.2852-5.102-.4909-2.508 1.6916-3.12 3.443-4.101-.0133-.461-.0464-1.389-.0597-1.85-1.0681-2.04-2.5276-3.844-4.3121-5.306-.199-1.059-.3781-2.113-.5373-3.172.2653-1.607.5705-3.2.9088-4.786.8757-.046 1.758-.079 2.6403-.099 2.0234.928 3.6156.744 4.7765-.559zm-6.0037 3.265c-.073 1.125-.073 2.258 0 3.383 2.6005.474 2.6005-3.857 0-3.383zm1.9437 22.25c2.0035 1.481 2.0035-3.759 0-2.278-1.2074-.25-1.2074 2.521 0 2.278zm.7032 6.767c.1659 1.204-.8757 3.936 1.2737 3.278-.1658-1.211.8757-3.937-1.2737-3.278z" fill="#36278e"/><path d="m39.427 148.929c.0265-1.645-1.8576-5.318.9088-4.785-.3383 1.586-.6435 3.179-.9088 4.785z" fill="#bb9575"/><path d="m94.9402 146c6.8728.244 13.6128-1.277 20.4328-1.797-.106 1.047.444 2.62-.922 3.022-7.808 2.626-16.2071 2.389-24.3072 1.553-3.3833-3.495 1.8973-2.883 4.7964-2.778z" fill="#023ea8"/><path d="m271.225 144.736c4.053-1.316 8.445-.395 12.631-.546 1.645-.013 5.48-.191 4.684 2.554-5.772.145-11.537.046-17.302.046-.006-.513-.013-1.54-.013-2.054z" fill="#fdf7f1"/><path d="m59.4881 148.462c1.0814-.737 2.1561-1.488 3.1976-2.284 5.2807 3.89 12.18 4.792 18.3496 6.655-2.0565 1.567-4.06 3.377-6.6008 4.134.6568-1.35 2.9787-3.64-1.486-2.995-4.8163-1.06-8.7303-4.351-13.4604-5.51z" fill="#023ea8"/><path d="m131.984 146.211c.697 1.402.903 2.995 1.367 4.503-2.866 1.665-6.097 2.692-9.454 2.646-.417-4.983 7.941-2.844 8.087-7.149z" fill="#023ea8"/><path d="m41.7489 146.751c2.6005-.474 2.6005 3.857 0 3.383-.073-1.125-.073-2.258 0-3.383z" fill="#e1cab5"/><path d="m50.4593 147.389c1.1211 1.304 1.2803 2.91.4776 4.812-1.2074-1.27-1.3666-2.876-.4776-4.812z" fill="#ad8666"/><path d="m50.99 152.839c3.2042-.658 5.6986-2.856 8.4981-4.377 4.7301 1.158 8.6441 4.45 13.4604 5.51 4.4647-.645 2.1428 1.645 1.486 2.995-6.9723 2.778-14.5815 3.008-21.9585 3.838-.1393 1.738-.2455 3.482-.3184 5.233-.3782-4.404-.8956-8.795-1.1676-13.199z" fill="#0047c5"/><path d="m113.933 153.38c.71-.975.763-3.206 2.077-3.246 6.594 1.383-2.223 17.037-1.559 6.53-.16-1.099-.359-2.192-.518-3.284z" fill="#dde2fb"/><path d="m82.3223 151.892c1.3136-1.356 1.7978.882 2.7133 1.356 9.4203 2.883 19.3054.566 28.8974.132.159 1.092.359 2.185.518 3.284-9.865 1.515-19.9288 1.956-29.8001.205-.69-1.653-.5308-4.075-2.3286-4.977z" fill="#023ea8"/><path d="m39.9643 152.103c1.7846 1.461 3.244 3.265 4.3121 5.305-1.486.053-1.6784 2.35.0597 1.85-1.7514.981-3.9339 1.593-3.443 4.101-1.8642-3.462-6.4682-8.564-.9288-11.256z" fill="#f8cbcb"/><path d="m271.238 152.721c3.092-.026 6.177-.039 9.281.046 1.181 5.082-6.421 1.791-9.294 2.034.007-.52.013-1.56.013-2.08z" fill="#fdf9f6"/><path d="m44.3361 159.258c-1.7381.5-1.5457-1.797-.0597-1.85.0133.461.0464 1.389.0597 1.85z" fill="#fad3ba"/><path d="m119.466 162.753c3.682-3.021 8.777-3.91 13.255-5.378-1.639 2.08-3.204 4.239-5.128 6.089-2.614-.586-8.751 3.213-8.127-.711z" fill="#023ea8"/><path d="m271.252 160.621c3.973-.02 7.941-.066 11.921.046 1.101 5.872-8.764 1.073-11.935 2.587-.006-.882 0-1.758.014-2.633z" fill="#fef9f7"/><path d="m85.4602 164.577c8.6905.079 17.4138.171 26.0248-1.146 4.094-3.028 4.206 3.088 1.453 3.358-8.996 2.06-18.3295 1.296-27.4247.368-.0067-.862-.0266-1.718-.0531-2.58z" fill="#023ea8"/><path d="m331.774 163.346c1.844-.606 1.764 1.856 2.03 3.008 1.253.231 3.396.198 3.177 2.021-4.723-2.732-2.381 3.752-5.141 3.344-.763-1.81-.664-5.069-4.239-3.337-.239-2.317 2.786-1.396 3.901-2.6-.007-.843-.697-1.877.272-2.436z" fill="#bca3ff"/><path d="m43.6926 169.001c-1.2074.243-1.2074-2.528 0-2.278.0597.757.0597 1.514 0 2.278z" fill="#b18b6b"/><path d="m43.6926 166.723c2.0035-1.481 2.0035 3.758 0 2.277.0597-.763.0597-1.52 0-2.277z" fill="#faeddf"/><path d="m181.918 167.493c.451-.079 1.354-.23 1.805-.309-2.136 6.543-1.148 13.573-1.393 20.393-.505 3.094-5.46.342-7.265 1.376-4.424-.303-9.32.586-13.486-.481-.883-6.095-.498-12.823-.359-19.169 6.037-3.68 14.044.04 20.698-1.81zm-17.991 3.081c-1.539 5.167-1.108 11.033-.007 16.305 5.46.152 10.927.125 16.393.04.225-3.983.026-7.979-.007-11.955-3.529 2.212-4.033 7.051-7.31 9.348-3.019-.322-3.351-4.687-5.308-6.524-.683-1.04-3.555-5.121-.736-4.535 2.362 2.192 3.164 5.707 5.486 7.807 3.291-2.574 5.387-6.866 7.338-10.499-5.281-.224-10.575-.086-15.849.013z" fill="#fdf8f3"/><path d="m41.1783 168.46c.9089.929.7828 2.272.4047 3.41-.889-.941-.7828-2.277-.4047-3.41z" fill="#d5ac8a"/><path d="m105.946 170.291c3.091-.586 6.189-1.192 9.294-1.718.166 3.271.193 6.583.717 9.834.232 1.942.63 3.865.882 5.813.093 1.034.292 3.107.385 4.141.663 5.378 1.008 10.789 1.691 16.167-.073 2.093-.298 4.239.193 6.313.166 1.619.331 3.245.484 4.884-.066 4.49-.796 9.098.159 13.548.166 2.501.325 5.009.478 7.524-.119 2.752-.066 5.516.206 8.268.126 2.515.245 5.036.364 7.564-.059 3.614-.126 7.241.379 10.835.066 2.574.112 5.148.152 7.728-1.4 1.85-3.954 1.672-5.99 2.212-3.914-5.319-3.609-12.553-5.865-18.649-1.048-5.859-1.851-11.757-2.886-17.616.067-4.72.379-9.466-.345-14.146-.411-7.3-4.312-13.633-6.4743-20.453.146-10.973 6.3223-21.229 6.1763-32.249z" fill="#31218b"/><path d="m115.24 168.573c.365.177 1.095.54 1.46.717.603 1.745 2.149 11.105 2.182 2.298 2.84 2.679 1.022 6.905-2.925 6.819-.524-3.251-.551-6.563-.717-9.834z" fill="#f8cbcb"/><path d="m192.977 168.553c10.608-.033 21.216-.119 31.817.013.006.474.006 1.422.013 1.896-10.608.033-21.215.112-31.817-.013-.006-.474-.006-1.422-.013-1.896z" fill="#fefdf9"/><path d="m52.4694 170.442c.9088.928.7828 2.278.3449 3.397-.8358-.961-.743-2.278-.3449-3.397z" fill="#b88b60"/><path d="m84.8167 170.442c2.2423.053 4.4713.237 6.7069.467-3.3236 8.505-3.8941 17.669-6.2757 26.404-.2985 8.564.6634 17.418-1.8973 25.739-1.1411 3.594-3.1114 6.905-3.8278 10.638-2.2357 3.455-2.4281 7.813-4.8362 11.157-1.0548 8.598-.6369 17.603-2.8858 25.976-.1327-1.922-.398-5.78-.5307-7.702.2852-5.858.9818-11.678 1.7514-17.484.7761-13.014 9.0819-24.382 7.848-37.62-.5175-12.639 1.015-25.285 3.9472-37.575z" fill="#45359e"/><path d="m92.0544 170.844c2.9521-.843 5.7251-.705 4.8229 2.949-1.977 2.475-3.5094 5.641-6.7866 6.629.2388-3.278 1.4197-6.366 1.9637-9.578z" fill="#31218b"/><path d="m96.8773 173.793c-.7829-5.747 5.9577-2.502 9.0687-3.502.146 11.019-6.0304 21.276-6.1763 32.249-5.1812 15.496-10.1169 31.65-14.8933 47.502-2.1096 6.773-3.8477 13.666-6.1166 20.393-.2653 2.969-3.7813 2.278-5.4531.751.1194-12.745 2.3153-25.377 6.2161-37.496 7.901-10.921 5.0949-24.969 7.6357-37.285-.2389-4.694 1.2206-9.282 1.8243-13.896 3.9141-1.389 7.2841-4.457 7.8945-8.716z" fill="#45359e"/><path d="m163.927 170.574c5.274-.099 10.568-.237 15.849-.014-1.951 3.634-4.047 7.926-7.338 10.5-2.321-2.1-3.124-5.615-5.486-7.807-2.819-.586.053 3.495.736 4.535 1.958 1.837 2.289 6.201 5.308 6.524 3.277-2.297 3.781-7.136 7.31-9.348.033 3.976.233 7.972.007 11.955-5.466.085-10.933.112-16.393-.04-1.101-5.273-1.532-11.138.007-16.305z" fill="#c9cbfb"/><path d="m91.5236 170.91.5308-.066c-.544 3.212-1.7249 6.299-1.9637 9.578 3.2772-.988 4.8096-4.154 6.7866-6.629-.6104 4.259-3.9804 7.327-7.8945 8.715-.6037 4.615-2.0631 9.203-1.8243 13.897-2.5408 12.316.2653 26.364-7.6357 37.285.7164-3.733 2.6867-7.044 3.8278-10.638 2.5607-8.321 1.5988-17.175 1.8973-25.739 2.3816-8.735 2.9521-17.898 6.2757-26.403z" fill="#31218b"/><path d="m41.9147 173.582c.4312 1.856.2123 3.746.2322 5.648-.2388-1.869-.1791-3.778-.2322-5.648z" fill="#b59276"/><path d="m44.3958 175.768c2.1494-.659 1.1079 2.067 1.2737 3.278-2.1494.658-1.1078-2.074-1.2737-3.278z" fill="#ebe3d7"/><path d="m192.99 176.452c9.016-.033 18.038-.145 27.047.046.916.54.803 1.6.829 2.515-9.287.066-18.588.099-27.876 0-.053-.856-.053-1.712 0-2.561z" fill="#fdfbf8"/><path d="m192.937 267.301c11.079-.079 22.158-.079 33.237 0-.02.922.099 1.995-.863 2.508-10.322.172-20.658.112-30.98.053-1.374.026-1.467-1.553-1.394-2.561z" fill="#fdfbf8"/><path d="m42.3194 181.791c1.7978.454 3.6553.56 5.5062.764-1.8244.177-3.6421.375-5.4664.506-.0133-.315-.0332-.954-.0398-1.27z" fill="#c76d26"/><path d="m47.8256 182.554c1.9504-.21 3.8941-.487 5.8312-.796v1.836c-3.5956.158-7.4234-.526-10.7337 1.205-.5971-.171-.7895-.75-.5639-1.738 1.8243-.131 3.642-.329 5.4664-.507z" fill="#e6c9af"/><path d="m42.9231 184.799c3.3103-1.731 7.1381-1.046 10.7338-1.204-1.0416.243-3.118.73-4.1596.974-.6766.04-1.3467.092-2.0233.158-1.1344.02-3.4165.059-4.5509.072z" fill="#bd7133"/><path d="m47.474 184.727c.6767-.066 1.3467-.119 2.0234-.158 2.4413.257 5.7317-.217 4.8096 3.16-.5307-2.838-3.6155-1.923-5.818-2.225-.2521-.198-.7563-.58-1.015-.777z" fill="#8c62fe"/><path d="m116.839 184.22c.093 1.033.292 3.107.385 4.14-.093-1.033-.292-3.107-.385-4.14z" fill="#e9a3a1"/><path d="m192.991 184.345c12.372-.052 24.744-.059 37.11 0 .053.856.053 1.718 0 2.581-12.372.052-24.745.059-37.11 0-.06-.863-.054-1.725 0-2.581z" fill="#fffbfa"/><path d="m43.54 192.356c-.0995-3.239-2.5673-8.979 3.6421-6.701-4.9556-.862-3.2109 3.89-3.6421 6.701z" fill="#8c62fe"/><path d="m47.1821 185.655c.325-.04.9818-.119 1.3069-.152 2.2025.303 5.2873-.612 5.818 2.225.1526 4.102.5572 8.203.7961 12.304.1061 1.033.325 3.094.4312 4.127.0729.816.1459 1.633.2255 2.449.1062 1.033.3185 3.1.4246 4.134.4312 3.884.942 7.761.9089 11.678.1061 1.027.3118 3.094.4179 4.121.3516 3.423.7762 6.833.9288 10.275.0464 1.85-.0863 3.772.3051 5.616.1327.75.272 1.507.4113 2.264.0465 1.856-.0663 3.779.2521 5.635.1062.783.2189 1.567.3384 2.357.1127 1.026.325 3.094.4312 4.127.0796 1.047.1592 2.093.2454 3.147-.3914 1.125-.4909 2.448.3715 3.403.2057 3.95.6435 7.893 1.1079 11.823-.1194.276-.3649.816-.4843 1.086-3.4762.428-7.0519.461-10.4352 1.422-.2919-3.035-.5706-6.07-.6435-9.118-.0664-1.862-.0664-3.692-.3981-5.509-.0464-.303-.126-.909-.1725-1.205-.1061-.941-.3184-2.811-.4245-3.752-.2322-1.817-.3317-3.64-.2986-5.457-.0928-.942-.2786-2.824-.3781-3.759-.2587-1.146-.4047-2.317-.3251-3.482.1393-1.06.0465-2.133-.3118-3.134-.4046-3.508-.8757-7.037-1.0083-10.565-.0863-1.797-.0796-3.562-.4843-5.293-.4777-3.462-.8359-6.932-.9686-10.42-.1128-1.027-.3317-3.088-.4445-4.121-.0597-1.264-.1127-2.535-.1658-3.792.8425-1.935.67-3.515-.5175-4.753-.053-1.046-.1127-2.093-.1724-3.133-.1128-1.034-.3384-3.094-.4511-4.128-.0929-1.237-.1858-2.481-.2787-3.719.4312-2.811-1.3135-7.564 3.6421-6.701z" fill="#8c62fe"/><path d="m295.36 222.618c3.436-8.868 5.565-19.512 11.012-27.991 5.009 12.745 7.125 26.753 5.718 40.511-3.953 5.569-7.231 12.02-7.695 18.912 1.015.027 3.045.079 4.06.112-1.785.356-3.536.566-5.327.409 2.793-17.965 2.063-36.213 2.541-54.309-2.123 13.35-.564 31.19-2.063 46.119-2.74-7.741-3.37-16.654-8.246-23.763z" fill="#5a8961"/><path d="m43.8186 196.076c.1128 1.033.3384 3.094.4512 4.127-.1128-1.033-.3384-3.094-.4512-4.127z" fill="#d4925a"/><path d="m55.1031 200.032c.1061 1.033.325 3.094.4312 4.127-.1062-1.033-.3251-3.094-.4312-4.127z" fill="#d49966"/><path d="m45.1255 211.881c.1128 1.033.3317 3.094.4445 4.121-.1128-1.027-.3317-3.088-.4445-4.121z" fill="#d49966"/><path d="m303.606 246.381c1.499-14.929-.06-32.769 2.063-46.119-.478 18.096.252 36.344-2.541 54.308-1.738-.065-3.463-.059-5.181-.158-4.379-5.852-8.339-12.066-10.661-19.024-.577-3.14-1.287-6.26-1.625-9.44.119-4.502.258-8.998.02-13.488.073-.678.092-2.633 1.147-1.474 3.35 3.482 6.163 7.425 8.532 11.631 4.876 7.11 5.506 16.023 8.246 23.764z" fill="#45714d"/><path d="m84.8764 250.042c4.7765-15.852 9.7122-32.006 14.8933-47.502 2.1623 6.82 6.0633 13.152 6.4743 20.453-.086 4.707-.51 9.472.345 14.146 1.035 5.859 1.838 11.757 2.886 17.616-8.266-1.205-16.4985-2.679-24.5986-4.713z" fill="#dde2fb"/><path d="m44.4423 203.336c1.1874 1.238 1.3599 2.818.5174 4.753-1.1941-1.251-1.3666-2.83-.5174-4.753z" fill="#8c62fe"/><path d="m118.915 204.528c.445 2.08.226 4.186.193 6.313-.491-2.074-.266-4.22-.193-6.313z" fill="#31218b"/><path d="m259.974 206.042c2.182-.935 4.763 1.54 2.501 3.219-2.183.803-2.926-1.527-2.501-3.219z" fill="#a0a8fb"/><path d="m55.7598 206.608c.1062 1.033.3185 3.1.4246 4.134-.1061-1.034-.3184-3.101-.4246-4.134z" fill="#dfb08b"/><path d="m256.683 209.965c2.064-.928 3.868 2.304 1.268 2.633-1.944.738-1.195-1.514-1.268-2.633z" fill="#a0a8fb"/><path d="m263.981 209.965c2.056-.928 3.867 2.304 1.267 2.633-1.944.738-1.194-1.514-1.267-2.633z" fill="#a0a8fb"/><path d="m285.661 225.948c-.624-4.47-.73-9.031.02-13.488.238 4.489.099 8.985-.02 13.488z" fill="#b0c0a8"/><path d="m192.99 213.316c9.268-.033 18.542-.132 27.804.013 3.031.092-.584 5.312-2.614 2.581-8.399-.033-16.798.118-25.19-.04-.053-.856-.053-1.705 0-2.554z" fill="#fefaf8"/><path d="m253.486 213.355c1.924-1.296 3.735 3.364 1.194 2.581-2.136.829-2.747-1.448-1.194-2.581z" fill="#a0a8fb"/><path d="m259.994 213.303c2.202-.599 3.217.408 2.614 2.593-2.203.599-3.218-.408-2.614-2.593z" fill="#a0a8fb"/><path d="m268.087 213.355c2.587-1.211 3.45 3.108.511 2.574-1.93.771-1.652-1.922-.511-2.574z" fill="#a0a8fb"/><path d="m119.592 215.725c.909 4.45.219 9.045.159 13.548-.955-4.45-.225-9.058-.159-13.548z" fill="#31218b"/><g fill="#a0a8fb"><path d="m249.379 217.252c2.203-.599 3.218.409 2.614 2.594-2.202.599-3.217-.408-2.614-2.594z"/><path d="m256.677 217.252c2.202-.599 3.217.409 2.614 2.594-2.203.599-3.218-.408-2.614-2.594z"/><path d="m263.974 217.252c2.203-.599 3.218.409 2.614 2.594-2.203.599-3.218-.408-2.614-2.594z"/><path d="m271.272 217.252c2.202-.599 3.217.409 2.613 2.594-2.202.599-3.217-.408-2.613-2.594z"/></g><path d="m71.0976 220.708c1.7646-.915.5573 2.331 2.4877 1.844 1.8642 1.099-2.0432 1.58-2.1958 3.153-2.4811-1.356-2.7929-3.443-.2919-4.997z" fill="#fbd3c0"/><path d="m253.479 220.61c1.944-.409 3.642 1.856 1.705 3.133-2.076.968-3.576-2.028-1.705-3.133z" fill="#a0a8fb"/><path d="m260.783 220.597c2.037-1.126 3.788 2.442 1.42 2.856-1.924 1.403-3.218-1.974-1.42-2.856z" fill="#a0a8fb"/><path d="m268.081 220.596c2.394-1.211 3.681 2.976 1.141 3.213-1.937.553-2.74-2.37-1.141-3.213z" fill="#a0a8fb"/><path d="m192.964 221.215c7.914-.046 15.842-.145 23.763.053.418.987 1.373 2.442-.033 3.107-7.629.184-15.265.171-22.894.013-1.181-.645-.79-2.08-.836-3.173z" fill="#fdf5ef"/><path d="m57.0933 222.42c.1061 1.027.3118 3.094.4179 4.121-.1061-1.027-.3118-3.094-.4179-4.121z" fill="#d5a178"/><path d="m106.244 222.993c.724 4.68.412 9.426.345 14.146-.855-4.674-.431-9.44-.345-14.146z" fill="#31218b"/><path d="m312.09 235.138c2.86-4.233 6.256-8.097 10.164-11.408.026 1.178.073 3.535.099 4.713-.079.487-.239 1.475-.318 1.962-.418.777-.498 1.659-.372 2.521-1.413 7.959-5.771 15.562-11.974 20.855-.305.098-.929.283-1.234.381-1.015-.033-3.045-.085-4.06-.112.464-6.892 3.742-13.343 7.695-18.912z" fill="#46724f"/><path d="m256.67 224.487c2.169-.836 3.782.948 1.838 2.528-2.11.862-2.05-.968-1.838-2.528z" fill="#a0a8fb"/><path d="m264.087 224.566c1.831-.711 3.529.349 2.076 2.113-1.545 1.402-3.794-.513-2.076-2.113z" fill="#a0a8fb"/><path d="m46.5386 226.422c.4047 1.732.398 3.496.4843 5.293-1.36.23-.3981-1.863-.6502-2.62.0531-.895.1128-1.784.1659-2.673z" fill="#8c62fe"/><path d="m260.783 227.838c2.395-1.212 3.682 2.975 1.141 3.212-1.937.553-2.74-2.37-1.141-3.212z" fill="#a0a8fb"/><path d="m192.951 229.779c10.621-.046 21.242-.125 31.863.007.975 3.173-3.821 1.889-5.307 2.547-7.742.086-15.484.099-23.219-.006-1.579-.27-4.014-.316-3.337-2.548z" fill="#fef9f5"/><path d="m321.663 232.926c-.126-.862-.046-1.744.372-2.521.736.553.842 2.613-.372 2.521z" fill="#aabdab"/><path d="m74.6866 244.848c2.4082-3.344 2.6005-7.702 4.8362-11.158-3.9008 12.119-6.0966 24.751-6.216 37.496-.4114.5-.816 1.013-1.2074 1.54-1.8575-2.844-1.1411-6.431-.8293-9.604.1327 1.922.3981 5.779.5307 7.702 2.249-8.374 1.831-17.379 2.8858-25.976z" fill="#31218b"/><path d="m269.514 254.393c6.594-5.78 8.77-15.996 17.772-19.005 2.322 6.958 6.282 13.172 10.661 19.025-.657-.014-1.307-.02-1.951-.047-2.341-4.733-6.348-8.663-11.463-10.275-.305 3.923 1.844 7.333 4.186 10.269-1.486 1.441-4.976.099-4.233 3.041-.55 2.844-.537 5.727 2.74 5.76 0 1.738.033 3.489.087 5.24-.06 1.817-.1 3.647-.12 5.477-.026 1.132-.08 3.39-.106 4.522-6.621-1.073-14.681 2.436-20.592-1.369.975-2.699 2.01-5.404 2.375-8.261.677-4.76.159-9.605.644-14.377z" fill="#fcfcfa"/><path d="m58.44 236.816c.2255.639.4511 1.284.6766 1.936-.126 1.224-.2653 2.449-.3715 3.68-.3914-1.844-.2587-3.766-.3051-5.616z" fill="#8c62fe"/><path d="m120.229 236.797c.265 2.745.305 5.497.206 8.268-.272-2.752-.326-5.517-.206-8.268z" fill="#31218b"/><path d="m59.1166 238.752c4.7831 1.981 8.9824 5.161 13.9049 6.886-.7696 5.806-1.4662 11.625-1.7514 17.484-.3118 3.172-1.0283 6.76.8292 9.604-.1791.507-.3648 1.02-.5572 1.534-.7497.882-1.4661 1.803-2.03 2.817-.8359 3.081-4.5907 1.639-7.0121 2.232-.146-1.034-.4445-3.088-.5971-4.121-.4644-3.93-.9022-7.873-1.1079-11.823.4113-1.126.5307-2.475-.3715-3.403-.0862-1.053-.1658-2.1-.2454-3.147-.1062-1.033-.3185-3.1-.4312-4.127-.1195-.79-.2322-1.574-.3384-2.357-.0398-1.902.1725-3.785-.2521-5.635-.1393-.757-.2786-1.514-.4113-2.264.1062-1.231.2455-2.456.3715-3.68z" fill="#fdfcfa"/><path d="m48.0312 242.28c.3583 1.001.4511 2.074.3118 3.134-1.3268-.092-1.0481-2.416-.3118-3.134z" fill="#8c62fe"/><path d="m284.533 244.09c5.115 1.613 9.122 5.543 11.463 10.276-2.434.231-4.856.152-7.277-.006-2.342-2.936-4.491-6.346-4.186-10.27z" fill="#578861"/><path d="m59.1564 244.696c.4246 1.85.2123 3.733.2521 5.635-.3184-1.856-.2056-3.778-.2521-5.635z" fill="#8c62fe"/><path d="m48.6681 248.896c.0995.935.2853 2.817.3781 3.759-1.4992-.204-1.2007-2.87-.3781-3.759z" fill="#8c62fe"/><path d="m84.8764 250.042c8.1001 2.034 16.3326 3.508 24.5986 4.713 2.256 6.095 1.951 13.33 5.865 18.649-.14.211-.425.632-.571.849-.763.955-1.499 1.935-2.169 2.962-10.82 1.198-21.7464 1.264-32.5996 1.541-1.287-2.561-1.0681-5.536-1.2405-8.321 2.2688-6.728 4.0069-13.62 6.1165-20.393z" fill="#fefdfc"/><path d="m59.7469 252.688c.1127 1.026.325 3.093.4312 4.127-.1062-1.034-.3185-3.101-.4312-4.127z" fill="#dc9f6c"/><path d="m120.799 252.628c.126 1.001.372 2.996.491 3.996-.006 2.265-.02 4.569-.112 6.84-.505-3.594-.438-7.222-.379-10.836z" fill="#31218b"/><path d="m308.455 254.162c.305-.099.929-.283 1.234-.382 2.866 1.534 10.787-2.034 11.291 1.639-12.134.06-24.367 1.034-36.494 1.982-.743-2.943 2.747-1.6 4.233-3.041 2.421.158 4.843.237 7.277.006.644.027 1.294.033 1.951.046 1.718.099 3.443.092 5.181.158 1.791.158 3.542-.052 5.327-.408z" fill="#c79061"/><path d="m284.486 257.401c12.127-.948 24.36-1.922 36.494-1.982-.531 1.87 1.566 6.537-1.897 5.997-1.314-.553-.266 2.686-1.155 1.633-2.852-3.134-8.007-.237-11.503-1.113-6.189.85-13.381-.803-19.199 1.225-3.277-.033-3.29-2.916-2.74-5.76z" fill="#c17435"/><path d="m121.29 256.624c8.943-.77 18.177-.303 27.22-.553.033 7.011.026 14.022-.034 21.039-8.67.474-17.334.711-26.018.836-.975-2.093-.856-4.529-1.128-6.754-.04-2.58-.086-5.154-.152-7.728.092-2.271.106-4.575.112-6.84zm13.474 7.472c-3.609 1.896-.882 9.005 3.344 6.01 3.263-2.284.291-7.34-3.344-6.01z" fill="#fefefc"/><path d="m49.3448 258.112c.1061.941.3184 2.811.4245 3.752-1.5656-.145-1.2936-2.864-.4245-3.752z" fill="#8c62fe"/><path d="m193.8 258.79c7.888-.158 15.782-.171 23.67-.02 1.479.026 2.965 1.455 1.207 2.469-8.571.144-17.155.197-25.726.039-.007-.921-.12-1.988.849-2.488z" fill="#fef6f3"/><path d="m60.4235 259.962c.9022.928.7828 2.278.3715 3.403-.8624-.954-.7629-2.277-.3715-3.403z" fill="#8c62fe"/><path d="m163.934 261.429c5.459-.184 10.926-.151 16.392-.052.093 5.457.093 10.914 0 16.378-5.473.092-10.953.118-16.426-.04-1.074-5.213-1.777-11.21.034-16.286z" fill="#c9cbfb"/><path d="m306.425 261.936c3.496.876 8.651-2.02 11.503 1.113-.02 1.804-.119 3.621-.292 5.431-.988 1.507-2.282 3.522-4.405 2.6-2.978-1.679-3.171-7.346-7.954-5.734-2.063 2.377-3.489 5.537-6.183 7.274-3.582-.566-3.841-5.332-6.673-6.675-3.045-.632-3.536 2.706-4.365 4.753-.239-.77-.491-1.54-.743-2.297-.054-1.751-.087-3.502-.087-5.24 5.818-2.028 13.01-.375 19.199-1.225z" fill="#b15206"/><path d="m49.9418 263.069c.3317 1.817.3317 3.647.3981 5.51-1.5458-.639-.3317-3.891-.3981-5.51z" fill="#8c62fe"/><path d="m134.764 264.096c3.635-1.33 6.607 3.726 3.344 6.01-4.226 2.995-6.953-4.114-3.344-6.01zm.517 1.823c.073 1.113-.676 3.371 1.268 2.633 2.6-.329.796-3.561-1.268-2.633z" fill="#a0a8fb"/><path d="m305.277 265.347c4.783-1.613 4.976 4.055 7.954 5.733 2.123.922 3.417-1.092 4.405-2.6.226 1.751.173 3.476-.152 5.181-.126.395-.385 1.172-.518 1.56-1.559-.658-3.137-1.646-4.962-1.224-1.366 1.928-1.897 4.93-4.518 5.588-4.471 2.107-6.096-2.58-8.564-4.963-2.501-.849-2.819 2.758-4.292 3.976-1.42 2.488-4.71.856-6.223-.744-.02 1.83-.066 5.49-.086 7.32-.776-3.739-.451-7.583-.504-11.362.059-1.046.139-2.08.238-3.113.83-2.048 1.321-5.385 4.366-4.753 2.832 1.343 3.091 6.109 6.673 6.675 2.694-1.738 4.12-4.898 6.183-7.274z" fill="#bc6621"/><path d="m135.281 265.919c2.064-.928 3.868 2.304 1.268 2.633-1.944.738-1.195-1.52-1.268-2.633z" fill="#fdf5e9"/><path d="m287.313 268.401c.252.757.504 1.527.743 2.297-.1 1.034-.18 2.067-.239 3.114l-.624.066c.02-1.83.06-3.66.12-5.477z" fill="#e7b28b"/><path d="m73.3067 271.185c1.6718 1.528 5.1878 2.219 5.4532-.75.1724 2.785-.0465 5.76 1.2405 8.321.617 1.079 1.4529 2.007 2.2755 2.936-5.3603 1.231-8.1665-3.878-10.7338-7.432.1924-.514.3781-1.027.5572-1.534.3914-.527.7961-1.04 1.2074-1.541z" fill="#b77964"/><path d="m115.34 273.404c2.036-.54 4.59-.362 5.99-2.212.272 2.225.153 4.661 1.128 6.754.657 1.461 1.864 2.561 2.965 3.693-5.811 1.672-7.516-4.2-10.654-7.386.146-.217.431-.639.571-.849z" fill="#b77662"/><path d="m287.193 273.878.624-.066c.053 3.779-.272 7.623.504 11.362 8.883 1.185 19.192.329 28.626.454.053-.276.159-.836.212-1.119.212-1.573.404-3.147.577-4.713 9.175-.428 18.25 1.422 27.418 1.619 1.705.277 6.462.007 6.336 2.837-11.723 1.817-23.863 3.647-35.685 2.212-4.663 2.614-11.251.395-16.691 1.791-66.28 1.77-132.726 1.928-199.026.757-25.2555-1.231-50.8958-.856-76.0386-4.246-1.8974.171-2.0698-2.186-.1924-2.298 8.9094-2.363 18.5154-.539 27.1993-3.304l.0597.553c-.3184.902-.524 2.119.3914 2.771 2.5342 5.484 11.437 3.213 10.7537-2.732l.2389-.447c2.4214-.593 6.1762.849 7.0121-2.232.6368 2.12-.9089 9.091 3.171 8.577-.2322-3.712 1.6187-2.04 3.1445-.138 3.6554.27 7.3439.336 11.0125.125.796-2.771-2.8659-2.876-4.5642-3.949-.8226-.929-1.6585-1.857-2.2755-2.936 10.8532-.277 21.7796-.343 32.5996-1.541-1.612 2.522 3.111 13.91 3.556 5.24 3.151 4.674 9.029 3.074 13.845 3.206.418-2.626-2.481-3.686-4.578-4.022-1.101-1.132-2.308-2.232-2.965-3.693 8.684-.125 17.348-.362 26.018-.836-.086 3.133-.139 7.373 3.609 8.38 33.349.441 66.725.145 100.081.138 5.957.507 11.868-3.285 14.329-8.597 5.911 3.805 13.971.296 20.592 1.369.026-1.132.08-3.39.106-4.522z" fill="#5b34c7"/><path d="m312.004 273.996c1.825-.421 3.403.566 4.962 1.225.027 3.087.133 6.194.193 9.288-.053.283-.159.843-.212 1.119-9.434-.125-19.743.731-28.626-.454.02-1.83.066-5.49.086-7.32 1.513 1.599 4.803 3.232 6.223.744 1.473-1.218 1.791-4.826 4.292-3.976 2.468 2.383 4.093 7.07 8.564 4.963 2.621-.658 3.152-3.66 4.518-5.589z" fill="#b15104"/><path d="m316.966 275.221c.133-.389.392-1.165.518-1.56.106 2.021.305 4.088.252 6.135-.173 1.567-.365 3.14-.577 4.713-.06-3.094-.166-6.201-.193-9.288z" fill="#dca77c"/><path d="m69.5121 277.077c.5639-1.014 1.2804-1.935 2.03-2.817 2.5673 3.554 5.3735 8.663 10.7338 7.432 1.6983 1.073 5.3602 1.178 4.5642 3.949-3.6686.211-7.3571.145-11.0125-.125-1.5258-1.902-3.3767-3.574-3.1445.139-4.0799.513-2.5342-6.458-3.171-8.578z" fill="#60300d"/><path d="m114.769 274.253c3.138 3.186 4.843 9.058 10.654 7.386 2.097.336 4.996 1.395 4.578 4.022-4.816-.132-10.694 1.468-13.845-3.206-.445 8.67-5.168-2.719-3.556-5.24.67-1.027 1.406-2.008 2.169-2.962z" fill="#5f2f0d"/><path d="m61.9029 275.188c.1526 1.033.4511 3.087.5971 4.12l-.2388.448c-1.0018-.876-.9354-2.278-.8426-3.482.1194-.27.3649-.81.4843-1.086z" fill="#c0a27c"/><path d="m192.99 275.194c6.575-.066 13.149-.145 19.723.06 1.062.506 1.062 1.935 0 2.448-6.574.198-13.148.119-19.723.06-.053-.856-.053-1.719 0-2.568z" fill="#fefbf8"/><path d="m50.9834 277.696c3.3833-.961 6.959-.994 10.4352-1.422-.0928 1.205-.1592 2.607.8425 3.482.6833 5.945-8.2195 8.216-10.7536 2.732.4245-.921.4245-2.067-.3915-2.771l-.0597-.553c-.0199-.369-.053-1.1-.0729-1.468z" fill="#fa89bc"/><path d="m51.116 279.717c.816.704.816 1.85.3914 2.771-.9154-.652-.7098-1.869-.3914-2.771z" fill="#cb9c77"/><path d="m42.5 184 11-1 1 3.5-11.5 1.5z" fill="#8c62fe"/></g></svg>