<svg fill="none" height="32" viewBox="0 0 32 32" width="32" xmlns="http://www.w3.org/2000/svg" xmlns:xlink="http://www.w3.org/1999/xlink"><clipPath id="a"><path d="m0 0h32v32h-32z"/></clipPath><g clip-path="url(#a)"><path d="m16 28c6.6274 0 12-5.3726 12-12 0-6.62742-5.3726-12-12-12-6.62742 0-12 5.37258-12 12 0 6.6274 5.37258 12 12 12z" stroke="#8f9098" stroke-linecap="round" stroke-linejoin="round" stroke-width="1.5"/><path d="m15 15c.2652 0 .5196.1054.7071.2929s.2929.4419.2929.7071v5c0 .2652.1054.5196.2929.7071s.4419.2929.7071.2929" stroke="#8f9098" stroke-linecap="round" stroke-linejoin="round" stroke-width="1.5"/><path d="m15.5 12c.8284 0 1.5-.6716 1.5-1.5 0-.82843-.6716-1.5-1.5-1.5s-1.5.67157-1.5 1.5c0 .8284.6716 1.5 1.5 1.5z" fill="#8f9098"/></g></svg>