<svg width="73" height="72" viewBox="0 0 73 72" fill="none" xmlns="http://www.w3.org/2000/svg">
<g filter="url(#filter0_d_299_8878)">
<rect x="4.5" y="1" width="64" height="64" rx="16" fill="white" shape-rendering="crispEdges"/>
<g clip-path="url(#clip0_299_8878)">
<ellipse cx="36.5" cy="35.25" rx="3" ry="3.75" fill="#98B7ED"/>
<path d="M36.5 39C38.5711 39 40.25 37.3211 40.25 35.25C40.25 33.1789 38.5711 31.5 36.5 31.5C34.4289 31.5 32.75 33.1789 32.75 35.25C32.75 37.3211 34.4289 39 36.5 39Z" stroke="#275FC4" stroke-width="2" stroke-linecap="round" stroke-linejoin="round"/>
<path d="M36.5 39V43.5" stroke="#275FC4" stroke-width="2" stroke-linecap="round" stroke-linejoin="round"/>
<path d="M51.5 25.5H21.5C20.6716 25.5 20 26.1716 20 27V48C20 48.8284 20.6716 49.5 21.5 49.5H51.5C52.3284 49.5 53 48.8284 53 48V27C53 26.1716 52.3284 25.5 51.5 25.5Z" stroke="#275FC4" stroke-width="2" stroke-linecap="round" stroke-linejoin="round"/>
<path d="M29 25.5V19.5C29 17.5109 29.7902 15.6032 31.1967 14.1967C32.6032 12.7902 34.5109 12 36.5 12C38.4891 12 40.3968 12.7902 41.8033 14.1967C43.2098 15.6032 44 17.5109 44 19.5V25.5" stroke="#275FC4" stroke-width="2" stroke-linecap="round" stroke-linejoin="round"/>
</g>
</g>
<defs>
<filter id="filter0_d_299_8878" x="0.5" y="0" width="72" height="72" filterUnits="userSpaceOnUse" color-interpolation-filters="sRGB">
<feFlood flood-opacity="0" result="BackgroundImageFix"/>
<feColorMatrix in="SourceAlpha" type="matrix" values="0 0 0 0 0 0 0 0 0 0 0 0 0 0 0 0 0 0 127 0" result="hardAlpha"/>
<feOffset dy="3"/>
<feGaussianBlur stdDeviation="2"/>
<feComposite in2="hardAlpha" operator="out"/>
<feColorMatrix type="matrix" values="0 0 0 0 0.133316 0 0 0 0 0.324745 0 0 0 0 0.67 0 0 0 0.1 0"/>
<feBlend mode="normal" in2="BackgroundImageFix" result="effect1_dropShadow_299_8878"/>
<feBlend mode="normal" in="SourceGraphic" in2="effect1_dropShadow_299_8878" result="shape"/>
</filter>
<clipPath id="clip0_299_8878">
<rect width="48" height="48" fill="white" transform="translate(12.5 9)"/>
</clipPath>
</defs>
</svg>
