<svg fill="none" height="32" viewBox="0 0 32 32" width="32" xmlns="http://www.w3.org/2000/svg" xmlns:xlink="http://www.w3.org/1999/xlink"><clipPath id="a"><path d="m0 0h32v32h-32z"/></clipPath><g clip-path="url(#a)"><ellipse cx="16" cy="17.5" fill="#e8e9f1" rx="2" ry="2.5"/><g stroke="#8f9098" stroke-linecap="round" stroke-linejoin="round" stroke-width="1.5"><path d="m16 20c1.3807 0 2.5-1.1193 2.5-2.5s-1.1193-2.5-2.5-2.5-2.5 1.1193-2.5 2.5 1.1193 2.5 2.5 2.5z"/><path d="m16 20v3"/><path d="m26 11h-20c-.55228 0-1 .4477-1 1v14c0 .5523.44772 1 1 1h20c.5523 0 1-.4477 1-1v-14c0-.5523-.4477-1-1-1z"/><path d="m11 11v-4c0-1.32608.5268-2.59785 1.4645-3.53553.9376-.93769 2.2094-1.46447 3.5355-1.46447s2.5979.52678 3.5355 1.46447c.9377.93768 1.4645 2.20945 1.4645 3.53553v4"/></g></g></svg>