<svg fill="none" height="20" viewBox="0 0 20 20" width="20" xmlns="http://www.w3.org/2000/svg" xmlns:xlink="http://www.w3.org/1999/xlink"><clipPath id="a"><path d="m0 0h20v20h-20z"/></clipPath><g style="opacity:.8;clip-path:url(#a);stroke:#31394f;stroke-width:1.5;stroke-linecap:round;stroke-linejoin:round"><path d="m9.99996 18.3333c4.60234 0 8.33334-3.731 8.33334-8.33334 0-4.60237-3.731-8.33333-8.33334-8.33333-4.60237 0-8.33333 3.73096-8.33333 8.33333 0 4.60234 3.73096 8.33334 8.33333 8.33334z"/><path d="m9.99996 13.3333c1.84094 0 3.33334-1.4924 3.33334-3.33334 0-1.84095-1.4924-3.33333-3.33334-3.33333-1.84095 0-3.33333 1.49238-3.33333 3.33333 0 1.84094 1.49238 3.33334 3.33333 3.33334z"/><path d="m4.10828 4.10828 3.53333 3.53333"/><path d="m12.3583 12.3583 3.5333 3.5333"/><path d="m12.3583 7.64161 3.5333-3.53333"/><path d="m12.3583 7.64162 2.9416-2.94167"/><path d="m4.10828 15.8916 3.53333-3.5333"/></g></svg>