<svg fill="none" height="20" viewBox="0 0 20 20" width="20" xmlns="http://www.w3.org/2000/svg"><g stroke="#464d61" stroke-linecap="round" stroke-linejoin="round" stroke-opacity=".5" stroke-width="2"><path d="m9.99999 10.8334c.46021 0 .83331-.3731.83331-.8333 0-.46026-.3731-.83335-.83331-.83335-.46024 0-.83333.37309-.83333.83335 0 .4602.37309.8333.83333.8333z"/><path d="m9.99999 4.99992c.46021 0 .83331-.3731.83331-.83333 0-.46024-.3731-.83334-.83331-.83334-.46024 0-.83333.3731-.83333.83334 0 .46023.37309.83333.83333.83333z"/><path d="m9.99999 16.6667c.46021 0 .83331-.3731.83331-.8334 0-.4602-.3731-.8333-.83331-.8333-.46024 0-.83333.3731-.83333.8333 0 .4603.37309.8334.83333.8334z"/></g></svg>