<svg fill="none" height="20" viewBox="0 0 20 20" width="20" xmlns="http://www.w3.org/2000/svg"><g opacity=".5" stroke="#31394f" stroke-linecap="round" stroke-linejoin="round" stroke-width="2"><path d="m9.16666 10.0001c0 .4602.3731.8333.83333.8333.46021 0 .83331-.3731.83331-.8333 0-.46026-.3731-.83335-.83331-.83335-.46023 0-.83333.37309-.83333.83335z"/><path d="m15 10.0001c0 .4602.3731.8333.8333.8333.4603 0 .8334-.3731.8334-.8333 0-.46026-.3731-.83335-.8334-.83335-.4602 0-.8333.37309-.8333.83335z"/><path d="m3.33333 10.0001c0 .4602.3731.8333.83334.8333.46023 0 .83333-.3731.83333-.8333 0-.46026-.3731-.83335-.83333-.83335-.46024 0-.83334.37309-.83334.83335z"/></g></svg>