<svg fill="none" height="24" viewBox="0 0 24 24" width="24" xmlns="http://www.w3.org/2000/svg"><g stroke="#464d61" stroke-linecap="round" stroke-linejoin="round" stroke-opacity=".7" stroke-width="1.5"><path d="m19 6.22222v-3.16666c0-.27996-.1216-.54844-.338-.74639-.2163-.19796-.5098-.30917-.8158-.30917h-12.69235c-.30602 0-.59951.11121-.8159.30917-.21639.19795-.33795.46643-.33795.74639v16.88884c0 .28.12156.5485.33795.7464.21639.198.50988.3092.8159.3092h9.23075 3.0321c.8744 0 1.5833-.7089 1.5833-1.5833v-1.5834"/><path d="m3 8h2m-2 4h2m-2 4h2"/><path d="m19.0918 9.006-6.2936 4.5564-.6253 2.9219 2.971.3181 6.2936-4.5564c.2384-.1726.4053-.4235.464-.6975.0586-.274.0042-.5486-.1514-.7634l-1.1728-1.62001c-.1556-.21483-.3994-.35228-.678-.38211-.2786-.02984-.5691.05039-.8075.22302z"/></g></svg>