<svg fill="none" height="32" viewBox="0 0 32 32" width="32" xmlns="http://www.w3.org/2000/svg" xmlns:xlink="http://www.w3.org/1999/xlink"><clipPath id="a"><path d="m0 0h32v32h-32z"/></clipPath><g clip-path="url(#a)" stroke="#8f9098" stroke-linecap="round" stroke-linejoin="round" stroke-width="1.5"><path d="m26.5 16c1.3807 0 2.5-1.1193 2.5-2.5s-1.1193-2.5-2.5-2.5-2.5 1.1193-2.5 2.5 1.1193 2.5 2.5 2.5z"/><path d="m5.5 16c1.38071 0 2.5-1.1193 2.5-2.5s-1.11929-2.5-2.5-2.5-2.5 1.1193-2.5 2.5 1.11929 2.5 2.5 2.5z"/><path d="m11.5 10c1.3807 0 2.5-1.11929 2.5-2.5s-1.1193-2.5-2.5-2.5-2.5 1.11929-2.5 2.5 1.1193 2.5 2.5 2.5z"/><path d="m20.5 10c1.3807 0 2.5-1.11929 2.5-2.5s-1.1193-2.5-2.5-2.5-2.5 1.11929-2.5 2.5 1.1193 2.5 2.5 2.5z"/><path d="m16.0001 13c-.9752.0004-1.9238.3175-2.7032.9036-.7793.5862-1.3472 1.4096-1.618 2.3464-.4003 1.3778-1.329 2.5416-2.58379 3.2375-.91088.4857-1.59874 1.3047-1.91974 2.2858s-.25029 2.0483.19736 2.9784c.44765.9302 1.23756 1.6513 2.20456 2.0125.96701.3613 2.03621.3347 2.98411-.0742 2.2026-.9031 4.6723-.9031 6.875 0 .9478.4089 2.017.4355 2.984.0742.967-.3612 1.7569-1.0823 2.2046-2.0125.4476-.9301.5184-1.9973.1974-2.9784s-1.0089-1.8001-1.9198-2.2858c-1.2541-.6961-2.1819-1.8599-2.5812-3.2375-.2709-.9368-.8388-1.7602-1.6181-2.3464-.7794-.5861-1.728-.9032-2.7032-.9036z"/></g></svg>