<svg fill="none" height="32" viewBox="0 0 32 32" width="32" xmlns="http://www.w3.org/2000/svg"><path d="m20.4565 4.24414h10v5.03883h-10z" fill="#e8e9f1" transform="matrix(.72761953 .68598092 -.68598092 .72761953 8.48335 -12.876748)"/><g stroke="#8f9098" stroke-linecap="round" stroke-linejoin="round" stroke-width="1.5"><path d="m11.5875 26.9999h-5.58749c-.26522 0-.51957-.1054-.70711-.2929s-.29289-.4419-.29289-.7071v-5.5875c-.00046-.1299.0247-.2585.07403-.3786.04934-.1202.12187-.2294.21347-.3214l14.99999-15.00001c.0931-.09448.204-.16952.3263-.22074.1223-.05121.2536-.07759.3862-.07759s.2639.02638.3862.07759c.1223.05122.2333.12626.3263.22074l5.575 5.57501c.0945.093.1695.204.2207.3263.0513.1223.0776.2536.0776.3862s-.0263.2639-.0776.3862c-.0512.1223-.1262.2332-.2207.3263l-15 15c-.092.0916-.2012.1641-.3214.2135-.1201.0493-.2487.0744-.3786.074z"/><path d="m17 8 7 7"/></g></svg>