<svg fill="none" height="20" viewBox="0 0 20 20" width="20" xmlns="http://www.w3.org/2000/svg"><path d="m8.54823 1.69086c1.35475-.10987 2.73877.15506 3.95127.77026 1.3087.65688 2.4152 1.70648 3.1417 2.977.6392 1.10766.981 2.38324.9868 3.66154.0184 1.69794-.5799 3.38684-1.6408 4.70994 1.0309 1.0321 2.0637 2.0634 3.0954 3.0951.205.1991.2962.5057.2287.7843-.0678.3093-.3289.5649-.6399.6261-.2732.06-.5714-.0312-.7659-.2314-1.0332-1.0317-2.0648-2.0642-3.0981-3.0951-.6052.4823-1.283.8739-2.006 1.1501-1.1532.4434-2.41795.5887-3.64214.4239-1.31032-.1714-2.56881-.7056-3.60826-1.5206-1.1404-.8887-2.01654-2.1129-2.48307-3.4812-.46029-1.3367-.52537-2.80516-.19136-4.17853.36168-1.50428 1.21133-2.8835 2.38329-3.89259 1.19028-1.03441 2.71535-1.67843 4.28837-1.79882zm-.01949 1.67025c-1.49896.14961-2.92231.9148-3.87524 2.08052-.79508.95765-1.26355 2.17869-1.31773 3.42193-.05534 1.12013.21748 2.25544.78573 3.22324.62086 1.0664 1.59055 1.9254 2.72627 2.4093 1.07959.4652 2.30066.5876 3.45273.3565 1.223-.2404 2.3584-.8937 3.1862-1.8245.7467-.833 1.2437-1.8865 1.4097-2.9926.1785-1.15986.0031-2.3731-.5102-3.42933-.5678-1.18091-1.5492-2.15688-2.7344-2.71636-.9654-.46129-2.05984-.64051-3.12306-.5287z" fill="#31394f" opacity=".5"/></svg>