<svg fill="none" height="32" viewBox="0 0 32 32" width="32" xmlns="http://www.w3.org/2000/svg" xmlns:xlink="http://www.w3.org/1999/xlink"><clipPath id="a"><path d="m0 0h32v32h-32z"/></clipPath><g clip-path="url(#a)"><path d="m23 19 6-6.5h-.5l-19 6.5-1.5 9 8-4 8 3.5z" fill="#e8e9f1"/><path d="m16.9176 3.61252 2.9037 6.91998c.0703.168.1851.3135.332.421s.3204.1729.5018.189l7.4325.6425c.1972.0159.3852.0899.5404.2126.1551.1228.2704.2888.3311.4771.0608.1883.0643.3904.0102.5807s-.1635.3602-.3142.4884l-5.6388 4.9187c-.137.1204-.2389.2757-.2948.4493-.0559.1737-.0638.3592-.0227.537l1.69 7.3175c.0447.1911.0321.3911-.0361.5752-.0683.184-.1891.3439-.3476.4597-.1584.1158-.3475.1824-.5435.1915-.1961.0092-.3905-.0396-.559-.1402l-6.3875-3.875c-.1552-.0944-.3334-.1443-.515-.1443-.1817 0-.3598.0499-.515.1443l-6.38754 3.875c-.16854.1006-.36295.1494-.559.1402-.19606-.0091-.3851-.0757-.54355-.1915-.15846-.1158-.27934-.2757-.34757-.4597-.06823-.1841-.08079-.3841-.03613-.5752l1.69-7.3175c.04108-.1778.03325-.3633-.02265-.537-.05591-.1736-.1578-.3289-.29485-.4493l-5.63875-4.9187c-.15075-.1282-.26011-.2981-.31423-.4884-.05413-.1903-.05059-.3924.01016-.5807.06076-.1883.176-.3543.33114-.4771.15514-.1227.34322-.1967.54043-.2126l7.43254-.6425c.1813-.0161.3548-.0815.5017-.189s.2617-.253.332-.421l2.9038-6.91998c.0775-.17891.2057-.33124.3687-.43825s.3538-.16402.5488-.16402.3857.05701.5487.16402.2912.25934.3688.43825z" stroke="#8f9098" stroke-linecap="round" stroke-linejoin="round" stroke-width="1.5"/></g></svg>