<svg fill="none" height="20" viewBox="0 0 20 20" width="20" xmlns="http://www.w3.org/2000/svg" xmlns:xlink="http://www.w3.org/1999/xlink"><clipPath id="a"><path d="m0 0h20v20h-20z"/></clipPath><g style="opacity:.5;clip-path:url(#a);stroke:#31394f;stroke-width:1.66667;stroke-linecap:round;stroke-linejoin:round"><path d="m10 12.5c1.3807 0 2.5-1.1193 2.5-2.5 0-1.38071-1.1193-2.5-2.5-2.5-1.38071 0-2.5 1.11929-2.5 2.5 0 1.3807 1.11929 2.5 2.5 2.5z"/><path d="m16.1667 12.5c-.1109.2514-.144.5302-.095.8005.049.2704.1779.5198.37.7162l.05.05c.155.1548.2779.3386.3618.5409.0838.2024.127.4192.127.6383 0 .219-.0432.4359-.127.6382-.0839.2023-.2068.3862-.3618.5409-.1548.155-.3386.2779-.5409.3618-.2024.0839-.4192.1271-.6383.1271-.219 0-.4359-.0432-.6382-.1271s-.3861-.2068-.5409-.3618l-.05-.05c-.1964-.1921-.4459-.3209-.7162-.37-.2703-.049-.5491-.0159-.8005.095-.2465.1057-.4567.2811-.6047.5047-.1481.2235-.2276.4855-.2286.7537v.1416c0 .4421-.1756.866-.4882 1.1786-.3125.3125-.7365.4881-1.1785.4881-.44202 0-.86594-.1756-1.1785-.4881-.31256-.3126-.48816-.7365-.48816-1.1786v-.075c-.00645-.2758-.09573-.5433-.25624-.7677s-.38481-.3954-.64376-.4906c-.25135-.1109-.53016-.144-.80049-.095s-.51978.1779-.71618.37l-.05.05c-.15478.155-.3386.2779-.54093.3618-.20233.0838-.41921.127-.63823.127-.21903 0-.43591-.0432-.63824-.127-.20233-.0839-.38614-.2068-.54093-.3618-.15496-.1548-.27789-.3386-.36177-.5409-.08387-.2024-.12704-.4192-.12704-.6383 0-.219.04317-.4359.12704-.6382.08388-.2023.20681-.3861.36177-.5409l.05-.05c.19211-.1964.32099-.4459.37-.7162.04902-.2703.01593-.5491-.095-.8005-.10564-.2465-.28104-.4567-.50461-.6047-.22358-.1481-.48557-.2276-.75372-.2286h-.14167c-.44203 0-.86595-.1756-1.17851-.4882-.31256-.3125-.488156-.7365-.488156-1.1785 0-.44202.175596-.86594.488156-1.1785s.73648-.48816 1.17851-.48816h.075c.27583-.00645.54334-.09573.76775-.25624s.39535-.38481.49058-.64376c.11093-.25135.14402-.53016.09501-.80049-.04902-.27033-.17789-.51978-.37001-.71618l-.05-.05c-.15496-.15478-.27789-.3386-.36176-.54093-.08388-.20233-.12705-.41921-.12705-.63823 0-.21903.04317-.43591.12705-.63824.08387-.20233.2068-.38614.36176-.54093.15479-.15496.33861-.27789.54094-.36177.20233-.08387.41921-.12704.63823-.12704.21903 0 .4359.04317.63823.12704.20233.08388.38615.20681.54094.36177l.05.05c.1964.19211.44584.32099.71617.37.27033.04902.54915.01593.80049-.095h.06667c.24648-.10564.45668-.28104.60474-.50461.14807-.22358.22752-.48557.22859-.75372v-.14167c0-.44203.1756-.86595.48816-1.17851s.73648-.488156 1.17847-.488156c.4421 0 .866.175596 1.1786.488156.3125.31256.4881.73648.4881 1.17851v.075c.0011.26816.0805.53015.2286.75372.1481.22358.3583.39898.6047.50461.2514.11093.5302.14402.8005.09501.2704-.04902.5198-.17789.7162-.37001l.05-.05c.1548-.15496.3386-.27789.5409-.36176.2024-.08388.4192-.12705.6383-.12705.219 0 .4359.04317.6382.12705.2023.08387.3862.2068.5409.36176.155.15479.2779.33861.3618.54094s.1271.41921.1271.63823c0 .21903-.0432.4359-.1271.63823s-.2068.38615-.3618.54094l-.05.05c-.1921.1964-.3209.44584-.37.71617-.049.27033-.0159.54915.095.80049v.06667c.1057.24648.2811.45668.5047.60474.2235.14807.4855.22752.7537.22859h.1416c.4421 0 .866.1756 1.1786.48816.3125.31256.4881.73648.4881 1.17847 0 .4421-.1756.866-.4881 1.1786-.3126.3125-.7365.4881-1.1786.4881h-.075c-.2681.0011-.5301.0805-.7537.2286s-.399.3583-.5046.6047z"/></g></svg>