<svg fill="none" height="32" viewBox="0 0 32 32" width="32" xmlns="http://www.w3.org/2000/svg" xmlns:xlink="http://www.w3.org/1999/xlink"><clipPath id="a"><path d="m0 0h32v32h-32z"/></clipPath><g clip-path="url(#a)" stroke="#8f9098" stroke-linecap="round" stroke-linejoin="round" stroke-width="1.5"><path d="m4 13h6v13h-6c-.26522 0-.51957-.1054-.70711-.2929-.18753-.1875-.29289-.4419-.29289-.7071v-11c0-.2652.10536-.5196.29289-.7071.18754-.1875.44189-.2929.70711-.2929z"/><path d="m10 13 5-10c1.0609 0 2.0783.42143 2.8284 1.17157.7502.75015 1.1716 1.76756 1.1716 2.82843v3h8c.2837.0001.5641.0605.8227.1773s.4893.2872.6769.5.3278.4631.4113.7343c.0835.2711.1083.5569.0728.8384l-1.5 12c-.0608.4832-.2959.9276-.6612 1.2498-.3652.3222-.8355.5001-1.3225.5002h-15.5"/></g></svg>