<svg fill="none" height="32" viewBox="0 0 32 32" width="32" xmlns="http://www.w3.org/2000/svg" xmlns:xlink="http://www.w3.org/1999/xlink"><clipPath id="a"><path d="m0 0h32v32h-32z"/></clipPath><g clip-path="url(#a)"><rect fill="#e8e9f1" height="4" rx="2" width="10" x="11" y="3"/><g stroke="#8f9098" stroke-linecap="round" stroke-linejoin="round" stroke-width="1.5"><path d="m27 7h-22"/><path d="m13 13v8"/><path d="m19 13v8"/><path d="m25 7v19c0 .2652-.1054.5196-.2929.7071s-.4419.2929-.7071.2929h-16c-.26522 0-.51957-.1054-.70711-.2929-.18753-.1875-.29289-.4419-.29289-.7071v-19"/><path d="m21 7v-2c0-.53043-.2107-1.03914-.5858-1.41421-.3751-.37508-.8838-.58579-1.4142-.58579h-6c-.5304 0-1.0391.21071-1.4142.58579-.3751.37507-.5858.88378-.5858 1.41421v2"/></g></g></svg>