<svg fill="none" height="32" viewBox="0 0 32 32" width="32" xmlns="http://www.w3.org/2000/svg"><path d="m8.5 19.5h3.5l9 3 3.5-1 3 4.5-.5 1h-22l-.5-1z" fill="#e8e9f1"/><g stroke="#8f9098" stroke-linecap="round" stroke-linejoin="round" stroke-width="1.5"><path d="m13.2288 4v7.725c-.0012.1798-.0485.3563-.1375.5125l-7.94996 13.25c-.09023.1512-.13895.3234-.14125.4995-.00231.176.0419.3495.12814.503.08624.1534.21147.2814.36302.371.15155.0895.32406.1375.50008.139h20.47497c.1761-.0015.3486-.0495.5001-.139.1516-.0896.2768-.2176.363-.371.0863-.1535.1305-.327.1282-.503-.0023-.1761-.051-.3483-.1413-.4995l-7.95-13.25c-.0889-.1562-.1363-.3327-.1375-.5125v-7.725"/><path d="m11 4h10"/><path d="m8.5 20c1.5-1.4998 3.3377-1.075 7.5002 1 4.4625 2.2375 7.0625 1.35 8.4875.1375"/></g></svg>