<svg fill="none" height="24" viewBox="0 0 24 24" width="24" xmlns="http://www.w3.org/2000/svg"><path d="m17 8c0 .98891-.2932 1.95561-.8427 2.7779-.5494.8222-1.3303 1.4631-2.2439 1.8415s-1.9189.4775-2.8889.2845c-.9699-.1929-1.86077-.6691-2.56003-1.3684-.69927-.6992-1.17547-1.59014-1.3684-2.56005-.19292-.9699-.09391-1.97524.28453-2.88887s1.0193-1.69452 1.84155-2.24393 1.78895-.84265 2.77785-.84265c1.3261 0 2.5979.52678 3.5355 1.46447.9377.93768 1.4645 2.20945 1.4645 3.53553zm-4 5h-2c-1.85652 0-3.63699.7375-4.94975 2.0503-1.31275 1.3127-2.05025 3.0932-2.05025 4.9497 0 .2652.10536.5196.29289.7071.18754.1875.44189.2929.70711.2929h14c.2652 0 .5196-.1054.7071-.2929s.2929-.4419.2929-.7071c0-1.8565-.7375-3.637-2.0503-4.9497-1.3127-1.3128-3.0932-2.0503-4.9497-2.0503z" stroke="#464d61" stroke-linecap="round" stroke-linejoin="round" stroke-opacity=".7" stroke-width="1.5"/></svg>