<svg fill="none" height="32" viewBox="0 0 32 32" width="32" xmlns="http://www.w3.org/2000/svg"><path d="m16 13v5" stroke="#8f9098" stroke-linecap="round" stroke-linejoin="round" stroke-width="1.5"/><path d="m14.2748 5.00032-11.00001 18.99998c-.17524.3035-.26764.6478-.26795.9983-.00031.3504.09148.6948.26618.9987.17471.3038.42618.5564.72924.7324.30306.1761.64706.2694.99753.2706h22.00001c.3505-.0012.6945-.0945.9975-.2706.3031-.176.5546-.4286.7293-.7324.1747-.3039.2665-.6483.2661-.9987-.0003-.3505-.0927-.6948-.2679-.9983l-11-18.99998c-.1739-.30392-.4251-.55649-.728-.73215s-.6468-.26817-.997-.26817-.6941.09251-.997.26817c-.303.17566-.5541.42823-.728.73215z" stroke="#8f9098" stroke-linecap="round" stroke-linejoin="round" stroke-width="1.5"/><path d="m16 24c.8284 0 1.5-.6716 1.5-1.5s-.6716-1.5-1.5-1.5-1.5.6716-1.5 1.5.6716 1.5 1.5 1.5z" fill="#8f9098"/></svg>