<?xml version="1.0" encoding="UTF-8"?><svg id="Layer_2" xmlns="http://www.w3.org/2000/svg" viewBox="0 0 113.39 208.85"><g id="Layer_2-2"><g><rect x="9.85" y="164.58" width="14.17" height="14.17" fill="none" isolation="isolate" opacity=".5" stroke="#2a404a" stroke-miterlimit="10" stroke-width=".75"/><rect x="29.69" y="164.58" width="14.17" height="14.17" fill="none" isolation="isolate" opacity=".5" stroke="#2a404a" stroke-miterlimit="10" stroke-width=".75"/><rect x="49.53" y="164.58" width="14.17" height="14.17" fill="none" isolation="isolate" opacity=".5" stroke="#2a404a" stroke-miterlimit="10" stroke-width=".75"/><rect x="69.38" y="164.58" width="14.17" height="14.17" fill="none" isolation="isolate" opacity=".5" stroke="#2a404a" stroke-miterlimit="10" stroke-width=".75"/><rect x="89.22" y="164.58" width="14.17" height="14.17" fill="none" isolation="isolate" opacity=".5" stroke="#2a404a" stroke-miterlimit="10" stroke-width=".75"/><rect x="9.85" y="184.5" width="14.17" height="14.17" fill="none" isolation="isolate" opacity=".5" stroke="#2a404a" stroke-miterlimit="10" stroke-width=".75"/><rect x="29.69" y="184.5" width="14.17" height="14.17" fill="none" isolation="isolate" opacity=".5" stroke="#2a404a" stroke-miterlimit="10" stroke-width=".75"/><rect x="49.53" y="184.5" width="14.17" height="14.17" fill="none" isolation="isolate" opacity=".5" stroke="#2a404a" stroke-miterlimit="10" stroke-width=".75"/><rect x="69.38" y="184.5" width="14.17" height="14.17" fill="none" isolation="isolate" opacity=".5" stroke="#2a404a" stroke-miterlimit="10" stroke-width=".75"/><rect x="89.22" y="184.5" width="14.17" height="14.17" fill="none" isolation="isolate" opacity=".5" stroke="#2a404a" stroke-miterlimit="10" stroke-width=".75"/></g><g opacity=".5"><rect x="9.85" y="123.36" width="11.34" height="11.34" fill="none" stroke="#2a404a" stroke-miterlimit="10" stroke-width=".75"/><rect x="23.55" y="123.36" width="11.34" height="11.34" fill="none" stroke="#2a404a" stroke-miterlimit="10" stroke-width=".75"/><rect x="37.25" y="123.36" width="11.34" height="11.34" fill="none" stroke="#2a404a" stroke-miterlimit="10" stroke-width=".75"/><rect x="50.95" y="123.36" width="11.34" height="11.34" fill="none" stroke="#2a404a" stroke-miterlimit="10" stroke-width=".75"/><rect x="9.85" y="137.52" width="11.34" height="11.34" fill="none" stroke="#2a404a" stroke-miterlimit="10" stroke-width=".75"/><rect x="23.55" y="137.52" width="11.34" height="11.34" fill="none" stroke="#2a404a" stroke-miterlimit="10" stroke-width=".75"/><rect x="37.25" y="137.52" width="11.34" height="11.34" fill="none" stroke="#2a404a" stroke-miterlimit="10" stroke-width=".75"/><rect x="50.95" y="137.52" width="11.34" height="11.34" fill="none" stroke="#2a404a" stroke-miterlimit="10" stroke-width=".75"/><rect x="64.65" y="137.52" width="11.34" height="11.34" fill="none" stroke="#2a404a" stroke-miterlimit="10" stroke-width=".75"/><rect x="78.35" y="137.52" width="11.34" height="11.34" fill="none" stroke="#2a404a" stroke-miterlimit="10" stroke-width=".75"/><rect x="9.85" y="109.19" width="11.34" height="11.34" fill="none" stroke="#2a404a" stroke-miterlimit="10" stroke-width=".75"/><rect x="23.55" y="109.19" width="11.34" height="11.34" fill="none" stroke="#2a404a" stroke-miterlimit="10" stroke-width=".75"/><rect x="37.25" y="109.19" width="11.34" height="11.34" fill="none" stroke="#2a404a" stroke-miterlimit="10" stroke-width=".75"/><rect x="50.95" y="109.19" width="11.34" height="11.34" fill="none" stroke="#2a404a" stroke-miterlimit="10" stroke-width=".75"/><rect x="64.65" y="109.19" width="11.34" height="11.34" fill="none" stroke="#2a404a" stroke-miterlimit="10" stroke-width=".75"/><rect x="78.35" y="109.19" width="11.34" height="11.34" fill="none" stroke="#2a404a" stroke-miterlimit="10" stroke-width=".75"/><rect x="9.85" y="95.01" width="11.34" height="11.34" fill="none" stroke="#2a404a" stroke-miterlimit="10" stroke-width=".75"/><rect x="23.55" y="95.01" width="11.34" height="11.34" fill="none" stroke="#2a404a" stroke-miterlimit="10" stroke-width=".75"/><rect x="37.25" y="95.01" width="11.34" height="11.34" fill="none" stroke="#2a404a" stroke-miterlimit="10" stroke-width=".75"/><rect x="50.95" y="95.01" width="11.34" height="11.34" fill="none" stroke="#2a404a" stroke-miterlimit="10" stroke-width=".75"/><rect x="64.65" y="95.01" width="11.34" height="11.34" fill="none" stroke="#2a404a" stroke-miterlimit="10" stroke-width=".75"/><rect x="78.35" y="95.01" width="11.34" height="11.34" fill="none" stroke="#2a404a" stroke-miterlimit="10" stroke-width=".75"/><rect x="92.05" y="95.01" width="11.34" height="11.34" fill="none" stroke="#2a404a" stroke-miterlimit="10" stroke-width=".75"/><rect x="9.85" y="80.83" width="11.34" height="11.34" fill="none" stroke="#2a404a" stroke-miterlimit="10" stroke-width=".75"/><rect x="23.55" y="80.83" width="11.34" height="11.34" fill="none" stroke="#2a404a" stroke-miterlimit="10" stroke-width=".75"/><rect x="37.25" y="80.83" width="11.34" height="11.34" fill="none" stroke="#2a404a" stroke-miterlimit="10" stroke-width=".75"/><rect x="50.95" y="80.83" width="11.34" height="11.34" fill="none" stroke="#2a404a" stroke-miterlimit="10" stroke-width=".75"/><rect x="64.65" y="80.83" width="11.34" height="11.34" fill="none" stroke="#2a404a" stroke-miterlimit="10" stroke-width=".75"/><rect x="78.35" y="80.83" width="11.34" height="11.34" fill="none" stroke="#2a404a" stroke-miterlimit="10" stroke-width=".75"/><rect x="9.85" y="66.66" width="11.34" height="11.34" fill="none" stroke="#2a404a" stroke-miterlimit="10" stroke-width=".75"/><rect x="23.55" y="66.66" width="11.34" height="11.34" fill="none" stroke="#2a404a" stroke-miterlimit="10" stroke-width=".75"/><rect x="37.25" y="66.66" width="11.34" height="11.34" fill="none" stroke="#2a404a" stroke-miterlimit="10" stroke-width=".75"/><rect x="50.95" y="66.66" width="11.34" height="11.34" fill="none" stroke="#2a404a" stroke-miterlimit="10" stroke-width=".75"/><rect x="64.65" y="66.66" width="11.34" height="11.34" fill="none" stroke="#2a404a" stroke-miterlimit="10" stroke-width=".75"/><rect x="78.35" y="66.66" width="11.34" height="11.34" fill="none" stroke="#2a404a" stroke-miterlimit="10" stroke-width=".75"/><rect x="92.05" y="66.66" width="11.34" height="11.34" fill="none" stroke="#2a404a" stroke-miterlimit="10" stroke-width=".75"/><rect x="9.85" y="52.49" width="11.34" height="11.34" fill="none" stroke="#2a404a" stroke-miterlimit="10" stroke-width=".75"/><rect x="23.55" y="52.49" width="11.34" height="11.34" fill="none" stroke="#2a404a" stroke-miterlimit="10" stroke-width=".75"/><rect x="37.25" y="52.49" width="11.34" height="11.34" fill="none" stroke="#2a404a" stroke-miterlimit="10" stroke-width=".75"/><rect x="50.95" y="52.49" width="11.34" height="11.34" fill="none" stroke="#2a404a" stroke-miterlimit="10" stroke-width=".75"/><rect x="64.65" y="52.49" width="11.34" height="11.34" fill="none" stroke="#2a404a" stroke-miterlimit="10" stroke-width=".75"/><rect x="78.35" y="52.49" width="11.34" height="11.34" fill="none" stroke="#2a404a" stroke-miterlimit="10" stroke-width=".75"/><rect x="9.85" y="38.31" width="11.34" height="11.34" fill="none" stroke="#2a404a" stroke-miterlimit="10" stroke-width=".75"/><rect x="23.55" y="38.31" width="11.34" height="11.34" fill="none" stroke="#2a404a" stroke-miterlimit="10" stroke-width=".75"/><rect x="37.25" y="38.31" width="11.34" height="11.34" fill="none" stroke="#2a404a" stroke-miterlimit="10" stroke-width=".75"/><rect x="50.95" y="38.31" width="11.34" height="11.34" fill="none" stroke="#2a404a" stroke-miterlimit="10" stroke-width=".75"/><rect x="64.65" y="38.31" width="11.34" height="11.34" fill="none" stroke="#2a404a" stroke-miterlimit="10" stroke-width=".75"/><rect x="9.85" y="24.14" width="11.34" height="11.34" fill="none" stroke="#2a404a" stroke-miterlimit="10" stroke-width=".75"/><rect x="23.55" y="24.14" width="11.34" height="11.34" fill="none" stroke="#2a404a" stroke-miterlimit="10" stroke-width=".75"/><rect x="37.25" y="24.14" width="11.34" height="11.34" fill="none" stroke="#2a404a" stroke-miterlimit="10" stroke-width=".75"/><rect x="9.85" y="9.97" width="11.34" height="11.34" fill="none" stroke="#2a404a" stroke-miterlimit="10" stroke-width=".75"/><rect x="23.55" y="9.97" width="11.34" height="11.34" fill="none" stroke="#2a404a" stroke-miterlimit="10" stroke-width=".75"/><rect x="37.25" y="9.97" width="11.34" height="11.34" fill="none" stroke="#2a404a" stroke-miterlimit="10" stroke-width=".75"/><rect x="50.95" y="9.97" width="11.34" height="11.34" fill="none" stroke="#2a404a" stroke-miterlimit="10" stroke-width=".75"/><rect x="64.65" y="9.97" width="11.34" height="11.34" fill="none" stroke="#2a404a" stroke-miterlimit="10" stroke-width=".75"/></g><line y1="156.72" x2="113.39" y2="156.72" fill="none" isolation="isolate" opacity=".5" stroke="#2a404a" stroke-dasharray="0 0 0 0 0 0 10 3" stroke-miterlimit="10"/><rect x="9.5" y=".38" width="32.6" height="6.2" fill="none" isolation="isolate" opacity=".5" stroke="#2a404a" stroke-miterlimit="10" stroke-width=".75"/><rect x="9.85" y="202.16" width="14.27" height="6.2" fill="none" isolation="isolate" opacity=".5" stroke="#2a404a" stroke-miterlimit="10" stroke-width=".75"/><rect x="89.22" y="202.27" width="14.27" height="6.2" fill="none" isolation="isolate" opacity=".5" stroke="#2a404a" stroke-miterlimit="10" stroke-width=".75"/></g></svg>