<?xml version="1.0" encoding="UTF-8"?><svg id="Layer_2" xmlns="http://www.w3.org/2000/svg" viewBox="0 0 120.75 214.08"><g id="Layer_2-2"><g id="Layer_2-2"><g><rect x="13.53" y="167.2" width="14.17" height="14.17" fill="none" isolation="isolate" opacity=".5" stroke="#2a404a" stroke-miterlimit="10" stroke-width=".75"/><rect x="33.37" y="167.2" width="14.17" height="14.17" fill="none" isolation="isolate" opacity=".5" stroke="#2a404a" stroke-miterlimit="10" stroke-width=".75"/><rect x="53.21" y="167.2" width="14.17" height="14.17" fill="none" isolation="isolate" opacity=".5" stroke="#2a404a" stroke-miterlimit="10" stroke-width=".75"/><rect x="73.06" y="167.2" width="14.17" height="14.17" fill="none" isolation="isolate" opacity=".5" stroke="#2a404a" stroke-miterlimit="10" stroke-width=".75"/><rect x="92.9" y="167.2" width="14.17" height="14.17" fill="none" isolation="isolate" opacity=".5" stroke="#2a404a" stroke-miterlimit="10" stroke-width=".75"/><rect x="13.53" y="187.12" width="14.17" height="14.17" fill="none" isolation="isolate" opacity=".5" stroke="#2a404a" stroke-miterlimit="10" stroke-width=".75"/><rect x="33.37" y="187.12" width="14.17" height="14.17" fill="none" isolation="isolate" opacity=".5" stroke="#2a404a" stroke-miterlimit="10" stroke-width=".75"/><rect x="53.21" y="187.12" width="14.17" height="14.17" fill="none" isolation="isolate" opacity=".5" stroke="#2a404a" stroke-miterlimit="10" stroke-width=".75"/><rect x="73.06" y="187.12" width="14.17" height="14.17" fill="none" isolation="isolate" opacity=".5" stroke="#2a404a" stroke-miterlimit="10" stroke-width=".75"/><rect x="92.9" y="187.12" width="14.17" height="14.17" fill="none" isolation="isolate" opacity=".5" stroke="#2a404a" stroke-miterlimit="10" stroke-width=".75"/></g><g opacity=".5"><rect x="13.53" y="125.98" width="11.34" height="11.34" fill="none" stroke="#2a404a" stroke-miterlimit="10" stroke-width=".75"/><rect x="27.23" y="125.98" width="11.34" height="11.34" fill="none" stroke="#2a404a" stroke-miterlimit="10" stroke-width=".75"/><rect x="40.93" y="125.98" width="11.34" height="11.34" fill="none" stroke="#2a404a" stroke-miterlimit="10" stroke-width=".75"/><rect x="54.63" y="125.98" width="11.34" height="11.34" fill="none" stroke="#2a404a" stroke-miterlimit="10" stroke-width=".75"/><rect x="13.53" y="140.15" width="11.34" height="11.34" fill="none" stroke="#2a404a" stroke-miterlimit="10" stroke-width=".75"/><rect x="27.23" y="140.15" width="11.34" height="11.34" fill="none" stroke="#2a404a" stroke-miterlimit="10" stroke-width=".75"/><rect x="40.93" y="140.15" width="11.34" height="11.34" fill="none" stroke="#2a404a" stroke-miterlimit="10" stroke-width=".75"/><rect x="54.63" y="140.15" width="11.34" height="11.34" fill="none" stroke="#2a404a" stroke-miterlimit="10" stroke-width=".75"/><rect x="68.33" y="140.15" width="11.34" height="11.34" fill="none" stroke="#2a404a" stroke-miterlimit="10" stroke-width=".75"/><rect x="82.03" y="140.15" width="11.34" height="11.34" fill="none" stroke="#2a404a" stroke-miterlimit="10" stroke-width=".75"/><rect x="13.53" y="111.81" width="11.34" height="11.34" fill="none" stroke="#2a404a" stroke-miterlimit="10" stroke-width=".75"/><rect x="27.23" y="111.81" width="11.34" height="11.34" fill="none" stroke="#2a404a" stroke-miterlimit="10" stroke-width=".75"/><rect x="40.93" y="111.81" width="11.34" height="11.34" fill="none" stroke="#2a404a" stroke-miterlimit="10" stroke-width=".75"/><rect x="54.63" y="111.81" width="11.34" height="11.34" fill="none" stroke="#2a404a" stroke-miterlimit="10" stroke-width=".75"/><rect x="68.33" y="111.81" width="11.34" height="11.34" fill="none" stroke="#2a404a" stroke-miterlimit="10" stroke-width=".75"/><rect x="82.03" y="111.81" width="11.34" height="11.34" fill="none" stroke="#2a404a" stroke-miterlimit="10" stroke-width=".75"/><rect x="13.53" y="97.63" width="11.34" height="11.34" fill="none" stroke="#2a404a" stroke-miterlimit="10" stroke-width=".75"/><rect x="27.23" y="97.63" width="11.34" height="11.34" fill="none" stroke="#2a404a" stroke-miterlimit="10" stroke-width=".75"/><rect x="40.93" y="97.63" width="11.34" height="11.34" fill="none" stroke="#2a404a" stroke-miterlimit="10" stroke-width=".75"/><rect x="54.63" y="97.63" width="11.34" height="11.34" fill="none" stroke="#2a404a" stroke-miterlimit="10" stroke-width=".75"/><rect x="68.33" y="97.63" width="11.34" height="11.34" fill="none" stroke="#2a404a" stroke-miterlimit="10" stroke-width=".75"/><rect x="82.03" y="97.63" width="11.34" height="11.34" fill="none" stroke="#2a404a" stroke-miterlimit="10" stroke-width=".75"/><rect x="95.73" y="97.63" width="11.34" height="11.34" fill="none" stroke="#2a404a" stroke-miterlimit="10" stroke-width=".75"/><rect x="13.53" y="83.46" width="11.34" height="11.34" fill="none" stroke="#2a404a" stroke-miterlimit="10" stroke-width=".75"/><rect x="27.23" y="83.46" width="11.34" height="11.34" fill="none" stroke="#2a404a" stroke-miterlimit="10" stroke-width=".75"/><rect x="40.93" y="83.46" width="11.34" height="11.34" fill="none" stroke="#2a404a" stroke-miterlimit="10" stroke-width=".75"/><rect x="54.63" y="83.46" width="11.34" height="11.34" fill="none" stroke="#2a404a" stroke-miterlimit="10" stroke-width=".75"/><rect x="68.33" y="83.46" width="11.34" height="11.34" fill="none" stroke="#2a404a" stroke-miterlimit="10" stroke-width=".75"/><rect x="82.03" y="83.46" width="11.34" height="11.34" fill="none" stroke="#2a404a" stroke-miterlimit="10" stroke-width=".75"/><rect x="13.53" y="69.29" width="11.34" height="11.34" fill="none" stroke="#2a404a" stroke-miterlimit="10" stroke-width=".75"/><rect x="27.23" y="69.29" width="11.34" height="11.34" fill="none" stroke="#2a404a" stroke-miterlimit="10" stroke-width=".75"/><rect x="40.93" y="69.29" width="11.34" height="11.34" fill="none" stroke="#2a404a" stroke-miterlimit="10" stroke-width=".75"/><rect x="54.63" y="69.29" width="11.34" height="11.34" fill="none" stroke="#2a404a" stroke-miterlimit="10" stroke-width=".75"/><rect x="68.33" y="69.29" width="11.34" height="11.34" fill="none" stroke="#2a404a" stroke-miterlimit="10" stroke-width=".75"/><rect x="82.03" y="69.29" width="11.34" height="11.34" fill="none" stroke="#2a404a" stroke-miterlimit="10" stroke-width=".75"/><rect x="95.73" y="69.29" width="11.34" height="11.34" fill="none" stroke="#2a404a" stroke-miterlimit="10" stroke-width=".75"/><rect x="13.53" y="55.11" width="11.34" height="11.34" fill="none" stroke="#2a404a" stroke-miterlimit="10" stroke-width=".75"/><rect x="27.23" y="55.11" width="11.34" height="11.34" fill="none" stroke="#2a404a" stroke-miterlimit="10" stroke-width=".75"/><rect x="40.93" y="55.11" width="11.34" height="11.34" fill="none" stroke="#2a404a" stroke-miterlimit="10" stroke-width=".75"/><rect x="54.63" y="55.11" width="11.34" height="11.34" fill="none" stroke="#2a404a" stroke-miterlimit="10" stroke-width=".75"/><rect x="68.33" y="55.11" width="11.34" height="11.34" fill="none" stroke="#2a404a" stroke-miterlimit="10" stroke-width=".75"/><rect x="82.03" y="55.11" width="11.34" height="11.34" fill="none" stroke="#2a404a" stroke-miterlimit="10" stroke-width=".75"/><rect x="13.53" y="40.94" width="11.34" height="11.34" fill="none" stroke="#2a404a" stroke-miterlimit="10" stroke-width=".75"/><rect x="27.23" y="40.94" width="11.34" height="11.34" fill="none" stroke="#2a404a" stroke-miterlimit="10" stroke-width=".75"/><rect x="40.93" y="40.94" width="11.34" height="11.34" fill="none" stroke="#2a404a" stroke-miterlimit="10" stroke-width=".75"/><rect x="54.63" y="40.94" width="11.34" height="11.34" fill="none" stroke="#2a404a" stroke-miterlimit="10" stroke-width=".75"/><rect x="68.33" y="40.94" width="11.34" height="11.34" fill="none" stroke="#2a404a" stroke-miterlimit="10" stroke-width=".75"/><rect x="13.53" y="26.77" width="11.34" height="11.34" fill="none" stroke="#2a404a" stroke-miterlimit="10" stroke-width=".75"/><rect x="27.23" y="26.77" width="11.34" height="11.34" fill="none" stroke="#2a404a" stroke-miterlimit="10" stroke-width=".75"/><rect x="40.93" y="26.77" width="11.34" height="11.34" fill="none" stroke="#2a404a" stroke-miterlimit="10" stroke-width=".75"/><rect x="13.53" y="12.59" width="11.34" height="11.34" fill="none" stroke="#2a404a" stroke-miterlimit="10" stroke-width=".75"/><rect x="27.23" y="12.59" width="11.34" height="11.34" fill="none" stroke="#2a404a" stroke-miterlimit="10" stroke-width=".75"/><rect x="40.93" y="12.59" width="11.34" height="11.34" fill="none" stroke="#2a404a" stroke-miterlimit="10" stroke-width=".75"/><rect x="54.63" y="12.59" width="11.34" height="11.34" fill="none" stroke="#2a404a" stroke-miterlimit="10" stroke-width=".75"/><rect x="68.33" y="12.59" width="11.34" height="11.34" fill="none" stroke="#2a404a" stroke-miterlimit="10" stroke-width=".75"/></g><line x1="3.68" y1="159.34" x2="117.07" y2="159.34" fill="none" isolation="isolate" opacity=".5" stroke="#2a404a" stroke-dasharray="0 0 0 0 0 0 10 3" stroke-miterlimit="10"/><rect x="13.18" y="3" width="32.6" height="6.2" fill="none" isolation="isolate" opacity=".5" stroke="#231f20" stroke-miterlimit="10" stroke-width=".75"/><rect x="13.53" y="204.79" width="14.27" height="6.2" fill="none" isolation="isolate" opacity=".5" stroke="#2a404a" stroke-miterlimit="10" stroke-width=".75"/><rect x="92.9" y="204.9" width="14.27" height="6.2" fill="none" isolation="isolate" opacity=".5" stroke="#2a404a" stroke-miterlimit="10" stroke-width=".75"/></g><rect x=".38" y=".38" width="120" height="213.33" rx="7.22" ry="7.22" fill="none" isolation="isolate" stroke="#2a404a" stroke-miterlimit="10" stroke-width=".75"/></g></svg>