<?xml version="1.0" encoding="UTF-8"?><svg id="Layer_2" xmlns="http://www.w3.org/2000/svg" viewBox="0 0 114.14 238.86"><g id="Layer_1-2"><rect x="10.22" y="190.75" width="14.17" height="14.17" fill="none" isolation="isolate" opacity=".5" stroke="#231f20" stroke-miterlimit="10" stroke-width=".75"/><rect x="30.07" y="190.75" width="14.17" height="14.17" fill="none" isolation="isolate" opacity=".5" stroke="#231f20" stroke-miterlimit="10" stroke-width=".75"/><rect x="49.91" y="190.75" width="14.17" height="14.17" fill="none" isolation="isolate" opacity=".5" stroke="#231f20" stroke-miterlimit="10" stroke-width=".75"/><rect x="69.75" y="190.75" width="14.17" height="14.17" fill="none" isolation="isolate" opacity=".5" stroke="#231f20" stroke-miterlimit="10" stroke-width=".75"/><rect x="89.59" y="190.75" width="14.17" height="14.17" fill="none" isolation="isolate" opacity=".5" stroke="#231f20" stroke-miterlimit="10" stroke-width=".75"/><rect x="89.59" y="181.78" width="14.17" height="6.77" fill="none" isolation="isolate" opacity=".5" stroke="#231f20" stroke-miterlimit="10" stroke-width=".75"/><rect x="10.22" y="211.77" width="14.17" height="14.17" fill="none" isolation="isolate" opacity=".5" stroke="#231f20" stroke-miterlimit="10" stroke-width=".75"/><rect x="10.22" y="227.92" width="14.17" height="7.55" fill="none" isolation="isolate" opacity=".5" stroke="#231f20" stroke-miterlimit="10" stroke-width=".75"/><rect x="30.07" y="211.77" width="14.17" height="14.17" fill="none" isolation="isolate" opacity=".5" stroke="#231f20" stroke-miterlimit="10" stroke-width=".75"/><rect x="49.91" y="211.77" width="14.17" height="14.17" fill="none" isolation="isolate" opacity=".5" stroke="#231f20" stroke-miterlimit="10" stroke-width=".75"/><rect x="69.75" y="211.77" width="14.17" height="14.17" fill="none" isolation="isolate" opacity=".5" stroke="#231f20" stroke-miterlimit="10" stroke-width=".75"/><line x1=".38" y1="168.04" x2="113.76" y2="168.04" fill="none" opacity=".5" stroke="#231f20" stroke-dasharray="0 0 10 3" stroke-linecap="square" stroke-linejoin="round" stroke-width=".75"/><g isolation="isolate" opacity=".5"><rect x="10.22" y="115.6" width="11.34" height="11.34" fill="none" stroke="#231f20" stroke-miterlimit="10" stroke-width=".75"/><rect x="23.92" y="115.6" width="11.34" height="11.34" fill="none" stroke="#231f20" stroke-miterlimit="10" stroke-width=".75"/><rect x="37.63" y="115.6" width="11.34" height="11.34" fill="none" stroke="#231f20" stroke-miterlimit="10" stroke-width=".75"/><rect x="51.33" y="115.6" width="11.34" height="11.34" fill="none" stroke="#231f20" stroke-miterlimit="10" stroke-width=".75"/><rect x="10.22" y="129.78" width="11.34" height="11.34" fill="none" stroke="#231f20" stroke-miterlimit="10" stroke-width=".75"/><rect x="23.92" y="129.78" width="11.34" height="11.34" fill="none" stroke="#231f20" stroke-miterlimit="10" stroke-width=".75"/><rect x="37.63" y="129.78" width="11.34" height="11.34" fill="none" stroke="#231f20" stroke-miterlimit="10" stroke-width=".75"/><rect x="51.33" y="129.78" width="11.34" height="11.34" fill="none" stroke="#231f20" stroke-miterlimit="10" stroke-width=".75"/><rect x="65.03" y="129.78" width="11.34" height="11.34" fill="none" stroke="#231f20" stroke-miterlimit="10" stroke-width=".75"/><rect x="78.73" y="129.78" width="11.34" height="11.34" fill="none" stroke="#231f20" stroke-miterlimit="10" stroke-width=".75"/><rect x="10.22" y="101.43" width="11.34" height="11.34" fill="none" stroke="#231f20" stroke-miterlimit="10" stroke-width=".75"/><rect x="23.92" y="101.43" width="11.34" height="11.34" fill="none" stroke="#231f20" stroke-miterlimit="10" stroke-width=".75"/><rect x="37.63" y="101.43" width="11.34" height="11.34" fill="none" stroke="#231f20" stroke-miterlimit="10" stroke-width=".75"/><rect x="51.33" y="101.43" width="11.34" height="11.34" fill="none" stroke="#231f20" stroke-miterlimit="10" stroke-width=".75"/><rect x="65.03" y="101.43" width="11.34" height="11.34" fill="none" stroke="#231f20" stroke-miterlimit="10" stroke-width=".75"/><rect x="78.73" y="101.43" width="11.34" height="11.34" fill="none" stroke="#231f20" stroke-miterlimit="10" stroke-width=".75"/><rect x="10.22" y="87.26" width="11.34" height="11.34" fill="none" stroke="#231f20" stroke-miterlimit="10" stroke-width=".75"/><rect x="23.92" y="87.26" width="11.34" height="11.34" fill="none" stroke="#231f20" stroke-miterlimit="10" stroke-width=".75"/><rect x="37.63" y="87.26" width="11.34" height="11.34" fill="none" stroke="#231f20" stroke-miterlimit="10" stroke-width=".75"/><rect x="51.33" y="87.26" width="11.34" height="11.34" fill="none" stroke="#231f20" stroke-miterlimit="10" stroke-width=".75"/><rect x="65.03" y="87.26" width="11.34" height="11.34" fill="none" stroke="#231f20" stroke-miterlimit="10" stroke-width=".75"/><rect x="78.73" y="87.26" width="11.34" height="11.34" fill="none" stroke="#231f20" stroke-miterlimit="10" stroke-width=".75"/><rect x="92.43" y="87.26" width="11.34" height="11.34" fill="none" stroke="#231f20" stroke-miterlimit="10" stroke-width=".75"/><rect x="10.22" y="73.08" width="11.34" height="11.34" fill="none" stroke="#231f20" stroke-miterlimit="10" stroke-width=".75"/><rect x="23.92" y="73.08" width="11.34" height="11.34" fill="none" stroke="#231f20" stroke-miterlimit="10" stroke-width=".75"/><rect x="37.63" y="73.08" width="11.34" height="11.34" fill="none" stroke="#231f20" stroke-miterlimit="10" stroke-width=".75"/><rect x="51.33" y="73.08" width="11.34" height="11.34" fill="none" stroke="#231f20" stroke-miterlimit="10" stroke-width=".75"/><rect x="65.03" y="73.08" width="11.34" height="11.34" fill="none" stroke="#231f20" stroke-miterlimit="10" stroke-width=".75"/><rect x="78.73" y="73.08" width="11.34" height="11.34" fill="none" stroke="#231f20" stroke-miterlimit="10" stroke-width=".75"/><rect x="10.22" y="58.91" width="11.34" height="11.34" fill="none" stroke="#231f20" stroke-miterlimit="10" stroke-width=".75"/><rect x="23.92" y="58.91" width="11.34" height="11.34" fill="none" stroke="#231f20" stroke-miterlimit="10" stroke-width=".75"/><rect x="37.63" y="58.91" width="11.34" height="11.34" fill="none" stroke="#231f20" stroke-miterlimit="10" stroke-width=".75"/><rect x="51.33" y="58.91" width="11.34" height="11.34" fill="none" stroke="#231f20" stroke-miterlimit="10" stroke-width=".75"/><rect x="65.03" y="58.91" width="11.34" height="11.34" fill="none" stroke="#231f20" stroke-miterlimit="10" stroke-width=".75"/><rect x="78.73" y="58.91" width="11.34" height="11.34" fill="none" stroke="#231f20" stroke-miterlimit="10" stroke-width=".75"/><rect x="92.43" y="58.91" width="11.34" height="11.34" fill="none" stroke="#231f20" stroke-miterlimit="10" stroke-width=".75"/><rect x="10.22" y="44.74" width="11.34" height="11.34" fill="none" stroke="#231f20" stroke-miterlimit="10" stroke-width=".75"/><rect x="23.92" y="44.74" width="11.34" height="11.34" fill="none" stroke="#231f20" stroke-miterlimit="10" stroke-width=".75"/><rect x="37.63" y="44.74" width="11.34" height="11.34" fill="none" stroke="#231f20" stroke-miterlimit="10" stroke-width=".75"/><rect x="51.33" y="44.74" width="11.34" height="11.34" fill="none" stroke="#231f20" stroke-miterlimit="10" stroke-width=".75"/><rect x="65.03" y="44.74" width="11.34" height="11.34" fill="none" stroke="#231f20" stroke-miterlimit="10" stroke-width=".75"/><rect x="78.73" y="44.74" width="11.34" height="11.34" fill="none" stroke="#231f20" stroke-miterlimit="10" stroke-width=".75"/><rect x="10.22" y="30.56" width="11.34" height="11.34" fill="none" stroke="#231f20" stroke-miterlimit="10" stroke-width=".75"/><rect x="23.92" y="30.56" width="11.34" height="11.34" fill="none" stroke="#231f20" stroke-miterlimit="10" stroke-width=".75"/><rect x="37.63" y="30.56" width="11.34" height="11.34" fill="none" stroke="#231f20" stroke-miterlimit="10" stroke-width=".75"/><rect x="51.33" y="30.56" width="11.34" height="11.34" fill="none" stroke="#231f20" stroke-miterlimit="10" stroke-width=".75"/><rect x="65.03" y="30.56" width="11.34" height="11.34" fill="none" stroke="#231f20" stroke-miterlimit="10" stroke-width=".75"/><rect x="10.22" y="16.39" width="11.34" height="11.34" fill="none" stroke="#231f20" stroke-miterlimit="10" stroke-width=".75"/><rect x="23.92" y="16.39" width="11.34" height="11.34" fill="none" stroke="#231f20" stroke-miterlimit="10" stroke-width=".75"/><rect x="37.63" y="16.39" width="11.34" height="11.34" fill="none" stroke="#231f20" stroke-miterlimit="10" stroke-width=".75"/></g><rect x="10.19" y="4.64" width="35.01" height="6.2" fill="none" isolation="isolate" opacity=".5" stroke="#231f20" stroke-miterlimit="10" stroke-width=".75"/><path d="M7.2,.38H106.94c3.77,0,6.82,3.61,6.82,8.06V230.43c0,4.45-3.05,8.06-6.82,8.06H7.2c-3.77,0-6.82-3.61-6.82-8.06V8.43C.38,3.98,3.43,.38,7.2,.38Z" fill="none" isolation="isolate" stroke="#2a414b" stroke-miterlimit="10" stroke-width=".75"/></g></svg>