<svg viewBox="0 0 113.39 253" xmlns="http://www.w3.org/2000/svg"><g fill="none" opacity=".5" stroke="#2a404a"><path d="m9.85 177.66h14.17v14.17h-14.17z" stroke-miterlimit="10" stroke-width=".75"/><path d="m29.69 177.66h14.17v14.17h-14.17z" stroke-miterlimit="10" stroke-width=".75"/><path d="m49.53 177.66h14.17v14.17h-14.17z" stroke-miterlimit="10" stroke-width=".75"/><path d="m69.38 177.66h14.17v14.17h-14.17z" stroke-miterlimit="10" stroke-width=".75"/><path d="m89.22 177.66h14.17v14.17h-14.17z" stroke-miterlimit="10" stroke-width=".75"/><path d="m9.85 206.58h14.17v14.17h-14.17z" stroke-miterlimit="10" stroke-width=".75"/><path d="m29.69 206.58h14.17v14.17h-14.17z" stroke-miterlimit="10" stroke-width=".75"/><path d="m49.53 206.58h14.17v14.17h-14.17z" stroke-miterlimit="10" stroke-width=".75"/><path d="m69.38 206.58h14.17v14.17h-14.17z" stroke-miterlimit="10" stroke-width=".75"/><path d="m89.22 206.58h14.17v14.17h-14.17z" stroke-miterlimit="10" stroke-width=".75"/><path d="m9.85 122.02h11.34v11.34h-11.34z" stroke-miterlimit="10" stroke-width=".75"/><path d="m23.55 122.02h11.34v11.34h-11.34z" stroke-miterlimit="10" stroke-width=".75"/><path d="m37.25 122.02h11.34v11.34h-11.34z" stroke-miterlimit="10" stroke-width=".75"/><path d="m50.95 122.02h11.34v11.34h-11.34z" stroke-miterlimit="10" stroke-width=".75"/><path d="m9.85 136.19h11.34v11.34h-11.34z" stroke-miterlimit="10" stroke-width=".75"/><path d="m23.55 136.19h11.34v11.34h-11.34z" stroke-miterlimit="10" stroke-width=".75"/><path d="m37.25 136.19h11.34v11.34h-11.34z" stroke-miterlimit="10" stroke-width=".75"/><path d="m50.95 136.19h11.34v11.34h-11.34z" stroke-miterlimit="10" stroke-width=".75"/><path d="m64.65 136.19h11.34v11.34h-11.34z" stroke-miterlimit="10" stroke-width=".75"/><path d="m78.35 136.19h11.34v11.34h-11.34z" stroke-miterlimit="10" stroke-width=".75"/><path d="m9.85 107.85h11.34v11.34h-11.34z" stroke-miterlimit="10" stroke-width=".75"/><path d="m23.55 107.85h11.34v11.34h-11.34z" stroke-miterlimit="10" stroke-width=".75"/><path d="m37.25 107.85h11.34v11.34h-11.34z" stroke-miterlimit="10" stroke-width=".75"/><path d="m50.95 107.85h11.34v11.34h-11.34z" stroke-miterlimit="10" stroke-width=".75"/><path d="m64.65 107.85h11.34v11.34h-11.34z" stroke-miterlimit="10" stroke-width=".75"/><path d="m78.35 107.85h11.34v11.34h-11.34z" stroke-miterlimit="10" stroke-width=".75"/><path d="m9.85 93.67h11.34v11.34h-11.34z" stroke-miterlimit="10" stroke-width=".75"/><path d="m23.55 93.67h11.34v11.34h-11.34z" stroke-miterlimit="10" stroke-width=".75"/><path d="m37.25 93.67h11.34v11.34h-11.34z" stroke-miterlimit="10" stroke-width=".75"/><path d="m50.95 93.67h11.34v11.34h-11.34z" stroke-miterlimit="10" stroke-width=".75"/><path d="m64.65 93.67h11.34v11.34h-11.34z" stroke-miterlimit="10" stroke-width=".75"/><path d="m78.35 93.67h11.34v11.34h-11.34z" stroke-miterlimit="10" stroke-width=".75"/><path d="m92.05 93.67h11.34v11.34h-11.34z" stroke-miterlimit="10" stroke-width=".75"/><path d="m9.85 79.5h11.34v11.34h-11.34z" stroke-miterlimit="10" stroke-width=".75"/><path d="m23.55 79.5h11.34v11.34h-11.34z" stroke-miterlimit="10" stroke-width=".75"/><path d="m37.25 79.5h11.34v11.34h-11.34z" stroke-miterlimit="10" stroke-width=".75"/><path d="m50.95 79.5h11.34v11.34h-11.34z" stroke-miterlimit="10" stroke-width=".75"/><path d="m64.65 79.5h11.34v11.34h-11.34z" stroke-miterlimit="10" stroke-width=".75"/><path d="m78.35 79.5h11.34v11.34h-11.34z" stroke-miterlimit="10" stroke-width=".75"/><path d="m9.85 65.33h11.34v11.34h-11.34z" stroke-miterlimit="10" stroke-width=".75"/><path d="m23.55 65.33h11.34v11.34h-11.34z" stroke-miterlimit="10" stroke-width=".75"/><path d="m37.25 65.33h11.34v11.34h-11.34z" stroke-miterlimit="10" stroke-width=".75"/><path d="m50.95 65.33h11.34v11.34h-11.34z" stroke-miterlimit="10" stroke-width=".75"/><path d="m64.65 65.33h11.34v11.34h-11.34z" stroke-miterlimit="10" stroke-width=".75"/><path d="m78.35 65.33h11.34v11.34h-11.34z" stroke-miterlimit="10" stroke-width=".75"/><path d="m92.05 65.33h11.34v11.34h-11.34z" stroke-miterlimit="10" stroke-width=".75"/><path d="m9.85 51.15h11.34v11.34h-11.34z" stroke-miterlimit="10" stroke-width=".75"/><path d="m23.55 51.15h11.34v11.34h-11.34z" stroke-miterlimit="10" stroke-width=".75"/><path d="m37.25 51.15h11.34v11.34h-11.34z" stroke-miterlimit="10" stroke-width=".75"/><path d="m50.95 51.15h11.34v11.34h-11.34z" stroke-miterlimit="10" stroke-width=".75"/><path d="m64.65 51.15h11.34v11.34h-11.34z" stroke-miterlimit="10" stroke-width=".75"/><path d="m78.35 51.15h11.34v11.34h-11.34z" stroke-miterlimit="10" stroke-width=".75"/><path d="m9.85 36.98h11.34v11.34h-11.34z" stroke-miterlimit="10" stroke-width=".75"/><path d="m23.55 36.98h11.34v11.34h-11.34z" stroke-miterlimit="10" stroke-width=".75"/><path d="m37.25 36.98h11.34v11.34h-11.34z" stroke-miterlimit="10" stroke-width=".75"/><path d="m50.95 36.98h11.34v11.34h-11.34z" stroke-miterlimit="10" stroke-width=".75"/><path d="m64.65 36.98h11.34v11.34h-11.34z" stroke-miterlimit="10" stroke-width=".75"/><path d="m9.85 22.81h11.34v11.34h-11.34z" stroke-miterlimit="10" stroke-width=".75"/><path d="m23.55 22.81h11.34v11.34h-11.34z" stroke-miterlimit="10" stroke-width=".75"/><path d="m37.25 22.81h11.34v11.34h-11.34z" stroke-miterlimit="10" stroke-width=".75"/><path d="m9.85 8.63h11.34v11.34h-11.34z" stroke-miterlimit="10" stroke-width=".75"/><path d="m23.55 8.63h11.34v11.34h-11.34z" stroke-miterlimit="10" stroke-width=".75"/><path d="m37.25 8.63h11.34v11.34h-11.34z" stroke-miterlimit="10" stroke-width=".75"/><path d="m50.95 8.63h11.34v11.34h-11.34z" stroke-miterlimit="10" stroke-width=".75"/><path d="m64.65 8.63h11.34v11.34h-11.34z" stroke-miterlimit="10" stroke-width=".75"/><path d="m0 159.37h113.39" stroke-dasharray="0 0 10 3" stroke-linecap="square" stroke-linejoin="round"/><g stroke-miterlimit="10"><path d="m9.85 230.32h14.17v14.17h-14.17z" stroke-width=".75"/><path d="m89.22 230.32h14.17v14.17h-14.17z" stroke-width=".75"/><path d="m89.22 8.6h14.17v14.17h-14.17z" stroke-width=".75"/><path d="m11.26 231.89h2.93v2.93h-2.93z" stroke-width=".5"/><path d="m11.26 240.14h2.93v2.93h-2.93z" stroke-width=".5"/><path d="m19.55 231.84h2.93v2.93h-2.93z" stroke-width=".5"/><path d="m13.79 236.31v.95" stroke-width=".5"/><path d="m22.6 237.04h-.95" stroke-width=".5"/><path d="m14.64 236.98v.95" stroke-width=".5"/><path d="m19.88 236.28v3.08" stroke-width=".5"/><path d="m13.57 236.61v.23" stroke-width=".5"/><path d="m19.61 237.58v.82" stroke-width=".5"/><path d="m19.07 236.67v.83" stroke-width=".5"/><path d="m18.81 239.23v.83" stroke-width=".5"/><path d="m18.53 238.96v.83" stroke-width=".5"/><path d="m18.25 239.77v.29" stroke-width=".5"/><path d="m19.34 237.08v1.89" stroke-width=".5"/><path d="m19.08 238.95v.3" stroke-width=".5"/><path d="m17.49 240.73h-.83" stroke-width=".5"/><path d="m18.39 240.2h-.82" stroke-width=".5"/><path d="m16.99 239.91h-.83" stroke-width=".5"/><path d="m17.27 239.63h-.83" stroke-width=".5"/><path d="m16.46 239.36h-.29" stroke-width=".5"/><path d="m17.98 240.46h-1.89" stroke-width=".5"/><path d="m17.27 240.19h-.29" stroke-width=".5"/><path d="m20.85 238.1h-.83" stroke-width=".5"/><path d="m21.13 237.83h-.83" stroke-width=".5"/><path d="m20.3 237.55h-.29" stroke-width=".5"/><path d="m21.13 238.38h-.29" stroke-width=".5"/><path d="m14.47 242.48v-.83" stroke-width=".5"/><path d="m14.74 242.76v-.83" stroke-width=".5"/><path d="m15.02 241.95v-.29" stroke-width=".5"/><path d="m14.19 242.77v-.3" stroke-width=".5"/><path d="m19.35 235.84v.83" stroke-width=".5"/><path d="m19.07 235.56v.83" stroke-width=".5"/><path d="m18.8 236.37v.29" stroke-width=".5"/><path d="m20.44 234.75v.83" stroke-width=".5"/><path d="m16.27 234.53v.29" stroke-width=".5"/><path d="m19.63 235.56v.29" stroke-width=".5"/><path d="m19.89 241.29v.3" stroke-width=".5"/><path d="m19.62 241.58v.3" stroke-width=".5"/><path d="m19.88 241.86v.3" stroke-width=".5"/><path d="m19.35 241.86v.3" stroke-width=".5"/><path d="m19.35 241.58v.3" stroke-width=".5"/><path d="m19.07 241.58v.3" stroke-width=".5"/><path d="m16.04 237.24v.3" stroke-width=".5"/><path d="m15.78 237.53v.3" stroke-width=".5"/><path d="m15.78 237.24v.3" stroke-width=".5"/><path d="m15.5 237.24v.3" stroke-width=".5"/><path d="m15.5 237.53v.3" stroke-width=".5"/><path d="m15.23 237.82v.3" stroke-width=".5"/><path d="m15.23 237.53v.3" stroke-width=".5"/><path d="m14.96 237.53v.3" stroke-width=".5"/><path d="m16.32 237.54v1.14" stroke-width=".5"/><path d="m90.81 10.12h2.93v2.93h-2.93z" stroke-width=".5"/><path d="m90.81 18.37h2.93v2.93h-2.93z" stroke-width=".5"/><path d="m99.11 10.08h2.93v2.93h-2.93z" stroke-width=".5"/><path d="m93.35 14.54v.95" stroke-width=".5"/><path d="m102.15 15.27h-.94" stroke-width=".5"/><path d="m94.2 15.21v.95" stroke-width=".5"/><path d="m99.44 14.51v3.09" stroke-width=".5"/><path d="m93.13 14.84v.23" stroke-width=".5"/><path d="m99.16 15.81v.83" stroke-width=".5"/><path d="m98.63 14.9v.83" stroke-width=".5"/><path d="m98.36 17.47v.83" stroke-width=".5"/><path d="m98.09 17.19v.83" stroke-width=".5"/><path d="m97.81 18v.29" stroke-width=".5"/><path d="m98.9 15.31v1.89" stroke-width=".5"/><path d="m98.64 17.19v.29" stroke-width=".5"/><path d="m97.04 18.96h-.83" stroke-width=".5"/><path d="m97.95 18.43h-.83" stroke-width=".5"/><path d="m96.55 18.14h-.83" stroke-width=".5"/><path d="m96.82 17.87h-.82" stroke-width=".5"/><path d="m96.02 17.59h-.29" stroke-width=".5"/><path d="m97.54 18.7h-1.89" stroke-width=".5"/><path d="m96.83 18.42h-.3" stroke-width=".5"/><path d="m100.41 16.34h-.83" stroke-width=".5"/><path d="m100.68 16.06h-.82" stroke-width=".5"/><path d="m99.85 15.78h-.29" stroke-width=".5"/><path d="m100.69 16.61h-.3" stroke-width=".5"/><path d="m94.02 20.72v-.83" stroke-width=".5"/><path d="m94.3 20.99v-.83" stroke-width=".5"/><path d="m94.58 20.18v-.29" stroke-width=".5"/><path d="m93.75 21v-.3" stroke-width=".5"/><path d="m98.91 14.07v.83" stroke-width=".5"/><path d="m98.63 13.8v.82" stroke-width=".5"/><path d="m98.35 14.6v.29" stroke-width=".5"/><path d="m99.99 12.99v.82" stroke-width=".5"/><path d="m95.83 12.77v.29" stroke-width=".5"/><path d="m99.18 13.79v.3" stroke-width=".5"/><path d="m99.45 19.53v.29" stroke-width=".5"/><path d="m99.17 19.81v.3" stroke-width=".5"/><path d="m99.44 20.1v.3" stroke-width=".5"/><path d="m98.91 20.1v.3" stroke-width=".5"/><path d="m98.91 19.81v.3" stroke-width=".5"/><path d="m98.63 19.81v.3" stroke-width=".5"/><path d="m95.6 15.48v.3" stroke-width=".5"/><path d="m95.33 15.76v.3" stroke-width=".5"/><path d="m95.33 15.48v.3" stroke-width=".5"/><path d="m95.06 15.48v.3" stroke-width=".5"/><path d="m95.06 15.76v.3" stroke-width=".5"/><path d="m94.79 16.05v.3" stroke-width=".5"/><path d="m94.79 15.76v.3" stroke-width=".5"/><path d="m94.51 15.76v.3" stroke-width=".5"/><path d="m95.88 15.77v1.15" stroke-width=".5"/><path d="m90.92 231.82h2.93v2.93h-2.93z" stroke-width=".5"/><path d="m90.92 240.07h2.93v2.93h-2.93z" stroke-width=".5"/><path d="m99.21 231.78h2.93v2.93h-2.93z" stroke-width=".5"/><path d="m93.45 236.24v.95" stroke-width=".5"/><path d="m102.26 236.97h-.95" stroke-width=".5"/><path d="m94.3 236.91v.95" stroke-width=".5"/><path d="m99.54 236.21v3.09" stroke-width=".5"/><path d="m93.23 236.54v.23" stroke-width=".5"/><path d="m99.27 237.51v.83" stroke-width=".5"/><path d="m98.73 236.6v.83" stroke-width=".5"/><path d="m98.47 239.17v.83" stroke-width=".5"/><path d="m98.19 238.89v.83" stroke-width=".5"/><path d="m97.92 239.7v.29" stroke-width=".5"/><path d="m99 237.01v1.89" stroke-width=".5"/><path d="m98.74 238.89v.29" stroke-width=".5"/><path d="m97.15 240.66h-.83" stroke-width=".5"/><path d="m98.06 240.13h-.83" stroke-width=".5"/><path d="m96.65 239.84h-.83" stroke-width=".5"/><path d="m96.93 239.57h-.83" stroke-width=".5"/><path d="m96.12 239.29h-.29" stroke-width=".5"/><path d="m97.64 240.4h-1.88" stroke-width=".5"/><path d="m96.94 240.12h-.3" stroke-width=".5"/><path d="m100.51 238.04h-.83" stroke-width=".5"/><path d="m100.79 237.76h-.83" stroke-width=".5"/><path d="m99.96 237.48h-.29" stroke-width=".5"/><path d="m100.79 238.31h-.29" stroke-width=".5"/><path d="m94.13 242.42v-.83" stroke-width=".5"/><path d="m94.41 242.69v-.83" stroke-width=".5"/><path d="m94.68 241.88v-.29" stroke-width=".5"/><path d="m93.85 242.7v-.3" stroke-width=".5"/><path d="m99.01 235.77v.83" stroke-width=".5"/><path d="m98.73 235.5v.82" stroke-width=".5"/><path d="m98.46 236.31v.28" stroke-width=".5"/><path d="m100.1 234.69v.83" stroke-width=".5"/><path d="m95.93 234.47v.29" stroke-width=".5"/><path d="m99.29 235.49v.3" stroke-width=".5"/><path d="m99.55 241.23v.29" stroke-width=".5"/><path d="m99.28 241.51v.3" stroke-width=".5"/><path d="m99.54 241.8v.3" stroke-width=".5"/><path d="m99.01 241.8v.3" stroke-width=".5"/><path d="m99.01 241.51v.3" stroke-width=".5"/><path d="m98.73 241.51v.3" stroke-width=".5"/><path d="m95.7 237.18v.3" stroke-width=".5"/><path d="m95.44 237.46v.3" stroke-width=".5"/><path d="m95.44 237.18v.3" stroke-width=".5"/><path d="m95.16 237.18v.3" stroke-width=".5"/><path d="m95.16 237.46v.3" stroke-width=".5"/><path d="m94.89 237.75v.3" stroke-width=".5"/><path d="m94.89 237.46v.3" stroke-width=".5"/><path d="m94.62 237.46v.3" stroke-width=".5"/><path d="m95.98 237.47v1.15" stroke-width=".5"/></g></g></svg>