<svg viewBox="0 0 769.63 1570.75" xmlns="http://www.w3.org/2000/svg"><g fill="none" opacity=".5" stroke="#293f4a"><path d="m67.06 1222.52h96.14v96.14h-96.14z" stroke-miterlimit="10" stroke-width="2"/><path d="m201.65 1222.52h96.14v96.14h-96.14z" stroke-miterlimit="10" stroke-width="2"/><path d="m336.25 1222.52h96.14v96.14h-96.14z" stroke-miterlimit="10" stroke-width="2"/><path d="m470.85 1222.52h96.14v96.14h-96.14z" stroke-miterlimit="10" stroke-width="2"/><path d="m605.45 1222.52h96.14v96.14h-96.14z" stroke-miterlimit="10" stroke-width="2"/><path d="m67.06 1357.12h96.14v96.14h-96.14z" stroke-miterlimit="10" stroke-width="2"/><path d="m201.65 1357.12h96.14v96.14h-96.14z" stroke-miterlimit="10" stroke-width="2"/><path d="m336.25 1357.12h96.14v96.14h-96.14z" stroke-miterlimit="10" stroke-width="2"/><path d="m470.85 1357.12h96.14v96.14h-96.14z" stroke-miterlimit="10" stroke-width="2"/><path d="m605.45 1357.12h96.14v96.14h-96.14z" stroke-miterlimit="10" stroke-width="2"/><path d="m57.44 770.13h76.91v76.91h-76.91z" stroke-miterlimit="10" stroke-width="2"/><path d="m153.58 770.13h76.91v76.91h-76.91z" stroke-miterlimit="10" stroke-width="2"/><path d="m249.72 770.13h76.91v76.91h-76.91z" stroke-miterlimit="10" stroke-width="2"/><path d="m345.87 770.13h76.91v76.91h-76.91z" stroke-miterlimit="10" stroke-width="2"/><path d="m57.44 866.27h76.91v76.91h-76.91z" stroke-miterlimit="10" stroke-width="2"/><path d="m153.58 866.27h76.91v76.91h-76.91z" stroke-miterlimit="10" stroke-width="2"/><path d="m249.72 866.27h76.91v76.91h-76.91z" stroke-miterlimit="10" stroke-width="2"/><path d="m345.87 866.27h76.91v76.91h-76.91z" stroke-miterlimit="10" stroke-width="2"/><path d="m442.01 866.27h76.91v76.91h-76.91z" stroke-miterlimit="10" stroke-width="2"/><path d="m538.15 866.27h76.91v76.91h-76.91z" stroke-miterlimit="10" stroke-width="2"/><path d="m57.44 673.99h76.91v76.91h-76.91z" stroke-miterlimit="10" stroke-width="2"/><path d="m153.58 673.99h76.91v76.91h-76.91z" stroke-miterlimit="10" stroke-width="2"/><path d="m249.72 673.99h76.91v76.91h-76.91z" stroke-miterlimit="10" stroke-width="2"/><path d="m345.87 673.99h76.91v76.91h-76.91z" stroke-miterlimit="10" stroke-width="2"/><path d="m442.01 673.99h76.91v76.91h-76.91z" stroke-miterlimit="10" stroke-width="2"/><path d="m538.15 673.99h76.91v76.91h-76.91z" stroke-miterlimit="10" stroke-width="2"/><path d="m57.44 577.85h76.91v76.91h-76.91z" stroke-miterlimit="10" stroke-width="2"/><path d="m153.58 577.85h76.91v76.91h-76.91z" stroke-miterlimit="10" stroke-width="2"/><path d="m249.72 577.85h76.91v76.91h-76.91z" stroke-miterlimit="10" stroke-width="2"/><path d="m345.87 577.85h76.91v76.91h-76.91z" stroke-miterlimit="10" stroke-width="2"/><path d="m442.01 577.85h76.91v76.91h-76.91z" stroke-miterlimit="10" stroke-width="2"/><path d="m538.15 577.85h76.91v76.91h-76.91z" stroke-miterlimit="10" stroke-width="2"/><path d="m634.29 577.85h76.91v76.91h-76.91z" stroke-miterlimit="10" stroke-width="2"/><path d="m57.44 481.71h76.91v76.91h-76.91z" stroke-miterlimit="10" stroke-width="2"/><path d="m153.58 481.71h76.91v76.91h-76.91z" stroke-miterlimit="10" stroke-width="2"/><path d="m249.72 481.71h76.91v76.91h-76.91z" stroke-miterlimit="10" stroke-width="2"/><path d="m345.87 481.71h76.91v76.91h-76.91z" stroke-miterlimit="10" stroke-width="2"/><path d="m442.01 481.71h76.91v76.91h-76.91z" stroke-miterlimit="10" stroke-width="2"/><path d="m538.15 481.71h76.91v76.91h-76.91z" stroke-miterlimit="10" stroke-width="2"/><path d="m57.44 385.56h76.91v76.91h-76.91z" stroke-miterlimit="10" stroke-width="2"/><path d="m153.58 385.56h76.91v76.91h-76.91z" stroke-miterlimit="10" stroke-width="2"/><path d="m249.72 385.56h76.91v76.91h-76.91z" stroke-miterlimit="10" stroke-width="2"/><path d="m345.87 385.56h76.91v76.91h-76.91z" stroke-miterlimit="10" stroke-width="2"/><path d="m442.01 385.56h76.91v76.91h-76.91z" stroke-miterlimit="10" stroke-width="2"/><path d="m538.15 385.56h76.91v76.91h-76.91z" stroke-miterlimit="10" stroke-width="2"/><path d="m634.29 385.56h76.91v76.91h-76.91z" stroke-miterlimit="10" stroke-width="2"/><path d="m57.44 289.42h76.91v76.91h-76.91z" stroke-miterlimit="10" stroke-width="2"/><path d="m153.58 289.42h76.91v76.91h-76.91z" stroke-miterlimit="10" stroke-width="2"/><path d="m249.72 289.42h76.91v76.91h-76.91z" stroke-miterlimit="10" stroke-width="2"/><path d="m345.87 289.42h76.91v76.91h-76.91z" stroke-miterlimit="10" stroke-width="2"/><path d="m442.01 289.42h76.91v76.91h-76.91z" stroke-miterlimit="10" stroke-width="2"/><path d="m538.15 289.42h76.91v76.91h-76.91z" stroke-miterlimit="10" stroke-width="2"/><path d="m57.44 193.28h76.91v76.91h-76.91z" stroke-miterlimit="10" stroke-width="2"/><path d="m153.58 193.28h76.91v76.91h-76.91z" stroke-miterlimit="10" stroke-width="2"/><path d="m249.72 193.28h76.91v76.91h-76.91z" stroke-miterlimit="10" stroke-width="2"/><path d="m345.87 193.28h76.91v76.91h-76.91z" stroke-miterlimit="10" stroke-width="2"/><path d="m442.01 193.28h76.91v76.91h-76.91z" stroke-miterlimit="10" stroke-width="2"/><path d="m57.44 97.14h76.91v76.91h-76.91z" stroke-miterlimit="10" stroke-width="2"/><path d="m153.58 97.14h76.91v76.91h-76.91z" stroke-miterlimit="10" stroke-width="2"/><path d="m249.72 97.14h76.91v76.91h-76.91z" stroke-miterlimit="10" stroke-width="2"/><path d="m57.44 1h76.91v76.91h-76.91z" stroke-miterlimit="10" stroke-width="2"/><path d="m153.58 1h76.91v76.91h-76.91z" stroke-miterlimit="10" stroke-width="2"/><path d="m249.72 1h76.91v76.91h-76.91z" stroke-miterlimit="10" stroke-width="2"/><path d="m345.87 1h76.91v76.91h-76.91z" stroke-miterlimit="10" stroke-width="2"/><path d="m442.01 1h76.91v76.91h-76.91z" stroke-miterlimit="10" stroke-width="2"/><path d="m.25 1097.54h769.13" stroke-dasharray="0 0 10 3" stroke-linecap="square" stroke-linejoin="round" stroke-width=".5"/><path d="m.25 1097.54h769.13" stroke-dasharray="0 0 10 3" stroke-linecap="square" stroke-linejoin="round" stroke-width=".5"/><g stroke-miterlimit="10" stroke-width="2"><path d="m615.05 1.01h96.14v96.14h-96.14z"/><path d="m74.67 1481.37h21.25v21.25h-21.25z"/><path d="m74.68 1541.15h21.25v21.25h-21.25z"/><path d="m134.78 1481.04h21.25v21.25h-21.25z"/><path d="m93.05 1513.41v6.87"/><path d="m156.87 1518.72h-6.87"/><path d="m99.2 1518.28v6.87"/><path d="m137.19 1513.18v22.38"/><path d="m91.47 1515.58v1.68"/><path d="m135.19 1522.6v6"/><path d="m131.33 1516.01v6.01"/><path d="m129.4 1534.61v6.01"/><path d="m127.39 1532.61v6.01"/><path d="m125.39 1538.48v2.09"/><path d="m133.26 1518.99v13.69"/><path d="m131.4 1532.57v2.16"/><path d="m119.82 1545.45h-6.01"/><path d="m126.4 1541.59h-6"/><path d="m116.24 1539.51h-6"/><path d="m118.25 1537.51h-6.01"/><path d="m112.38 1535.51h-2.1"/><path d="m123.43 1543.52h-13.69"/><path d="m118.29 1541.51h-2.16"/><path d="m144.22 1526.42h-6.01"/><path d="m146.22 1524.42h-6.01"/><path d="m140.2 1522.42h-2.12"/><path d="m146.26 1528.42h-2.16"/><path d="m97.95 1558.16v-6.01"/><path d="m99.95 1560.17v-6.01"/><path d="m101.96 1554.3v-2.1"/><path d="m95.95 1560.2v-2.16"/><path d="m133.33 1510.01v6"/><path d="m131.33 1508v6.01"/><path d="m129.33 1513.87v2.1"/><path d="m141.2 1502.14v6"/><path d="m111.01 1500.56v2.09"/><path d="m135.33 1507.96v2.17"/><path d="m137.26 1549.53v2.16"/><path d="m135.26 1551.6v2.16"/><path d="m137.19 1553.68v2.16"/><path d="m133.33 1553.68v2.16"/><path d="m133.33 1551.6v2.16"/><path d="m131.32 1551.6v2.16"/><path d="m109.36 1520.2v2.16"/><path d="m107.43 1522.27v2.16"/><path d="m107.43 1520.2v2.16"/><path d="m105.43 1520.2v2.16"/><path d="m105.43 1522.27v2.16"/><path d="m103.5 1524.34v2.17"/><path d="m103.5 1522.27v2.16"/><path d="m101.49 1522.27v2.16"/><path d="m111.37 1522.34v8.27"/><path d="m67.05 1473.61h96.14v96.14h-96.14z"/><path d="m623.12 9.05h20.96v20.96h-20.96z"/><path d="m623.02 68.31h20.96v20.96h-20.96z"/><path d="m682.45 9.01h20.96v20.96h-20.96z"/><path d="m641.97 39.96v6.78"/><path d="m642.25 45.75h6.78"/><path d="m648.04 44.76v6.78"/><path d="m661.66 40.29v22.08"/><path d="m640.4 42.11v1.65"/><path d="m663.64 49.58v5.93"/><path d="m667.45 43.09v5.93"/><path d="m669.36 61.44v5.93"/><path d="m671.33 59.46v5.93"/><path d="m673.31 65.25v2.07"/><path d="m665.55 46.02v13.51"/><path d="m667.38 59.42v2.14"/><path d="m678.8 72.13h5.93"/><path d="m672.31 68.32h5.93"/><path d="m682.33 66.27h5.93"/><path d="m680.36 64.3h5.93"/><path d="m686.15 62.32h2.07"/><path d="m675.24 70.23h13.52"/><path d="m680.32 68.25h2.13"/><path d="m654.73 53.36h5.93"/><path d="m652.76 51.38h5.93"/><path d="m658.7 49.4h2.09"/><path d="m652.72 55.33h2.13"/><path d="m700.39 84.68v-5.93"/><path d="m698.41 86.65v-5.93"/><path d="m696.43 80.86v-2.07"/><path d="m702.36 86.69v-2.13"/><path d="m665.47 37.16v5.93"/><path d="m667.45 35.18v5.93"/><path d="m669.43 40.97v2.07"/><path d="m657.71 29.39v5.93"/><path d="m659.69 27.28v2.06"/><path d="m663.5 35.14v2.14"/><path d="m661.6 76.15v2.14"/><path d="m663.57 78.2v2.14"/><path d="m661.67 80.25v2.13"/><path d="m665.48 80.25v2.13"/><path d="m665.48 78.2v2.14"/><path d="m667.46 78.2v2.14"/><path d="m689.13 47.21v2.14"/><path d="m691.03 49.26v2.13"/><path d="m691.03 47.21v2.14"/><path d="m693.01 47.21v2.14"/><path d="m693.01 49.26v2.13"/><path d="m694.91 51.31v2.13"/><path d="m694.91 49.26v2.13"/><path d="m696.89 49.26v2.13"/><path d="m687.15 49.33v8.16"/></g></g></svg>