<svg width="287" height="108" viewBox="0 0 287 108" fill="none" xmlns="http://www.w3.org/2000/svg">
<path d="M20.0168 101.649C10.7391 101.649 2.74382 101.396 0.764781 101.317C0.353141 101.301 0.0364942 100.969 0.0523265 100.557C0.0681588 100.145 0.416468 99.8446 0.812276 99.8446C20.3968 100.541 50.589 100.367 53.518 97.0581C53.6288 96.9315 53.6288 96.8681 53.613 96.8365C53.2488 94.5408 47.2009 95.0316 42.3245 95.4274C37.0366 95.8549 33.7276 96.0448 32.5402 94.5724C32.2552 94.2083 31.9702 93.5908 32.2552 92.6567C32.7618 90.9785 35.58 88.7778 54.0246 88.9678C63.9515 89.0628 73.7991 89.8386 73.91 89.8544C74.3216 89.8861 74.6224 90.2344 74.5908 90.646C74.5591 91.0577 74.2108 91.3585 73.7991 91.3268C57.7452 90.0444 34.6775 89.7594 33.6643 93.1C33.5376 93.4958 33.6485 93.6225 33.6801 93.67C34.4242 94.6041 38.7306 94.2558 42.1979 93.9708C48.23 93.48 54.4679 92.9892 55.0537 96.6148C55.117 96.9631 55.0695 97.5014 54.5946 98.0397C51.9822 101.016 34.4559 101.649 20.0168 101.649Z" fill="#EB8087"/>
<path d="M266.652 92.4353H171.579C171.579 62.2273 186.636 36.8323 207.028 29.5178C210.891 28.1245 214.928 27.3962 219.108 27.3962C227.435 27.3962 235.257 30.3252 242.064 35.4707C246.308 38.6688 250.139 42.7377 253.464 47.4874C260.525 57.6043 265.243 70.8242 266.367 85.5166C266.573 87.7964 266.652 90.1079 266.652 92.4353Z" fill="#FF9255"/>
<path d="M153.785 26.9845L140.691 18.7675C140.691 18.7675 142.1 11.1363 144.428 5.59504C146.027 1.81112 148.053 -0.975364 150.365 0.322884C151.806 1.14616 152.74 3.2202 153.326 5.88002C155.051 13.7328 153.785 26.6678 153.785 26.9845Z" fill="#C65313"/>
<path d="M101.188 26.9845L114.282 18.7675C114.282 18.7675 112.873 11.1363 110.545 5.59504C108.946 1.81112 106.92 -0.975364 104.608 0.322884C103.167 1.14616 102.233 3.2202 101.647 5.88002C99.9217 13.7328 101.188 26.6678 101.188 26.9845Z" fill="#C65313"/>
<path d="M102.661 51.952C102.661 51.952 94.9508 34.6473 82 35.1698L87.2563 59.8207H102.661V51.952Z" fill="#FF9255"/>
<path d="M156.776 37.8297V91.1371C156.776 91.5804 156.761 92.0078 156.745 92.4353H98.6244C98.6086 92.0078 98.5928 91.5804 98.5928 91.1371V37.8297C98.5928 24.1348 108.187 12.5772 120.964 9.5216C123.117 8.99913 125.365 8.72998 127.677 8.72998C143.683 8.72998 156.776 21.8233 156.776 37.8297Z" fill="#FF9255"/>
<path d="M262.678 96.0924H126.22C129.18 65.5836 143.825 35.7556 164.106 22.7098C173.257 16.8043 183.564 13.4954 194.457 13.4954C199.824 13.4954 205.049 14.3028 210.068 15.8227C237.774 24.2138 259.053 58.5857 262.678 96.0924Z" fill="#FF9255"/>
<path d="M137.096 30.2935C137.096 25.9554 132.79 22.4407 127.486 22.4407C122.182 22.4407 117.876 25.9554 117.876 30.2935C117.876 34.6315 122.182 38.1463 127.486 38.1463C132.79 38.1463 137.096 34.6315 137.096 30.2935Z" fill="#FFF7F0"/>
<path d="M91.8001 103.581C105.449 103.581 116.514 92.5163 116.514 78.867C116.514 65.2178 105.449 54.1528 91.8001 54.1528C78.1509 54.1528 67.0859 65.2178 67.0859 78.867C67.0859 92.5163 78.1509 103.581 91.8001 103.581Z" fill="#EE544C"/>
<path d="M80.5438 85.8331C73.2292 85.8331 67.6088 84.709 67.4663 84.6774C67.0705 84.5982 66.8171 84.2024 66.8963 83.8066C66.9755 83.4108 67.3713 83.1575 67.7671 83.2366C68.1471 83.3158 106.224 90.8995 112.145 65.7578C112.24 65.362 112.636 65.1245 113.032 65.2036C113.427 65.2986 113.665 65.6944 113.57 66.0902C109.659 82.6983 92.7504 85.8331 80.5438 85.8331Z" fill="#EB8087"/>
<path d="M91.7997 104.309C91.5938 104.309 91.388 104.23 91.2455 104.056C90.9764 103.755 91.0081 103.28 91.3247 103.027C103.231 92.7518 108.835 82.8408 107.964 73.5631C106.872 61.8472 95.5836 55.1976 95.4728 55.1343C95.1245 54.9285 94.9978 54.4851 95.2036 54.1368C95.4094 53.7885 95.8527 53.6619 96.201 53.8677C96.6918 54.1527 108.249 60.9764 109.421 73.4364C110.339 83.2208 104.576 93.5434 92.2746 104.135C92.1321 104.246 91.958 104.309 91.7997 104.309Z" fill="#EB8087"/>
<path d="M70.8064 92.6252C70.4422 92.6252 70.1256 92.3402 70.0781 91.9761C66.3258 57.4775 90.4384 53.4878 90.6759 53.4561C91.0717 53.3928 91.4517 53.6777 91.515 54.0735C91.5783 54.4694 91.2933 54.8493 90.8975 54.9127C90.8342 54.9285 85.0713 55.8468 79.8466 60.8181C72.9279 67.4043 70.0464 78.1228 71.5347 91.8336C71.5822 92.2294 71.2813 92.5935 70.8855 92.641C70.8539 92.6252 70.8222 92.6252 70.8064 92.6252Z" fill="#EB8087"/>
<path d="M103.073 89.4115C96.8512 89.4115 91.3257 87.9233 86.5286 84.9785C74.7652 77.7273 71.757 64.349 71.6304 63.779C71.5512 63.3832 71.7887 62.9874 72.2003 62.9082C72.5961 62.8291 72.992 63.0666 73.0711 63.4624C73.1028 63.589 76.0792 76.8248 87.3043 83.7277C94.698 88.2716 103.992 89.1423 114.932 86.3084C115.327 86.1975 115.723 86.435 115.818 86.8308C115.913 87.2266 115.692 87.6224 115.296 87.7174C110.974 88.8574 106.905 89.4115 103.073 89.4115Z" fill="#EB8087"/>
<path d="M82.7926 102.615C82.4601 102.615 82.1593 102.394 82.0801 102.061C77.1088 82.1443 78.1379 68.3544 85.1833 61.0716C92.1811 53.8204 102.393 55.8786 102.836 55.9736C103.232 56.0527 103.485 56.4485 103.406 56.8443C103.327 57.2401 102.931 57.4935 102.535 57.4143C102.44 57.3985 92.6561 55.4353 86.244 62.1165C79.5944 69.0194 78.6762 82.3502 83.5209 101.729C83.6158 102.125 83.3784 102.521 82.9826 102.615C82.9034 102.6 82.8401 102.615 82.7926 102.615Z" fill="#EB8087"/>
<path d="M107.427 98.7207C107.047 98.7207 106.715 98.4199 106.699 98.0241C104.878 68.0377 78.4541 58.8708 78.185 58.7758C77.805 58.6492 77.5992 58.2375 77.7258 57.8417C77.8525 57.4617 78.2641 57.2559 78.66 57.3826C78.9291 57.4776 106.287 66.9611 108.171 97.9291C108.203 98.3407 107.886 98.6732 107.491 98.7049C107.459 98.7207 107.443 98.7207 107.427 98.7207Z" fill="#EB8087"/>
<path d="M79.2294 100.874C79.1819 100.874 79.1344 100.874 79.0869 100.858C78.6911 100.779 78.422 100.399 78.5011 100.003C84.0266 70.9665 109.564 61.6413 109.817 61.5463C110.197 61.4038 110.625 61.6096 110.752 61.9896C110.894 62.3696 110.688 62.7971 110.308 62.9237C110.055 63.0187 85.309 72.0906 79.9419 100.272C79.8944 100.636 79.5777 100.874 79.2294 100.874Z" fill="#EB8087"/>
<path d="M92.4815 104.547C92.1015 104.547 91.7215 104.547 91.3415 104.531C87.1935 104.357 79.309 103.059 73.2611 96.2982C71.5828 94.43 71.3454 92.0235 72.5486 89.3162C73.7044 86.7355 76.1742 83.949 79.3407 81.2259C78.739 79.9593 78.2482 78.6452 77.8999 77.3153C75.9525 69.6208 79.4357 63.2245 87.4468 59.7573C89.3942 58.9182 91.1832 58.3799 92.8298 58.1582C92.4181 56.8758 92.0223 55.625 91.6265 54.406C91.4999 54.026 91.7057 53.6143 92.1015 53.4877C92.4815 53.361 92.9089 53.5668 93.0198 53.9626C93.0356 54.0101 93.5422 55.5459 94.318 58.0474C96.487 57.9999 98.3394 58.5698 99.8435 59.7573C101.997 61.4672 103.168 64.2536 103.754 67.2301C106.398 66.3277 108.694 65.821 110.372 65.821H110.388C112.034 65.821 113.079 66.3277 113.523 67.3093C114.647 69.8424 113.713 73.9905 110.942 78.6769C108.9 82.16 105.923 85.7381 102.646 88.4137C105.052 99.8446 103.738 101.08 103.152 101.634C101.237 103.407 97.0412 104.547 92.4815 104.547ZM80.0373 82.5558C77.1558 85.0573 74.9235 87.6063 73.8944 89.9178C72.9128 92.1026 73.0711 93.8759 74.3535 95.3166C80.0531 101.681 87.4785 102.9 91.4049 103.059C96.7087 103.28 100.698 101.903 102.155 100.51C103.057 99.6546 102.598 95.3483 101.348 89.3637C98.8619 91.1685 96.2495 92.4034 93.7797 92.6093C89.1883 93.0367 83.3621 88.4929 80.0373 82.5558ZM81.1772 81.59C84.2012 87.1471 89.5683 91.5327 93.6531 91.1685C96.0279 90.9627 98.5769 89.6803 101.015 87.8279C99.9701 83.0782 98.5136 77.4419 96.8828 71.6948C91.484 74.3388 85.6894 77.9011 81.1772 81.59ZM98.2286 71.0457C98.7036 72.6922 99.1627 74.3705 99.6218 76.0645C100.778 80.3234 101.648 83.854 102.297 86.783C105.179 84.2973 107.807 81.0517 109.675 77.9011C112.161 73.6897 113.095 69.9374 112.177 67.8792C111.939 67.3568 110.958 67.2618 110.388 67.2618H110.372C108.789 67.2618 106.556 67.7684 103.992 68.6708C104.751 74.2913 103.738 80.1176 103.659 80.5134C103.58 80.9092 103.2 81.1784 102.804 81.0992C102.408 81.02 102.139 80.6401 102.218 80.2443C102.234 80.1493 103.216 74.5446 102.567 69.1775C101.205 69.7158 99.7327 70.3491 98.2286 71.0457ZM93.2889 59.5673C91.7373 59.7573 89.98 60.2639 88.0484 61.103C78.0582 65.4252 78.2957 72.8822 79.3407 76.9511C79.6256 78.0752 80.0215 79.1835 80.5123 80.2601C85.1511 76.492 91.0091 72.9139 96.487 70.2699C95.4579 66.6443 94.3655 63.0187 93.2889 59.5673ZM94.793 59.4881C95.6479 62.2271 96.7245 65.7735 97.8328 69.6208C99.4002 68.8925 100.92 68.2592 102.377 67.7051C101.87 64.9344 100.857 62.3696 98.9569 60.8655C97.817 59.9789 96.4237 59.5198 94.793 59.4881Z" fill="#EB8087"/>
<path d="M143.272 100.668C135.925 100.795 127.819 101.57 120.204 102.536C115.66 103.122 111.29 103.771 107.364 104.404C103.311 105.053 99.717 105.703 96.8988 106.209C94.9356 106.573 93.3524 106.858 92.2283 107.08C87.1462 108.03 82.3173 108.362 78.2168 107.507C72.5646 106.336 68.4166 103.407 67.4033 99.2271C67.2608 98.5938 67.1816 97.9605 67.1816 97.3114C67.1816 91.311 73.5621 85.0414 82.7923 81.9382C84.9771 81.0041 88.1119 80.1017 91.8959 79.2626C94.7457 78.6135 97.9596 77.996 101.395 77.426C103.058 77.1411 104.783 76.8719 106.541 76.6186C108.425 76.3336 110.356 76.0645 112.304 75.7953C133.661 72.898 157.552 71.1406 157.552 71.1406C157.552 71.1406 166.007 100.272 143.272 100.668Z" fill="#FF9255"/>
<path d="M79.2294 107.824C79.1185 107.824 79.0077 107.777 78.9285 107.682C78.0736 106.51 77.8361 105.307 78.2319 104.088C79.6093 99.8445 88.3329 97.0264 88.6971 96.8997C88.8871 96.8364 89.0929 96.9472 89.1562 97.1372C89.2195 97.3272 89.1087 97.533 88.9187 97.5964C88.8237 97.628 80.1951 100.43 78.9285 104.309C78.6119 105.291 78.8019 106.257 79.5143 107.238C79.641 107.397 79.5935 107.634 79.4352 107.745C79.3877 107.792 79.3085 107.824 79.2294 107.824Z" fill="#1F2024"/>
<path d="M125.27 23.3589C125.27 24.578 126.267 25.5754 127.486 25.5754C128.705 25.5754 129.703 24.578 129.703 23.3589C129.703 22.1398 127.486 24.198 127.486 24.198C127.486 24.198 125.27 22.1398 125.27 23.3589Z" fill="#2F3036"/>
<path d="M122.848 13.4953C122.658 13.4953 122.5 13.3528 122.484 13.147L121.835 3.23601C121.819 3.03019 121.978 2.85604 122.183 2.8402C122.389 2.82437 122.563 2.9827 122.579 3.18852L123.228 13.0995C123.244 13.3054 123.086 13.4795 122.88 13.4953C122.864 13.4953 122.848 13.4953 122.848 13.4953Z" fill="#1F2024"/>
<path d="M121.645 13.8117C121.518 13.8117 121.392 13.7484 121.328 13.6218L118.795 8.96705C118.7 8.7929 118.763 8.57125 118.938 8.47626C119.112 8.38126 119.333 8.44458 119.428 8.61874L121.962 13.2734C122.057 13.4476 121.993 13.6692 121.819 13.7642C121.756 13.7959 121.708 13.8117 121.645 13.8117Z" fill="#1F2024"/>
<path d="M132.157 13.4955C132.141 13.4955 132.141 13.4955 132.141 13.4955C131.935 13.4796 131.793 13.3055 131.793 13.0997L132.442 3.18864C132.458 2.98282 132.632 2.84033 132.838 2.84033C133.044 2.85616 133.186 3.03032 133.186 3.23614L132.537 13.1472C132.505 13.353 132.347 13.4955 132.157 13.4955Z" fill="#1F2024"/>
<path d="M133.361 13.8125C133.297 13.8125 133.234 13.7966 133.187 13.765C133.012 13.67 132.949 13.4483 133.044 13.2742L135.577 8.61947C135.672 8.44532 135.894 8.38199 136.068 8.47699C136.242 8.57198 136.306 8.79363 136.211 8.96778L133.677 13.6225C133.614 13.7333 133.487 13.8125 133.361 13.8125Z" fill="#1F2024"/>
<path d="M85.2775 62.7653C82.1902 66.9133 78.5013 70.1115 74.8282 72.0905C69.746 74.8295 64.6797 75.257 61.2283 72.6921C55.2912 68.2907 56.4311 56.6857 63.7773 46.7905C71.1235 36.8953 81.8894 32.4464 87.8265 36.8478C93.7636 41.265 92.6237 52.8701 85.2775 62.7653Z" fill="#FF9255"/>
<path d="M75.5724 71.7738C75.5407 71.7738 75.5091 71.7738 75.4932 71.758C74.0842 71.4097 73.1342 70.6339 72.6593 69.4623C70.9969 65.3301 75.8574 57.5564 76.0632 57.2398C76.174 57.0656 76.3957 57.0181 76.5698 57.129C76.744 57.2398 76.7915 57.4614 76.6807 57.6356C76.6332 57.7147 71.8043 65.4092 73.3401 69.1932C73.7359 70.1589 74.4958 70.7606 75.6674 71.0614C75.8574 71.1089 75.984 71.3147 75.9365 71.5047C75.8891 71.663 75.7466 71.7738 75.5724 71.7738Z" fill="#1F2024"/>
<path d="M103.737 61.6256C103.405 61.6256 103.12 61.404 103.025 61.0715C102.93 60.6757 103.151 60.2799 103.547 60.1691C103.595 60.1532 107.157 59.1875 109.073 56.5435C106.714 54.0261 105.795 48.6907 106.255 46.2842C106.492 45.0809 107.062 44.7484 107.505 44.6851C108.408 44.5584 109.279 45.4292 110.308 47.5032C111.907 50.7014 112.16 53.5512 111.052 56.0052C111.02 56.0685 110.988 56.1318 110.957 56.1952C111.717 56.591 112.778 56.6226 114.297 55.2927C117.021 52.8862 117.464 48.0099 117.891 43.2919C118.35 38.0672 118.841 32.6842 122.404 30.0244C124.652 28.3462 127.834 27.9662 132.14 28.837C132.536 28.9161 132.79 29.3119 132.71 29.7077C132.631 30.1035 132.235 30.3569 131.84 30.2777C127.976 29.4861 125.174 29.7869 123.274 31.2118C120.235 33.4758 119.791 38.5422 119.348 43.4343C118.905 48.4374 118.445 53.6145 115.263 56.401C113.047 58.3642 111.289 58.0634 110.197 57.4617C107.964 60.4857 104.086 61.5465 103.896 61.594C103.848 61.6256 103.785 61.6256 103.737 61.6256ZM107.774 46.2683C107.268 47.4716 107.838 52.6487 109.833 55.1977C110.624 53.2187 110.355 50.8597 109.009 48.184C108.392 46.9333 107.98 46.4425 107.774 46.2683Z" fill="#EB8087"/>
<path d="M129.829 31.3859C129.829 29.6285 128.769 28.2036 127.47 28.2036C126.172 28.2036 125.111 29.6285 125.111 31.3859H129.829Z" fill="#FFF7F0"/>
<path d="M127.85 27.6969V25.5753C127.85 25.3695 127.692 25.2112 127.486 25.2112C127.28 25.2112 127.122 25.3695 127.122 25.5753V27.681C125.792 27.9027 124.747 29.3909 124.747 31.1958C124.747 31.4016 124.905 31.5599 125.111 31.5599C125.317 31.5599 125.475 31.4016 125.475 31.1958C125.475 29.6442 126.362 28.3776 127.47 28.3776C128.563 28.3776 129.465 29.6442 129.465 31.1958C129.465 31.4016 129.623 31.5599 129.829 31.5599C130.035 31.5599 130.193 31.4016 130.193 31.1958C130.193 29.4067 129.18 27.9502 127.85 27.6969Z" fill="#2F3036"/>
<path d="M171.596 92.7991C171.39 92.7991 171.231 92.6407 171.231 92.4349C171.231 62.7177 185.908 36.7053 206.917 29.1691C210.876 27.7442 214.992 27.0317 219.124 27.0317C219.33 27.0317 219.488 27.1901 219.488 27.3959C219.488 27.6017 219.33 27.76 219.124 27.76C215.071 27.76 211.05 28.4725 207.171 29.8657C186.446 37.2911 171.96 63.0344 171.96 92.4508C171.96 92.6408 171.786 92.7991 171.596 92.7991Z" fill="#1F2024"/>
<path d="M156.777 93.7967C156.697 93.7967 156.634 93.7808 156.571 93.7333C156.397 93.6225 156.365 93.385 156.476 93.2267C160.972 86.7196 156.967 46.7747 156.919 46.3789C156.903 46.1731 157.046 45.999 157.252 45.9831C157.457 45.9673 157.632 46.1098 157.647 46.3156C157.822 47.978 161.716 86.9254 157.077 93.6542C157.014 93.7333 156.903 93.7967 156.777 93.7967Z" fill="#1F2024"/>
<path d="M262.805 66.7395C262.725 66.4862 275.122 69.2885 282.357 82.3343C285.081 87.2423 286.949 93.6227 286.949 101.887H145.487C145.487 101.887 166.94 32.6209 265.971 81.891C265.971 81.8751 265.591 76.0172 262.805 66.7395Z" fill="#494A50"/>
<path d="M122.563 19.1634C122.563 21.0316 120.758 22.599 118.225 23.2006C117.909 23.2797 117.592 23.3431 117.244 23.3906C116.832 23.4381 116.389 23.4697 115.93 23.4697C115.122 23.4697 114.346 23.3747 113.634 23.2006C111.101 22.599 109.296 21.0157 109.296 19.1634C109.296 17.3268 111.101 15.7436 113.618 15.1419C114.331 14.9678 115.106 14.8728 115.914 14.8728C116.373 14.8728 116.816 14.9045 117.228 14.952C117.56 14.9995 117.893 15.047 118.209 15.1419C120.758 15.7277 122.563 17.311 122.563 19.1634Z" fill="white"/>
<path d="M120.188 19.1634C120.188 20.8732 119.396 22.3615 118.209 23.2006C117.892 23.2797 117.576 23.3431 117.227 23.3906C116.816 23.4381 116.373 23.4697 115.913 23.4697C115.106 23.4697 114.33 23.3747 113.618 23.2006C112.43 22.3615 111.639 20.8732 111.639 19.1634C111.639 17.4693 112.43 15.9811 113.618 15.1419C114.33 14.9678 115.106 14.8728 115.913 14.8728C116.373 14.8728 116.816 14.9045 117.227 14.952C117.56 14.9995 117.892 15.047 118.209 15.1419C119.396 15.9811 120.188 17.4693 120.188 19.1634Z" fill="#1F2024"/>
<path d="M115.93 23.8337C112.066 23.8337 108.932 21.7439 108.932 19.1632C108.932 16.5825 112.066 14.4927 115.93 14.4927C116.357 14.4927 116.8 14.5243 117.291 14.5718C120.568 14.9993 122.927 16.9309 122.927 19.1632C122.927 21.4272 120.616 23.3113 117.291 23.7546C116.8 23.8021 116.357 23.8337 115.93 23.8337ZM115.93 15.2368C112.478 15.2368 109.676 16.9942 109.676 19.1632C109.676 21.3322 112.478 23.0896 115.93 23.0896C116.325 23.0896 116.737 23.058 117.196 23.0105C120.078 22.6305 122.183 20.9998 122.183 19.1474C122.183 17.295 120.078 15.6643 117.196 15.2843C116.737 15.2526 116.325 15.2368 115.93 15.2368Z" fill="#2F3036"/>
<path d="M145.679 19.1634C145.679 21.0316 143.874 22.599 141.341 23.2006C141.024 23.2797 140.707 23.3431 140.359 23.3906C139.947 23.4381 139.504 23.4697 139.045 23.4697C138.237 23.4697 137.462 23.3747 136.749 23.2006C134.216 22.599 132.411 21.0157 132.411 19.1634C132.411 17.3268 134.216 15.7436 136.733 15.1419C137.446 14.9678 138.222 14.8728 139.029 14.8728C139.488 14.8728 139.931 14.9045 140.343 14.952C140.676 14.9995 141.008 15.047 141.325 15.1419C143.874 15.7277 145.679 17.311 145.679 19.1634Z" fill="white"/>
<path d="M143.303 19.1634C143.303 20.8732 142.512 22.3615 141.324 23.2006C141.008 23.2797 140.691 23.3431 140.343 23.3906C139.931 23.4381 139.488 23.4697 139.029 23.4697C138.221 23.4697 137.445 23.3747 136.733 23.2006C135.546 22.3615 134.754 20.8732 134.754 19.1634C134.754 17.4693 135.546 15.9811 136.733 15.1419C137.445 14.9678 138.221 14.8728 139.029 14.8728C139.488 14.8728 139.931 14.9045 140.343 14.952C140.675 14.9995 141.008 15.047 141.324 15.1419C142.512 15.9811 143.303 17.4693 143.303 19.1634Z" fill="#1F2024"/>
<path d="M139.045 23.8337C135.182 23.8337 132.047 21.7439 132.047 19.1632C132.047 16.5825 135.182 14.4927 139.045 14.4927C139.472 14.4927 139.916 14.5243 140.406 14.5718C143.684 14.9993 146.043 16.9309 146.043 19.1632C146.043 21.4272 143.731 23.3113 140.406 23.7546C139.916 23.8021 139.472 23.8337 139.045 23.8337ZM139.045 15.2368C135.593 15.2368 132.791 16.9942 132.791 19.1632C132.791 21.3322 135.593 23.0896 139.045 23.0896C139.441 23.0896 139.852 23.058 140.311 23.0105C143.193 22.6305 145.299 20.9998 145.299 19.1474C145.299 17.295 143.193 15.6643 140.311 15.2843C139.852 15.2526 139.441 15.2368 139.045 15.2368Z" fill="#2F3036"/>
<path d="M273.618 86.3715C273.555 86.3715 273.492 86.3557 273.444 86.324C262.647 80.3553 254.873 77.0938 254.794 77.0621C254.604 76.983 254.525 76.7771 254.604 76.5872C254.683 76.3972 254.889 76.318 255.079 76.3972C255.158 76.4288 262.979 79.7061 273.808 85.6907C273.982 85.7857 274.046 86.0074 273.951 86.1815C273.872 86.3082 273.745 86.3715 273.618 86.3715Z" fill="#1F2024"/>
<path d="M227.484 106.922C210.986 106.922 206.126 105.275 204.368 102.821C202.864 100.715 203.846 98.1505 204.954 95.174L205.144 94.6674C209.197 83.8381 209.466 75.7161 205.967 70.5231C202.358 65.156 195.787 64.9185 195.708 64.9185C195.296 64.9027 194.98 64.5702 194.996 64.1744C195.012 63.7786 195.328 63.4619 195.724 63.4619H195.74C196.041 63.4619 203.118 63.6994 207.155 69.6998C210.939 75.3045 210.717 83.8697 206.49 95.1898L206.3 95.6965C205.287 98.388 204.495 100.509 205.524 101.982C207.582 104.863 216.813 105.861 236.381 105.338C236.793 105.307 237.125 105.639 237.141 106.051C237.157 106.462 236.84 106.795 236.429 106.811C233.152 106.874 230.159 106.922 227.484 106.922Z" fill="#EB8087"/>
</svg>
