<svg width="73" height="72" viewBox="0 0 73 72" fill="none" xmlns="http://www.w3.org/2000/svg">
<g filter="url(#filter0_d_290_8618)">
<rect x="4.5" y="1" width="64" height="64" rx="16" fill="white" shape-rendering="crispEdges"/>
<g clip-path="url(#clip0_290_8618)">
<path d="M36.5 45V51" stroke="#275FC4" stroke-width="2" stroke-linecap="round" stroke-linejoin="round"/>
<path d="M28.25 37.5C29.4926 37.5 30.5 36.4926 30.5 35.25C30.5 34.0074 29.4926 33 28.25 33C27.0074 33 26 34.0074 26 35.25C26 36.4926 27.0074 37.5 28.25 37.5Z" fill="#275FC4"/>
<path d="M44.75 37.5C45.9926 37.5 47 36.4926 47 35.25C47 34.0074 45.9926 33 44.75 33C43.5074 33 42.5 34.0074 42.5 35.25C42.5 36.4926 43.5074 37.5 44.75 37.5Z" fill="#275FC4"/>
<path d="M36.5 18V25.5" stroke="#275FC4" stroke-width="2" stroke-linecap="round" stroke-linejoin="round"/>
<path d="M39.5 42L36.5 45L33.5 42" stroke="#275FC4" stroke-width="2" stroke-linecap="round" stroke-linejoin="round"/>
<path d="M30.5 18.9395V25.5001" stroke="#275FC4" stroke-width="2" stroke-linecap="round" stroke-linejoin="round"/>
<path d="M42.5 18.9395V25.5001" stroke="#275FC4" stroke-width="2" stroke-linecap="round" stroke-linejoin="round"/>
<path d="M25.175 21.6752C28.468 19.2866 32.4319 18.0004 36.5 18.0004C40.5681 18.0004 44.532 19.2866 47.825 21.6752L51.9387 16.9427C52.1483 16.7329 52.4153 16.5899 52.7061 16.5318C52.9969 16.4737 53.2984 16.5031 53.5725 16.6163C53.8465 16.7295 54.0809 16.9213 54.246 17.1676C54.4111 17.414 54.4995 17.7037 54.5 18.0002V34.5002C54.5 43.6127 46.4375 51.0002 36.5 51.0002C26.5625 51.0002 18.5 43.6127 18.5 34.5002V18.0002C18.4998 17.7034 18.5876 17.4131 18.7524 17.1662C18.9172 16.9193 19.1516 16.7269 19.4258 16.6133C19.7 16.4996 20.0018 16.4699 20.293 16.5279C20.5841 16.5859 20.8515 16.7289 21.0613 16.939L25.175 21.6752Z" stroke="#275FC4" stroke-width="2" stroke-linecap="round" stroke-linejoin="round"/>
</g>
</g>
<defs>
<filter id="filter0_d_290_8618" x="0.5" y="0" width="72" height="72" filterUnits="userSpaceOnUse" color-interpolation-filters="sRGB">
<feFlood flood-opacity="0" result="BackgroundImageFix"/>
<feColorMatrix in="SourceAlpha" type="matrix" values="0 0 0 0 0 0 0 0 0 0 0 0 0 0 0 0 0 0 127 0" result="hardAlpha"/>
<feOffset dy="3"/>
<feGaussianBlur stdDeviation="2"/>
<feComposite in2="hardAlpha" operator="out"/>
<feColorMatrix type="matrix" values="0 0 0 0 0.133316 0 0 0 0 0.324745 0 0 0 0 0.67 0 0 0 0.1 0"/>
<feBlend mode="normal" in2="BackgroundImageFix" result="effect1_dropShadow_290_8618"/>
<feBlend mode="normal" in="SourceGraphic" in2="effect1_dropShadow_290_8618" result="shape"/>
</filter>
<clipPath id="clip0_290_8618">
<rect width="48" height="48" fill="white" transform="translate(12.5 9)"/>
</clipPath>
</defs>
</svg>
