<svg width="256" height="274" viewBox="0 0 256 274" fill="none" xmlns="http://www.w3.org/2000/svg">
<path d="M93.3277 49.7289C92.4025 50.1839 30.4579 80.6656 22.0743 118.654C20.2381 126.957 21.2202 135.004 25.0775 142.994C26.8425 146.676 29.248 150.344 32.2513 154.012C35.8239 158.377 35.1692 164.817 30.7995 168.386C28.9064 169.921 26.6148 170.689 24.3374 170.689C21.3768 170.689 18.4447 169.41 16.4235 166.936C12.1107 161.661 8.68042 156.273 6.14684 150.771C0.695362 138.999 -0.656834 126.758 2.13296 114.232C12.7228 66.491 81.5423 32.782 84.4602 31.3603C89.5558 28.9149 95.662 31.0333 98.1102 36.1088C100.53 41.1702 98.4091 47.2836 93.3277 49.7289Z" fill="#FF9255"/>
<path d="M210.926 66.5761C202.927 78.2769 191.483 84.3761 185.348 80.1962C179.213 76.0164 180.736 63.1498 188.736 51.4348C196.735 39.734 208.179 33.6348 214.313 37.8147C220.448 41.9945 218.925 54.8753 210.926 66.5761Z" fill="#FF9255"/>
<path d="M65.6434 93.5891L101.526 107.039L179.598 73.2869C172.581 48.2788 155.913 25.5739 137.039 17.6976C128.528 14.129 119.418 12.9064 110.323 14.5271C105.839 15.3233 101.598 16.7734 97.6263 18.7923C75.7493 29.9386 63.0956 61.771 65.6434 93.5891Z" fill="#FF9255"/>
<path d="M61.7718 91.1293L141.167 76.9974C136.669 51.8045 120.315 32.8529 102.195 29.782C98.765 29.1991 95.2778 29.1849 91.7905 29.8104C84.8303 31.0473 78.7383 34.6585 73.8135 39.9615C70.7532 43.2599 68.1485 47.2265 66.0846 51.6765C61.6864 61.1594 59.7222 72.9028 60.9605 85.3145C61.1598 87.248 61.4302 89.1958 61.7718 91.1293Z" fill="#FF9255"/>
<path d="M143.658 29.6968L153.365 20.8963C153.365 20.8963 151.059 14.7402 148.284 10.4608C146.391 7.54631 144.284 5.51324 142.533 6.94918C141.452 7.84487 140.982 9.72154 140.882 12.0247C140.612 18.8348 143.601 29.4408 143.658 29.6968Z" fill="#C65313"/>
<path d="M187.583 21.8772L175.427 16.958C175.427 16.958 175.47 10.3755 176.594 5.41365C177.363 2.02994 178.644 -0.614461 180.765 0.124834C182.089 0.594003 183.185 2.18633 184.067 4.31892C186.672 10.6314 187.526 21.6071 187.583 21.8772Z" fill="#C65313"/>
<path d="M142.761 39.1795L150.689 83.6368C150.76 84.0065 150.832 84.3619 150.917 84.7173L199.468 76.0733C199.411 75.7036 199.368 75.3482 199.297 74.9927L191.369 30.5355C189.334 19.1048 179.598 10.8873 168.467 10.2475C166.588 10.1337 164.667 10.2475 162.731 10.5887C155.187 11.9251 149.038 16.6168 145.551 22.8297C144.227 25.1756 143.288 27.7347 142.79 30.4217C142.263 33.2367 142.234 36.1939 142.761 39.1795Z" fill="#FF9255"/>
<path d="M142.761 39.6204C142.548 39.6204 142.363 39.464 142.32 39.2507C141.793 36.2793 141.793 33.2795 142.348 30.3223C142.847 27.621 143.8 25.0193 145.152 22.6023C145.266 22.3891 145.537 22.318 145.75 22.4317C145.964 22.5455 146.035 22.8156 145.921 23.0289C144.612 25.3605 143.701 27.8627 143.217 30.4787C142.69 33.3221 142.676 36.2225 143.188 39.0943C143.231 39.336 143.074 39.5635 142.832 39.6062C142.818 39.6204 142.79 39.6204 142.761 39.6204Z" fill="#494A50"/>
<path d="M158.091 29.9669C157.45 26.3557 160.51 22.773 164.937 21.991C169.364 21.2091 173.477 23.4981 174.132 27.1092C174.773 30.7204 171.712 34.3032 167.286 35.0851C162.845 35.8813 158.731 33.5923 158.091 29.9669Z" fill="#FFDDBD"/>
<path d="M165.763 27.081C165.549 27.081 165.364 26.9246 165.321 26.7113L164.966 24.6782C164.923 24.4366 165.079 24.2091 165.321 24.1664C165.563 24.1238 165.791 24.2802 165.834 24.5219L166.19 26.5549C166.232 26.7966 166.076 27.0241 165.834 27.0667C165.82 27.081 165.791 27.081 165.763 27.081Z" fill="#494A50"/>
<path d="M166.93 22.4316C167.115 23.4553 166.432 24.422 165.407 24.6069C164.382 24.7917 163.4 24.1093 163.229 23.0856C163.044 22.062 165.207 23.4553 165.207 23.4553C165.207 23.4553 166.745 21.408 166.93 22.4316Z" fill="#494A50"/>
<path d="M167.428 13.9865C167.2 13.9865 167.015 13.8159 166.987 13.5884L166.047 5.22867C166.019 4.98698 166.19 4.77372 166.432 4.74528C166.674 4.71685 166.887 4.88746 166.916 5.12915L167.855 13.4889C167.883 13.7306 167.713 13.9438 167.471 13.9723C167.456 13.9865 167.442 13.9865 167.428 13.9865Z" fill="#494A50"/>
<path d="M168.481 14.0576C168.439 14.0576 168.382 14.0434 168.339 14.0292C168.111 13.9581 167.983 13.7022 168.054 13.4747L169.478 9.20951C169.549 8.98204 169.805 8.85408 170.033 8.92517C170.26 8.99625 170.389 9.25217 170.317 9.47964L168.894 13.7448C168.837 13.9439 168.666 14.0576 168.481 14.0576Z" fill="#494A50"/>
<path d="M159.656 15.3657C159.457 15.3657 159.272 15.2377 159.229 15.0245L157.222 6.86378C157.166 6.62209 157.308 6.39461 157.55 6.32353C157.792 6.26666 158.02 6.40883 158.091 6.65052L160.098 14.8112C160.155 15.0529 160.012 15.2804 159.77 15.3515C159.728 15.3657 159.685 15.3657 159.656 15.3657Z" fill="#494A50"/>
<path d="M158.703 15.8064C158.575 15.8064 158.447 15.7495 158.361 15.6358L155.543 12.1241C155.386 11.9393 155.415 11.6549 155.614 11.4985C155.799 11.3422 156.084 11.3706 156.24 11.5696L159.059 15.0813C159.215 15.2661 159.187 15.5505 158.987 15.7068C158.888 15.7637 158.788 15.8064 158.703 15.8064Z" fill="#494A50"/>
<path d="M205.232 59.3681C207.282 63.2494 209.972 66.3914 212.805 68.524C216.719 71.467 220.918 72.4622 224.135 70.7703C229.672 67.8416 230.198 57.9748 225.302 48.7479C220.405 39.5209 211.951 34.4169 206.4 37.3598C200.863 40.2886 200.336 50.1411 205.232 59.3681Z" fill="#FF9255"/>
<path d="M220.662 72.0356C218.128 72.0356 215.324 70.9551 212.549 68.8652C209.545 66.6046 206.884 63.3915 204.848 59.5671C204.734 59.3538 204.82 59.0837 205.033 58.97C205.247 58.8562 205.517 58.9415 205.631 59.1548C207.595 62.8655 210.172 65.9791 213.075 68.1543C217.018 71.1115 220.975 71.9219 223.921 70.358C224.135 70.2442 224.405 70.3295 224.519 70.5428C224.633 70.7561 224.548 71.0262 224.334 71.1399C223.21 71.737 221.971 72.0356 220.662 72.0356Z" fill="#494A50"/>
<path d="M212.677 68.3391C212.449 68.3391 212.264 68.1685 212.235 67.941C212.207 67.6993 212.392 67.486 212.634 67.4576C213.616 67.3723 214.299 66.9742 214.726 66.2634C216.463 63.3488 213.417 56.3397 213.388 56.2686C213.289 56.0412 213.388 55.7852 213.616 55.6857C213.844 55.5862 214.1 55.6857 214.2 55.9132C214.328 56.2118 217.445 63.4057 215.481 66.7041C214.911 67.6709 213.972 68.2253 212.705 68.3248C212.691 68.3391 212.677 68.3391 212.677 68.3391Z" fill="#494A50"/>
<path d="M164.311 29.8105C164.055 28.3461 164.724 26.9955 165.805 26.7964C166.887 26.5974 167.983 27.6353 168.254 29.0996L164.311 29.8105Z" fill="#F4E0C7"/>
<path d="M164.282 30.0948C164.069 30.0948 163.884 29.9384 163.841 29.7251C163.542 28.0191 164.368 26.4409 165.691 26.1992C167.015 25.9576 168.339 27.166 168.652 28.8721C168.695 29.1138 168.538 29.3412 168.296 29.3839C168.054 29.4266 167.826 29.2702 167.784 29.0285C167.57 27.82 166.688 26.9243 165.862 27.0807C165.037 27.2229 164.51 28.3745 164.724 29.5829C164.766 29.8246 164.61 30.0521 164.368 30.0948C164.339 30.0948 164.311 30.0948 164.282 30.0948Z" fill="#494A50"/>
<path d="M168.567 18.5362C168.837 20.0859 170.588 21.138 172.794 21.2659C173.065 21.2801 173.349 21.2801 173.634 21.2801C173.99 21.2517 174.36 21.2233 174.744 21.1522C175.413 21.0384 176.054 20.8394 176.609 20.5835C178.63 19.7163 179.911 18.1239 179.626 16.5742C179.356 15.0388 177.619 13.9867 175.413 13.8588C174.787 13.8161 174.132 13.8588 173.449 13.9725C173.065 14.0436 172.709 14.1289 172.367 14.2284C172.097 14.3137 171.826 14.4132 171.584 14.527C169.563 15.3942 168.296 16.9865 168.567 18.5362Z" fill="white"/>
<path d="M170.545 18.1808C170.801 19.6026 171.684 20.7257 172.794 21.2518C173.065 21.266 173.349 21.266 173.634 21.266C173.99 21.2375 174.36 21.2091 174.744 21.138C175.413 21.0243 176.054 20.8253 176.609 20.5693C177.477 19.6879 177.918 18.323 177.662 16.9155C177.406 15.508 176.538 14.3848 175.413 13.8446C174.787 13.8019 174.132 13.8446 173.449 13.9583C173.065 14.0294 172.709 14.1147 172.367 14.2142C172.097 14.2995 171.826 14.3991 171.584 14.5128C170.73 15.3943 170.289 16.7733 170.545 18.1808Z" fill="#494A50"/>
<path d="M173.25 21.7208C170.545 21.7208 168.467 20.4839 168.125 18.6214C167.784 16.7021 169.506 14.6691 172.239 13.816C172.652 13.6881 173.022 13.6028 173.378 13.5459C174.943 13.2615 176.481 13.4037 177.733 13.9298C179.043 14.4842 179.868 15.3941 180.067 16.5031C180.267 17.612 179.811 18.7636 178.772 19.7304C177.79 20.6545 176.381 21.3085 174.815 21.5928C174.459 21.6497 174.075 21.7066 173.662 21.7208C173.52 21.7066 173.392 21.7208 173.25 21.7208ZM174.958 14.271C174.488 14.271 174.018 14.3136 173.534 14.3989C173.207 14.4558 172.865 14.5411 172.495 14.6548C170.204 15.3799 168.738 16.9865 168.994 18.4651C169.264 19.9436 171.2 20.9389 173.605 20.8393C173.99 20.8109 174.331 20.7682 174.659 20.7114C176.054 20.4697 177.306 19.8868 178.16 19.0764C178.972 18.3229 179.342 17.4556 179.199 16.6452C179.057 15.8349 178.416 15.1667 177.392 14.7259C176.68 14.4274 175.84 14.271 174.958 14.271Z" fill="#494A50"/>
<path d="M149.266 21.9627C149.536 23.5124 151.287 24.5645 153.493 24.6924C153.764 24.7067 154.048 24.7209 154.333 24.7067C154.689 24.6782 155.059 24.6498 155.443 24.5787C156.112 24.465 156.753 24.2659 157.308 24.01C159.329 23.1428 160.61 21.5504 160.325 20.0008C160.055 18.4653 158.318 17.4132 156.112 17.2853C155.486 17.2426 154.831 17.2853 154.148 17.399C153.764 17.4701 153.408 17.5554 153.066 17.6549C152.796 17.7402 152.525 17.8397 152.283 17.9535C150.262 18.8349 148.981 20.4273 149.266 21.9627Z" fill="white"/>
<path d="M151.23 21.6215C151.486 23.0432 152.369 24.1664 153.479 24.6924C153.749 24.7067 154.034 24.7209 154.319 24.7067C154.675 24.6782 155.045 24.6498 155.429 24.5787C156.098 24.465 156.739 24.2659 157.294 24.01C158.162 23.1285 158.603 21.7637 158.347 20.3562C158.091 18.9487 157.223 17.8255 156.098 17.2853C155.472 17.2426 154.817 17.2853 154.134 17.399C153.749 17.4701 153.394 17.5554 153.052 17.6549C152.782 17.7402 152.511 17.8397 152.269 17.9535C151.429 18.8349 150.988 20.1998 151.23 21.6215Z" fill="#494A50"/>
<path d="M153.949 25.1472C151.244 25.1472 149.166 23.9103 148.825 22.0479C148.483 20.1286 150.205 18.0955 152.938 17.2425C153.351 17.1145 153.721 17.0292 154.077 16.9723C157.365 16.3894 160.368 17.7116 160.767 19.9295C161.165 22.1901 158.859 24.4222 155.514 25.0193C155.159 25.0904 154.774 25.133 154.362 25.1472C154.219 25.1472 154.077 25.1472 153.949 25.1472ZM155.614 17.7116C155.159 17.7116 154.703 17.7543 154.233 17.8396C153.906 17.8965 153.564 17.9818 153.194 18.0955C150.903 18.8206 149.437 20.4271 149.693 21.9057C149.963 23.3843 151.899 24.3937 154.305 24.28C154.689 24.2516 155.03 24.2231 155.358 24.152C158.176 23.6544 160.212 21.8346 159.898 20.0859C159.642 18.6642 157.82 17.7116 155.614 17.7116Z" fill="#494A50"/>
<path d="M172.054 84.447C171.826 84.447 171.627 84.2622 171.613 84.0347C171.598 83.793 171.784 83.5798 172.025 83.5656C180.295 83.1106 186.43 80.1676 190.259 74.8362C198.614 63.1638 193.291 43.7004 193.234 43.5156C193.162 43.2739 193.305 43.0322 193.547 42.9754C193.789 42.9043 194.031 43.0464 194.088 43.2881C194.145 43.4872 199.596 63.3487 190.985 75.3622C186.999 80.9354 180.637 83.9921 172.082 84.4612C172.068 84.447 172.054 84.447 172.054 84.447Z" fill="#494A50"/>
<path d="M30.771 168.371C28.878 169.907 26.5863 170.675 24.309 170.675C21.3484 170.675 18.4162 169.395 16.3951 166.921C12.0823 161.647 8.65199 156.258 6.11841 150.756C10.0896 145.866 15.8684 142.795 22.3305 142.795C23.2557 142.795 24.1666 142.866 25.0491 142.98C26.8141 146.662 29.2196 150.33 32.2229 153.998C35.7955 158.377 35.1407 164.803 30.771 168.371Z" fill="#FFDDBD"/>
<path d="M16.3951 167.362C16.267 167.362 16.1389 167.305 16.0535 167.206C11.7264 161.889 8.25343 156.429 5.71985 150.941C0.239906 139.098 -1.12652 126.715 1.66327 114.119C1.7202 113.877 1.94794 113.735 2.18991 113.778C2.43189 113.834 2.57422 114.062 2.53152 114.304C-0.215567 126.701 1.12239 138.899 6.51693 150.558C9.00782 155.974 12.4524 161.377 16.7367 166.637C16.8932 166.822 16.8648 167.106 16.6797 167.263C16.5943 167.32 16.4947 167.362 16.3951 167.362Z" fill="#494A50"/>
<path d="M229.757 247.391C228.334 223.492 216.078 189.157 213.232 186.641L127.702 167.689C127.702 167.689 123.361 212.687 118.777 263.67C118.991 263.783 119.204 263.883 119.418 263.997C145.75 277.062 176.993 276.181 202.443 261.48C211.268 256.391 220.42 251.813 229.757 247.391Z" fill="#0B2A60"/>
<path d="M177.918 271.489C177.904 271.489 177.904 271.489 177.89 271.489C177.648 271.475 177.463 271.262 177.477 271.02C178.9 244.718 175.498 212.232 172.04 209.189C171.855 209.033 171.84 208.749 171.997 208.564C172.153 208.379 172.438 208.365 172.623 208.521C176.609 212.019 179.726 245.927 178.359 271.063C178.345 271.319 178.16 271.489 177.918 271.489Z" fill="#494A50"/>
<path d="M226.042 224.373H199.838C199.596 224.373 199.397 224.174 199.397 223.933V215.459C199.397 215.217 199.596 215.018 199.838 215.018H223.893C224.135 215.018 224.334 215.217 224.334 215.459C224.334 215.701 224.135 215.9 223.893 215.9H200.279V223.492H226.042C226.284 223.492 226.483 223.691 226.483 223.933C226.483 224.174 226.284 224.373 226.042 224.373Z" fill="#494A50"/>
<path d="M19.128 40.1891C20.0958 35.341 23.5973 31.4171 29.8601 28.1898C33.5324 26.2847 34.97 21.7778 33.0627 18.0956C32.5076 17.015 31.7247 16.1336 30.7995 15.4654C28.5791 13.873 25.5615 13.546 22.971 14.8825C12.5236 20.285 6.28923 27.8344 4.42462 37.3315C2.56002 46.8286 5.16477 55.5864 8.23923 61.4723C9.12172 63.1642 10.2889 65.2683 11.6411 67.6568C15.9823 65.0408 20.3378 62.496 24.7218 60.0364C21.448 54.8329 17.79 46.9281 19.128 40.1891Z" fill="#F3AE91"/>
<path d="M36.3649 45.1794C39.4109 41.2838 44.3073 39.3503 51.3529 39.265C55.4949 39.2224 58.8113 35.8244 58.7544 31.6872C58.7401 30.4788 58.4412 29.3272 57.9146 28.3177C56.6478 25.9008 54.1 24.2516 51.1821 24.2943C39.4251 24.4364 30.4437 28.3746 24.5083 36.0235C18.5729 43.6723 16.9645 52.6576 17.0499 59.2971C17.0783 61.2022 17.1637 63.6191 17.3061 66.3488C22.359 65.965 27.3977 65.638 32.4222 65.4105C31.8386 59.3113 32.1233 50.5961 36.3649 45.1794Z" fill="#F3AE91"/>
<path d="M17.0356 59.752C16.7936 59.752 16.5943 59.553 16.5943 59.3113C16.5232 54.2357 17.4199 44.4116 24.1524 35.7533C30.1874 27.9907 39.2685 23.9957 51.1678 23.8535C51.4098 23.8535 51.609 24.0526 51.609 24.2943C51.609 24.536 51.4098 24.735 51.1678 24.735C39.5532 24.8772 30.6856 28.7585 24.8356 36.2936C18.2739 44.7386 17.4057 54.3353 17.4626 59.2971C17.4768 59.553 17.2918 59.752 17.0356 59.752Z" fill="#494A50"/>
<path d="M24.7929 60.1785C24.7645 60.1358 24.736 60.079 24.7075 60.0363C20.3236 62.4959 15.9681 65.0408 11.6268 67.6568C20.7648 83.6938 38.6992 112.214 38.6992 112.214L87.5062 109.313C76.219 63.4058 44.2076 58.5577 24.7929 60.1785Z" fill="#F3AE91"/>
<path d="M60.0354 33.9336C58.1993 32.6114 55.7795 32.1281 53.4452 32.8531C42.158 36.3364 34.4149 41.9806 30.4579 49.6721C25.8462 58.629 28.3229 66.7612 28.6218 67.6569L42.8554 62.951L42.8981 63.1074C42.4142 61.3729 40.8342 52.416 57.8719 47.1699C61.8288 45.9472 64.0493 41.7673 62.8252 37.8149C62.3128 36.18 61.3164 34.8436 60.0354 33.9336Z" fill="#F3AE91"/>
<path d="M27.6966 61.7995C27.4546 61.7995 27.2554 61.6005 27.2554 61.3588C27.2127 57.1789 28.1521 53.1839 30.0736 49.4589C34.0875 41.6679 41.916 35.9384 53.3171 32.4267C55.7226 31.6874 58.2562 32.0997 60.2916 33.5783C60.4909 33.7205 60.5336 33.9906 60.3912 34.1896C60.2489 34.3887 59.9784 34.4313 59.7792 34.2892C57.9715 32.9812 55.7084 32.6115 53.5733 33.2655C42.3999 36.7061 34.7565 42.2935 30.8422 49.857C28.9919 53.454 28.0809 57.3069 28.1236 61.3446C28.1378 61.6005 27.9386 61.7995 27.6966 61.7995Z" fill="#494A50"/>
<path d="M68.9741 48.1083C69.9277 52.1317 67.4511 56.1694 63.4229 57.122C58.797 58.2167 56.7474 59.738 56.3773 60.6905C56.1638 61.2592 55.808 63.6193 60.2346 69.7185C61.1029 70.9127 63.3802 74.0689 61.6295 78.0497C59.9642 81.8315 55.5375 83.5376 51.7514 81.8742C50.1999 81.1918 48.9901 80.0402 48.2214 78.6611C48.1787 78.6042 48.136 78.5473 48.0933 78.4905C45.759 75.2632 38.628 65.4391 42.3145 55.487C44.6773 49.1319 50.5985 44.7814 59.9357 42.5635C62.1419 42.0375 64.3481 42.5493 66.0562 43.772C67.4795 44.7814 68.5328 46.2885 68.9741 48.1083Z" fill="#F3AE91"/>
<path d="M43.1828 70.5286C43.012 70.5286 42.8412 70.4291 42.77 70.2585C40.5211 64.8702 40.2364 59.8515 41.9017 55.3304C44.3215 48.8331 50.3423 44.3831 59.8361 42.1226C60.0781 42.0657 60.3058 42.2079 60.3627 42.4496C60.4197 42.6913 60.2773 42.9188 60.0354 42.9756C50.8547 45.1651 45.0331 49.416 42.7273 55.629C41.1331 59.9226 41.4178 64.728 43.5813 69.9031C43.6809 70.1305 43.5671 70.3865 43.3393 70.486C43.2966 70.5144 43.2397 70.5286 43.1828 70.5286Z" fill="#494A50"/>
<path d="M79.8261 80.9701C79.8261 80.9701 72.4389 70.3641 69.9337 69.0419C68.8662 68.4874 63.1016 73.5061 56.6822 80.1313C47.9428 89.145 34.0223 102.253 33.0544 107.172C32.1293 111.893 43.3026 124.034 43.3026 124.034C43.3026 124.034 84.7225 90.453 79.8261 80.9701Z" fill="#0B2A60"/>
<path d="M94.5092 104.863C94.5092 104.863 98.822 91.0015 104.572 84.4758C116.002 71.4955 131.801 65.6095 146.604 74.5664C161.763 83.7365 165.763 103.882 155.301 118.156C140.028 138.985 117.169 166.054 94.3384 177.869C87.2643 181.523 74.4825 180.726 66.8675 174.314C57.4164 166.381 45.574 140.449 42.7131 132.658C41.9017 130.454 38.0729 124.426 40.0798 120.872C45.1897 111.83 67.9208 81.803 79.3504 79.841C86.4387 78.6609 94.5092 104.863 94.5092 104.863Z" fill="#98B7ED"/>
<path d="M105.085 112.071C105.227 116.578 105.668 119.663 105.668 119.663C105.882 125.037 114.934 150.287 122.151 169.665C122.151 169.665 108.515 192.2 130.976 192.939C130.976 192.939 215.381 194.816 216.776 190.095C224.861 162.528 223.779 100.015 200.72 83.7932C192.65 78.1063 176.111 72.3484 158.859 70.0452C153.991 69.3912 149.081 69.0073 144.27 68.9931C131.118 68.9362 118.849 71.538 111.006 78.4191C103.092 85.3998 104.786 103.015 105.085 112.071Z" fill="#98B7ED"/>
<path d="M63.366 84.1487C66.2839 89.6508 69.0452 95.9774 71.4649 102.02C72.9025 105.631 74.212 109.128 75.3649 112.313C76.5463 115.583 77.5569 118.512 78.3255 120.815C78.8664 122.421 79.2934 123.715 79.6066 124.625C80.9872 128.791 82.7237 132.502 85.0438 135.189C88.2321 138.899 92.1179 140.776 95.6194 139.809C96.146 139.653 96.6584 139.454 97.1281 139.184C101.583 136.724 103.619 129.431 102.124 121.298C101.925 119.294 101.299 116.592 100.373 113.45C99.6759 111.076 98.8219 108.446 97.8256 105.659C97.3416 104.309 96.8435 102.915 96.3168 101.508C95.7475 99.9867 95.1639 98.4512 94.5518 96.9016C87.9332 79.8693 78.7668 60.1216 78.7668 60.1216C78.7668 60.1216 54.3276 67.1165 63.366 84.1487Z" fill="#FF9255"/>
<path d="M85.1719 134.876C84.9726 134.876 84.7734 134.861 84.5741 134.833C84.3321 134.805 84.1613 134.577 84.1898 134.335C84.2183 134.094 84.446 133.923 84.688 133.952C85.6701 134.08 86.4245 133.838 86.9938 133.226C89.3139 130.738 87.8478 123.26 87.8336 123.175C87.7909 122.933 87.9475 122.706 88.1752 122.649C88.4172 122.606 88.6449 122.763 88.7019 122.99C88.773 123.317 90.2676 131.009 87.6343 133.809C86.9938 134.534 86.1683 134.876 85.1719 134.876Z" fill="#494A50"/>
<path d="M97.5979 105.503C97.4128 105.503 97.242 105.389 97.1851 105.204C93.8971 96.1054 90.3957 87.7598 90.3672 87.6745C90.2676 87.4471 90.3814 87.1912 90.6092 87.0916C90.8369 86.9921 91.0931 87.1058 91.1927 87.3333C91.2212 87.4186 94.7369 95.7784 98.0391 104.906C98.1245 105.133 97.9964 105.389 97.7687 105.475C97.6975 105.489 97.6548 105.503 97.5979 105.503Z" fill="#494A50"/>
<path d="M61.5298 75.6041C61.5156 75.6041 61.4871 75.6041 61.4729 75.6041C61.2309 75.5756 61.0601 75.3482 61.0886 75.1065C62.1988 66.6614 71.5361 62.638 71.9346 62.4674C72.1624 62.3678 72.4186 62.4816 72.5182 62.7091C72.6178 62.9365 72.504 63.1924 72.2762 63.292C72.1908 63.3346 62.9959 67.3012 61.9569 75.2344C61.9426 75.4477 61.7576 75.6041 61.5298 75.6041Z" fill="#494A50"/>
<path d="M107.083 89.8129C107.083 89.8129 111.752 97.2912 114.385 99.9356C117.645 103.22 124.406 107.158 132.647 107.158C137.501 107.158 142.867 105.779 148.389 102.068C153.257 98.7982 156.303 94.9027 158.111 90.9076C161.527 83.3014 160.388 75.2687 158.438 70.1505C153.57 69.4965 148.66 69.1126 143.849 69.0984L139.266 77.2449L139.18 77.0743C140.632 80.4295 139.906 83.145 136.96 85.1212C132.078 88.4196 129.032 85.6615 128.704 85.3345L121.417 78.1832L107.083 89.8129Z" fill="#0B2A60"/>
<path d="M122.151 170.106C121.98 170.106 121.809 170.007 121.738 169.822C121.083 168.144 105.583 128.62 105.213 119.678C105.199 119.436 105.398 119.223 105.64 119.223C105.868 119.237 106.095 119.407 106.095 119.649C106.465 128.435 122.393 169.097 122.564 169.495C122.649 169.722 122.535 169.978 122.307 170.063C122.265 170.092 122.208 170.106 122.151 170.106Z" fill="#494A50"/>
<path d="M193.504 209.857L154.589 180.286C154.589 180.286 113.981 198.37 100.971 205.464C95.1354 208.649 88.0898 214.478 84.3321 223.392C80.5887 232.321 81.5566 242.059 87.2073 252.367C88.6164 254.926 91.2924 256.334 94.0252 256.248C95.1639 256.206 96.3168 255.907 97.3701 255.324C101 253.334 102.323 248.784 100.331 245.159C96.9431 238.989 96.2172 233.785 98.1245 229.221C100.786 222.824 108.344 218.26 113.981 215.772C129.211 227.913 158.504 241.718 193.504 209.857Z" fill="#F3AE91"/>
<path d="M110.835 261.324C107.348 261.438 104.131 259.092 103.306 255.566C98.0676 233.43 101.968 213.241 102.138 212.388C102.95 208.336 106.892 205.706 110.949 206.502C115.006 207.298 117.639 211.237 116.842 215.288C116.813 215.473 113.44 233.259 117.895 252.111C118.849 256.135 116.358 260.172 112.33 261.125C111.832 261.239 111.333 261.31 110.835 261.324Z" fill="#F3AE91"/>
<path d="M110.593 261.765C106.949 261.765 103.718 259.234 102.879 255.665C97.6121 233.415 101.526 213.156 101.697 212.303C101.74 212.061 101.982 211.905 102.224 211.962C102.466 212.004 102.622 212.246 102.565 212.488C102.395 213.326 98.5088 233.415 103.733 255.466C104.501 258.722 107.49 261.011 110.821 260.883C111.049 260.883 111.276 261.068 111.276 261.31C111.291 261.551 111.091 261.75 110.849 261.765C110.764 261.765 110.679 261.765 110.593 261.765Z" fill="#494A50"/>
<path d="M128.627 257.172C126.364 257.243 124.087 256.305 122.549 254.4C115.119 245.23 111.846 236.23 112.842 227.643C113.995 217.634 120.599 212.26 121.34 211.691L130.52 223.52L130.648 223.421C129.268 224.601 122.976 231.155 134.193 244.988C136.797 248.201 136.299 252.921 133.082 255.509C131.759 256.575 130.193 257.13 128.627 257.172Z" fill="#F3AE91"/>
<path d="M128.357 257.627C125.951 257.627 123.717 256.561 122.194 254.684C114.678 245.415 111.39 236.301 112.387 227.6C112.871 223.449 114.308 219.596 116.685 216.156C116.827 215.957 117.098 215.9 117.297 216.042C117.496 216.184 117.553 216.454 117.411 216.653C115.119 219.98 113.725 223.691 113.269 227.7C112.287 236.159 115.518 245.059 122.877 254.13C124.286 255.864 126.364 256.803 128.599 256.732C128.841 256.732 129.04 256.916 129.054 257.158C129.068 257.4 128.869 257.599 128.627 257.613C128.542 257.627 128.456 257.627 128.357 257.627Z" fill="#494A50"/>
<path d="M139.117 252.353C137.011 252.424 134.904 251.613 133.367 249.95C126.862 242.912 124.357 236.003 125.951 229.406C128.442 219.084 139.829 214.89 143.587 213.511C143.658 213.483 143.715 213.469 143.786 213.44C145.195 212.715 146.832 212.445 148.512 212.729C152.582 213.454 155.301 217.336 154.589 221.402C153.821 225.695 150.163 227.046 148.782 227.544C141.708 230.145 140.683 232.292 140.541 232.889C140.299 233.885 141.167 236.287 144.398 239.77C147.202 242.813 147.017 247.547 143.985 250.348C142.576 251.642 140.854 252.296 139.117 252.353Z" fill="#F3AE91"/>
<path d="M133.353 250.405C133.239 250.405 133.111 250.362 133.025 250.263C126.407 243.111 123.873 236.06 125.51 229.321C126.634 224.643 129.68 220.634 134.548 217.407C134.748 217.279 135.032 217.321 135.16 217.535C135.289 217.734 135.246 218.018 135.032 218.146C130.349 221.245 127.432 225.07 126.364 229.534C124.813 235.974 127.275 242.742 133.68 249.666C133.851 249.85 133.837 250.121 133.652 250.291C133.58 250.362 133.467 250.405 133.353 250.405Z" fill="#494A50"/>
<path d="M160.203 171.249C160.203 171.249 149.115 177.903 147.621 180.32C146.995 181.343 151.62 187.428 157.812 194.267C166.238 203.579 180.429 218.934 185.283 220.228C189.937 221.464 204.399 208.271 204.399 208.271C204.399 208.271 169.996 167.012 160.203 171.249Z" fill="#0B2A60"/>
<path d="M158.247 194.233C158.133 194.233 158.005 194.19 157.92 194.09C153.664 189.385 146.675 181.238 147.686 179.617C149.209 177.144 159.955 170.675 160.411 170.405C160.624 170.277 160.895 170.348 161.023 170.561C161.151 170.774 161.08 171.044 160.866 171.172C157.806 173.006 149.607 178.181 148.44 180.086C148.284 180.74 150.874 184.991 158.589 193.508C158.745 193.692 158.731 193.962 158.56 194.133C158.461 194.19 158.361 194.233 158.247 194.233Z" fill="#211F20"/>
<path d="M189.447 150.856C189.447 150.856 170.075 139.311 164.581 132.587C153.636 119.194 150.419 102.659 161.706 89.5369C173.25 76.1159 193.817 75.4619 206.186 88.1294C224.249 106.598 247.236 133.568 255.15 157.993C257.598 165.571 254.709 178.025 247.136 184.48C237.756 192.484 214 207.725 207.183 212.061C206.058 212.772 204.62 212.743 203.524 211.976C195.027 205.99 159.5 180.158 161.037 167.291C162.219 157.509 189.447 150.856 189.447 150.856Z" fill="#98B7ED"/>
<path d="M205.318 213.682C205.233 213.682 205.147 213.653 205.076 213.611C203.183 212.331 158.831 181.963 160.596 167.263C161.678 158.277 183.242 152.05 188.309 150.714C184.38 148.325 169.093 138.842 164.225 132.885C164.069 132.7 164.097 132.416 164.282 132.26C164.467 132.103 164.752 132.132 164.909 132.317C170.303 138.913 189.462 150.372 189.661 150.486C189.818 150.572 189.903 150.756 189.874 150.927C189.846 151.098 189.718 151.254 189.547 151.297C189.277 151.368 162.603 157.993 161.478 167.362C159.77 181.537 205.119 212.573 205.574 212.886C205.773 213.028 205.83 213.298 205.688 213.497C205.603 213.611 205.46 213.682 205.318 213.682Z" fill="#494A50"/>
<path d="M119.646 45.9751L143.572 66.3626C149.109 70.2581 151.629 77.1819 149.892 83.7076C146.675 95.7354 132.2 100.569 122.393 92.892L116.842 88.4988L119.646 45.9751Z" fill="#F3AE91"/>
<path d="M71.593 61.4009C75.1514 75.0778 85.8409 77.2246 95.9752 74.2248C106.095 71.225 109.981 56.0125 107.462 47.4822C104.942 38.9661 94.6799 34.4734 84.5598 37.4733C74.4255 40.4589 69.3583 52.7994 71.593 61.4009Z" fill="#FFE4CB"/>
<path d="M100.487 70.9976C102.779 75.2912 101.156 80.6369 96.8577 82.9259C92.5592 85.2148 87.2073 83.5941 84.9157 79.3005C82.6241 75.0069 84.2467 69.6612 88.5453 67.3722C92.8581 65.0832 98.1957 66.704 100.487 70.9976Z" fill="#F3AE91"/>
<path d="M120.087 89.2098C119.105 89.7074 118.108 90.1055 117.112 90.4467C107.547 93.6882 98.2526 89.4088 91.9755 80.9638C91.7763 80.6794 91.5628 80.4093 91.3777 80.1108C90.3529 78.6606 89.4277 77.0967 88.6022 75.4191C88.4598 75.1489 88.3317 74.8504 88.2036 74.566C88.0044 74.1395 87.8051 73.6988 87.6201 73.2581C87.3781 72.7036 87.1504 72.1491 86.9368 71.5804C79.1084 50.5958 83.3215 41.4968 97.0285 34.6298C110.735 27.7487 127.773 34.0327 135.103 48.6196C142.434 63.2065 133.794 82.3571 120.087 89.2098Z" fill="#F3AE91"/>
<path d="M93.0858 79.3575C92.5307 79.6703 91.9471 79.9262 91.3777 80.111C90.3529 78.6609 89.4277 77.097 88.6022 75.4194C88.4598 75.1492 88.3317 74.8507 88.2036 74.5663C88.0044 74.1398 87.8051 73.6991 87.6201 73.2583C88.0471 72.8745 88.5452 72.5333 89.0861 72.2347C92.0752 70.5713 95.3916 70.7988 96.5018 72.7607C97.6121 74.7227 96.0748 77.6799 93.0858 79.3575Z" fill="#C65313" fill-opacity="0.3"/>
<path d="M155.457 91.5559C161.649 92.3236 168.41 93.6885 174.758 95.1813C178.53 96.0769 182.174 97.0153 185.433 97.8968C188.793 98.8067 191.767 99.6739 194.102 100.356C195.724 100.84 197.034 101.224 197.959 101.508C202.158 102.759 206.2 103.47 209.73 103.129C214.612 102.645 218.37 100.555 219.58 97.1148C219.765 96.603 219.879 96.0627 219.936 95.5225C220.477 90.4754 215.651 84.6179 208.136 81.1773C206.371 80.1963 203.809 79.1442 200.692 78.1064C198.343 77.3102 195.696 76.4998 192.835 75.7179C191.454 75.334 190.031 74.9501 188.565 74.5663C186.999 74.154 185.391 73.7559 183.768 73.3578C166.005 69.0073 144.555 65.1687 144.555 65.1687C144.555 65.1687 136.299 89.1816 155.457 91.5559Z" fill="#FF9255"/>
<path d="M208.876 103.427C208.777 103.427 208.663 103.385 208.577 103.314C208.392 103.143 208.378 102.873 208.549 102.688C209.218 101.963 209.446 101.209 209.275 100.385C208.577 97.0722 201.589 93.9586 201.517 93.9302C201.29 93.8307 201.19 93.5748 201.29 93.3473C201.389 93.1198 201.646 93.0203 201.873 93.1198C202.172 93.2478 209.346 96.4466 210.143 100.2C210.371 101.295 210.058 102.333 209.204 103.271C209.104 103.385 208.99 103.427 208.876 103.427Z" fill="#494A50"/>
<path d="M200.137 78.3622C200.08 78.3622 200.037 78.348 199.98 78.3338C194.045 76.0875 171.627 71.0119 171.413 70.9693L171.129 70.9124L171.072 70.628C170.517 67.8272 169.093 58.4012 169.079 58.3017C169.036 58.06 169.207 57.8325 169.449 57.8041C169.691 57.7757 169.919 57.9321 169.947 58.1737C169.962 58.2591 171.285 67.088 171.869 70.1731C174.602 70.7987 194.571 75.3624 200.279 77.5092C200.507 77.5945 200.621 77.8504 200.535 78.0779C200.478 78.2485 200.308 78.3622 200.137 78.3622Z" fill="#494A50"/>
<path d="M133.367 32.6111C133.367 32.6111 149.437 66.0216 146.618 69.4337C141.267 75.931 130.606 57.5481 130.606 57.5481L133.367 32.6111Z" fill="#FFE4CB"/>
<path d="M97.8398 59.3679C98.5657 60.7754 89.385 65.5524 88.6449 64.1449C87.9047 62.7374 90.7372 59.3679 93.2708 58.0457C95.8044 56.7235 97.0996 57.9604 97.8398 59.3679Z" fill="#2F3036"/>
<path d="M110.778 91.9395C101.896 91.9395 93.3277 85.954 88.2036 75.6181C88.0898 75.4048 88.1894 75.1347 88.4029 75.021C88.6164 74.9072 88.8869 75.0068 89.0007 75.22C95.1639 87.6459 106.408 93.5887 116.984 90.0059C117.923 89.6932 118.906 89.2951 119.902 88.7975C124.998 86.2384 129.567 81.8452 132.755 76.4143C132.883 76.201 133.153 76.1299 133.367 76.2579C133.58 76.3858 133.652 76.656 133.523 76.8692C130.25 82.4424 125.553 86.9777 120.3 89.5936C119.261 90.1055 118.251 90.532 117.269 90.8448C115.105 91.584 112.942 91.9395 110.778 91.9395Z" fill="#2F3036"/>
<path d="M104.288 56.0414C105.014 57.4489 114.223 52.7145 113.497 51.307C112.771 49.8995 108.387 50.2407 105.839 51.5487C103.305 52.8567 103.562 54.6196 104.288 56.0414Z" fill="#2F3036"/>
<path d="M114.792 59.0268C114.721 59.1548 114.635 59.2543 114.55 59.3538C114.465 59.4533 114.394 59.5244 114.322 59.6097C114.237 59.695 114.166 59.7803 114.066 59.8514C113.981 59.9367 113.895 60.022 113.796 60.0931C113.44 60.4059 113.041 60.6902 112.572 60.9319C112.429 61.0599 112.244 61.131 112.073 61.2305C112.059 61.2305 112.059 61.2447 112.045 61.2447H112.031C111.476 61.5433 110.906 61.7139 110.38 61.856C110.081 61.9556 109.782 62.0124 109.483 62.0409C109.326 62.0693 109.184 62.0693 109.027 62.0835C108.615 62.0977 108.23 62.0835 107.889 62.0124C107.319 61.8703 106.864 61.6001 106.65 61.1736C106.352 60.5765 106.565 59.7803 107.134 59.0126C107.206 58.9131 107.262 58.842 107.334 58.7425C107.661 58.3302 108.074 57.9605 108.558 57.6193C108.544 57.6051 108.572 57.5909 108.572 57.5909C108.615 57.5482 108.672 57.5198 108.714 57.4913C108.885 57.3492 109.099 57.2497 109.284 57.1217C109.298 57.1075 109.298 57.1075 109.312 57.1075C109.469 56.9937 109.668 56.9084 109.839 56.8089C109.995 56.7094 110.195 56.6383 110.38 56.5672C110.508 56.5104 110.622 56.4535 110.764 56.4108C111.02 56.3113 111.276 56.2544 111.547 56.1834C111.76 56.1123 111.96 56.0696 112.173 56.0554C112.415 55.9985 112.657 55.9701 112.871 55.9559C114.023 55.8706 114.934 56.1834 115.262 56.8658C115.532 57.4629 115.361 58.2449 114.792 59.0268Z" fill="white"/>
<path d="M100.103 66.2634C100.103 66.2777 100.103 66.2777 100.103 66.2634C100.046 66.363 100.003 66.4341 99.9463 66.5051C99.7898 66.7468 99.5763 66.9885 99.3343 67.2302C99.3058 67.2302 99.3058 67.2587 99.2774 67.2729C99.2204 67.3155 99.1493 67.3866 99.1066 67.4293C98.7507 67.742 98.3095 68.0406 97.8398 68.3249C97.6832 68.4387 97.4982 68.4956 97.3416 68.6093C97.2989 68.6235 97.2704 68.6519 97.2277 68.6662C96.6726 68.9363 96.1033 69.1353 95.5482 69.2633C95.2635 69.3344 94.993 69.377 94.7226 69.4055C94.5091 69.4197 94.2814 69.4481 94.0963 69.4339C93.8686 69.4339 93.6408 69.4055 93.4558 69.377C92.8011 69.2491 92.3029 68.9505 92.0609 68.5098C91.7478 67.8416 91.9755 66.9885 92.6303 66.1639C92.616 66.1497 92.6303 66.1355 92.6303 66.1355C92.673 66.0928 92.7157 66.036 92.7584 65.9933C93.0857 65.581 93.5412 65.1829 94.0536 64.8133C94.0821 64.7849 94.1106 64.7706 94.1533 64.7564C94.2956 64.6285 94.4522 64.5574 94.6087 64.4579C94.6087 64.4436 94.623 64.4436 94.6372 64.4579C94.7938 64.3299 94.9646 64.2588 95.1212 64.1735C95.292 64.0882 95.477 64.0029 95.6336 63.946C95.8755 63.8465 96.1317 63.7612 96.3737 63.6901C96.5018 63.6333 96.6157 63.6048 96.7438 63.5622C96.9431 63.5195 97.1708 63.4769 97.3558 63.4342C97.5978 63.4058 97.8113 63.3631 98.039 63.3631C99.1635 63.292 100.074 63.6048 100.402 64.3157C100.672 64.8844 100.516 65.581 100.103 66.2634Z" fill="white"/>
<path d="M80.4748 40.5159C80.4748 40.5159 92.3029 58.4154 126.606 53.9939C126.606 53.9939 134.918 50.4111 136.029 47.8378C138.989 40.9993 135.217 23.7254 121.041 20.9388C116.514 20.0573 108.885 21.607 102.736 24.2088C96.2172 26.9527 88.7872 32.0851 80.4748 40.5159Z" fill="#FFE4CB"/>
<path d="M116.201 55.1169C89.9401 55.1169 80.2044 40.9139 80.1047 40.7433C79.9766 40.5442 80.0335 40.2599 80.2328 40.1319C80.4321 39.9898 80.7168 40.0466 80.8449 40.2599C80.9587 40.4305 92.9434 57.875 126.549 53.5388C126.791 53.5104 127.019 53.681 127.047 53.9226C127.076 54.1643 126.905 54.3918 126.663 54.4202C122.919 54.9036 119.432 55.1169 116.201 55.1169Z" fill="#D1B8A1"/>
<path d="M133.059 64.0382C137.736 62.6702 140.417 57.7738 139.048 53.1018C137.678 48.4298 132.776 45.7513 128.099 47.1193C123.422 48.4872 120.74 53.3836 122.11 58.0556C123.479 62.7277 128.381 65.4061 133.059 64.0382Z" fill="#F3AE91"/>
<path d="M125.481 53.7805C125.41 53.7805 125.353 53.7663 125.282 53.7378C125.069 53.6241 124.983 53.3682 125.083 53.1407C125.14 53.0412 126.407 50.5674 128.997 49.7854C130.62 49.3021 132.385 49.5864 134.235 50.6527C134.449 50.7806 134.52 51.0508 134.392 51.2498C134.264 51.4631 133.993 51.5342 133.794 51.4062C132.171 50.4679 130.634 50.212 129.253 50.6243C127.019 51.2925 125.88 53.5104 125.866 53.5388C125.809 53.6952 125.652 53.7805 125.481 53.7805Z" fill="#2F3036"/>
<path d="M113.724 65.9647C114.479 68.0831 117.724 68.8793 120.941 67.7277C124.172 66.5761 126.165 63.9174 125.41 61.7991C124.656 59.6807 121.411 58.8845 118.194 60.0361C114.963 61.1877 112.956 63.8464 113.724 65.9647Z" fill="#C65313" fill-opacity="0.3"/>
<path d="M98.765 43.8428C94.6231 43.8428 90.7373 43.0466 87.4493 41.4685C87.2358 41.369 87.1362 41.0989 87.25 40.8856C87.3497 40.6724 87.6201 40.5729 87.8336 40.6866C95.7475 44.511 105.925 42.8903 112.814 40.1179C119.361 37.4735 124.343 33.3505 125.809 29.3697C125.894 29.1422 126.151 29.0285 126.378 29.1138C126.606 29.1991 126.72 29.455 126.634 29.6825C125.069 33.9476 120.016 38.1559 113.141 40.9425C108.33 42.8618 103.391 43.8428 98.765 43.8428Z" fill="#D1B8A1"/>
<path d="M102.807 73.7843C102.793 73.7843 102.779 73.7843 102.765 73.7843C101.911 73.699 101.398 73.372 101.227 72.8175C100.758 71.2963 103.661 68.6234 104.743 67.6993L101.768 62.0693C101.654 61.856 101.74 61.5859 101.953 61.4722C102.167 61.3584 102.437 61.4437 102.551 61.657L105.853 67.9126L105.583 68.1401C103.718 69.6897 101.839 71.8223 102.067 72.5616C102.138 72.8033 102.594 72.8886 102.85 72.917C103.092 72.9455 103.263 73.1587 103.249 73.4004C103.234 73.6137 103.035 73.7843 102.807 73.7843Z" fill="#2F3036"/>
<path d="M108.729 77.694C108.558 77.694 108.387 77.5945 108.316 77.4239C108.216 77.1964 108.33 76.9405 108.544 76.841C108.586 76.8268 113.013 74.879 114.963 70.6423C115.063 70.4148 115.333 70.3295 115.546 70.429C115.774 70.5285 115.86 70.7986 115.76 71.0119C113.668 75.5756 109.07 77.5803 108.885 77.6656C108.842 77.6798 108.785 77.694 108.729 77.694Z" fill="#2F3036"/>
<path d="M100.103 66.2634C100.103 66.2777 100.103 66.2777 100.103 66.2634C100.046 66.363 100.003 66.4341 99.9464 66.5051C99.7898 66.7468 99.5763 66.9885 99.3344 67.2302C99.3059 67.2302 99.3059 67.2587 99.2774 67.2729C99.2205 67.3155 99.1493 67.3866 99.1066 67.4293C98.7508 67.742 98.3095 68.0406 97.8398 68.3249C97.6833 68.4387 97.4982 68.4956 97.3416 68.6093C97.2989 68.6235 97.2705 68.6519 97.2278 68.6662C95.477 68.197 94.196 66.6189 94.1533 64.7564C94.2957 64.6285 94.4522 64.5574 94.6088 64.4579C94.6088 64.4436 94.623 64.4436 94.6373 64.4579C94.7938 64.3299 94.9646 64.2588 95.1212 64.1735C95.292 64.0882 95.477 64.0029 95.6336 63.946C95.8756 63.8465 96.1318 63.7612 96.3738 63.6901C96.5019 63.6333 96.6157 63.6048 96.7438 63.5622C96.9431 63.5195 97.1708 63.4769 97.3559 63.4342C97.5979 63.4058 97.8114 63.3631 98.0391 63.3631C99.1635 63.292 100.075 63.6048 100.402 64.3157C100.672 64.8844 100.516 65.581 100.103 66.2634Z" fill="#2F3036"/>
<path d="M114.792 59.0268C114.721 59.1548 114.635 59.2543 114.55 59.3538C114.465 59.4533 114.394 59.5244 114.322 59.6097C114.237 59.695 114.166 59.7803 114.066 59.8514C113.981 59.9367 113.895 60.022 113.796 60.0931C113.44 60.4059 113.041 60.6902 112.572 60.9319C112.429 61.0599 112.244 61.131 112.073 61.2305C112.059 61.2305 112.059 61.2447 112.045 61.2447H112.031C110.237 60.875 108.857 59.3538 108.714 57.4913C108.885 57.3492 109.099 57.2497 109.284 57.1217C109.298 57.1075 109.298 57.1075 109.312 57.1075C109.469 56.9937 109.668 56.9084 109.839 56.8089C109.995 56.7094 110.195 56.6383 110.38 56.5672C110.508 56.5104 110.622 56.4535 110.764 56.4108C111.02 56.3113 111.276 56.2544 111.547 56.1834C111.76 56.1123 111.96 56.0696 112.173 56.0554C112.415 55.9985 112.657 55.9701 112.871 55.9559C114.023 55.8706 114.934 56.1834 115.262 56.8658C115.532 57.4629 115.361 58.2449 114.792 59.0268Z" fill="#2F3036"/>
</svg>
