<svg width="73" height="72" viewBox="0 0 73 72" fill="none" xmlns="http://www.w3.org/2000/svg">
<g filter="url(#filter0_d_306_9375)">
<rect x="4.5" y="1" width="64" height="64" rx="16" fill="white" shape-rendering="crispEdges"/>
<g clip-path="url(#clip0_306_9375)">
<path d="M18.5 28.5H27.5V48H18.5C18.1022 48 17.7206 47.842 17.4393 47.5607C17.158 47.2794 17 46.8978 17 46.5V30C17 29.6022 17.158 29.2206 17.4393 28.9393C17.7206 28.658 18.1022 28.5 18.5 28.5Z" stroke="#275FC4" stroke-width="1.5" stroke-linecap="round" stroke-linejoin="round"/>
<path d="M27.5 28.5L35 13.5C36.5913 13.5 38.1174 14.1321 39.2426 15.2574C40.3679 16.3826 41 17.9087 41 19.5V24H53C53.4256 24.0001 53.8462 24.0908 54.234 24.2659C54.6219 24.4411 54.968 24.6968 55.2494 25.016C55.5309 25.3352 55.7412 25.7106 55.8664 26.1174C55.9916 26.5241 56.0288 26.9528 55.9756 27.375L53.7256 45.375C53.6343 46.0998 53.2816 46.7664 52.7338 47.2497C52.1859 47.733 51.4806 47.9998 50.75 48H27.5" stroke="#275FC4" stroke-width="1.5" stroke-linecap="round" stroke-linejoin="round"/>
</g>
</g>
<defs>
<filter id="filter0_d_306_9375" x="0.5" y="0" width="72" height="72" filterUnits="userSpaceOnUse" color-interpolation-filters="sRGB">
<feFlood flood-opacity="0" result="BackgroundImageFix"/>
<feColorMatrix in="SourceAlpha" type="matrix" values="0 0 0 0 0 0 0 0 0 0 0 0 0 0 0 0 0 0 127 0" result="hardAlpha"/>
<feOffset dy="3"/>
<feGaussianBlur stdDeviation="2"/>
<feComposite in2="hardAlpha" operator="out"/>
<feColorMatrix type="matrix" values="0 0 0 0 0.133316 0 0 0 0 0.324745 0 0 0 0 0.67 0 0 0 0.1 0"/>
<feBlend mode="normal" in2="BackgroundImageFix" result="effect1_dropShadow_306_9375"/>
<feBlend mode="normal" in="SourceGraphic" in2="effect1_dropShadow_306_9375" result="shape"/>
</filter>
<clipPath id="clip0_306_9375">
<rect width="48" height="48" fill="white" transform="translate(12.5 9)"/>
</clipPath>
</defs>
</svg>
